solid OpenSCAD_Model
  facet normal -0.34202 0 -0.939693
    outer loop
      vertex -89.5265 0 34.7133
      vertex -88.4792 10.6035 34.3321
      vertex -88.4792 -10.6035 34.3321
    endloop
  endfacet
  facet normal -0.34202 0 -0.939693
    outer loop
      vertex -88.4792 -10.6035 34.3321
      vertex -88.4792 10.6035 34.3321
      vertex -85.3832 20.7436 33.2053
    endloop
  endfacet
  facet normal -0.34202 0 -0.939693
    outer loop
      vertex -88.4792 -10.6035 34.3321
      vertex -85.3832 20.7436 33.2053
      vertex -80.3737 29.977 31.382
    endloop
  endfacet
  facet normal -0.34202 0 -0.939693
    outer loop
      vertex -88.4792 -10.6035 34.3321
      vertex -80.3737 29.977 31.382
      vertex -73.6698 37.9004 28.942
    endloop
  endfacet
  facet normal -0.34202 0 -0.939693
    outer loop
      vertex -88.4792 -10.6035 34.3321
      vertex -73.6698 37.9004 28.942
      vertex -65.5643 44.1673 25.9918
    endloop
  endfacet
  facet normal -0.34202 0 -0.939693
    outer loop
      vertex -88.4792 -10.6035 34.3321
      vertex -65.5643 44.1673 25.9918
      vertex -56.4116 48.5039 22.6605
    endloop
  endfacet
  facet normal -0.34202 0 -0.939693
    outer loop
      vertex -88.4792 -10.6035 34.3321
      vertex -56.4116 48.5039 22.6605
      vertex -46.6116 50.7206 19.0936
    endloop
  endfacet
  facet normal -0.34202 0 -0.939693
    outer loop
      vertex -88.4792 -10.6035 34.3321
      vertex -46.6116 50.7206 19.0936
      vertex -36.5927 50.7206 15.447
    endloop
  endfacet
  facet normal -0.34202 0 -0.939693
    outer loop
      vertex -88.4792 -10.6035 34.3321
      vertex -36.5927 50.7206 15.447
      vertex -26.7927 48.5039 11.8801
    endloop
  endfacet
  facet normal -0.34202 0 -0.939693
    outer loop
      vertex -88.4792 -10.6035 34.3321
      vertex -26.7927 48.5039 11.8801
      vertex -17.64 44.1673 8.54878
    endloop
  endfacet
  facet normal -0.34202 0 -0.939693
    outer loop
      vertex -88.4792 -10.6035 34.3321
      vertex -17.64 44.1673 8.54878
      vertex -9.5345 37.9004 5.59863
    endloop
  endfacet
  facet normal -0.34202 0 -0.939693
    outer loop
      vertex -88.4792 -10.6035 34.3321
      vertex -9.5345 37.9004 5.59863
      vertex -2.83054 29.977 3.15859
    endloop
  endfacet
  facet normal -0.34202 0 -0.939693
    outer loop
      vertex -88.4792 -10.6035 34.3321
      vertex -2.83054 29.977 3.15859
      vertex 2.17892 20.7436 1.33529
    endloop
  endfacet
  facet normal -0.34202 0 -0.939693
    outer loop
      vertex -88.4792 -10.6035 34.3321
      vertex 2.17892 20.7436 1.33529
      vertex 5.27493 10.6035 0.208436
    endloop
  endfacet
  facet normal -0.34202 0 -0.939693
    outer loop
      vertex -88.4792 -10.6035 34.3321
      vertex 5.27493 10.6035 0.208436
      vertex 6.3222 0 -0.172736
    endloop
  endfacet
  facet normal -0.34202 0 -0.939693
    outer loop
      vertex -88.4792 -10.6035 34.3321
      vertex 6.3222 0 -0.172736
      vertex 5.27493 -10.6035 0.208436
    endloop
  endfacet
  facet normal -0.34202 0 -0.939693
    outer loop
      vertex -88.4792 -10.6035 34.3321
      vertex 5.27493 -10.6035 0.208436
      vertex 2.17892 -20.7436 1.33529
    endloop
  endfacet
  facet normal -0.34202 0 -0.939693
    outer loop
      vertex -88.4792 -10.6035 34.3321
      vertex 2.17892 -20.7436 1.33529
      vertex -2.83054 -29.977 3.15859
    endloop
  endfacet
  facet normal -0.34202 0 -0.939693
    outer loop
      vertex -88.4792 -10.6035 34.3321
      vertex -2.83054 -29.977 3.15859
      vertex -9.5345 -37.9004 5.59863
    endloop
  endfacet
  facet normal -0.34202 0 -0.939693
    outer loop
      vertex -88.4792 -10.6035 34.3321
      vertex -9.5345 -37.9004 5.59863
      vertex -17.64 -44.1673 8.54878
    endloop
  endfacet
  facet normal -0.34202 0 -0.939693
    outer loop
      vertex -88.4792 -10.6035 34.3321
      vertex -17.64 -44.1673 8.54878
      vertex -26.7927 -48.5039 11.8801
    endloop
  endfacet
  facet normal -0.34202 0 -0.939693
    outer loop
      vertex -88.4792 -10.6035 34.3321
      vertex -26.7927 -48.5039 11.8801
      vertex -36.5927 -50.7206 15.447
    endloop
  endfacet
  facet normal -0.34202 0 -0.939693
    outer loop
      vertex -88.4792 -10.6035 34.3321
      vertex -36.5927 -50.7206 15.447
      vertex -46.6116 -50.7206 19.0936
    endloop
  endfacet
  facet normal -0.34202 0 -0.939693
    outer loop
      vertex -88.4792 -10.6035 34.3321
      vertex -46.6116 -50.7206 19.0936
      vertex -56.4116 -48.5039 22.6605
    endloop
  endfacet
  facet normal -0.34202 0 -0.939693
    outer loop
      vertex -88.4792 -10.6035 34.3321
      vertex -56.4116 -48.5039 22.6605
      vertex -65.5643 -44.1673 25.9918
    endloop
  endfacet
  facet normal -0.34202 0 -0.939693
    outer loop
      vertex -88.4792 -10.6035 34.3321
      vertex -65.5643 -44.1673 25.9918
      vertex -73.6698 -37.9004 28.942
    endloop
  endfacet
  facet normal -0.34202 0 -0.939693
    outer loop
      vertex -88.4792 -10.6035 34.3321
      vertex -73.6698 -37.9004 28.942
      vertex -80.3737 -29.977 31.382
    endloop
  endfacet
  facet normal -0.34202 0 -0.939693
    outer loop
      vertex -88.4792 -10.6035 34.3321
      vertex -80.3737 -29.977 31.382
      vertex -85.3832 -20.7436 33.2053
    endloop
  endfacet
  facet normal -0.934545 0.104528 0.340147
    outer loop
      vertex -89.5265 0 34.7133
      vertex -45.4059 0 155.934
      vertex -88.4792 10.6035 34.3321
    endloop
  endfacet
  facet normal -0.934545 0.104528 0.340147
    outer loop
      vertex -88.4792 10.6035 34.3321
      vertex -45.4059 0 155.934
      vertex -44.3586 10.6035 155.552
    endloop
  endfacet
  facet normal -0.934545 -0.104528 0.340147
    outer loop
      vertex -89.5265 0 34.7133
      vertex -88.4792 -10.6035 34.3321
      vertex -45.4059 0 155.934
    endloop
  endfacet
  facet normal -0.934545 -0.104528 0.340147
    outer loop
      vertex -45.4059 0 155.934
      vertex -88.4792 -10.6035 34.3321
      vertex -44.3586 -10.6035 155.552
    endloop
  endfacet
  facet normal -0.893701 -0.309017 0.32528
    outer loop
      vertex -88.4792 -10.6035 34.3321
      vertex -85.3832 -20.7436 33.2053
      vertex -44.3586 -10.6035 155.552
    endloop
  endfacet
  facet normal -0.893701 -0.309017 0.32528
    outer loop
      vertex -44.3586 -10.6035 155.552
      vertex -85.3832 -20.7436 33.2053
      vertex -41.2626 -20.7436 154.426
    endloop
  endfacet
  facet normal -0.813798 -0.5 0.296198
    outer loop
      vertex -85.3832 -20.7436 33.2053
      vertex -80.3737 -29.977 31.382
      vertex -41.2626 -20.7436 154.426
    endloop
  endfacet
  facet normal -0.813798 -0.5 0.296198
    outer loop
      vertex -41.2626 -20.7436 154.426
      vertex -80.3737 -29.977 31.382
      vertex -36.2531 -29.977 152.602
    endloop
  endfacet
  facet normal -0.698328 -0.669131 0.25417
    outer loop
      vertex -80.3737 -29.977 31.382
      vertex -73.6698 -37.9004 28.942
      vertex -36.2531 -29.977 152.602
    endloop
  endfacet
  facet normal -0.698328 -0.669131 0.25417
    outer loop
      vertex -36.2531 -29.977 152.602
      vertex -73.6698 -37.9004 28.942
      vertex -29.5492 -37.9004 150.162
    endloop
  endfacet
  facet normal -0.552337 -0.809017 0.201034
    outer loop
      vertex -29.5492 -37.9004 150.162
      vertex -73.6698 -37.9004 28.942
      vertex -65.5643 -44.1673 25.9918
    endloop
  endfacet
  facet normal -0.552337 -0.809017 0.201034
    outer loop
      vertex -21.4437 -44.1673 147.212
      vertex -29.5492 -37.9004 150.162
      vertex -65.5643 -44.1673 25.9918
    endloop
  endfacet
  facet normal -0.382207 -0.913545 0.139112
    outer loop
      vertex -21.4437 -44.1673 147.212
      vertex -65.5643 -44.1673 25.9918
      vertex -56.4116 -48.5039 22.6605
    endloop
  endfacet
  facet normal -0.382207 -0.913545 0.139112
    outer loop
      vertex -12.291 -48.5039 143.881
      vertex -21.4437 -44.1673 147.212
      vertex -56.4116 -48.5039 22.6605
    endloop
  endfacet
  facet normal -0.195373 -0.978148 0.07111
    outer loop
      vertex -12.291 -48.5039 143.881
      vertex -56.4116 -48.5039 22.6605
      vertex -46.6116 -50.7206 19.0936
    endloop
  endfacet
  facet normal -0.195373 -0.978148 0.07111
    outer loop
      vertex -2.49099 -50.7206 140.314
      vertex -12.291 -48.5039 143.881
      vertex -46.6116 -50.7206 19.0936
    endloop
  endfacet
  facet normal 0 -1 0
    outer loop
      vertex -2.49099 -50.7206 140.314
      vertex -46.6116 -50.7206 19.0936
      vertex -36.5927 -50.7206 15.447
    endloop
  endfacet
  facet normal 0 -1 0
    outer loop
      vertex 7.52793 -50.7206 136.667
      vertex -2.49099 -50.7206 140.314
      vertex -36.5927 -50.7206 15.447
    endloop
  endfacet
  facet normal 0.195373 -0.978148 -0.07111
    outer loop
      vertex 7.52793 -50.7206 136.667
      vertex -36.5927 -50.7206 15.447
      vertex -26.7927 -48.5039 11.8801
    endloop
  endfacet
  facet normal 0.195373 -0.978148 -0.07111
    outer loop
      vertex 17.3279 -48.5039 133.1
      vertex 7.52793 -50.7206 136.667
      vertex -26.7927 -48.5039 11.8801
    endloop
  endfacet
  facet normal 0.382207 -0.913545 -0.139112
    outer loop
      vertex 17.3279 -48.5039 133.1
      vertex -26.7927 -48.5039 11.8801
      vertex -17.64 -44.1673 8.54878
    endloop
  endfacet
  facet normal 0.382207 -0.913545 -0.139112
    outer loop
      vertex 26.4806 -44.1673 129.769
      vertex 17.3279 -48.5039 133.1
      vertex -17.64 -44.1673 8.54878
    endloop
  endfacet
  facet normal 0.552337 -0.809017 -0.201034
    outer loop
      vertex 26.4806 -44.1673 129.769
      vertex -17.64 -44.1673 8.54878
      vertex -9.5345 -37.9004 5.59863
    endloop
  endfacet
  facet normal 0.552337 -0.809017 -0.201034
    outer loop
      vertex 34.5861 -37.9004 126.819
      vertex 26.4806 -44.1673 129.769
      vertex -9.5345 -37.9004 5.59863
    endloop
  endfacet
  facet normal 0.698328 -0.669131 -0.25417
    outer loop
      vertex 34.5861 -37.9004 126.819
      vertex -9.5345 -37.9004 5.59863
      vertex -2.83054 -29.977 3.15859
    endloop
  endfacet
  facet normal 0.698328 -0.669131 -0.25417
    outer loop
      vertex 41.2901 -29.977 124.379
      vertex 34.5861 -37.9004 126.819
      vertex -2.83054 -29.977 3.15859
    endloop
  endfacet
  facet normal 0.813798 -0.5 -0.296198
    outer loop
      vertex 41.2901 -29.977 124.379
      vertex -2.83054 -29.977 3.15859
      vertex 2.17892 -20.7436 1.33529
    endloop
  endfacet
  facet normal 0.813798 -0.5 -0.296198
    outer loop
      vertex 46.2995 -20.7436 122.556
      vertex 41.2901 -29.977 124.379
      vertex 2.17892 -20.7436 1.33529
    endloop
  endfacet
  facet normal 0.893701 -0.309017 -0.32528
    outer loop
      vertex 46.2995 -20.7436 122.556
      vertex 2.17892 -20.7436 1.33529
      vertex 5.27493 -10.6035 0.208436
    endloop
  endfacet
  facet normal 0.893701 -0.309017 -0.32528
    outer loop
      vertex 49.3955 -10.6035 121.429
      vertex 46.2995 -20.7436 122.556
      vertex 5.27493 -10.6035 0.208436
    endloop
  endfacet
  facet normal 0.934545 -0.104528 -0.340147
    outer loop
      vertex 49.3955 -10.6035 121.429
      vertex 5.27493 -10.6035 0.208436
      vertex 6.3222 0 -0.172736
    endloop
  endfacet
  facet normal 0.934545 -0.104528 -0.340147
    outer loop
      vertex 50.4428 0 121.048
      vertex 49.3955 -10.6035 121.429
      vertex 6.3222 0 -0.172736
    endloop
  endfacet
  facet normal 0.934545 0.104528 -0.340147
    outer loop
      vertex 6.3222 0 -0.172736
      vertex 5.27493 10.6035 0.208436
      vertex 49.3955 10.6035 121.429
    endloop
  endfacet
  facet normal 0.934545 0.104528 -0.340147
    outer loop
      vertex 50.4428 0 121.048
      vertex 6.3222 0 -0.172736
      vertex 49.3955 10.6035 121.429
    endloop
  endfacet
  facet normal 0.893701 0.309017 -0.32528
    outer loop
      vertex 5.27493 10.6035 0.208436
      vertex 2.17892 20.7436 1.33529
      vertex 46.2995 20.7436 122.556
    endloop
  endfacet
  facet normal 0.893701 0.309017 -0.32528
    outer loop
      vertex 49.3955 10.6035 121.429
      vertex 5.27493 10.6035 0.208436
      vertex 46.2995 20.7436 122.556
    endloop
  endfacet
  facet normal 0.813798 0.5 -0.296198
    outer loop
      vertex 2.17892 20.7436 1.33529
      vertex -2.83054 29.977 3.15859
      vertex 41.2901 29.977 124.379
    endloop
  endfacet
  facet normal 0.813798 0.5 -0.296198
    outer loop
      vertex 46.2995 20.7436 122.556
      vertex 2.17892 20.7436 1.33529
      vertex 41.2901 29.977 124.379
    endloop
  endfacet
  facet normal 0.698328 0.669131 -0.25417
    outer loop
      vertex -2.83054 29.977 3.15859
      vertex -9.5345 37.9004 5.59863
      vertex 34.5861 37.9004 126.819
    endloop
  endfacet
  facet normal 0.698328 0.669131 -0.25417
    outer loop
      vertex 41.2901 29.977 124.379
      vertex -2.83054 29.977 3.15859
      vertex 34.5861 37.9004 126.819
    endloop
  endfacet
  facet normal 0.552337 0.809017 -0.201034
    outer loop
      vertex -17.64 44.1673 8.54878
      vertex 26.4806 44.1673 129.769
      vertex -9.5345 37.9004 5.59863
    endloop
  endfacet
  facet normal 0.552337 0.809017 -0.201034
    outer loop
      vertex -9.5345 37.9004 5.59863
      vertex 26.4806 44.1673 129.769
      vertex 34.5861 37.9004 126.819
    endloop
  endfacet
  facet normal 0.382207 0.913545 -0.139112
    outer loop
      vertex -26.7927 48.5039 11.8801
      vertex 17.3279 48.5039 133.1
      vertex -17.64 44.1673 8.54878
    endloop
  endfacet
  facet normal 0.382207 0.913545 -0.139112
    outer loop
      vertex -17.64 44.1673 8.54878
      vertex 17.3279 48.5039 133.1
      vertex 26.4806 44.1673 129.769
    endloop
  endfacet
  facet normal 0.195373 0.978148 -0.07111
    outer loop
      vertex -36.5927 50.7206 15.447
      vertex 7.52793 50.7206 136.667
      vertex -26.7927 48.5039 11.8801
    endloop
  endfacet
  facet normal 0.195373 0.978148 -0.07111
    outer loop
      vertex -26.7927 48.5039 11.8801
      vertex 7.52793 50.7206 136.667
      vertex 17.3279 48.5039 133.1
    endloop
  endfacet
  facet normal 0 1 0
    outer loop
      vertex -46.6116 50.7206 19.0936
      vertex -2.49099 50.7206 140.314
      vertex -36.5927 50.7206 15.447
    endloop
  endfacet
  facet normal 0 1 0
    outer loop
      vertex -36.5927 50.7206 15.447
      vertex -2.49099 50.7206 140.314
      vertex 7.52793 50.7206 136.667
    endloop
  endfacet
  facet normal -0.195373 0.978148 0.07111
    outer loop
      vertex -56.4116 48.5039 22.6605
      vertex -12.291 48.5039 143.881
      vertex -46.6116 50.7206 19.0936
    endloop
  endfacet
  facet normal -0.195373 0.978148 0.07111
    outer loop
      vertex -46.6116 50.7206 19.0936
      vertex -12.291 48.5039 143.881
      vertex -2.49099 50.7206 140.314
    endloop
  endfacet
  facet normal -0.382207 0.913545 0.139112
    outer loop
      vertex -65.5643 44.1673 25.9918
      vertex -21.4437 44.1673 147.212
      vertex -56.4116 48.5039 22.6605
    endloop
  endfacet
  facet normal -0.382207 0.913545 0.139112
    outer loop
      vertex -56.4116 48.5039 22.6605
      vertex -21.4437 44.1673 147.212
      vertex -12.291 48.5039 143.881
    endloop
  endfacet
  facet normal -0.552337 0.809017 0.201034
    outer loop
      vertex -73.6698 37.9004 28.942
      vertex -29.5492 37.9004 150.162
      vertex -65.5643 44.1673 25.9918
    endloop
  endfacet
  facet normal -0.552337 0.809017 0.201034
    outer loop
      vertex -65.5643 44.1673 25.9918
      vertex -29.5492 37.9004 150.162
      vertex -21.4437 44.1673 147.212
    endloop
  endfacet
  facet normal -0.698328 0.669131 0.25417
    outer loop
      vertex -80.3737 29.977 31.382
      vertex -36.2531 29.977 152.602
      vertex -73.6698 37.9004 28.942
    endloop
  endfacet
  facet normal -0.698328 0.669131 0.25417
    outer loop
      vertex -73.6698 37.9004 28.942
      vertex -36.2531 29.977 152.602
      vertex -29.5492 37.9004 150.162
    endloop
  endfacet
  facet normal -0.813798 0.5 0.296198
    outer loop
      vertex -85.3832 20.7436 33.2053
      vertex -41.2626 20.7436 154.426
      vertex -80.3737 29.977 31.382
    endloop
  endfacet
  facet normal -0.813798 0.5 0.296198
    outer loop
      vertex -80.3737 29.977 31.382
      vertex -41.2626 20.7436 154.426
      vertex -36.2531 29.977 152.602
    endloop
  endfacet
  facet normal -0.893701 0.309017 0.32528
    outer loop
      vertex -88.4792 10.6035 34.3321
      vertex -44.3586 10.6035 155.552
      vertex -85.3832 20.7436 33.2053
    endloop
  endfacet
  facet normal -0.893701 0.309017 0.32528
    outer loop
      vertex -85.3832 20.7436 33.2053
      vertex -44.3586 10.6035 155.552
      vertex -41.2626 20.7436 154.426
    endloop
  endfacet
  facet normal 0.34202 0 0.939693
    outer loop
      vertex -44.3586 10.6035 155.552
      vertex -45.4059 0 155.934
      vertex -44.3586 -10.6035 155.552
    endloop
  endfacet
  facet normal 0.34202 0 0.939693
    outer loop
      vertex -43.5265 0 155.25
      vertex -44.3586 10.6035 155.552
      vertex -44.3586 -10.6035 155.552
    endloop
  endfacet
  facet normal 0.34202 0 0.939693
    outer loop
      vertex -42.5203 10.1877 154.883
      vertex -39.5457 19.9301 153.801
      vertex -44.3586 10.6035 155.552
    endloop
  endfacet
  facet normal 0.34202 0 0.939693
    outer loop
      vertex 44.5826 19.9301 123.181
      vertex 47.5572 10.1877 122.098
      vertex 49.3955 10.6035 121.429
    endloop
  endfacet
  facet normal 0.34202 0 0.939693
    outer loop
      vertex 39.7696 28.8015 124.932
      vertex 44.5826 19.9301 123.181
      vertex 46.2995 20.7436 122.556
    endloop
  endfacet
  facet normal 0.34202 0 0.939693
    outer loop
      vertex 33.3285 36.4141 127.277
      vertex 39.7696 28.8015 124.932
      vertex 41.2901 29.977 124.379
    endloop
  endfacet
  facet normal 0.34202 0 0.939693
    outer loop
      vertex 25.5409 42.4352 130.111
      vertex 33.3285 36.4141 127.277
      vertex 34.5861 37.9004 126.819
    endloop
  endfacet
  facet normal 0.34202 0 0.939693
    outer loop
      vertex 16.7471 46.6018 133.312
      vertex 25.5409 42.4352 130.111
      vertex 26.4806 44.1673 129.769
    endloop
  endfacet
  facet normal 0.34202 0 0.939693
    outer loop
      vertex 7.33148 48.7316 136.739
      vertex 16.7471 46.6018 133.312
      vertex 17.3279 48.5039 133.1
    endloop
  endfacet
  facet normal 0.34202 0 0.939693
    outer loop
      vertex -2.29454 48.7316 140.242
      vertex 7.33148 48.7316 136.739
      vertex 7.52793 50.7206 136.667
    endloop
  endfacet
  facet normal 0.34202 0 0.939693
    outer loop
      vertex -11.7102 46.6018 143.669
      vertex -2.29454 48.7316 140.242
      vertex -2.49099 50.7206 140.314
    endloop
  endfacet
  facet normal 0.34202 0 0.939693
    outer loop
      vertex 47.5572 10.1877 122.098
      vertex 48.5634 0 121.732
      vertex 50.4428 0 121.048
    endloop
  endfacet
  facet normal 0.34202 0 0.939693
    outer loop
      vertex -41.2626 20.7436 154.426
      vertex -44.3586 10.6035 155.552
      vertex -36.2531 29.977 152.602
    endloop
  endfacet
  facet normal 0.34202 0 0.939693
    outer loop
      vertex -41.2626 -20.7436 154.426
      vertex -42.5203 -10.1877 154.883
      vertex -44.3586 -10.6035 155.552
    endloop
  endfacet
  facet normal 0.34202 0 0.939693
    outer loop
      vertex -42.5203 -10.1877 154.883
      vertex -43.5265 0 155.25
      vertex -44.3586 -10.6035 155.552
    endloop
  endfacet
  facet normal 0.34202 0 0.939693
    outer loop
      vertex 44.5826 -19.9301 123.181
      vertex 39.7696 -28.8015 124.932
      vertex 46.2995 -20.7436 122.556
    endloop
  endfacet
  facet normal 0.34202 0 0.939693
    outer loop
      vertex -28.2916 36.4141 149.705
      vertex -20.504 42.4352 146.87
      vertex -21.4437 44.1673 147.212
    endloop
  endfacet
  facet normal 0.34202 0 0.939693
    outer loop
      vertex -36.2531 29.977 152.602
      vertex -44.3586 10.6035 155.552
      vertex -39.5457 19.9301 153.801
    endloop
  endfacet
  facet normal 0.34202 0 0.939693
    outer loop
      vertex -36.2531 29.977 152.602
      vertex -34.7327 28.8015 152.049
      vertex -29.5492 37.9004 150.162
    endloop
  endfacet
  facet normal 0.34202 0 0.939693
    outer loop
      vertex -36.2531 29.977 152.602
      vertex -39.5457 19.9301 153.801
      vertex -34.7327 28.8015 152.049
    endloop
  endfacet
  facet normal 0.34202 0 0.939693
    outer loop
      vertex -29.5492 37.9004 150.162
      vertex -28.2916 36.4141 149.705
      vertex -21.4437 44.1673 147.212
    endloop
  endfacet
  facet normal 0.34202 0 0.939693
    outer loop
      vertex -34.7327 28.8015 152.049
      vertex -28.2916 36.4141 149.705
      vertex -29.5492 37.9004 150.162
    endloop
  endfacet
  facet normal 0.34202 0 0.939693
    outer loop
      vertex -21.4437 44.1673 147.212
      vertex -20.504 42.4352 146.87
      vertex -12.291 48.5039 143.881
    endloop
  endfacet
  facet normal 0.34202 0 0.939693
    outer loop
      vertex -12.291 48.5039 143.881
      vertex -11.7102 46.6018 143.669
      vertex -2.49099 50.7206 140.314
    endloop
  endfacet
  facet normal 0.34202 0 0.939693
    outer loop
      vertex -2.49099 50.7206 140.314
      vertex -2.29454 48.7316 140.242
      vertex 7.52793 50.7206 136.667
    endloop
  endfacet
  facet normal 0.34202 0 0.939693
    outer loop
      vertex 7.52793 50.7206 136.667
      vertex 7.33148 48.7316 136.739
      vertex 17.3279 48.5039 133.1
    endloop
  endfacet
  facet normal 0.34202 0 0.939693
    outer loop
      vertex 17.3279 48.5039 133.1
      vertex 16.7471 46.6018 133.312
      vertex 26.4806 44.1673 129.769
    endloop
  endfacet
  facet normal 0.34202 0 0.939693
    outer loop
      vertex 26.4806 44.1673 129.769
      vertex 25.5409 42.4352 130.111
      vertex 34.5861 37.9004 126.819
    endloop
  endfacet
  facet normal 0.34202 0 0.939693
    outer loop
      vertex 34.5861 37.9004 126.819
      vertex 33.3285 36.4141 127.277
      vertex 41.2901 29.977 124.379
    endloop
  endfacet
  facet normal 0.34202 0 0.939693
    outer loop
      vertex 41.2901 29.977 124.379
      vertex 39.7696 28.8015 124.932
      vertex 46.2995 20.7436 122.556
    endloop
  endfacet
  facet normal 0.34202 0 0.939693
    outer loop
      vertex 46.2995 20.7436 122.556
      vertex 44.5826 19.9301 123.181
      vertex 49.3955 10.6035 121.429
    endloop
  endfacet
  facet normal 0.34202 0 0.939693
    outer loop
      vertex 49.3955 10.6035 121.429
      vertex 47.5572 10.1877 122.098
      vertex 50.4428 0 121.048
    endloop
  endfacet
  facet normal 0.34202 0 0.939693
    outer loop
      vertex 50.4428 0 121.048
      vertex 48.5634 0 121.732
      vertex 49.3955 -10.6035 121.429
    endloop
  endfacet
  facet normal 0.34202 0 0.939693
    outer loop
      vertex 49.3955 -10.6035 121.429
      vertex 47.5572 -10.1877 122.098
      vertex 46.2995 -20.7436 122.556
    endloop
  endfacet
  facet normal 0.34202 0 0.939693
    outer loop
      vertex -20.504 42.4352 146.87
      vertex -11.7102 46.6018 143.669
      vertex -12.291 48.5039 143.881
    endloop
  endfacet
  facet normal 0.34202 0 0.939693
    outer loop
      vertex 47.5572 -10.1877 122.098
      vertex 44.5826 -19.9301 123.181
      vertex 46.2995 -20.7436 122.556
    endloop
  endfacet
  facet normal 0.34202 0 0.939693
    outer loop
      vertex 46.2995 -20.7436 122.556
      vertex 39.7696 -28.8015 124.932
      vertex 41.2901 -29.977 124.379
    endloop
  endfacet
  facet normal 0.34202 0 0.939693
    outer loop
      vertex 41.2901 -29.977 124.379
      vertex 33.3285 -36.4141 127.277
      vertex 34.5861 -37.9004 126.819
    endloop
  endfacet
  facet normal 0.34202 0 0.939693
    outer loop
      vertex 34.5861 -37.9004 126.819
      vertex 25.5409 -42.4352 130.111
      vertex 26.4806 -44.1673 129.769
    endloop
  endfacet
  facet normal 0.34202 0 0.939693
    outer loop
      vertex 26.4806 -44.1673 129.769
      vertex 16.7471 -46.6018 133.312
      vertex 17.3279 -48.5039 133.1
    endloop
  endfacet
  facet normal 0.34202 0 0.939693
    outer loop
      vertex 17.3279 -48.5039 133.1
      vertex 7.33148 -48.7316 136.739
      vertex 7.52793 -50.7206 136.667
    endloop
  endfacet
  facet normal 0.34202 0 0.939693
    outer loop
      vertex 7.52793 -50.7206 136.667
      vertex -2.29454 -48.7316 140.242
      vertex -2.49099 -50.7206 140.314
    endloop
  endfacet
  facet normal 0.34202 0 0.939693
    outer loop
      vertex -2.49099 -50.7206 140.314
      vertex -11.7102 -46.6018 143.669
      vertex -12.291 -48.5039 143.881
    endloop
  endfacet
  facet normal 0.34202 0 0.939693
    outer loop
      vertex -12.291 -48.5039 143.881
      vertex -20.504 -42.4352 146.87
      vertex -21.4437 -44.1673 147.212
    endloop
  endfacet
  facet normal 0.34202 0 0.939693
    outer loop
      vertex -21.4437 -44.1673 147.212
      vertex -28.2916 -36.4141 149.705
      vertex -29.5492 -37.9004 150.162
    endloop
  endfacet
  facet normal 0.34202 0 0.939693
    outer loop
      vertex -29.5492 -37.9004 150.162
      vertex -34.7327 -28.8015 152.049
      vertex -36.2531 -29.977 152.602
    endloop
  endfacet
  facet normal 0.34202 0 0.939693
    outer loop
      vertex 48.5634 0 121.732
      vertex 47.5572 -10.1877 122.098
      vertex 49.3955 -10.6035 121.429
    endloop
  endfacet
  facet normal 0.34202 0 0.939693
    outer loop
      vertex -36.2531 -29.977 152.602
      vertex -39.5457 -19.9301 153.801
      vertex -41.2626 -20.7436 154.426
    endloop
  endfacet
  facet normal 0.34202 0 0.939693
    outer loop
      vertex -39.5457 -19.9301 153.801
      vertex -42.5203 -10.1877 154.883
      vertex -41.2626 -20.7436 154.426
    endloop
  endfacet
  facet normal 0.34202 0 0.939693
    outer loop
      vertex 39.7696 -28.8015 124.932
      vertex 33.3285 -36.4141 127.277
      vertex 41.2901 -29.977 124.379
    endloop
  endfacet
  facet normal 0.34202 0 0.939693
    outer loop
      vertex 33.3285 -36.4141 127.277
      vertex 25.5409 -42.4352 130.111
      vertex 34.5861 -37.9004 126.819
    endloop
  endfacet
  facet normal 0.34202 0 0.939693
    outer loop
      vertex 25.5409 -42.4352 130.111
      vertex 16.7471 -46.6018 133.312
      vertex 26.4806 -44.1673 129.769
    endloop
  endfacet
  facet normal 0.34202 0 0.939693
    outer loop
      vertex 16.7471 -46.6018 133.312
      vertex 7.33148 -48.7316 136.739
      vertex 17.3279 -48.5039 133.1
    endloop
  endfacet
  facet normal 0.34202 0 0.939693
    outer loop
      vertex 7.33148 -48.7316 136.739
      vertex -2.29454 -48.7316 140.242
      vertex 7.52793 -50.7206 136.667
    endloop
  endfacet
  facet normal 0.34202 0 0.939693
    outer loop
      vertex -2.29454 -48.7316 140.242
      vertex -11.7102 -46.6018 143.669
      vertex -2.49099 -50.7206 140.314
    endloop
  endfacet
  facet normal 0.34202 0 0.939693
    outer loop
      vertex -11.7102 -46.6018 143.669
      vertex -20.504 -42.4352 146.87
      vertex -12.291 -48.5039 143.881
    endloop
  endfacet
  facet normal 0.34202 0 0.939693
    outer loop
      vertex -20.504 -42.4352 146.87
      vertex -28.2916 -36.4141 149.705
      vertex -21.4437 -44.1673 147.212
    endloop
  endfacet
  facet normal 0.34202 0 0.939693
    outer loop
      vertex -28.2916 -36.4141 149.705
      vertex -34.7327 -28.8015 152.049
      vertex -29.5492 -37.9004 150.162
    endloop
  endfacet
  facet normal 0.34202 0 0.939693
    outer loop
      vertex -34.7327 -28.8015 152.049
      vertex -39.5457 -19.9301 153.801
      vertex -36.2531 -29.977 152.602
    endloop
  endfacet
  facet normal 0.34202 0 0.939693
    outer loop
      vertex -43.5265 0 155.25
      vertex -42.5203 10.1877 154.883
      vertex -44.3586 10.6035 155.552
    endloop
  endfacet
  facet normal 0.934545 0.104529 -0.340147
    outer loop
      vertex -43.5265 0 155.25
      vertex -42.5203 -10.1877 154.883
      vertex -85.9568 -10.1877 35.5424
    endloop
  endfacet
  facet normal 0.934545 0.104529 -0.340147
    outer loop
      vertex -86.963 0 35.9087
      vertex -43.5265 0 155.25
      vertex -85.9568 -10.1877 35.5424
    endloop
  endfacet
  facet normal 0.893701 0.309017 -0.32528
    outer loop
      vertex -42.5203 -10.1877 154.883
      vertex -39.5457 -19.9301 153.801
      vertex -82.9822 -19.9301 34.4598
    endloop
  endfacet
  facet normal 0.893701 0.309017 -0.32528
    outer loop
      vertex -85.9568 -10.1877 35.5424
      vertex -42.5203 -10.1877 154.883
      vertex -82.9822 -19.9301 34.4598
    endloop
  endfacet
  facet normal 0.813798 0.5 -0.296198
    outer loop
      vertex -39.5457 -19.9301 153.801
      vertex -34.7327 -28.8015 152.049
      vertex -78.1692 -28.8015 32.708
    endloop
  endfacet
  facet normal 0.813798 0.5 -0.296198
    outer loop
      vertex -82.9822 -19.9301 34.4598
      vertex -39.5457 -19.9301 153.801
      vertex -78.1692 -28.8015 32.708
    endloop
  endfacet
  facet normal 0.698328 0.669131 -0.25417
    outer loop
      vertex -34.7327 -28.8015 152.049
      vertex -28.2916 -36.4141 149.705
      vertex -71.7282 -36.4141 30.3636
    endloop
  endfacet
  facet normal 0.698328 0.669131 -0.25417
    outer loop
      vertex -78.1692 -28.8015 32.708
      vertex -34.7327 -28.8015 152.049
      vertex -71.7282 -36.4141 30.3636
    endloop
  endfacet
  facet normal 0.552337 0.809017 -0.201034
    outer loop
      vertex -20.504 -42.4352 146.87
      vertex -63.9406 -42.4352 27.5292
      vertex -28.2916 -36.4141 149.705
    endloop
  endfacet
  facet normal 0.552337 0.809017 -0.201034
    outer loop
      vertex -28.2916 -36.4141 149.705
      vertex -63.9406 -42.4352 27.5292
      vertex -71.7282 -36.4141 30.3636
    endloop
  endfacet
  facet normal 0.382207 0.913545 -0.139112
    outer loop
      vertex -11.7102 -46.6018 143.669
      vertex -55.1468 -46.6018 24.3285
      vertex -20.504 -42.4352 146.87
    endloop
  endfacet
  facet normal 0.382207 0.913545 -0.139112
    outer loop
      vertex -20.504 -42.4352 146.87
      vertex -55.1468 -46.6018 24.3285
      vertex -63.9406 -42.4352 27.5292
    endloop
  endfacet
  facet normal 0.195373 0.978148 -0.07111
    outer loop
      vertex -2.29454 -48.7316 140.242
      vertex -45.7311 -48.7316 20.9015
      vertex -11.7102 -46.6018 143.669
    endloop
  endfacet
  facet normal 0.195373 0.978148 -0.07111
    outer loop
      vertex -11.7102 -46.6018 143.669
      vertex -45.7311 -48.7316 20.9015
      vertex -55.1468 -46.6018 24.3285
    endloop
  endfacet
  facet normal 0 1 0
    outer loop
      vertex 7.33148 -48.7316 136.739
      vertex -36.1051 -48.7316 17.3979
      vertex -2.29454 -48.7316 140.242
    endloop
  endfacet
  facet normal 0 1 0
    outer loop
      vertex -2.29454 -48.7316 140.242
      vertex -36.1051 -48.7316 17.3979
      vertex -45.7311 -48.7316 20.9015
    endloop
  endfacet
  facet normal -0.195373 0.978148 0.07111
    outer loop
      vertex 16.7471 -46.6018 133.312
      vertex -26.6894 -46.6018 13.9709
      vertex 7.33148 -48.7316 136.739
    endloop
  endfacet
  facet normal -0.195373 0.978148 0.07111
    outer loop
      vertex 7.33148 -48.7316 136.739
      vertex -26.6894 -46.6018 13.9709
      vertex -36.1051 -48.7316 17.3979
    endloop
  endfacet
  facet normal -0.382207 0.913545 0.139112
    outer loop
      vertex 25.5409 -42.4352 130.111
      vertex -17.8956 -42.4352 10.7702
      vertex 16.7471 -46.6018 133.312
    endloop
  endfacet
  facet normal -0.382207 0.913545 0.139112
    outer loop
      vertex 16.7471 -46.6018 133.312
      vertex -17.8956 -42.4352 10.7702
      vertex -26.6894 -46.6018 13.9709
    endloop
  endfacet
  facet normal -0.552337 0.809017 0.201034
    outer loop
      vertex 33.3285 -36.4141 127.277
      vertex -10.108 -36.4141 7.93573
      vertex 25.5409 -42.4352 130.111
    endloop
  endfacet
  facet normal -0.552337 0.809017 0.201034
    outer loop
      vertex 25.5409 -42.4352 130.111
      vertex -10.108 -36.4141 7.93573
      vertex -17.8956 -42.4352 10.7702
    endloop
  endfacet
  facet normal -0.698328 0.669131 0.25417
    outer loop
      vertex 39.7696 -28.8015 124.932
      vertex -3.66695 -28.8015 5.59137
      vertex 33.3285 -36.4141 127.277
    endloop
  endfacet
  facet normal -0.698328 0.669131 0.25417
    outer loop
      vertex 33.3285 -36.4141 127.277
      vertex -3.66695 -28.8015 5.59137
      vertex -10.108 -36.4141 7.93573
    endloop
  endfacet
  facet normal -0.813798 0.5 0.296198
    outer loop
      vertex 44.5826 -19.9301 123.181
      vertex 1.14606 -19.9301 3.83958
      vertex 39.7696 -28.8015 124.932
    endloop
  endfacet
  facet normal -0.813798 0.5 0.296198
    outer loop
      vertex 39.7696 -28.8015 124.932
      vertex 1.14606 -19.9301 3.83958
      vertex -3.66695 -28.8015 5.59137
    endloop
  endfacet
  facet normal -0.893701 0.309017 0.32528
    outer loop
      vertex 47.5572 -10.1877 122.098
      vertex 4.12066 -10.1877 2.75691
      vertex 44.5826 -19.9301 123.181
    endloop
  endfacet
  facet normal -0.893701 0.309017 0.32528
    outer loop
      vertex 44.5826 -19.9301 123.181
      vertex 4.12066 -10.1877 2.75691
      vertex 1.14606 -19.9301 3.83958
    endloop
  endfacet
  facet normal -0.934545 0.104529 0.340147
    outer loop
      vertex 48.5634 0 121.732
      vertex 5.12685 0 2.39069
      vertex 47.5572 -10.1877 122.098
    endloop
  endfacet
  facet normal -0.934545 0.104529 0.340147
    outer loop
      vertex 47.5572 -10.1877 122.098
      vertex 5.12685 0 2.39069
      vertex 4.12066 -10.1877 2.75691
    endloop
  endfacet
  facet normal -0.934545 -0.104529 0.340147
    outer loop
      vertex 48.5634 0 121.732
      vertex 47.5572 10.1877 122.098
      vertex 5.12685 0 2.39069
    endloop
  endfacet
  facet normal -0.934545 -0.104529 0.340147
    outer loop
      vertex 5.12685 0 2.39069
      vertex 47.5572 10.1877 122.098
      vertex 4.12066 10.1877 2.75691
    endloop
  endfacet
  facet normal -0.893701 -0.309017 0.32528
    outer loop
      vertex 47.5572 10.1877 122.098
      vertex 44.5826 19.9301 123.181
      vertex 4.12066 10.1877 2.75691
    endloop
  endfacet
  facet normal -0.893701 -0.309017 0.32528
    outer loop
      vertex 4.12066 10.1877 2.75691
      vertex 44.5826 19.9301 123.181
      vertex 1.14606 19.9301 3.83958
    endloop
  endfacet
  facet normal -0.813798 -0.5 0.296198
    outer loop
      vertex 44.5826 19.9301 123.181
      vertex 39.7696 28.8015 124.932
      vertex 1.14606 19.9301 3.83958
    endloop
  endfacet
  facet normal -0.813798 -0.5 0.296198
    outer loop
      vertex 1.14606 19.9301 3.83958
      vertex 39.7696 28.8015 124.932
      vertex -3.66695 28.8015 5.59137
    endloop
  endfacet
  facet normal -0.698328 -0.669131 0.25417
    outer loop
      vertex 39.7696 28.8015 124.932
      vertex 33.3285 36.4141 127.277
      vertex -3.66695 28.8015 5.59137
    endloop
  endfacet
  facet normal -0.698328 -0.669131 0.25417
    outer loop
      vertex -3.66695 28.8015 5.59137
      vertex 33.3285 36.4141 127.277
      vertex -10.108 36.4141 7.93573
    endloop
  endfacet
  facet normal -0.552337 -0.809017 0.201034
    outer loop
      vertex -10.108 36.4141 7.93573
      vertex 33.3285 36.4141 127.277
      vertex 25.5409 42.4352 130.111
    endloop
  endfacet
  facet normal -0.552337 -0.809017 0.201034
    outer loop
      vertex -17.8956 42.4352 10.7702
      vertex -10.108 36.4141 7.93573
      vertex 25.5409 42.4352 130.111
    endloop
  endfacet
  facet normal -0.382207 -0.913545 0.139112
    outer loop
      vertex -17.8956 42.4352 10.7702
      vertex 25.5409 42.4352 130.111
      vertex 16.7471 46.6018 133.312
    endloop
  endfacet
  facet normal -0.382207 -0.913545 0.139112
    outer loop
      vertex -26.6894 46.6018 13.9709
      vertex -17.8956 42.4352 10.7702
      vertex 16.7471 46.6018 133.312
    endloop
  endfacet
  facet normal -0.195373 -0.978148 0.07111
    outer loop
      vertex -26.6894 46.6018 13.9709
      vertex 16.7471 46.6018 133.312
      vertex 7.33148 48.7316 136.739
    endloop
  endfacet
  facet normal -0.195373 -0.978148 0.07111
    outer loop
      vertex -36.1051 48.7316 17.3979
      vertex -26.6894 46.6018 13.9709
      vertex 7.33148 48.7316 136.739
    endloop
  endfacet
  facet normal 0 -1 0
    outer loop
      vertex -36.1051 48.7316 17.3979
      vertex 7.33148 48.7316 136.739
      vertex -2.29454 48.7316 140.242
    endloop
  endfacet
  facet normal 0 -1 0
    outer loop
      vertex -45.7311 48.7316 20.9015
      vertex -36.1051 48.7316 17.3979
      vertex -2.29454 48.7316 140.242
    endloop
  endfacet
  facet normal 0.195373 -0.978148 -0.07111
    outer loop
      vertex -45.7311 48.7316 20.9015
      vertex -2.29454 48.7316 140.242
      vertex -11.7102 46.6018 143.669
    endloop
  endfacet
  facet normal 0.195373 -0.978148 -0.07111
    outer loop
      vertex -55.1468 46.6018 24.3285
      vertex -45.7311 48.7316 20.9015
      vertex -11.7102 46.6018 143.669
    endloop
  endfacet
  facet normal 0.382207 -0.913545 -0.139112
    outer loop
      vertex -55.1468 46.6018 24.3285
      vertex -11.7102 46.6018 143.669
      vertex -20.504 42.4352 146.87
    endloop
  endfacet
  facet normal 0.382207 -0.913545 -0.139112
    outer loop
      vertex -63.9406 42.4352 27.5292
      vertex -55.1468 46.6018 24.3285
      vertex -20.504 42.4352 146.87
    endloop
  endfacet
  facet normal 0.552337 -0.809017 -0.201034
    outer loop
      vertex -63.9406 42.4352 27.5292
      vertex -20.504 42.4352 146.87
      vertex -28.2916 36.4141 149.705
    endloop
  endfacet
  facet normal 0.552337 -0.809017 -0.201034
    outer loop
      vertex -71.7282 36.4141 30.3636
      vertex -63.9406 42.4352 27.5292
      vertex -28.2916 36.4141 149.705
    endloop
  endfacet
  facet normal 0.698328 -0.669131 -0.25417
    outer loop
      vertex -71.7282 36.4141 30.3636
      vertex -28.2916 36.4141 149.705
      vertex -34.7327 28.8015 152.049
    endloop
  endfacet
  facet normal 0.698328 -0.669131 -0.25417
    outer loop
      vertex -78.1692 28.8015 32.708
      vertex -71.7282 36.4141 30.3636
      vertex -34.7327 28.8015 152.049
    endloop
  endfacet
  facet normal 0.813798 -0.5 -0.296198
    outer loop
      vertex -78.1692 28.8015 32.708
      vertex -34.7327 28.8015 152.049
      vertex -39.5457 19.9301 153.801
    endloop
  endfacet
  facet normal 0.813798 -0.5 -0.296198
    outer loop
      vertex -82.9822 19.9301 34.4598
      vertex -78.1692 28.8015 32.708
      vertex -39.5457 19.9301 153.801
    endloop
  endfacet
  facet normal 0.893701 -0.309017 -0.32528
    outer loop
      vertex -82.9822 19.9301 34.4598
      vertex -39.5457 19.9301 153.801
      vertex -42.5203 10.1877 154.883
    endloop
  endfacet
  facet normal 0.893701 -0.309017 -0.32528
    outer loop
      vertex -85.9568 10.1877 35.5424
      vertex -82.9822 19.9301 34.4598
      vertex -42.5203 10.1877 154.883
    endloop
  endfacet
  facet normal 0.934545 -0.104529 -0.340147
    outer loop
      vertex -85.9568 10.1877 35.5424
      vertex -42.5203 10.1877 154.883
      vertex -43.5265 0 155.25
    endloop
  endfacet
  facet normal 0.934545 -0.104529 -0.340147
    outer loop
      vertex -86.963 0 35.9087
      vertex -85.9568 10.1877 35.5424
      vertex -43.5265 0 155.25
    endloop
  endfacet
  facet normal 0.34202 0 0.939693
    outer loop
      vertex -85.9568 -10.1877 35.5424
      vertex -82.9822 -19.9301 34.4598
      vertex -78.1692 -28.8015 32.708
    endloop
  endfacet
  facet normal 0.34202 0 0.939693
    outer loop
      vertex -63.9406 -42.4352 27.5292
      vertex -85.9568 -10.1877 35.5424
      vertex -71.7282 -36.4141 30.3636
    endloop
  endfacet
  facet normal 0.34202 0 0.939693
    outer loop
      vertex -71.7282 -36.4141 30.3636
      vertex -85.9568 -10.1877 35.5424
      vertex -78.1692 -28.8015 32.708
    endloop
  endfacet
  facet normal 0.34202 0 0.939693
    outer loop
      vertex -55.1468 -46.6018 24.3285
      vertex -85.9568 -10.1877 35.5424
      vertex -63.9406 -42.4352 27.5292
    endloop
  endfacet
  facet normal 0.34202 0 0.939693
    outer loop
      vertex -45.7311 -48.7316 20.9015
      vertex -85.9568 -10.1877 35.5424
      vertex -55.1468 -46.6018 24.3285
    endloop
  endfacet
  facet normal 0.34202 0 0.939693
    outer loop
      vertex -36.1051 -48.7316 17.3979
      vertex -85.9568 -10.1877 35.5424
      vertex -45.7311 -48.7316 20.9015
    endloop
  endfacet
  facet normal 0.34202 0 0.939693
    outer loop
      vertex -26.6894 -46.6018 13.9709
      vertex -85.9568 -10.1877 35.5424
      vertex -36.1051 -48.7316 17.3979
    endloop
  endfacet
  facet normal 0.34202 0 0.939693
    outer loop
      vertex -17.8956 -42.4352 10.7702
      vertex -85.9568 -10.1877 35.5424
      vertex -26.6894 -46.6018 13.9709
    endloop
  endfacet
  facet normal 0.34202 0 0.939693
    outer loop
      vertex -10.108 -36.4141 7.93573
      vertex -85.9568 -10.1877 35.5424
      vertex -17.8956 -42.4352 10.7702
    endloop
  endfacet
  facet normal 0.34202 0 0.939693
    outer loop
      vertex -3.66695 -28.8015 5.59137
      vertex -85.9568 -10.1877 35.5424
      vertex -10.108 -36.4141 7.93573
    endloop
  endfacet
  facet normal 0.34202 0 0.939693
    outer loop
      vertex 1.14606 -19.9301 3.83958
      vertex -85.9568 -10.1877 35.5424
      vertex -3.66695 -28.8015 5.59137
    endloop
  endfacet
  facet normal 0.34202 0 0.939693
    outer loop
      vertex 4.12066 -10.1877 2.75691
      vertex -85.9568 -10.1877 35.5424
      vertex 1.14606 -19.9301 3.83958
    endloop
  endfacet
  facet normal 0.34202 0 0.939693
    outer loop
      vertex 5.12685 0 2.39069
      vertex -85.9568 -10.1877 35.5424
      vertex 4.12066 -10.1877 2.75691
    endloop
  endfacet
  facet normal 0.34202 0 0.939693
    outer loop
      vertex 4.12066 10.1877 2.75691
      vertex -85.9568 -10.1877 35.5424
      vertex 5.12685 0 2.39069
    endloop
  endfacet
  facet normal 0.34202 0 0.939693
    outer loop
      vertex 1.14606 19.9301 3.83958
      vertex -85.9568 -10.1877 35.5424
      vertex 4.12066 10.1877 2.75691
    endloop
  endfacet
  facet normal 0.34202 0 0.939693
    outer loop
      vertex -3.66695 28.8015 5.59137
      vertex -85.9568 -10.1877 35.5424
      vertex 1.14606 19.9301 3.83958
    endloop
  endfacet
  facet normal 0.34202 0 0.939693
    outer loop
      vertex -10.108 36.4141 7.93573
      vertex -85.9568 -10.1877 35.5424
      vertex -3.66695 28.8015 5.59137
    endloop
  endfacet
  facet normal 0.34202 0 0.939693
    outer loop
      vertex -17.8956 42.4352 10.7702
      vertex -85.9568 -10.1877 35.5424
      vertex -10.108 36.4141 7.93573
    endloop
  endfacet
  facet normal 0.34202 0 0.939693
    outer loop
      vertex -26.6894 46.6018 13.9709
      vertex -85.9568 -10.1877 35.5424
      vertex -17.8956 42.4352 10.7702
    endloop
  endfacet
  facet normal 0.34202 0 0.939693
    outer loop
      vertex -36.1051 48.7316 17.3979
      vertex -85.9568 -10.1877 35.5424
      vertex -26.6894 46.6018 13.9709
    endloop
  endfacet
  facet normal 0.34202 0 0.939693
    outer loop
      vertex -45.7311 48.7316 20.9015
      vertex -85.9568 -10.1877 35.5424
      vertex -36.1051 48.7316 17.3979
    endloop
  endfacet
  facet normal 0.34202 0 0.939693
    outer loop
      vertex -55.1468 46.6018 24.3285
      vertex -85.9568 -10.1877 35.5424
      vertex -45.7311 48.7316 20.9015
    endloop
  endfacet
  facet normal 0.34202 0 0.939693
    outer loop
      vertex -63.9406 42.4352 27.5292
      vertex -85.9568 -10.1877 35.5424
      vertex -55.1468 46.6018 24.3285
    endloop
  endfacet
  facet normal 0.34202 0 0.939693
    outer loop
      vertex -71.7282 36.4141 30.3636
      vertex -85.9568 -10.1877 35.5424
      vertex -63.9406 42.4352 27.5292
    endloop
  endfacet
  facet normal 0.34202 0 0.939693
    outer loop
      vertex -78.1692 28.8015 32.708
      vertex -85.9568 -10.1877 35.5424
      vertex -71.7282 36.4141 30.3636
    endloop
  endfacet
  facet normal 0.34202 0 0.939693
    outer loop
      vertex -82.9822 19.9301 34.4598
      vertex -85.9568 -10.1877 35.5424
      vertex -78.1692 28.8015 32.708
    endloop
  endfacet
  facet normal 0.34202 0 0.939693
    outer loop
      vertex -85.9568 10.1877 35.5424
      vertex -85.9568 -10.1877 35.5424
      vertex -82.9822 19.9301 34.4598
    endloop
  endfacet
  facet normal 0.34202 0 0.939693
    outer loop
      vertex -86.963 0 35.9087
      vertex -85.9568 -10.1877 35.5424
      vertex -85.9568 10.1877 35.5424
    endloop
  endfacet
endsolid OpenSCAD_Model
