solid OpenSCAD_Model
  facet normal -0.34202 0 -0.939693
    outer loop
      vertex -23.9581 0 181.968
      vertex -23.1418 8.26449 181.671
      vertex -23.1418 -8.26449 181.671
    endloop
  endfacet
  facet normal -0.34202 0 -0.939693
    outer loop
      vertex -23.1418 -8.26449 181.671
      vertex -23.1418 8.26449 181.671
      vertex -20.7288 16.1678 180.793
    endloop
  endfacet
  facet normal -0.34202 0 -0.939693
    outer loop
      vertex -19.0118 15.3543 180.168
      vertex -20.7288 16.1678 180.793
      vertex -16.8243 23.3645 179.372
    endloop
  endfacet
  facet normal -0.34202 0 -0.939693
    outer loop
      vertex -15.3039 22.1889 178.818
      vertex -16.8243 23.3645 179.372
      vertex -11.5992 29.54 177.47
    endloop
  endfacet
  facet normal -0.34202 0 -0.939693
    outer loop
      vertex -10.3416 28.0537 177.012
      vertex -11.5992 29.54 177.47
      vertex -5.28168 34.4245 175.171
    endloop
  endfacet
  facet normal -0.34202 0 -0.939693
    outer loop
      vertex -4.34199 32.6925 174.828
      vertex -5.28168 34.4245 175.171
      vertex 1.85207 37.8045 172.574
    endloop
  endfacet
  facet normal -0.34202 0 -0.939693
    outer loop
      vertex 2.43283 35.9024 172.363
      vertex 1.85207 37.8045 172.574
      vertex 9.49028 39.5322 169.794
    endloop
  endfacet
  facet normal -0.34202 0 -0.939693
    outer loop
      vertex 9.68673 37.5432 169.722
      vertex 9.49028 39.5322 169.794
      vertex 17.2991 39.5322 166.952
    endloop
  endfacet
  facet normal -0.34202 0 -0.939693
    outer loop
      vertex 17.1027 37.5432 167.023
      vertex 17.2991 39.5322 166.952
      vertex 24.9374 37.8045 164.172
    endloop
  endfacet
  facet normal -0.34202 0 -0.939693
    outer loop
      vertex 24.3566 35.9024 164.383
      vertex 24.9374 37.8045 164.172
      vertex 32.0711 34.4245 161.575
    endloop
  endfacet
  facet normal -0.34202 0 -0.939693
    outer loop
      vertex 31.1314 32.6925 161.917
      vertex 32.0711 34.4245 161.575
      vertex 38.3886 29.54 159.276
    endloop
  endfacet
  facet normal -0.34202 0 -0.939693
    outer loop
      vertex 37.131 28.0537 159.734
      vertex 38.3886 29.54 159.276
      vertex 43.6137 23.3645 157.374
    endloop
  endfacet
  facet normal -0.34202 0 -0.939693
    outer loop
      vertex 42.0933 22.1889 157.927
      vertex 43.6137 23.3645 157.374
      vertex 47.5182 16.1678 155.953
    endloop
  endfacet
  facet normal -0.34202 0 -0.939693
    outer loop
      vertex 45.8013 15.3543 156.578
      vertex 47.5182 16.1678 155.953
      vertex 49.9312 8.26449 155.075
    endloop
  endfacet
  facet normal -0.34202 0 -0.939693
    outer loop
      vertex 48.8681 0 155.462
      vertex 49.9312 8.26449 155.075
      vertex 50.7475 0 154.778
    endloop
  endfacet
  facet normal -0.34202 0 -0.939693
    outer loop
      vertex 48.0929 -7.84867 155.744
      vertex 50.7475 0 154.778
      vertex 49.9312 -8.26449 155.075
    endloop
  endfacet
  facet normal -0.34202 0 -0.939693
    outer loop
      vertex 45.8013 -15.3543 156.578
      vertex 49.9312 -8.26449 155.075
      vertex 47.5182 -16.1678 155.953
    endloop
  endfacet
  facet normal -0.34202 0 -0.939693
    outer loop
      vertex 42.0933 -22.1889 157.927
      vertex 47.5182 -16.1678 155.953
      vertex 43.6137 -23.3645 157.374
    endloop
  endfacet
  facet normal -0.34202 0 -0.939693
    outer loop
      vertex 37.131 -28.0537 159.734
      vertex 43.6137 -23.3645 157.374
      vertex 38.3886 -29.54 159.276
    endloop
  endfacet
  facet normal -0.34202 0 -0.939693
    outer loop
      vertex 31.1314 -32.6925 161.917
      vertex 38.3886 -29.54 159.276
      vertex 32.0711 -34.4245 161.575
    endloop
  endfacet
  facet normal -0.34202 0 -0.939693
    outer loop
      vertex 24.3566 -35.9024 164.383
      vertex 32.0711 -34.4245 161.575
      vertex 24.9374 -37.8045 164.172
    endloop
  endfacet
  facet normal -0.34202 0 -0.939693
    outer loop
      vertex 17.1027 -37.5432 167.023
      vertex 24.9374 -37.8045 164.172
      vertex 17.2991 -39.5322 166.952
    endloop
  endfacet
  facet normal -0.34202 0 -0.939693
    outer loop
      vertex 9.68673 -37.5432 169.722
      vertex 17.2991 -39.5322 166.952
      vertex 9.49028 -39.5322 169.794
    endloop
  endfacet
  facet normal -0.34202 0 -0.939693
    outer loop
      vertex 2.43283 -35.9024 172.363
      vertex 9.49028 -39.5322 169.794
      vertex 1.85207 -37.8045 172.574
    endloop
  endfacet
  facet normal -0.34202 0 -0.939693
    outer loop
      vertex -4.34199 -32.6925 174.828
      vertex 1.85207 -37.8045 172.574
      vertex -5.28168 -34.4245 175.171
    endloop
  endfacet
  facet normal -0.34202 0 -0.939693
    outer loop
      vertex -15.3039 -22.1889 178.818
      vertex -5.28168 -34.4245 175.171
      vertex -11.5992 -29.54 177.47
    endloop
  endfacet
  facet normal -0.34202 0 -0.939693
    outer loop
      vertex -23.1418 -8.26449 181.671
      vertex -11.5992 -29.54 177.47
      vertex -16.8243 -23.3645 179.372
    endloop
  endfacet
  facet normal -0.34202 0 -0.939693
    outer loop
      vertex -23.1418 -8.26449 181.671
      vertex -16.8243 -23.3645 179.372
      vertex -20.7288 -16.1678 180.793
    endloop
  endfacet
  facet normal -0.34202 0 -0.939693
    outer loop
      vertex -23.1418 -8.26449 181.671
      vertex -20.7288 16.1678 180.793
      vertex -22.0787 0 181.284
    endloop
  endfacet
  facet normal -0.34202 0 -0.939693
    outer loop
      vertex 9.68673 -37.5432 169.722
      vertex 9.49028 -39.5322 169.794
      vertex 2.43283 -35.9024 172.363
    endloop
  endfacet
  facet normal -0.34202 0 -0.939693
    outer loop
      vertex -19.0118 -15.3543 180.168
      vertex -23.1418 -8.26449 181.671
      vertex -21.3035 -7.84867 181.002
    endloop
  endfacet
  facet normal -0.34202 0 -0.939693
    outer loop
      vertex -4.34199 -32.6925 174.828
      vertex -5.28168 -34.4245 175.171
      vertex -10.3416 -28.0537 177.012
    endloop
  endfacet
  facet normal -0.34202 0 -0.939693
    outer loop
      vertex -23.1418 -8.26449 181.671
      vertex -19.0118 -15.3543 180.168
      vertex -11.5992 -29.54 177.47
    endloop
  endfacet
  facet normal -0.34202 0 -0.939693
    outer loop
      vertex -10.3416 -28.0537 177.012
      vertex -5.28168 -34.4245 175.171
      vertex -15.3039 -22.1889 178.818
    endloop
  endfacet
  facet normal -0.34202 0 -0.939693
    outer loop
      vertex -19.0118 -15.3543 180.168
      vertex -15.3039 -22.1889 178.818
      vertex -11.5992 -29.54 177.47
    endloop
  endfacet
  facet normal -0.34202 0 -0.939693
    outer loop
      vertex 48.0929 7.84867 155.744
      vertex 49.9312 8.26449 155.075
      vertex 48.8681 0 155.462
    endloop
  endfacet
  facet normal -0.34202 0 -0.939693
    outer loop
      vertex 42.0933 22.1889 157.927
      vertex 47.5182 16.1678 155.953
      vertex 45.8013 15.3543 156.578
    endloop
  endfacet
  facet normal -0.34202 0 -0.939693
    outer loop
      vertex 45.8013 15.3543 156.578
      vertex 49.9312 8.26449 155.075
      vertex 48.0929 7.84867 155.744
    endloop
  endfacet
  facet normal -0.34202 0 -0.939693
    outer loop
      vertex 48.8681 0 155.462
      vertex 50.7475 0 154.778
      vertex 48.0929 -7.84867 155.744
    endloop
  endfacet
  facet normal -0.34202 0 -0.939693
    outer loop
      vertex 48.0929 -7.84867 155.744
      vertex 49.9312 -8.26449 155.075
      vertex 45.8013 -15.3543 156.578
    endloop
  endfacet
  facet normal -0.34202 0 -0.939693
    outer loop
      vertex 45.8013 -15.3543 156.578
      vertex 47.5182 -16.1678 155.953
      vertex 42.0933 -22.1889 157.927
    endloop
  endfacet
  facet normal -0.34202 0 -0.939693
    outer loop
      vertex 42.0933 -22.1889 157.927
      vertex 43.6137 -23.3645 157.374
      vertex 37.131 -28.0537 159.734
    endloop
  endfacet
  facet normal -0.34202 0 -0.939693
    outer loop
      vertex 37.131 -28.0537 159.734
      vertex 38.3886 -29.54 159.276
      vertex 31.1314 -32.6925 161.917
    endloop
  endfacet
  facet normal -0.34202 0 -0.939693
    outer loop
      vertex 31.1314 -32.6925 161.917
      vertex 32.0711 -34.4245 161.575
      vertex 24.3566 -35.9024 164.383
    endloop
  endfacet
  facet normal -0.34202 0 -0.939693
    outer loop
      vertex 24.3566 -35.9024 164.383
      vertex 24.9374 -37.8045 164.172
      vertex 17.1027 -37.5432 167.023
    endloop
  endfacet
  facet normal -0.34202 0 -0.939693
    outer loop
      vertex 17.1027 -37.5432 167.023
      vertex 17.2991 -39.5322 166.952
      vertex 9.68673 -37.5432 169.722
    endloop
  endfacet
  facet normal -0.34202 0 -0.939693
    outer loop
      vertex -21.3035 7.84867 181.002
      vertex -20.7288 16.1678 180.793
      vertex -19.0118 15.3543 180.168
    endloop
  endfacet
  facet normal -0.34202 0 -0.939693
    outer loop
      vertex -22.0787 0 181.284
      vertex -20.7288 16.1678 180.793
      vertex -21.3035 7.84867 181.002
    endloop
  endfacet
  facet normal -0.34202 0 -0.939693
    outer loop
      vertex -21.3035 -7.84867 181.002
      vertex -23.1418 -8.26449 181.671
      vertex -22.0787 0 181.284
    endloop
  endfacet
  facet normal -0.34202 0 -0.939693
    outer loop
      vertex -19.0118 15.3543 180.168
      vertex -16.8243 23.3645 179.372
      vertex -15.3039 22.1889 178.818
    endloop
  endfacet
  facet normal -0.34202 0 -0.939693
    outer loop
      vertex -15.3039 22.1889 178.818
      vertex -11.5992 29.54 177.47
      vertex -10.3416 28.0537 177.012
    endloop
  endfacet
  facet normal -0.34202 0 -0.939693
    outer loop
      vertex -10.3416 28.0537 177.012
      vertex -5.28168 34.4245 175.171
      vertex -4.34199 32.6925 174.828
    endloop
  endfacet
  facet normal -0.34202 0 -0.939693
    outer loop
      vertex -4.34199 32.6925 174.828
      vertex 1.85207 37.8045 172.574
      vertex 2.43283 35.9024 172.363
    endloop
  endfacet
  facet normal -0.34202 0 -0.939693
    outer loop
      vertex 2.43283 35.9024 172.363
      vertex 9.49028 39.5322 169.794
      vertex 9.68673 37.5432 169.722
    endloop
  endfacet
  facet normal -0.34202 0 -0.939693
    outer loop
      vertex 9.68673 37.5432 169.722
      vertex 17.2991 39.5322 166.952
      vertex 17.1027 37.5432 167.023
    endloop
  endfacet
  facet normal -0.34202 0 -0.939693
    outer loop
      vertex 17.1027 37.5432 167.023
      vertex 24.9374 37.8045 164.172
      vertex 24.3566 35.9024 164.383
    endloop
  endfacet
  facet normal -0.34202 0 -0.939693
    outer loop
      vertex 24.3566 35.9024 164.383
      vertex 32.0711 34.4245 161.575
      vertex 31.1314 32.6925 161.917
    endloop
  endfacet
  facet normal -0.34202 0 -0.939693
    outer loop
      vertex 31.1314 32.6925 161.917
      vertex 38.3886 29.54 159.276
      vertex 37.131 28.0537 159.734
    endloop
  endfacet
  facet normal -0.34202 0 -0.939693
    outer loop
      vertex 37.131 28.0537 159.734
      vertex 43.6137 23.3645 157.374
      vertex 42.0933 22.1889 157.927
    endloop
  endfacet
  facet normal -0.34202 0 -0.939693
    outer loop
      vertex 2.43283 -35.9024 172.363
      vertex 1.85207 -37.8045 172.574
      vertex -4.34199 -32.6925 174.828
    endloop
  endfacet
  facet normal -0.934545 0.104528 0.340147
    outer loop
      vertex -23.9581 0 181.968
      vertex -23.274 0 183.848
      vertex -23.1418 8.26449 181.671
    endloop
  endfacet
  facet normal -0.934545 0.104528 0.340147
    outer loop
      vertex -23.1418 8.26449 181.671
      vertex -23.274 0 183.848
      vertex -22.4578 8.26449 183.55
    endloop
  endfacet
  facet normal -0.934545 -0.104528 0.340147
    outer loop
      vertex -23.9581 0 181.968
      vertex -23.1418 -8.26449 181.671
      vertex -23.274 0 183.848
    endloop
  endfacet
  facet normal -0.934545 -0.104528 0.340147
    outer loop
      vertex -23.274 0 183.848
      vertex -23.1418 -8.26449 181.671
      vertex -22.4578 -8.26449 183.55
    endloop
  endfacet
  facet normal -0.893701 -0.309017 0.32528
    outer loop
      vertex -23.1418 -8.26449 181.671
      vertex -20.7288 -16.1678 180.793
      vertex -22.4578 -8.26449 183.55
    endloop
  endfacet
  facet normal -0.893701 -0.309017 0.32528
    outer loop
      vertex -22.4578 -8.26449 183.55
      vertex -20.7288 -16.1678 180.793
      vertex -20.0447 -16.1678 182.672
    endloop
  endfacet
  facet normal -0.813798 -0.5 0.296198
    outer loop
      vertex -20.7288 -16.1678 180.793
      vertex -16.8243 -23.3645 179.372
      vertex -20.0447 -16.1678 182.672
    endloop
  endfacet
  facet normal -0.813798 -0.5 0.296198
    outer loop
      vertex -20.0447 -16.1678 182.672
      vertex -16.8243 -23.3645 179.372
      vertex -16.1403 -23.3645 181.251
    endloop
  endfacet
  facet normal -0.698328 -0.669131 0.25417
    outer loop
      vertex -16.8243 -23.3645 179.372
      vertex -11.5992 -29.54 177.47
      vertex -16.1403 -23.3645 181.251
    endloop
  endfacet
  facet normal -0.698328 -0.669131 0.25417
    outer loop
      vertex -16.1403 -23.3645 181.251
      vertex -11.5992 -29.54 177.47
      vertex -10.9151 -29.54 179.349
    endloop
  endfacet
  facet normal -0.552337 -0.809017 0.201034
    outer loop
      vertex -10.9151 -29.54 179.349
      vertex -11.5992 -29.54 177.47
      vertex -5.28168 -34.4245 175.171
    endloop
  endfacet
  facet normal -0.552337 -0.809017 0.201034
    outer loop
      vertex -4.59764 -34.4245 177.05
      vertex -10.9151 -29.54 179.349
      vertex -5.28168 -34.4245 175.171
    endloop
  endfacet
  facet normal -0.382207 -0.913545 0.139112
    outer loop
      vertex -4.59764 -34.4245 177.05
      vertex -5.28168 -34.4245 175.171
      vertex 1.85207 -37.8045 172.574
    endloop
  endfacet
  facet normal -0.382207 -0.913545 0.139112
    outer loop
      vertex 2.53611 -37.8045 174.453
      vertex -4.59764 -34.4245 177.05
      vertex 1.85207 -37.8045 172.574
    endloop
  endfacet
  facet normal -0.195373 -0.978148 0.0711099
    outer loop
      vertex 2.53611 -37.8045 174.453
      vertex 1.85207 -37.8045 172.574
      vertex 9.49028 -39.5322 169.794
    endloop
  endfacet
  facet normal -0.195373 -0.978148 0.0711099
    outer loop
      vertex 10.1743 -39.5322 171.673
      vertex 2.53611 -37.8045 174.453
      vertex 9.49028 -39.5322 169.794
    endloop
  endfacet
  facet normal 0 -1 0
    outer loop
      vertex 10.1743 -39.5322 171.673
      vertex 9.49028 -39.5322 169.794
      vertex 17.2991 -39.5322 166.952
    endloop
  endfacet
  facet normal 0 -1 0
    outer loop
      vertex 17.9832 -39.5322 168.831
      vertex 10.1743 -39.5322 171.673
      vertex 17.2991 -39.5322 166.952
    endloop
  endfacet
  facet normal 0.195373 -0.978148 -0.0711099
    outer loop
      vertex 17.9832 -39.5322 168.831
      vertex 17.2991 -39.5322 166.952
      vertex 24.9374 -37.8045 164.172
    endloop
  endfacet
  facet normal 0.195373 -0.978148 -0.0711099
    outer loop
      vertex 25.6214 -37.8045 166.051
      vertex 17.9832 -39.5322 168.831
      vertex 24.9374 -37.8045 164.172
    endloop
  endfacet
  facet normal 0.382207 -0.913545 -0.139112
    outer loop
      vertex 25.6214 -37.8045 166.051
      vertex 24.9374 -37.8045 164.172
      vertex 32.0711 -34.4245 161.575
    endloop
  endfacet
  facet normal 0.382207 -0.913545 -0.139112
    outer loop
      vertex 32.7551 -34.4245 163.455
      vertex 25.6214 -37.8045 166.051
      vertex 32.0711 -34.4245 161.575
    endloop
  endfacet
  facet normal 0.552337 -0.809017 -0.201034
    outer loop
      vertex 32.7551 -34.4245 163.455
      vertex 32.0711 -34.4245 161.575
      vertex 38.3886 -29.54 159.276
    endloop
  endfacet
  facet normal 0.552337 -0.809017 -0.201034
    outer loop
      vertex 39.0726 -29.54 161.155
      vertex 32.7551 -34.4245 163.455
      vertex 38.3886 -29.54 159.276
    endloop
  endfacet
  facet normal 0.698328 -0.669131 -0.25417
    outer loop
      vertex 39.0726 -29.54 161.155
      vertex 38.3886 -29.54 159.276
      vertex 43.6137 -23.3645 157.374
    endloop
  endfacet
  facet normal 0.698328 -0.669131 -0.25417
    outer loop
      vertex 44.2978 -23.3645 159.253
      vertex 39.0726 -29.54 161.155
      vertex 43.6137 -23.3645 157.374
    endloop
  endfacet
  facet normal 0.813798 -0.5 -0.296198
    outer loop
      vertex 44.2978 -23.3645 159.253
      vertex 43.6137 -23.3645 157.374
      vertex 47.5182 -16.1678 155.953
    endloop
  endfacet
  facet normal 0.813798 -0.5 -0.296198
    outer loop
      vertex 48.2022 -16.1678 157.832
      vertex 44.2978 -23.3645 159.253
      vertex 47.5182 -16.1678 155.953
    endloop
  endfacet
  facet normal 0.893701 -0.309017 -0.32528
    outer loop
      vertex 48.2022 -16.1678 157.832
      vertex 47.5182 -16.1678 155.953
      vertex 49.9312 -8.26449 155.075
    endloop
  endfacet
  facet normal 0.893701 -0.309017 -0.32528
    outer loop
      vertex 50.6153 -8.26449 156.954
      vertex 48.2022 -16.1678 157.832
      vertex 49.9312 -8.26449 155.075
    endloop
  endfacet
  facet normal 0.934545 -0.104528 -0.340147
    outer loop
      vertex 50.6153 -8.26449 156.954
      vertex 49.9312 -8.26449 155.075
      vertex 50.7475 0 154.778
    endloop
  endfacet
  facet normal 0.934545 -0.104528 -0.340147
    outer loop
      vertex 51.4315 0 156.657
      vertex 50.6153 -8.26449 156.954
      vertex 50.7475 0 154.778
    endloop
  endfacet
  facet normal 0.934545 0.104528 -0.340147
    outer loop
      vertex 50.7475 0 154.778
      vertex 49.9312 8.26449 155.075
      vertex 50.6153 8.26449 156.954
    endloop
  endfacet
  facet normal 0.934545 0.104528 -0.340147
    outer loop
      vertex 51.4315 0 156.657
      vertex 50.7475 0 154.778
      vertex 50.6153 8.26449 156.954
    endloop
  endfacet
  facet normal 0.893701 0.309017 -0.32528
    outer loop
      vertex 49.9312 8.26449 155.075
      vertex 47.5182 16.1678 155.953
      vertex 48.2022 16.1678 157.832
    endloop
  endfacet
  facet normal 0.893701 0.309017 -0.32528
    outer loop
      vertex 50.6153 8.26449 156.954
      vertex 49.9312 8.26449 155.075
      vertex 48.2022 16.1678 157.832
    endloop
  endfacet
  facet normal 0.813798 0.5 -0.296198
    outer loop
      vertex 47.5182 16.1678 155.953
      vertex 43.6137 23.3645 157.374
      vertex 44.2978 23.3645 159.253
    endloop
  endfacet
  facet normal 0.813798 0.5 -0.296198
    outer loop
      vertex 48.2022 16.1678 157.832
      vertex 47.5182 16.1678 155.953
      vertex 44.2978 23.3645 159.253
    endloop
  endfacet
  facet normal 0.698328 0.669131 -0.25417
    outer loop
      vertex 43.6137 23.3645 157.374
      vertex 38.3886 29.54 159.276
      vertex 39.0726 29.54 161.155
    endloop
  endfacet
  facet normal 0.698328 0.669131 -0.25417
    outer loop
      vertex 44.2978 23.3645 159.253
      vertex 43.6137 23.3645 157.374
      vertex 39.0726 29.54 161.155
    endloop
  endfacet
  facet normal 0.552337 0.809017 -0.201034
    outer loop
      vertex 32.0711 34.4245 161.575
      vertex 32.7551 34.4245 163.455
      vertex 38.3886 29.54 159.276
    endloop
  endfacet
  facet normal 0.552337 0.809017 -0.201034
    outer loop
      vertex 38.3886 29.54 159.276
      vertex 32.7551 34.4245 163.455
      vertex 39.0726 29.54 161.155
    endloop
  endfacet
  facet normal 0.382207 0.913545 -0.139112
    outer loop
      vertex 24.9374 37.8045 164.172
      vertex 25.6214 37.8045 166.051
      vertex 32.0711 34.4245 161.575
    endloop
  endfacet
  facet normal 0.382207 0.913545 -0.139112
    outer loop
      vertex 32.0711 34.4245 161.575
      vertex 25.6214 37.8045 166.051
      vertex 32.7551 34.4245 163.455
    endloop
  endfacet
  facet normal 0.195373 0.978148 -0.0711099
    outer loop
      vertex 17.2991 39.5322 166.952
      vertex 17.9832 39.5322 168.831
      vertex 24.9374 37.8045 164.172
    endloop
  endfacet
  facet normal 0.195373 0.978148 -0.0711099
    outer loop
      vertex 24.9374 37.8045 164.172
      vertex 17.9832 39.5322 168.831
      vertex 25.6214 37.8045 166.051
    endloop
  endfacet
  facet normal 0 1 0
    outer loop
      vertex 9.49028 39.5322 169.794
      vertex 10.1743 39.5322 171.673
      vertex 17.2991 39.5322 166.952
    endloop
  endfacet
  facet normal 0 1 0
    outer loop
      vertex 17.2991 39.5322 166.952
      vertex 10.1743 39.5322 171.673
      vertex 17.9832 39.5322 168.831
    endloop
  endfacet
  facet normal -0.195373 0.978148 0.0711099
    outer loop
      vertex 1.85207 37.8045 172.574
      vertex 2.53611 37.8045 174.453
      vertex 9.49028 39.5322 169.794
    endloop
  endfacet
  facet normal -0.195373 0.978148 0.0711099
    outer loop
      vertex 9.49028 39.5322 169.794
      vertex 2.53611 37.8045 174.453
      vertex 10.1743 39.5322 171.673
    endloop
  endfacet
  facet normal -0.382207 0.913545 0.139112
    outer loop
      vertex -5.28168 34.4245 175.171
      vertex -4.59764 34.4245 177.05
      vertex 1.85207 37.8045 172.574
    endloop
  endfacet
  facet normal -0.382207 0.913545 0.139112
    outer loop
      vertex 1.85207 37.8045 172.574
      vertex -4.59764 34.4245 177.05
      vertex 2.53611 37.8045 174.453
    endloop
  endfacet
  facet normal -0.552337 0.809017 0.201034
    outer loop
      vertex -11.5992 29.54 177.47
      vertex -10.9151 29.54 179.349
      vertex -5.28168 34.4245 175.171
    endloop
  endfacet
  facet normal -0.552337 0.809017 0.201034
    outer loop
      vertex -5.28168 34.4245 175.171
      vertex -10.9151 29.54 179.349
      vertex -4.59764 34.4245 177.05
    endloop
  endfacet
  facet normal -0.698328 0.669131 0.25417
    outer loop
      vertex -16.8243 23.3645 179.372
      vertex -16.1403 23.3645 181.251
      vertex -11.5992 29.54 177.47
    endloop
  endfacet
  facet normal -0.698328 0.669131 0.25417
    outer loop
      vertex -11.5992 29.54 177.47
      vertex -16.1403 23.3645 181.251
      vertex -10.9151 29.54 179.349
    endloop
  endfacet
  facet normal -0.813798 0.5 0.296198
    outer loop
      vertex -20.7288 16.1678 180.793
      vertex -20.0447 16.1678 182.672
      vertex -16.8243 23.3645 179.372
    endloop
  endfacet
  facet normal -0.813798 0.5 0.296198
    outer loop
      vertex -16.8243 23.3645 179.372
      vertex -20.0447 16.1678 182.672
      vertex -16.1403 23.3645 181.251
    endloop
  endfacet
  facet normal -0.893701 0.309017 0.32528
    outer loop
      vertex -23.1418 8.26449 181.671
      vertex -22.4578 8.26449 183.55
      vertex -20.7288 16.1678 180.793
    endloop
  endfacet
  facet normal -0.893701 0.309017 0.32528
    outer loop
      vertex -20.7288 16.1678 180.793
      vertex -22.4578 8.26449 183.55
      vertex -20.0447 16.1678 182.672
    endloop
  endfacet
  facet normal -0.934545 0.104528 0.340147
    outer loop
      vertex -22.7627 0 179.405
      vertex -22.0787 0 181.284
      vertex -21.9875 7.84867 179.123
    endloop
  endfacet
  facet normal -0.934545 0.104528 0.340147
    outer loop
      vertex -21.9875 7.84867 179.123
      vertex -22.0787 0 181.284
      vertex -21.3035 7.84867 181.002
    endloop
  endfacet
  facet normal -0.934545 -0.104528 0.340147
    outer loop
      vertex -22.7627 0 179.405
      vertex -21.9875 -7.84867 179.123
      vertex -22.0787 0 181.284
    endloop
  endfacet
  facet normal -0.934545 -0.104528 0.340147
    outer loop
      vertex -22.0787 0 181.284
      vertex -21.9875 -7.84867 179.123
      vertex -21.3035 -7.84867 181.002
    endloop
  endfacet
  facet normal -0.893701 0.309017 0.32528
    outer loop
      vertex -21.9875 7.84867 179.123
      vertex -21.3035 7.84867 181.002
      vertex -19.6959 15.3543 178.289
    endloop
  endfacet
  facet normal -0.893701 0.309017 0.32528
    outer loop
      vertex -19.6959 15.3543 178.289
      vertex -21.3035 7.84867 181.002
      vertex -19.0118 15.3543 180.168
    endloop
  endfacet
  facet normal -0.813798 0.5 0.296198
    outer loop
      vertex -19.6959 15.3543 178.289
      vertex -19.0118 15.3543 180.168
      vertex -15.9879 22.1889 176.939
    endloop
  endfacet
  facet normal -0.813798 0.5 0.296198
    outer loop
      vertex -15.9879 22.1889 176.939
      vertex -19.0118 15.3543 180.168
      vertex -15.3039 22.1889 178.818
    endloop
  endfacet
  facet normal -0.698328 0.669131 0.25417
    outer loop
      vertex -15.9879 22.1889 176.939
      vertex -15.3039 22.1889 178.818
      vertex -11.0257 28.0537 175.133
    endloop
  endfacet
  facet normal -0.698328 0.669131 0.25417
    outer loop
      vertex -11.0257 28.0537 175.133
      vertex -15.3039 22.1889 178.818
      vertex -10.3416 28.0537 177.012
    endloop
  endfacet
  facet normal -0.552337 0.809017 0.201034
    outer loop
      vertex -11.0257 28.0537 175.133
      vertex -10.3416 28.0537 177.012
      vertex -5.02603 32.6925 172.949
    endloop
  endfacet
  facet normal -0.552337 0.809017 0.201034
    outer loop
      vertex -5.02603 32.6925 172.949
      vertex -10.3416 28.0537 177.012
      vertex -4.34199 32.6925 174.828
    endloop
  endfacet
  facet normal -0.382207 0.913545 0.139112
    outer loop
      vertex -5.02603 32.6925 172.949
      vertex -4.34199 32.6925 174.828
      vertex 1.74879 35.9024 170.483
    endloop
  endfacet
  facet normal -0.382207 0.913545 0.139112
    outer loop
      vertex 1.74879 35.9024 170.483
      vertex -4.34199 32.6925 174.828
      vertex 2.43283 35.9024 172.363
    endloop
  endfacet
  facet normal -0.195373 0.978148 0.07111
    outer loop
      vertex 1.74879 35.9024 170.483
      vertex 2.43283 35.9024 172.363
      vertex 9.00269 37.5432 167.843
    endloop
  endfacet
  facet normal -0.195373 0.978148 0.07111
    outer loop
      vertex 9.00269 37.5432 167.843
      vertex 2.43283 35.9024 172.363
      vertex 9.68673 37.5432 169.722
    endloop
  endfacet
  facet normal 0 1 0
    outer loop
      vertex 9.00269 37.5432 167.843
      vertex 9.68673 37.5432 169.722
      vertex 16.4187 37.5432 165.144
    endloop
  endfacet
  facet normal 0 1 0
    outer loop
      vertex 16.4187 37.5432 165.144
      vertex 9.68673 37.5432 169.722
      vertex 17.1027 37.5432 167.023
    endloop
  endfacet
  facet normal 0.195373 0.978148 -0.07111
    outer loop
      vertex 16.4187 37.5432 165.144
      vertex 17.1027 37.5432 167.023
      vertex 23.6726 35.9024 162.504
    endloop
  endfacet
  facet normal 0.195373 0.978148 -0.07111
    outer loop
      vertex 23.6726 35.9024 162.504
      vertex 17.1027 37.5432 167.023
      vertex 24.3566 35.9024 164.383
    endloop
  endfacet
  facet normal 0.382207 0.913545 -0.139112
    outer loop
      vertex 23.6726 35.9024 162.504
      vertex 24.3566 35.9024 164.383
      vertex 30.4474 32.6925 160.038
    endloop
  endfacet
  facet normal 0.382207 0.913545 -0.139112
    outer loop
      vertex 30.4474 32.6925 160.038
      vertex 24.3566 35.9024 164.383
      vertex 31.1314 32.6925 161.917
    endloop
  endfacet
  facet normal 0.552337 0.809017 -0.201034
    outer loop
      vertex 30.4474 32.6925 160.038
      vertex 31.1314 32.6925 161.917
      vertex 36.447 28.0537 157.854
    endloop
  endfacet
  facet normal 0.552337 0.809017 -0.201034
    outer loop
      vertex 36.447 28.0537 157.854
      vertex 31.1314 32.6925 161.917
      vertex 37.131 28.0537 159.734
    endloop
  endfacet
  facet normal 0.698328 0.669131 -0.25417
    outer loop
      vertex 41.4093 22.1889 156.048
      vertex 36.447 28.0537 157.854
      vertex 37.131 28.0537 159.734
    endloop
  endfacet
  facet normal 0.698328 0.669131 -0.25417
    outer loop
      vertex 42.0933 22.1889 157.927
      vertex 41.4093 22.1889 156.048
      vertex 37.131 28.0537 159.734
    endloop
  endfacet
  facet normal 0.813798 0.5 -0.296198
    outer loop
      vertex 45.1172 15.3543 154.698
      vertex 41.4093 22.1889 156.048
      vertex 42.0933 22.1889 157.927
    endloop
  endfacet
  facet normal 0.813798 0.5 -0.296198
    outer loop
      vertex 45.8013 15.3543 156.578
      vertex 45.1172 15.3543 154.698
      vertex 42.0933 22.1889 157.927
    endloop
  endfacet
  facet normal 0.893701 0.309017 -0.32528
    outer loop
      vertex 47.4089 7.84867 153.864
      vertex 45.1172 15.3543 154.698
      vertex 45.8013 15.3543 156.578
    endloop
  endfacet
  facet normal 0.893701 0.309017 -0.32528
    outer loop
      vertex 48.0929 7.84867 155.744
      vertex 47.4089 7.84867 153.864
      vertex 45.8013 15.3543 156.578
    endloop
  endfacet
  facet normal 0.934545 0.104528 -0.340147
    outer loop
      vertex 48.1841 0 153.582
      vertex 47.4089 7.84867 153.864
      vertex 48.0929 7.84867 155.744
    endloop
  endfacet
  facet normal 0.934545 0.104528 -0.340147
    outer loop
      vertex 48.8681 0 155.462
      vertex 48.1841 0 153.582
      vertex 48.0929 7.84867 155.744
    endloop
  endfacet
  facet normal 0.934545 -0.104528 -0.340147
    outer loop
      vertex 48.0929 -7.84867 155.744
      vertex 47.4089 -7.84867 153.864
      vertex 48.1841 0 153.582
    endloop
  endfacet
  facet normal 0.934545 -0.104528 -0.340147
    outer loop
      vertex 48.8681 0 155.462
      vertex 48.0929 -7.84867 155.744
      vertex 48.1841 0 153.582
    endloop
  endfacet
  facet normal 0.893701 -0.309017 -0.32528
    outer loop
      vertex 45.8013 -15.3543 156.578
      vertex 45.1172 -15.3543 154.698
      vertex 47.4089 -7.84867 153.864
    endloop
  endfacet
  facet normal 0.893701 -0.309017 -0.32528
    outer loop
      vertex 48.0929 -7.84867 155.744
      vertex 45.8013 -15.3543 156.578
      vertex 47.4089 -7.84867 153.864
    endloop
  endfacet
  facet normal 0.813798 -0.5 -0.296198
    outer loop
      vertex 42.0933 -22.1889 157.927
      vertex 41.4093 -22.1889 156.048
      vertex 45.1172 -15.3543 154.698
    endloop
  endfacet
  facet normal 0.813798 -0.5 -0.296198
    outer loop
      vertex 45.8013 -15.3543 156.578
      vertex 42.0933 -22.1889 157.927
      vertex 45.1172 -15.3543 154.698
    endloop
  endfacet
  facet normal 0.698328 -0.669131 -0.25417
    outer loop
      vertex 37.131 -28.0537 159.734
      vertex 36.447 -28.0537 157.854
      vertex 41.4093 -22.1889 156.048
    endloop
  endfacet
  facet normal 0.698328 -0.669131 -0.25417
    outer loop
      vertex 42.0933 -22.1889 157.927
      vertex 37.131 -28.0537 159.734
      vertex 41.4093 -22.1889 156.048
    endloop
  endfacet
  facet normal 0.552337 -0.809017 -0.201034
    outer loop
      vertex 31.1314 -32.6925 161.917
      vertex 30.4474 -32.6925 160.038
      vertex 36.447 -28.0537 157.854
    endloop
  endfacet
  facet normal 0.552337 -0.809017 -0.201034
    outer loop
      vertex 37.131 -28.0537 159.734
      vertex 31.1314 -32.6925 161.917
      vertex 36.447 -28.0537 157.854
    endloop
  endfacet
  facet normal 0.382207 -0.913545 -0.139112
    outer loop
      vertex 24.3566 -35.9024 164.383
      vertex 23.6726 -35.9024 162.504
      vertex 30.4474 -32.6925 160.038
    endloop
  endfacet
  facet normal 0.382207 -0.913545 -0.139112
    outer loop
      vertex 31.1314 -32.6925 161.917
      vertex 24.3566 -35.9024 164.383
      vertex 30.4474 -32.6925 160.038
    endloop
  endfacet
  facet normal 0.195373 -0.978148 -0.07111
    outer loop
      vertex 17.1027 -37.5432 167.023
      vertex 16.4187 -37.5432 165.144
      vertex 23.6726 -35.9024 162.504
    endloop
  endfacet
  facet normal 0.195373 -0.978148 -0.07111
    outer loop
      vertex 24.3566 -35.9024 164.383
      vertex 17.1027 -37.5432 167.023
      vertex 23.6726 -35.9024 162.504
    endloop
  endfacet
  facet normal 0 -1 0
    outer loop
      vertex 9.68673 -37.5432 169.722
      vertex 9.00269 -37.5432 167.843
      vertex 16.4187 -37.5432 165.144
    endloop
  endfacet
  facet normal 0 -1 0
    outer loop
      vertex 17.1027 -37.5432 167.023
      vertex 9.68673 -37.5432 169.722
      vertex 16.4187 -37.5432 165.144
    endloop
  endfacet
  facet normal -0.195373 -0.978148 0.07111
    outer loop
      vertex 2.43283 -35.9024 172.363
      vertex 1.74879 -35.9024 170.483
      vertex 9.00269 -37.5432 167.843
    endloop
  endfacet
  facet normal -0.195373 -0.978148 0.07111
    outer loop
      vertex 9.68673 -37.5432 169.722
      vertex 2.43283 -35.9024 172.363
      vertex 9.00269 -37.5432 167.843
    endloop
  endfacet
  facet normal -0.382207 -0.913545 0.139112
    outer loop
      vertex -4.34199 -32.6925 174.828
      vertex -5.02603 -32.6925 172.949
      vertex 1.74879 -35.9024 170.483
    endloop
  endfacet
  facet normal -0.382207 -0.913545 0.139112
    outer loop
      vertex 2.43283 -35.9024 172.363
      vertex -4.34199 -32.6925 174.828
      vertex 1.74879 -35.9024 170.483
    endloop
  endfacet
  facet normal -0.552337 -0.809017 0.201034
    outer loop
      vertex -10.3416 -28.0537 177.012
      vertex -11.0257 -28.0537 175.133
      vertex -5.02603 -32.6925 172.949
    endloop
  endfacet
  facet normal -0.552337 -0.809017 0.201034
    outer loop
      vertex -4.34199 -32.6925 174.828
      vertex -10.3416 -28.0537 177.012
      vertex -5.02603 -32.6925 172.949
    endloop
  endfacet
  facet normal -0.698328 -0.669131 0.25417
    outer loop
      vertex -15.9879 -22.1889 176.939
      vertex -11.0257 -28.0537 175.133
      vertex -15.3039 -22.1889 178.818
    endloop
  endfacet
  facet normal -0.698328 -0.669131 0.25417
    outer loop
      vertex -15.3039 -22.1889 178.818
      vertex -11.0257 -28.0537 175.133
      vertex -10.3416 -28.0537 177.012
    endloop
  endfacet
  facet normal -0.813798 -0.5 0.296198
    outer loop
      vertex -19.6959 -15.3543 178.289
      vertex -15.9879 -22.1889 176.939
      vertex -19.0118 -15.3543 180.168
    endloop
  endfacet
  facet normal -0.813798 -0.5 0.296198
    outer loop
      vertex -19.0118 -15.3543 180.168
      vertex -15.9879 -22.1889 176.939
      vertex -15.3039 -22.1889 178.818
    endloop
  endfacet
  facet normal -0.893701 -0.309017 0.32528
    outer loop
      vertex -21.9875 -7.84867 179.123
      vertex -19.6959 -15.3543 178.289
      vertex -21.3035 -7.84867 181.002
    endloop
  endfacet
  facet normal -0.893701 -0.309017 0.32528
    outer loop
      vertex -21.3035 -7.84867 181.002
      vertex -19.6959 -15.3543 178.289
      vertex -19.0118 -15.3543 180.168
    endloop
  endfacet
  facet normal 0.34202 0 0.939693
    outer loop
      vertex -22.4578 8.26449 183.55
      vertex -23.274 0 183.848
      vertex -22.4578 -8.26449 183.55
    endloop
  endfacet
  facet normal 0.34202 0 0.939693
    outer loop
      vertex -16.1403 -23.3645 181.251
      vertex -22.4578 8.26449 183.55
      vertex -20.0447 -16.1678 182.672
    endloop
  endfacet
  facet normal 0.34202 0 0.939693
    outer loop
      vertex -20.0447 -16.1678 182.672
      vertex -22.4578 8.26449 183.55
      vertex -22.4578 -8.26449 183.55
    endloop
  endfacet
  facet normal 0.34202 0 0.939693
    outer loop
      vertex -10.9151 -29.54 179.349
      vertex -22.4578 8.26449 183.55
      vertex -16.1403 -23.3645 181.251
    endloop
  endfacet
  facet normal 0.34202 0 0.939693
    outer loop
      vertex -4.59764 -34.4245 177.05
      vertex -22.4578 8.26449 183.55
      vertex -10.9151 -29.54 179.349
    endloop
  endfacet
  facet normal 0.34202 0 0.939693
    outer loop
      vertex 2.53611 -37.8045 174.453
      vertex -22.4578 8.26449 183.55
      vertex -4.59764 -34.4245 177.05
    endloop
  endfacet
  facet normal 0.34202 0 0.939693
    outer loop
      vertex 10.1743 -39.5322 171.673
      vertex -22.4578 8.26449 183.55
      vertex 2.53611 -37.8045 174.453
    endloop
  endfacet
  facet normal 0.34202 0 0.939693
    outer loop
      vertex 17.9832 -39.5322 168.831
      vertex -22.4578 8.26449 183.55
      vertex 10.1743 -39.5322 171.673
    endloop
  endfacet
  facet normal 0.34202 0 0.939693
    outer loop
      vertex 25.6214 -37.8045 166.051
      vertex -22.4578 8.26449 183.55
      vertex 17.9832 -39.5322 168.831
    endloop
  endfacet
  facet normal 0.34202 0 0.939693
    outer loop
      vertex 32.7551 -34.4245 163.455
      vertex -22.4578 8.26449 183.55
      vertex 25.6214 -37.8045 166.051
    endloop
  endfacet
  facet normal 0.34202 0 0.939693
    outer loop
      vertex 39.0726 -29.54 161.155
      vertex -22.4578 8.26449 183.55
      vertex 32.7551 -34.4245 163.455
    endloop
  endfacet
  facet normal 0.34202 0 0.939693
    outer loop
      vertex 44.2978 -23.3645 159.253
      vertex -22.4578 8.26449 183.55
      vertex 39.0726 -29.54 161.155
    endloop
  endfacet
  facet normal 0.34202 0 0.939693
    outer loop
      vertex 48.2022 -16.1678 157.832
      vertex -22.4578 8.26449 183.55
      vertex 44.2978 -23.3645 159.253
    endloop
  endfacet
  facet normal 0.34202 0 0.939693
    outer loop
      vertex 50.6153 -8.26449 156.954
      vertex -22.4578 8.26449 183.55
      vertex 48.2022 -16.1678 157.832
    endloop
  endfacet
  facet normal 0.34202 0 0.939693
    outer loop
      vertex 51.4315 0 156.657
      vertex -22.4578 8.26449 183.55
      vertex 50.6153 -8.26449 156.954
    endloop
  endfacet
  facet normal 0.34202 0 0.939693
    outer loop
      vertex 50.6153 8.26449 156.954
      vertex -22.4578 8.26449 183.55
      vertex 51.4315 0 156.657
    endloop
  endfacet
  facet normal 0.34202 0 0.939693
    outer loop
      vertex 48.2022 16.1678 157.832
      vertex -22.4578 8.26449 183.55
      vertex 50.6153 8.26449 156.954
    endloop
  endfacet
  facet normal 0.34202 0 0.939693
    outer loop
      vertex 44.2978 23.3645 159.253
      vertex -22.4578 8.26449 183.55
      vertex 48.2022 16.1678 157.832
    endloop
  endfacet
  facet normal 0.34202 0 0.939693
    outer loop
      vertex 39.0726 29.54 161.155
      vertex -22.4578 8.26449 183.55
      vertex 44.2978 23.3645 159.253
    endloop
  endfacet
  facet normal 0.34202 0 0.939693
    outer loop
      vertex 32.7551 34.4245 163.455
      vertex -22.4578 8.26449 183.55
      vertex 39.0726 29.54 161.155
    endloop
  endfacet
  facet normal 0.34202 0 0.939693
    outer loop
      vertex 25.6214 37.8045 166.051
      vertex -22.4578 8.26449 183.55
      vertex 32.7551 34.4245 163.455
    endloop
  endfacet
  facet normal 0.34202 0 0.939693
    outer loop
      vertex 17.9832 39.5322 168.831
      vertex -22.4578 8.26449 183.55
      vertex 25.6214 37.8045 166.051
    endloop
  endfacet
  facet normal 0.34202 0 0.939693
    outer loop
      vertex 10.1743 39.5322 171.673
      vertex -22.4578 8.26449 183.55
      vertex 17.9832 39.5322 168.831
    endloop
  endfacet
  facet normal 0.34202 0 0.939693
    outer loop
      vertex 2.53611 37.8045 174.453
      vertex -22.4578 8.26449 183.55
      vertex 10.1743 39.5322 171.673
    endloop
  endfacet
  facet normal 0.34202 0 0.939693
    outer loop
      vertex -4.59764 34.4245 177.05
      vertex -22.4578 8.26449 183.55
      vertex 2.53611 37.8045 174.453
    endloop
  endfacet
  facet normal 0.34202 0 0.939693
    outer loop
      vertex -10.9151 29.54 179.349
      vertex -22.4578 8.26449 183.55
      vertex -4.59764 34.4245 177.05
    endloop
  endfacet
  facet normal 0.34202 0 0.939693
    outer loop
      vertex -16.1403 23.3645 181.251
      vertex -22.4578 8.26449 183.55
      vertex -10.9151 29.54 179.349
    endloop
  endfacet
  facet normal 0.34202 0 0.939693
    outer loop
      vertex -20.0447 16.1678 182.672
      vertex -22.4578 8.26449 183.55
      vertex -16.1403 23.3645 181.251
    endloop
  endfacet
  facet normal -0.34202 0 -0.939693
    outer loop
      vertex -22.7627 0 179.405
      vertex -21.9875 7.84867 179.123
      vertex -21.9875 -7.84867 179.123
    endloop
  endfacet
  facet normal -0.34202 0 -0.939693
    outer loop
      vertex -21.9875 -7.84867 179.123
      vertex -21.9875 7.84867 179.123
      vertex -19.6959 15.3543 178.289
    endloop
  endfacet
  facet normal -0.34202 0 -0.939693
    outer loop
      vertex -17.979 14.5408 177.664
      vertex -19.6959 15.3543 178.289
      vertex -15.9879 22.1889 176.939
    endloop
  endfacet
  facet normal -0.34202 0 -0.939693
    outer loop
      vertex -14.4675 21.0133 176.386
      vertex -15.9879 22.1889 176.939
      vertex -11.0257 28.0537 175.133
    endloop
  endfacet
  facet normal -0.34202 0 -0.939693
    outer loop
      vertex -9.76811 26.5674 174.675
      vertex -11.0257 28.0537 175.133
      vertex -5.02603 32.6925 172.949
    endloop
  endfacet
  facet normal -0.34202 0 -0.939693
    outer loop
      vertex -4.08633 30.9604 172.607
      vertex -5.02603 32.6925 172.949
      vertex 1.74879 35.9024 170.483
    endloop
  endfacet
  facet normal -0.34202 0 -0.939693
    outer loop
      vertex 2.32955 34.0003 170.272
      vertex 1.74879 35.9024 170.483
      vertex 9.00269 37.5432 167.843
    endloop
  endfacet
  facet normal -0.34202 0 -0.939693
    outer loop
      vertex 9.19914 35.5542 167.772
      vertex 9.00269 37.5432 167.843
      vertex 16.4187 37.5432 165.144
    endloop
  endfacet
  facet normal -0.34202 0 -0.939693
    outer loop
      vertex 16.2222 35.5542 165.215
      vertex 16.4187 37.5432 165.144
      vertex 23.6726 35.9024 162.504
    endloop
  endfacet
  facet normal -0.34202 0 -0.939693
    outer loop
      vertex 23.0918 34.0003 162.715
      vertex 23.6726 35.9024 162.504
      vertex 30.4474 32.6925 160.038
    endloop
  endfacet
  facet normal -0.34202 0 -0.939693
    outer loop
      vertex 29.5077 30.9604 160.38
      vertex 30.4474 32.6925 160.038
      vertex 36.447 28.0537 157.854
    endloop
  endfacet
  facet normal -0.34202 0 -0.939693
    outer loop
      vertex 35.1895 26.5674 158.312
      vertex 36.447 28.0537 157.854
      vertex 41.4093 22.1889 156.048
    endloop
  endfacet
  facet normal -0.34202 0 -0.939693
    outer loop
      vertex 39.8888 21.0133 156.601
      vertex 41.4093 22.1889 156.048
      vertex 45.1172 15.3543 154.698
    endloop
  endfacet
  facet normal -0.34202 0 -0.939693
    outer loop
      vertex 45.5706 7.43284 154.533
      vertex 45.1172 15.3543 154.698
      vertex 47.4089 7.84867 153.864
    endloop
  endfacet
  facet normal -0.34202 0 -0.939693
    outer loop
      vertex 46.3047 0 154.266
      vertex 47.4089 7.84867 153.864
      vertex 48.1841 0 153.582
    endloop
  endfacet
  facet normal -0.34202 0 -0.939693
    outer loop
      vertex 45.5706 -7.43284 154.533
      vertex 48.1841 0 153.582
      vertex 47.4089 -7.84867 153.864
    endloop
  endfacet
  facet normal -0.34202 0 -0.939693
    outer loop
      vertex 43.4003 -14.5408 155.323
      vertex 47.4089 -7.84867 153.864
      vertex 45.1172 -15.3543 154.698
    endloop
  endfacet
  facet normal -0.34202 0 -0.939693
    outer loop
      vertex 39.8888 -21.0133 156.601
      vertex 45.1172 -15.3543 154.698
      vertex 41.4093 -22.1889 156.048
    endloop
  endfacet
  facet normal -0.34202 0 -0.939693
    outer loop
      vertex 35.1895 -26.5674 158.312
      vertex 41.4093 -22.1889 156.048
      vertex 36.447 -28.0537 157.854
    endloop
  endfacet
  facet normal -0.34202 0 -0.939693
    outer loop
      vertex 29.5077 -30.9604 160.38
      vertex 36.447 -28.0537 157.854
      vertex 30.4474 -32.6925 160.038
    endloop
  endfacet
  facet normal -0.34202 0 -0.939693
    outer loop
      vertex 23.0918 -34.0003 162.715
      vertex 30.4474 -32.6925 160.038
      vertex 23.6726 -35.9024 162.504
    endloop
  endfacet
  facet normal -0.34202 0 -0.939693
    outer loop
      vertex 16.2222 -35.5542 165.215
      vertex 23.6726 -35.9024 162.504
      vertex 16.4187 -37.5432 165.144
    endloop
  endfacet
  facet normal -0.34202 0 -0.939693
    outer loop
      vertex 9.19914 -35.5542 167.772
      vertex 16.4187 -37.5432 165.144
      vertex 9.00269 -37.5432 167.843
    endloop
  endfacet
  facet normal -0.34202 0 -0.939693
    outer loop
      vertex 2.32955 -34.0003 170.272
      vertex 9.00269 -37.5432 167.843
      vertex 1.74879 -35.9024 170.483
    endloop
  endfacet
  facet normal -0.34202 0 -0.939693
    outer loop
      vertex -4.08633 -30.9604 172.607
      vertex 1.74879 -35.9024 170.483
      vertex -5.02603 -32.6925 172.949
    endloop
  endfacet
  facet normal -0.34202 0 -0.939693
    outer loop
      vertex -14.4675 -21.0133 176.386
      vertex -5.02603 -32.6925 172.949
      vertex -11.0257 -28.0537 175.133
    endloop
  endfacet
  facet normal -0.34202 0 -0.939693
    outer loop
      vertex -21.9875 -7.84867 179.123
      vertex -11.0257 -28.0537 175.133
      vertex -15.9879 -22.1889 176.939
    endloop
  endfacet
  facet normal -0.34202 0 -0.939693
    outer loop
      vertex -21.9875 -7.84867 179.123
      vertex -15.9879 -22.1889 176.939
      vertex -19.6959 -15.3543 178.289
    endloop
  endfacet
  facet normal -0.34202 0 -0.939693
    outer loop
      vertex -21.9875 -7.84867 179.123
      vertex -19.6959 15.3543 178.289
      vertex -20.8833 0 178.721
    endloop
  endfacet
  facet normal -0.34202 0 -0.939693
    outer loop
      vertex -17.979 -14.5408 177.664
      vertex -21.9875 -7.84867 179.123
      vertex -20.1492 -7.43284 178.454
    endloop
  endfacet
  facet normal -0.34202 0 -0.939693
    outer loop
      vertex -4.08633 -30.9604 172.607
      vertex -5.02603 -32.6925 172.949
      vertex -9.76811 -26.5674 174.675
    endloop
  endfacet
  facet normal -0.34202 0 -0.939693
    outer loop
      vertex -21.9875 -7.84867 179.123
      vertex -17.979 -14.5408 177.664
      vertex -11.0257 -28.0537 175.133
    endloop
  endfacet
  facet normal -0.34202 0 -0.939693
    outer loop
      vertex -9.76811 -26.5674 174.675
      vertex -5.02603 -32.6925 172.949
      vertex -14.4675 -21.0133 176.386
    endloop
  endfacet
  facet normal -0.34202 0 -0.939693
    outer loop
      vertex -17.979 -14.5408 177.664
      vertex -14.4675 -21.0133 176.386
      vertex -11.0257 -28.0537 175.133
    endloop
  endfacet
  facet normal -0.34202 0 -0.939693
    outer loop
      vertex 45.5706 7.43284 154.533
      vertex 47.4089 7.84867 153.864
      vertex 46.3047 0 154.266
    endloop
  endfacet
  facet normal -0.34202 0 -0.939693
    outer loop
      vertex 43.4003 14.5408 155.323
      vertex 45.1172 15.3543 154.698
      vertex 45.5706 7.43284 154.533
    endloop
  endfacet
  facet normal -0.34202 0 -0.939693
    outer loop
      vertex 46.3047 0 154.266
      vertex 48.1841 0 153.582
      vertex 45.5706 -7.43284 154.533
    endloop
  endfacet
  facet normal -0.34202 0 -0.939693
    outer loop
      vertex 45.5706 -7.43284 154.533
      vertex 47.4089 -7.84867 153.864
      vertex 43.4003 -14.5408 155.323
    endloop
  endfacet
  facet normal -0.34202 0 -0.939693
    outer loop
      vertex 43.4003 -14.5408 155.323
      vertex 45.1172 -15.3543 154.698
      vertex 39.8888 -21.0133 156.601
    endloop
  endfacet
  facet normal -0.34202 0 -0.939693
    outer loop
      vertex 39.8888 -21.0133 156.601
      vertex 41.4093 -22.1889 156.048
      vertex 35.1895 -26.5674 158.312
    endloop
  endfacet
  facet normal -0.34202 0 -0.939693
    outer loop
      vertex 35.1895 -26.5674 158.312
      vertex 36.447 -28.0537 157.854
      vertex 29.5077 -30.9604 160.38
    endloop
  endfacet
  facet normal -0.34202 0 -0.939693
    outer loop
      vertex 29.5077 -30.9604 160.38
      vertex 30.4474 -32.6925 160.038
      vertex 23.0918 -34.0003 162.715
    endloop
  endfacet
  facet normal -0.34202 0 -0.939693
    outer loop
      vertex 23.0918 -34.0003 162.715
      vertex 23.6726 -35.9024 162.504
      vertex 16.2222 -35.5542 165.215
    endloop
  endfacet
  facet normal -0.34202 0 -0.939693
    outer loop
      vertex 16.2222 -35.5542 165.215
      vertex 16.4187 -37.5432 165.144
      vertex 9.19914 -35.5542 167.772
    endloop
  endfacet
  facet normal -0.34202 0 -0.939693
    outer loop
      vertex 9.19914 -35.5542 167.772
      vertex 9.00269 -37.5432 167.843
      vertex 2.32955 -34.0003 170.272
    endloop
  endfacet
  facet normal -0.34202 0 -0.939693
    outer loop
      vertex 2.32955 -34.0003 170.272
      vertex 1.74879 -35.9024 170.483
      vertex -4.08633 -30.9604 172.607
    endloop
  endfacet
  facet normal -0.34202 0 -0.939693
    outer loop
      vertex -20.1492 7.43284 178.454
      vertex -19.6959 15.3543 178.289
      vertex -17.979 14.5408 177.664
    endloop
  endfacet
  facet normal -0.34202 0 -0.939693
    outer loop
      vertex -20.8833 0 178.721
      vertex -19.6959 15.3543 178.289
      vertex -20.1492 7.43284 178.454
    endloop
  endfacet
  facet normal -0.34202 0 -0.939693
    outer loop
      vertex -20.1492 -7.43284 178.454
      vertex -21.9875 -7.84867 179.123
      vertex -20.8833 0 178.721
    endloop
  endfacet
  facet normal -0.34202 0 -0.939693
    outer loop
      vertex -17.979 14.5408 177.664
      vertex -15.9879 22.1889 176.939
      vertex -14.4675 21.0133 176.386
    endloop
  endfacet
  facet normal -0.34202 0 -0.939693
    outer loop
      vertex -14.4675 21.0133 176.386
      vertex -11.0257 28.0537 175.133
      vertex -9.76811 26.5674 174.675
    endloop
  endfacet
  facet normal -0.34202 0 -0.939693
    outer loop
      vertex -9.76811 26.5674 174.675
      vertex -5.02603 32.6925 172.949
      vertex -4.08633 30.9604 172.607
    endloop
  endfacet
  facet normal -0.34202 0 -0.939693
    outer loop
      vertex -4.08633 30.9604 172.607
      vertex 1.74879 35.9024 170.483
      vertex 2.32955 34.0003 170.272
    endloop
  endfacet
  facet normal -0.34202 0 -0.939693
    outer loop
      vertex 2.32955 34.0003 170.272
      vertex 9.00269 37.5432 167.843
      vertex 9.19914 35.5542 167.772
    endloop
  endfacet
  facet normal -0.34202 0 -0.939693
    outer loop
      vertex 9.19914 35.5542 167.772
      vertex 16.4187 37.5432 165.144
      vertex 16.2222 35.5542 165.215
    endloop
  endfacet
  facet normal -0.34202 0 -0.939693
    outer loop
      vertex 16.2222 35.5542 165.215
      vertex 23.6726 35.9024 162.504
      vertex 23.0918 34.0003 162.715
    endloop
  endfacet
  facet normal -0.34202 0 -0.939693
    outer loop
      vertex 23.0918 34.0003 162.715
      vertex 30.4474 32.6925 160.038
      vertex 29.5077 30.9604 160.38
    endloop
  endfacet
  facet normal -0.34202 0 -0.939693
    outer loop
      vertex 29.5077 30.9604 160.38
      vertex 36.447 28.0537 157.854
      vertex 35.1895 26.5674 158.312
    endloop
  endfacet
  facet normal -0.34202 0 -0.939693
    outer loop
      vertex 35.1895 26.5674 158.312
      vertex 41.4093 22.1889 156.048
      vertex 39.8888 21.0133 156.601
    endloop
  endfacet
  facet normal -0.34202 0 -0.939693
    outer loop
      vertex 39.8888 21.0133 156.601
      vertex 45.1172 15.3543 154.698
      vertex 43.4003 14.5408 155.323
    endloop
  endfacet
  facet normal 0.934545 -0.104528 -0.340147
    outer loop
      vertex -20.1492 7.43284 178.454
      vertex -19.4652 7.43284 180.333
      vertex -20.1993 0 180.6
    endloop
  endfacet
  facet normal 0.934545 -0.104528 -0.340147
    outer loop
      vertex -20.8833 0 178.721
      vertex -20.1492 7.43284 178.454
      vertex -20.1993 0 180.6
    endloop
  endfacet
  facet normal 0.934545 0.104528 -0.340147
    outer loop
      vertex -20.1993 0 180.6
      vertex -19.4652 -7.43284 180.333
      vertex -20.1492 -7.43284 178.454
    endloop
  endfacet
  facet normal 0.934545 0.104528 -0.340147
    outer loop
      vertex -20.8833 0 178.721
      vertex -20.1993 0 180.6
      vertex -20.1492 -7.43284 178.454
    endloop
  endfacet
  facet normal 0.893701 -0.309017 -0.32528
    outer loop
      vertex -17.979 14.5408 177.664
      vertex -17.2949 14.5408 179.543
      vertex -19.4652 7.43284 180.333
    endloop
  endfacet
  facet normal 0.893701 -0.309017 -0.32528
    outer loop
      vertex -20.1492 7.43284 178.454
      vertex -17.979 14.5408 177.664
      vertex -19.4652 7.43284 180.333
    endloop
  endfacet
  facet normal 0.813798 -0.5 -0.296198
    outer loop
      vertex -14.4675 21.0133 176.386
      vertex -13.7834 21.0133 178.265
      vertex -17.2949 14.5408 179.543
    endloop
  endfacet
  facet normal 0.813798 -0.5 -0.296198
    outer loop
      vertex -17.979 14.5408 177.664
      vertex -14.4675 21.0133 176.386
      vertex -17.2949 14.5408 179.543
    endloop
  endfacet
  facet normal 0.698328 -0.669131 -0.25417
    outer loop
      vertex -9.76811 26.5674 174.675
      vertex -9.08407 26.5674 176.554
      vertex -13.7834 21.0133 178.265
    endloop
  endfacet
  facet normal 0.698328 -0.669131 -0.25417
    outer loop
      vertex -14.4675 21.0133 176.386
      vertex -9.76811 26.5674 174.675
      vertex -13.7834 21.0133 178.265
    endloop
  endfacet
  facet normal 0.552337 -0.809017 -0.201034
    outer loop
      vertex -4.08633 30.9604 172.607
      vertex -3.40229 30.9604 174.486
      vertex -9.08407 26.5674 176.554
    endloop
  endfacet
  facet normal 0.552337 -0.809017 -0.201034
    outer loop
      vertex -9.76811 26.5674 174.675
      vertex -4.08633 30.9604 172.607
      vertex -9.08407 26.5674 176.554
    endloop
  endfacet
  facet normal 0.382207 -0.913545 -0.139112
    outer loop
      vertex 2.32955 34.0003 170.272
      vertex 3.01359 34.0003 172.151
      vertex -3.40229 30.9604 174.486
    endloop
  endfacet
  facet normal 0.382207 -0.913545 -0.139112
    outer loop
      vertex -4.08633 30.9604 172.607
      vertex 2.32955 34.0003 170.272
      vertex -3.40229 30.9604 174.486
    endloop
  endfacet
  facet normal 0.195373 -0.978148 -0.07111
    outer loop
      vertex 9.19914 35.5542 167.772
      vertex 9.88318 35.5542 169.651
      vertex 3.01359 34.0003 172.151
    endloop
  endfacet
  facet normal 0.195373 -0.978148 -0.07111
    outer loop
      vertex 2.32955 34.0003 170.272
      vertex 9.19914 35.5542 167.772
      vertex 3.01359 34.0003 172.151
    endloop
  endfacet
  facet normal 0 -1 0
    outer loop
      vertex 16.2222 35.5542 165.215
      vertex 16.9062 35.5542 167.095
      vertex 9.88318 35.5542 169.651
    endloop
  endfacet
  facet normal 0 -1 0
    outer loop
      vertex 9.19914 35.5542 167.772
      vertex 16.2222 35.5542 165.215
      vertex 9.88318 35.5542 169.651
    endloop
  endfacet
  facet normal -0.195373 -0.978148 0.07111
    outer loop
      vertex 23.0918 34.0003 162.715
      vertex 23.7758 34.0003 164.594
      vertex 16.9062 35.5542 167.095
    endloop
  endfacet
  facet normal -0.195373 -0.978148 0.07111
    outer loop
      vertex 16.2222 35.5542 165.215
      vertex 23.0918 34.0003 162.715
      vertex 16.9062 35.5542 167.095
    endloop
  endfacet
  facet normal -0.382207 -0.913545 0.139112
    outer loop
      vertex 29.5077 30.9604 160.38
      vertex 30.1917 30.9604 162.259
      vertex 23.7758 34.0003 164.594
    endloop
  endfacet
  facet normal -0.382207 -0.913545 0.139112
    outer loop
      vertex 23.0918 34.0003 162.715
      vertex 29.5077 30.9604 160.38
      vertex 23.7758 34.0003 164.594
    endloop
  endfacet
  facet normal -0.552337 -0.809017 0.201034
    outer loop
      vertex 35.1895 26.5674 158.312
      vertex 35.8735 26.5674 160.191
      vertex 30.1917 30.9604 162.259
    endloop
  endfacet
  facet normal -0.552337 -0.809017 0.201034
    outer loop
      vertex 29.5077 30.9604 160.38
      vertex 35.1895 26.5674 158.312
      vertex 30.1917 30.9604 162.259
    endloop
  endfacet
  facet normal -0.698328 -0.669131 0.25417
    outer loop
      vertex 40.5728 21.0133 158.481
      vertex 35.8735 26.5674 160.191
      vertex 39.8888 21.0133 156.601
    endloop
  endfacet
  facet normal -0.698328 -0.669131 0.25417
    outer loop
      vertex 39.8888 21.0133 156.601
      vertex 35.8735 26.5674 160.191
      vertex 35.1895 26.5674 158.312
    endloop
  endfacet
  facet normal -0.813798 -0.5 0.296198
    outer loop
      vertex 44.0844 14.5408 157.203
      vertex 40.5728 21.0133 158.481
      vertex 43.4003 14.5408 155.323
    endloop
  endfacet
  facet normal -0.813798 -0.5 0.296198
    outer loop
      vertex 43.4003 14.5408 155.323
      vertex 40.5728 21.0133 158.481
      vertex 39.8888 21.0133 156.601
    endloop
  endfacet
  facet normal -0.893701 -0.309017 0.32528
    outer loop
      vertex 46.2546 7.43284 156.413
      vertex 44.0844 14.5408 157.203
      vertex 45.5706 7.43284 154.533
    endloop
  endfacet
  facet normal -0.893701 -0.309017 0.32528
    outer loop
      vertex 45.5706 7.43284 154.533
      vertex 44.0844 14.5408 157.203
      vertex 43.4003 14.5408 155.323
    endloop
  endfacet
  facet normal -0.934545 -0.104528 0.340147
    outer loop
      vertex 46.9887 0 156.146
      vertex 46.2546 7.43284 156.413
      vertex 46.3047 0 154.266
    endloop
  endfacet
  facet normal -0.934545 -0.104528 0.340147
    outer loop
      vertex 46.3047 0 154.266
      vertex 46.2546 7.43284 156.413
      vertex 45.5706 7.43284 154.533
    endloop
  endfacet
  facet normal -0.934545 0.104528 0.340147
    outer loop
      vertex 46.9887 0 156.146
      vertex 46.3047 0 154.266
      vertex 46.2546 -7.43284 156.413
    endloop
  endfacet
  facet normal -0.934545 0.104528 0.340147
    outer loop
      vertex 46.2546 -7.43284 156.413
      vertex 46.3047 0 154.266
      vertex 45.5706 -7.43284 154.533
    endloop
  endfacet
  facet normal -0.893701 0.309017 0.32528
    outer loop
      vertex 46.2546 -7.43284 156.413
      vertex 45.5706 -7.43284 154.533
      vertex 44.0844 -14.5408 157.203
    endloop
  endfacet
  facet normal -0.893701 0.309017 0.32528
    outer loop
      vertex 44.0844 -14.5408 157.203
      vertex 45.5706 -7.43284 154.533
      vertex 43.4003 -14.5408 155.323
    endloop
  endfacet
  facet normal -0.813798 0.5 0.296198
    outer loop
      vertex 44.0844 -14.5408 157.203
      vertex 43.4003 -14.5408 155.323
      vertex 40.5728 -21.0133 158.481
    endloop
  endfacet
  facet normal -0.813798 0.5 0.296198
    outer loop
      vertex 40.5728 -21.0133 158.481
      vertex 43.4003 -14.5408 155.323
      vertex 39.8888 -21.0133 156.601
    endloop
  endfacet
  facet normal -0.698328 0.669131 0.25417
    outer loop
      vertex 40.5728 -21.0133 158.481
      vertex 39.8888 -21.0133 156.601
      vertex 35.8735 -26.5674 160.191
    endloop
  endfacet
  facet normal -0.698328 0.669131 0.25417
    outer loop
      vertex 35.8735 -26.5674 160.191
      vertex 39.8888 -21.0133 156.601
      vertex 35.1895 -26.5674 158.312
    endloop
  endfacet
  facet normal -0.552337 0.809017 0.201034
    outer loop
      vertex 35.8735 -26.5674 160.191
      vertex 35.1895 -26.5674 158.312
      vertex 30.1917 -30.9604 162.259
    endloop
  endfacet
  facet normal -0.552337 0.809017 0.201034
    outer loop
      vertex 30.1917 -30.9604 162.259
      vertex 35.1895 -26.5674 158.312
      vertex 29.5077 -30.9604 160.38
    endloop
  endfacet
  facet normal -0.382207 0.913545 0.139112
    outer loop
      vertex 30.1917 -30.9604 162.259
      vertex 29.5077 -30.9604 160.38
      vertex 23.7758 -34.0003 164.594
    endloop
  endfacet
  facet normal -0.382207 0.913545 0.139112
    outer loop
      vertex 23.7758 -34.0003 164.594
      vertex 29.5077 -30.9604 160.38
      vertex 23.0918 -34.0003 162.715
    endloop
  endfacet
  facet normal -0.195373 0.978148 0.07111
    outer loop
      vertex 23.7758 -34.0003 164.594
      vertex 23.0918 -34.0003 162.715
      vertex 16.9062 -35.5542 167.095
    endloop
  endfacet
  facet normal -0.195373 0.978148 0.07111
    outer loop
      vertex 16.9062 -35.5542 167.095
      vertex 23.0918 -34.0003 162.715
      vertex 16.2222 -35.5542 165.215
    endloop
  endfacet
  facet normal 0 1 0
    outer loop
      vertex 16.9062 -35.5542 167.095
      vertex 16.2222 -35.5542 165.215
      vertex 9.88318 -35.5542 169.651
    endloop
  endfacet
  facet normal 0 1 0
    outer loop
      vertex 9.88318 -35.5542 169.651
      vertex 16.2222 -35.5542 165.215
      vertex 9.19914 -35.5542 167.772
    endloop
  endfacet
  facet normal 0.195373 0.978148 -0.07111
    outer loop
      vertex 9.88318 -35.5542 169.651
      vertex 9.19914 -35.5542 167.772
      vertex 3.01359 -34.0003 172.151
    endloop
  endfacet
  facet normal 0.195373 0.978148 -0.07111
    outer loop
      vertex 3.01359 -34.0003 172.151
      vertex 9.19914 -35.5542 167.772
      vertex 2.32955 -34.0003 170.272
    endloop
  endfacet
  facet normal 0.382207 0.913545 -0.139112
    outer loop
      vertex 3.01359 -34.0003 172.151
      vertex 2.32955 -34.0003 170.272
      vertex -3.40229 -30.9604 174.486
    endloop
  endfacet
  facet normal 0.382207 0.913545 -0.139112
    outer loop
      vertex -3.40229 -30.9604 174.486
      vertex 2.32955 -34.0003 170.272
      vertex -4.08633 -30.9604 172.607
    endloop
  endfacet
  facet normal 0.552337 0.809017 -0.201034
    outer loop
      vertex -3.40229 -30.9604 174.486
      vertex -4.08633 -30.9604 172.607
      vertex -9.08407 -26.5674 176.554
    endloop
  endfacet
  facet normal 0.552337 0.809017 -0.201034
    outer loop
      vertex -9.08407 -26.5674 176.554
      vertex -4.08633 -30.9604 172.607
      vertex -9.76811 -26.5674 174.675
    endloop
  endfacet
  facet normal 0.698328 0.669131 -0.25417
    outer loop
      vertex -13.7834 -21.0133 178.265
      vertex -9.08407 -26.5674 176.554
      vertex -9.76811 -26.5674 174.675
    endloop
  endfacet
  facet normal 0.698328 0.669131 -0.25417
    outer loop
      vertex -14.4675 -21.0133 176.386
      vertex -13.7834 -21.0133 178.265
      vertex -9.76811 -26.5674 174.675
    endloop
  endfacet
  facet normal 0.813798 0.5 -0.296198
    outer loop
      vertex -17.2949 -14.5408 179.543
      vertex -13.7834 -21.0133 178.265
      vertex -14.4675 -21.0133 176.386
    endloop
  endfacet
  facet normal 0.813798 0.5 -0.296198
    outer loop
      vertex -17.979 -14.5408 177.664
      vertex -17.2949 -14.5408 179.543
      vertex -14.4675 -21.0133 176.386
    endloop
  endfacet
  facet normal 0.893701 0.309017 -0.32528
    outer loop
      vertex -19.4652 -7.43284 180.333
      vertex -17.2949 -14.5408 179.543
      vertex -17.979 -14.5408 177.664
    endloop
  endfacet
  facet normal 0.893701 0.309017 -0.32528
    outer loop
      vertex -20.1492 -7.43284 178.454
      vertex -19.4652 -7.43284 180.333
      vertex -17.979 -14.5408 177.664
    endloop
  endfacet
  facet normal -0.34202 0 -0.939693
    outer loop
      vertex -20.1993 0 180.6
      vertex -19.4652 7.43284 180.333
      vertex -19.4652 -7.43284 180.333
    endloop
  endfacet
  facet normal -0.34202 0 -0.939693
    outer loop
      vertex -19.4652 -7.43284 180.333
      vertex -19.4652 7.43284 180.333
      vertex -17.2949 14.5408 179.543
    endloop
  endfacet
  facet normal -0.34202 0 -0.939693
    outer loop
      vertex -19.4652 -7.43284 180.333
      vertex -17.2949 14.5408 179.543
      vertex -13.7834 21.0133 178.265
    endloop
  endfacet
  facet normal -0.34202 0 -0.939693
    outer loop
      vertex -19.4652 -7.43284 180.333
      vertex -13.7834 21.0133 178.265
      vertex -9.08407 26.5674 176.554
    endloop
  endfacet
  facet normal -0.34202 0 -0.939693
    outer loop
      vertex -19.4652 -7.43284 180.333
      vertex -9.08407 26.5674 176.554
      vertex -3.40229 30.9604 174.486
    endloop
  endfacet
  facet normal -0.34202 0 -0.939693
    outer loop
      vertex -19.4652 -7.43284 180.333
      vertex -3.40229 30.9604 174.486
      vertex 3.01359 34.0003 172.151
    endloop
  endfacet
  facet normal -0.34202 0 -0.939693
    outer loop
      vertex -19.4652 -7.43284 180.333
      vertex 3.01359 34.0003 172.151
      vertex 9.88318 35.5542 169.651
    endloop
  endfacet
  facet normal -0.34202 0 -0.939693
    outer loop
      vertex -19.4652 -7.43284 180.333
      vertex 9.88318 35.5542 169.651
      vertex 16.9062 35.5542 167.095
    endloop
  endfacet
  facet normal -0.34202 0 -0.939693
    outer loop
      vertex -19.4652 -7.43284 180.333
      vertex 16.9062 35.5542 167.095
      vertex 23.7758 34.0003 164.594
    endloop
  endfacet
  facet normal -0.34202 0 -0.939693
    outer loop
      vertex -19.4652 -7.43284 180.333
      vertex 23.7758 34.0003 164.594
      vertex 30.1917 30.9604 162.259
    endloop
  endfacet
  facet normal -0.34202 0 -0.939693
    outer loop
      vertex -19.4652 -7.43284 180.333
      vertex 30.1917 30.9604 162.259
      vertex 35.8735 26.5674 160.191
    endloop
  endfacet
  facet normal -0.34202 0 -0.939693
    outer loop
      vertex -19.4652 -7.43284 180.333
      vertex 35.8735 26.5674 160.191
      vertex 40.5728 21.0133 158.481
    endloop
  endfacet
  facet normal -0.34202 0 -0.939693
    outer loop
      vertex -19.4652 -7.43284 180.333
      vertex 40.5728 21.0133 158.481
      vertex 44.0844 14.5408 157.203
    endloop
  endfacet
  facet normal -0.34202 0 -0.939693
    outer loop
      vertex -19.4652 -7.43284 180.333
      vertex 44.0844 14.5408 157.203
      vertex 46.2546 7.43284 156.413
    endloop
  endfacet
  facet normal -0.34202 0 -0.939693
    outer loop
      vertex -19.4652 -7.43284 180.333
      vertex 46.2546 7.43284 156.413
      vertex 46.9887 0 156.146
    endloop
  endfacet
  facet normal -0.34202 0 -0.939693
    outer loop
      vertex -19.4652 -7.43284 180.333
      vertex 46.9887 0 156.146
      vertex 46.2546 -7.43284 156.413
    endloop
  endfacet
  facet normal -0.34202 0 -0.939693
    outer loop
      vertex -19.4652 -7.43284 180.333
      vertex 46.2546 -7.43284 156.413
      vertex 44.0844 -14.5408 157.203
    endloop
  endfacet
  facet normal -0.34202 0 -0.939693
    outer loop
      vertex -19.4652 -7.43284 180.333
      vertex 44.0844 -14.5408 157.203
      vertex 40.5728 -21.0133 158.481
    endloop
  endfacet
  facet normal -0.34202 0 -0.939693
    outer loop
      vertex -19.4652 -7.43284 180.333
      vertex 40.5728 -21.0133 158.481
      vertex 35.8735 -26.5674 160.191
    endloop
  endfacet
  facet normal -0.34202 0 -0.939693
    outer loop
      vertex -19.4652 -7.43284 180.333
      vertex 35.8735 -26.5674 160.191
      vertex 30.1917 -30.9604 162.259
    endloop
  endfacet
  facet normal -0.34202 0 -0.939693
    outer loop
      vertex -19.4652 -7.43284 180.333
      vertex 30.1917 -30.9604 162.259
      vertex 23.7758 -34.0003 164.594
    endloop
  endfacet
  facet normal -0.34202 0 -0.939693
    outer loop
      vertex -19.4652 -7.43284 180.333
      vertex 23.7758 -34.0003 164.594
      vertex 16.9062 -35.5542 167.095
    endloop
  endfacet
  facet normal -0.34202 0 -0.939693
    outer loop
      vertex -19.4652 -7.43284 180.333
      vertex 16.9062 -35.5542 167.095
      vertex 9.88318 -35.5542 169.651
    endloop
  endfacet
  facet normal -0.34202 0 -0.939693
    outer loop
      vertex -19.4652 -7.43284 180.333
      vertex 9.88318 -35.5542 169.651
      vertex 3.01359 -34.0003 172.151
    endloop
  endfacet
  facet normal -0.34202 0 -0.939693
    outer loop
      vertex -19.4652 -7.43284 180.333
      vertex 3.01359 -34.0003 172.151
      vertex -3.40229 -30.9604 174.486
    endloop
  endfacet
  facet normal -0.34202 0 -0.939693
    outer loop
      vertex -19.4652 -7.43284 180.333
      vertex -3.40229 -30.9604 174.486
      vertex -9.08407 -26.5674 176.554
    endloop
  endfacet
  facet normal -0.34202 0 -0.939693
    outer loop
      vertex -19.4652 -7.43284 180.333
      vertex -9.08407 -26.5674 176.554
      vertex -13.7834 -21.0133 178.265
    endloop
  endfacet
  facet normal -0.34202 0 -0.939693
    outer loop
      vertex -19.4652 -7.43284 180.333
      vertex -13.7834 -21.0133 178.265
      vertex -17.2949 -14.5408 179.543
    endloop
  endfacet
endsolid OpenSCAD_Model
