solid OpenSCAD_Model
  facet normal -1 0 0
    outer loop
      vertex -15 53 12.7701
      vertex -15 53 89
      vertex -15 68 12.7701
    endloop
  endfacet
  facet normal -1 0 0
    outer loop
      vertex -15 68 12.7701
      vertex -15 53 89
      vertex -15 60.5 89
    endloop
  endfacet
  facet normal -1 0 0
    outer loop
      vertex -15 68 12.7701
      vertex -15 60.5 89
      vertex -15 68 89
    endloop
  endfacet
  facet normal 0 -1 0
    outer loop
      vertex -6 53 52
      vertex -15 53 12.7701
      vertex 11.8906 53 2.98276
    endloop
  endfacet
  facet normal 0 -1 0
    outer loop
      vertex -6 53 82
      vertex 6 53 82
      vertex -7.5 53 89
    endloop
  endfacet
  facet normal 0 -1 0
    outer loop
      vertex 15 53 89
      vertex 7.5 53 89
      vertex 15 53 5.59188
    endloop
  endfacet
  facet normal 0 -1 0
    outer loop
      vertex -15 53 89
      vertex -15 53 12.7701
      vertex -6 53 52
    endloop
  endfacet
  facet normal 0 -1 0
    outer loop
      vertex -7.5 53 89
      vertex -15 53 89
      vertex -6 53 82
    endloop
  endfacet
  facet normal 0 -1 0
    outer loop
      vertex 7.5 53 89
      vertex 6 53 82
      vertex 15 53 5.59188
    endloop
  endfacet
  facet normal 0 -1 0
    outer loop
      vertex 7.5 53 89
      vertex -7.5 53 89
      vertex 6 53 82
    endloop
  endfacet
  facet normal 0 -1 0
    outer loop
      vertex 6 53 82
      vertex 6 53 52
      vertex 15 53 5.59188
    endloop
  endfacet
  facet normal 0 -1 0
    outer loop
      vertex -6 53 52
      vertex -6 53 82
      vertex -15 53 89
    endloop
  endfacet
  facet normal 0 -1 0
    outer loop
      vertex 6 53 52
      vertex 11.8906 53 2.98276
      vertex 15 53 5.59188
    endloop
  endfacet
  facet normal 0 -1 0
    outer loop
      vertex 6 53 52
      vertex -6 53 52
      vertex 11.8906 53 2.98276
    endloop
  endfacet
  facet normal -0.34202 0 -0.939693
    outer loop
      vertex 11.8906 68 2.98276
      vertex 11.8906 53 2.98276
      vertex -15 68 12.7701
    endloop
  endfacet
  facet normal -0.34202 0 -0.939693
    outer loop
      vertex -15 68 12.7701
      vertex 11.8906 53 2.98276
      vertex -15 53 12.7701
    endloop
  endfacet
  facet normal 0 1 0
    outer loop
      vertex -11.2133 68 82
      vertex -15 68 89
      vertex -7.5 68 89
    endloop
  endfacet
  facet normal 0 1 0
    outer loop
      vertex 11.2133 68 82
      vertex 7.5 68 89
      vertex 15 68 89
    endloop
  endfacet
  facet normal 0 1 0
    outer loop
      vertex 11.8906 68 2.98276
      vertex 15 68 89
      vertex 15 68 5.59188
    endloop
  endfacet
  facet normal 0 1 0
    outer loop
      vertex -15 68 12.7701
      vertex -15 68 89
      vertex -11.5 68 52
    endloop
  endfacet
  facet normal 0 1 0
    outer loop
      vertex -15 68 12.7701
      vertex -11.5 68 52
      vertex -11.5 68 15
    endloop
  endfacet
  facet normal 0 1 0
    outer loop
      vertex -15 68 12.7701
      vertex -11.5 68 15
      vertex 11.8906 68 2.98276
    endloop
  endfacet
  facet normal 0 1 0
    outer loop
      vertex 11.2133 68 82
      vertex 11.5 68 52
      vertex 11.2133 68 52
    endloop
  endfacet
  facet normal 0 1 0
    outer loop
      vertex 11.8906 68 2.98276
      vertex 11.5 68 15
      vertex 15 68 89
    endloop
  endfacet
  facet normal 0 1 0
    outer loop
      vertex -11.2133 68 82
      vertex 7.5 68 89
      vertex 11.2133 68 82
    endloop
  endfacet
  facet normal 0 1 0
    outer loop
      vertex 11.5 68 15
      vertex 11.5 68 52
      vertex 15 68 89
    endloop
  endfacet
  facet normal 0 1 0
    outer loop
      vertex -11.2133 68 82
      vertex -7.5 68 89
      vertex 7.5 68 89
    endloop
  endfacet
  facet normal 0 1 0
    outer loop
      vertex 11.5 68 52
      vertex 11.2133 68 82
      vertex 15 68 89
    endloop
  endfacet
  facet normal 0 1 0
    outer loop
      vertex -11.5 68 52
      vertex -15 68 89
      vertex -11.2133 68 52
    endloop
  endfacet
  facet normal 0 1 0
    outer loop
      vertex 11.5 68 15
      vertex 11.8906 68 2.98276
      vertex -11.5 68 15
    endloop
  endfacet
  facet normal 0 1 0
    outer loop
      vertex -11.2133 68 52
      vertex -15 68 89
      vertex -11.2133 68 82
    endloop
  endfacet
  facet normal 0 0 1
    outer loop
      vertex -12.8033 65.8033 89
      vertex -11.25 66.9952 89
      vertex -15 68 89
    endloop
  endfacet
  facet normal 0 0 1
    outer loop
      vertex -15 68 89
      vertex -15 60.5 89
      vertex -14.7444 62.4411 89
    endloop
  endfacet
  facet normal 0 0 1
    outer loop
      vertex -11.25 66.9952 89
      vertex -9.44114 67.7444 89
      vertex -15 68 89
    endloop
  endfacet
  facet normal 0 0 1
    outer loop
      vertex -13.9952 64.25 89
      vertex -15 68 89
      vertex -14.7444 62.4411 89
    endloop
  endfacet
  facet normal 0 0 1
    outer loop
      vertex -13.9952 64.25 89
      vertex -12.8033 65.8033 89
      vertex -15 68 89
    endloop
  endfacet
  facet normal 0 0 1
    outer loop
      vertex -9.44114 67.7444 89
      vertex -7.5 68 89
      vertex -15 68 89
    endloop
  endfacet
  facet normal 0 0 1
    outer loop
      vertex -9.44114 53.2556 89
      vertex -15 53 89
      vertex -7.5 53 89
    endloop
  endfacet
  facet normal 0 0 1
    outer loop
      vertex -11.25 54.0048 89
      vertex -15 53 89
      vertex -9.44114 53.2556 89
    endloop
  endfacet
  facet normal 0 0 1
    outer loop
      vertex -12.8033 55.1967 89
      vertex -15 53 89
      vertex -11.25 54.0048 89
    endloop
  endfacet
  facet normal 0 0 1
    outer loop
      vertex -13.9952 56.75 89
      vertex -15 53 89
      vertex -12.8033 55.1967 89
    endloop
  endfacet
  facet normal 0 0 1
    outer loop
      vertex -14.7444 58.5589 89
      vertex -15 53 89
      vertex -13.9952 56.75 89
    endloop
  endfacet
  facet normal 0 0 1
    outer loop
      vertex -15 60.5 89
      vertex -15 53 89
      vertex -14.7444 58.5589 89
    endloop
  endfacet
  facet normal -0.991445 0.130526 0
    outer loop
      vertex -15 60.5 89
      vertex -15 60.5 129
      vertex -14.7444 62.4411 89
    endloop
  endfacet
  facet normal -0.991445 0.130526 0
    outer loop
      vertex -14.7444 62.4411 89
      vertex -15 60.5 129
      vertex -14.7444 62.4411 126.569
    endloop
  endfacet
  facet normal -0.991445 -0.130526 0
    outer loop
      vertex -15 60.5 89
      vertex -14.7444 58.5589 89
      vertex -15 60.5 129
    endloop
  endfacet
  facet normal -0.991445 -0.130526 0
    outer loop
      vertex -15 60.5 129
      vertex -14.7444 58.5589 89
      vertex -14.7444 58.5589 126.569
    endloop
  endfacet
  facet normal -0.130526 -0.991445 0
    outer loop
      vertex -9.44114 53.2556 117.42
      vertex -9.44114 53.2556 89
      vertex -7.5 53 89
    endloop
  endfacet
  facet normal -0.130526 -0.991445 0
    outer loop
      vertex -7.5 53 116.01
      vertex -9.44114 53.2556 117.42
      vertex -7.5 53 89
    endloop
  endfacet
  facet normal 1 0 0
    outer loop
      vertex -7.5 68 89
      vertex -7.5 68 129
      vertex -7.5 68 116.01
    endloop
  endfacet
  facet normal 1 0 0
    outer loop
      vertex -7.5 53 116.01
      vertex -7.5 68 89
      vertex -7.5 68 116.01
    endloop
  endfacet
  facet normal 1 0 0
    outer loop
      vertex -7.5 53 116.01
      vertex -7.5 53 89
      vertex -7.5 68 89
    endloop
  endfacet
  facet normal 0 0 1
    outer loop
      vertex -7.5 68 89
      vertex -7.5 53 89
      vertex 7.5 53 89
    endloop
  endfacet
  facet normal 0 0 1
    outer loop
      vertex 7.5 68 89
      vertex -7.5 68 89
      vertex 7.5 53 89
    endloop
  endfacet
  facet normal -1 0 0
    outer loop
      vertex 7.5 68 116.01
      vertex 7.5 68 129
      vertex 7.5 68 89
    endloop
  endfacet
  facet normal -1 0 0
    outer loop
      vertex 7.5 68 116.01
      vertex 7.5 68 89
      vertex 7.5 53 116.01
    endloop
  endfacet
  facet normal -1 0 0
    outer loop
      vertex 7.5 68 89
      vertex 7.5 53 89
      vertex 7.5 53 116.01
    endloop
  endfacet
  facet normal 0.130526 -0.991445 0
    outer loop
      vertex 7.5 53 116.01
      vertex 7.5 53 89
      vertex 9.44114 53.2556 89
    endloop
  endfacet
  facet normal 0.130526 -0.991445 0
    outer loop
      vertex 9.44114 53.2556 117.42
      vertex 7.5 53 116.01
      vertex 9.44114 53.2556 89
    endloop
  endfacet
  facet normal 0 0 1
    outer loop
      vertex 9.44114 53.2556 89
      vertex 7.5 53 89
      vertex 15 53 89
    endloop
  endfacet
  facet normal 0 0 1
    outer loop
      vertex 11.25 54.0048 89
      vertex 9.44114 53.2556 89
      vertex 15 53 89
    endloop
  endfacet
  facet normal 0 0 1
    outer loop
      vertex 15 60.5 89
      vertex 14.7444 58.5589 89
      vertex 15 53 89
    endloop
  endfacet
  facet normal 0 0 1
    outer loop
      vertex 14.7444 58.5589 89
      vertex 13.9952 56.75 89
      vertex 15 53 89
    endloop
  endfacet
  facet normal 0 0 1
    outer loop
      vertex 13.9952 56.75 89
      vertex 12.8033 55.1967 89
      vertex 15 53 89
    endloop
  endfacet
  facet normal 0 0 1
    outer loop
      vertex 12.8033 55.1967 89
      vertex 11.25 54.0048 89
      vertex 15 53 89
    endloop
  endfacet
  facet normal 1 0 0
    outer loop
      vertex 15 53 89
      vertex 15 53 5.59188
      vertex 15 68 5.59188
    endloop
  endfacet
  facet normal 1 0 0
    outer loop
      vertex 15 60.5 89
      vertex 15 53 89
      vertex 15 68 5.59188
    endloop
  endfacet
  facet normal 1 0 0
    outer loop
      vertex 15 68 89
      vertex 15 60.5 89
      vertex 15 68 5.59188
    endloop
  endfacet
  facet normal 0.642788 0 -0.766044
    outer loop
      vertex 15 68 5.59188
      vertex 15 53 5.59188
      vertex 11.8906 68 2.98276
    endloop
  endfacet
  facet normal 0.642788 0 -0.766044
    outer loop
      vertex 11.8906 68 2.98276
      vertex 15 53 5.59188
      vertex 11.8906 53 2.98276
    endloop
  endfacet
  facet normal 1 0 0
    outer loop
      vertex -6 53 82
      vertex -6 53 52
      vertex -6 56 52
    endloop
  endfacet
  facet normal 1 0 0
    outer loop
      vertex -6 56 82
      vertex -6 53 82
      vertex -6 56 52
    endloop
  endfacet
  facet normal 0 0 1
    outer loop
      vertex -6 56 52
      vertex -6 53 52
      vertex 6 53 52
    endloop
  endfacet
  facet normal 0 0 1
    outer loop
      vertex 6 56 52
      vertex -6 56 52
      vertex 6 53 52
    endloop
  endfacet
  facet normal -1 0 0
    outer loop
      vertex 6 53 52
      vertex 6 53 82
      vertex 6 56 52
    endloop
  endfacet
  facet normal -1 0 0
    outer loop
      vertex 6 56 52
      vertex 6 53 82
      vertex 6 56 82
    endloop
  endfacet
  facet normal 0 0 -1
    outer loop
      vertex -11.5 65.5 82
      vertex -11.2487 67.891 82
      vertex -11.2487 63.109 82
    endloop
  endfacet
  facet normal 0 0 -1
    outer loop
      vertex -11.2487 63.109 82
      vertex -11.2487 67.891 82
      vertex -11.2133 68 82
    endloop
  endfacet
  facet normal 0 0 -1
    outer loop
      vertex -11.2487 63.109 82
      vertex -11.2133 68 82
      vertex 11.2133 68 82
    endloop
  endfacet
  facet normal 0 0 -1
    outer loop
      vertex -11.2487 63.109 82
      vertex 11.2133 68 82
      vertex 11.2487 67.891 82
    endloop
  endfacet
  facet normal 0 0 -1
    outer loop
      vertex -11.2487 63.109 82
      vertex 11.2487 67.891 82
      vertex 11.5 65.5 82
    endloop
  endfacet
  facet normal 0 0 -1
    outer loop
      vertex -11.2487 63.109 82
      vertex 11.5 65.5 82
      vertex 11.2487 63.109 82
    endloop
  endfacet
  facet normal 0 0 -1
    outer loop
      vertex -11.2487 63.109 82
      vertex 11.2487 63.109 82
      vertex 10.5058 60.8225 82
    endloop
  endfacet
  facet normal 0 0 -1
    outer loop
      vertex -11.2487 63.109 82
      vertex 10.5058 60.8225 82
      vertex 9.30369 58.7405 82
    endloop
  endfacet
  facet normal 0 0 -1
    outer loop
      vertex -11.2487 63.109 82
      vertex 9.30369 58.7405 82
      vertex 7.695 56.9538 82
    endloop
  endfacet
  facet normal 0 0 -1
    outer loop
      vertex -11.2487 63.109 82
      vertex 7.695 56.9538 82
      vertex 6.38216 56 82
    endloop
  endfacet
  facet normal 0 0 -1
    outer loop
      vertex -11.2487 63.109 82
      vertex 6.38216 56 82
      vertex 6 56 82
    endloop
  endfacet
  facet normal 0 0 -1
    outer loop
      vertex -11.2487 63.109 82
      vertex 6 56 82
      vertex 6 53 82
    endloop
  endfacet
  facet normal 0 0 -1
    outer loop
      vertex -6 56 82
      vertex 6 53 82
      vertex -6 53 82
    endloop
  endfacet
  facet normal 0 0 -1
    outer loop
      vertex -11.2487 63.109 82
      vertex 6 53 82
      vertex -6 56 82
    endloop
  endfacet
  facet normal 0 0 -1
    outer loop
      vertex -11.2487 63.109 82
      vertex -6 56 82
      vertex -6.38216 56 82
    endloop
  endfacet
  facet normal 0 0 -1
    outer loop
      vertex -11.2487 63.109 82
      vertex -6.38216 56 82
      vertex -7.695 56.9538 82
    endloop
  endfacet
  facet normal 0 0 -1
    outer loop
      vertex -11.2487 63.109 82
      vertex -9.30369 58.7405 82
      vertex -10.5058 60.8225 82
    endloop
  endfacet
  facet normal 0 0 -1
    outer loop
      vertex -9.30369 58.7405 82
      vertex -11.2487 63.109 82
      vertex -7.695 56.9538 82
    endloop
  endfacet
  facet normal 0 0 1
    outer loop
      vertex 12.8033 65.8033 89
      vertex 13.9952 64.25 89
      vertex 15 68 89
    endloop
  endfacet
  facet normal 0 0 1
    outer loop
      vertex 15 68 89
      vertex 7.5 68 89
      vertex 9.44114 67.7444 89
    endloop
  endfacet
  facet normal 0 0 1
    outer loop
      vertex 13.9952 64.25 89
      vertex 14.7444 62.4411 89
      vertex 15 68 89
    endloop
  endfacet
  facet normal 0 0 1
    outer loop
      vertex 11.25 66.9952 89
      vertex 15 68 89
      vertex 9.44114 67.7444 89
    endloop
  endfacet
  facet normal 0 0 1
    outer loop
      vertex 11.25 66.9952 89
      vertex 12.8033 65.8033 89
      vertex 15 68 89
    endloop
  endfacet
  facet normal 0 0 1
    outer loop
      vertex 14.7444 62.4411 89
      vertex 15 60.5 89
      vertex 15 68 89
    endloop
  endfacet
  facet normal 0.130526 0.991445 0
    outer loop
      vertex 7.5 68 89
      vertex 7.5 68 116.01
      vertex 9.44114 67.7444 89
    endloop
  endfacet
  facet normal 0.130526 0.991445 0
    outer loop
      vertex 7.5 68 89
      vertex 7.5 68 129
      vertex 7.5 68 116.01
    endloop
  endfacet
  facet normal 0.130526 0.991445 0
    outer loop
      vertex 9.44114 67.7444 117.42
      vertex 9.44114 67.7444 89
      vertex 7.5 68 116.01
    endloop
  endfacet
  facet normal -0.130526 0.991445 0
    outer loop
      vertex -9.44114 67.7444 89
      vertex -9.44114 67.7444 117.42
      vertex -7.5 68 89
    endloop
  endfacet
  facet normal -0.130526 0.991445 0
    outer loop
      vertex -7.5 68 89
      vertex -9.44114 67.7444 117.42
      vertex -7.5 68 116.01
    endloop
  endfacet
  facet normal -0.130526 0.991445 0
    outer loop
      vertex -7.5 68 89
      vertex -7.5 68 116.01
      vertex -7.5 68 129
    endloop
  endfacet
  facet normal 0 0 -1
    outer loop
      vertex -11.5 65.5 52
      vertex -11.5 68 52
      vertex -11.2487 67.891 52
    endloop
  endfacet
  facet normal 0 0 -1
    outer loop
      vertex -11.2487 67.891 52
      vertex -11.5 68 52
      vertex -11.2133 68 52
    endloop
  endfacet
  facet normal 1 0 0
    outer loop
      vertex -11.5 56 52
      vertex -11.5 56 15
      vertex -11.5 68 15
    endloop
  endfacet
  facet normal 1 0 0
    outer loop
      vertex -11.5 65.5 52
      vertex -11.5 56 52
      vertex -11.5 68 15
    endloop
  endfacet
  facet normal 1 0 0
    outer loop
      vertex -11.5 68 52
      vertex -11.5 65.5 52
      vertex -11.5 68 15
    endloop
  endfacet
  facet normal 0.951057 -0.309017 0
    outer loop
      vertex -11.2487 67.891 82
      vertex -11.2487 67.891 52
      vertex -11.2133 68 52
    endloop
  endfacet
  facet normal 0.951057 -0.309017 0
    outer loop
      vertex -11.2133 68 82
      vertex -11.2487 67.891 82
      vertex -11.2133 68 52
    endloop
  endfacet
  facet normal -0.951057 -0.309017 0
    outer loop
      vertex 11.2133 68 52
      vertex 11.2487 67.891 52
      vertex 11.2133 68 82
    endloop
  endfacet
  facet normal -0.951057 -0.309017 0
    outer loop
      vertex 11.2133 68 82
      vertex 11.2487 67.891 52
      vertex 11.2487 67.891 82
    endloop
  endfacet
  facet normal 0 0 -1
    outer loop
      vertex 11.2133 68 52
      vertex 11.5 68 52
      vertex 11.2487 67.891 52
    endloop
  endfacet
  facet normal 0 0 -1
    outer loop
      vertex 11.2487 67.891 52
      vertex 11.5 68 52
      vertex 11.5 65.5 52
    endloop
  endfacet
  facet normal -1 0 0
    outer loop
      vertex 11.5 56 15
      vertex 11.5 56 52
      vertex 11.5 68 15
    endloop
  endfacet
  facet normal -1 0 0
    outer loop
      vertex 11.5 68 15
      vertex 11.5 56 52
      vertex 11.5 65.5 52
    endloop
  endfacet
  facet normal -1 0 0
    outer loop
      vertex 11.5 68 15
      vertex 11.5 65.5 52
      vertex 11.5 68 52
    endloop
  endfacet
  facet normal 0 0 1
    outer loop
      vertex -11.5 68 15
      vertex -11.5 56 15
      vertex 11.5 56 15
    endloop
  endfacet
  facet normal 0 0 1
    outer loop
      vertex 11.5 68 15
      vertex -11.5 68 15
      vertex 11.5 56 15
    endloop
  endfacet
  facet normal -0.382683 0.92388 0
    outer loop
      vertex -11.25 66.9952 89
      vertex -11.25 66.9952 119.2
      vertex -9.44114 67.7444 89
    endloop
  endfacet
  facet normal -0.382683 0.92388 0
    outer loop
      vertex -9.44114 67.7444 89
      vertex -11.25 66.9952 119.2
      vertex -10.037 67.4976 117.853
    endloop
  endfacet
  facet normal -0.382683 0.92388 0
    outer loop
      vertex -9.44114 67.7444 89
      vertex -10.037 67.4976 117.853
      vertex -9.44114 67.7444 117.42
    endloop
  endfacet
  facet normal -0.608762 0.793353 0
    outer loop
      vertex -12.8033 65.8033 89
      vertex -12.8033 65.8033 121.34
      vertex -11.25 66.9952 89
    endloop
  endfacet
  facet normal -0.608762 0.793353 0
    outer loop
      vertex -11.25 66.9952 89
      vertex -12.8033 65.8033 121.34
      vertex -12.1353 66.3159 120.183
    endloop
  endfacet
  facet normal -0.608762 0.793353 0
    outer loop
      vertex -11.25 66.9952 89
      vertex -12.1353 66.3159 120.183
      vertex -11.25 66.9952 119.2
    endloop
  endfacet
  facet normal -0.793353 0.608762 0
    outer loop
      vertex -13.9952 64.25 89
      vertex -13.9952 64.25 123.798
      vertex -12.8033 65.8033 89
    endloop
  endfacet
  facet normal -0.793353 0.608762 0
    outer loop
      vertex -12.8033 65.8033 89
      vertex -13.9952 64.25 123.798
      vertex -13.7032 64.6306 122.899
    endloop
  endfacet
  facet normal -0.793353 0.608762 0
    outer loop
      vertex -12.8033 65.8033 89
      vertex -13.7032 64.6306 122.899
      vertex -12.8033 65.8033 121.34
    endloop
  endfacet
  facet normal -0.92388 0.382683 0
    outer loop
      vertex -14.7444 62.4411 89
      vertex -14.7444 62.4411 126.569
      vertex -13.9952 64.25 89
    endloop
  endfacet
  facet normal -0.92388 0.382683 0
    outer loop
      vertex -13.9952 64.25 89
      vertex -14.7444 62.4411 126.569
      vertex -14.6722 62.6155 125.881
    endloop
  endfacet
  facet normal -0.92388 0.382683 0
    outer loop
      vertex -13.9952 64.25 89
      vertex -14.6722 62.6155 125.881
      vertex -13.9952 64.25 123.798
    endloop
  endfacet
  facet normal -0.92388 -0.382683 0
    outer loop
      vertex -14.7444 58.5589 89
      vertex -13.9952 56.75 89
      vertex -14.7444 58.5589 126.569
    endloop
  endfacet
  facet normal -0.92388 -0.382683 0
    outer loop
      vertex -14.6722 58.3845 125.881
      vertex -13.9952 56.75 89
      vertex -13.9952 56.75 123.798
    endloop
  endfacet
  facet normal -0.92388 -0.382683 0
    outer loop
      vertex -14.7444 58.5589 126.569
      vertex -13.9952 56.75 89
      vertex -14.6722 58.3845 125.881
    endloop
  endfacet
  facet normal -0.793353 -0.608762 0
    outer loop
      vertex -13.9952 56.75 89
      vertex -12.8033 55.1967 89
      vertex -13.9952 56.75 123.798
    endloop
  endfacet
  facet normal -0.793353 -0.608762 0
    outer loop
      vertex -13.7032 56.3694 122.899
      vertex -12.8033 55.1967 89
      vertex -12.8033 55.1967 121.34
    endloop
  endfacet
  facet normal -0.793353 -0.608762 0
    outer loop
      vertex -13.9952 56.75 123.798
      vertex -12.8033 55.1967 89
      vertex -13.7032 56.3694 122.899
    endloop
  endfacet
  facet normal -0.608762 -0.793353 0
    outer loop
      vertex -12.8033 55.1967 121.34
      vertex -12.8033 55.1967 89
      vertex -11.25 54.0048 89
    endloop
  endfacet
  facet normal -0.608762 -0.793353 0
    outer loop
      vertex -12.1353 54.6841 120.183
      vertex -12.8033 55.1967 121.34
      vertex -11.25 54.0048 89
    endloop
  endfacet
  facet normal -0.608762 -0.793353 0
    outer loop
      vertex -11.25 54.0048 119.2
      vertex -12.1353 54.6841 120.183
      vertex -11.25 54.0048 89
    endloop
  endfacet
  facet normal -0.382683 -0.92388 0
    outer loop
      vertex -11.25 54.0048 119.2
      vertex -11.25 54.0048 89
      vertex -9.44114 53.2556 89
    endloop
  endfacet
  facet normal -0.382683 -0.92388 0
    outer loop
      vertex -10.037 53.5024 117.853
      vertex -11.25 54.0048 119.2
      vertex -9.44114 53.2556 89
    endloop
  endfacet
  facet normal -0.382683 -0.92388 0
    outer loop
      vertex -9.44114 53.2556 117.42
      vertex -10.037 53.5024 117.853
      vertex -9.44114 53.2556 89
    endloop
  endfacet
  facet normal -0.994522 -2.321e-17 -0.104528
    outer loop
      vertex -14.7444 58.5589 126.569
      vertex -14.6722 53 125.881
      vertex -15 60.5 129
    endloop
  endfacet
  facet normal -0.994522 -2.321e-17 -0.104528
    outer loop
      vertex -14.6722 62.6155 125.881
      vertex -15 68 129
      vertex -14.6722 68 125.881
    endloop
  endfacet
  facet normal -0.994522 -2.321e-17 -0.104528
    outer loop
      vertex -14.7444 62.4411 126.569
      vertex -15 68 129
      vertex -14.6722 62.6155 125.881
    endloop
  endfacet
  facet normal -0.994522 -2.321e-17 -0.104528
    outer loop
      vertex -15 53 129
      vertex -15 68 129
      vertex -15 60.5 129
    endloop
  endfacet
  facet normal -0.994522 -2.321e-17 -0.104528
    outer loop
      vertex -15 53 129
      vertex -15 60.5 129
      vertex -14.6722 53 125.881
    endloop
  endfacet
  facet normal -0.994522 -2.321e-17 -0.104528
    outer loop
      vertex -15 60.5 129
      vertex -15 68 129
      vertex -14.7444 62.4411 126.569
    endloop
  endfacet
  facet normal -0.994522 -2.321e-17 -0.104528
    outer loop
      vertex -14.6722 58.3845 125.881
      vertex -14.6722 53 125.881
      vertex -14.7444 58.5589 126.569
    endloop
  endfacet
  facet normal -0.587785 -1.79638e-16 -0.809017
    outer loop
      vertex -10.037 53 117.853
      vertex -9.44114 53.2556 117.42
      vertex -7.5 53 116.01
    endloop
  endfacet
  facet normal -0.587785 -1.79638e-16 -0.809017
    outer loop
      vertex -10.037 53 117.853
      vertex -10.037 53.5024 117.853
      vertex -9.44114 53.2556 117.42
    endloop
  endfacet
  facet normal -0.406737 -2.02848e-16 -0.913545
    outer loop
      vertex -4.63525 53 114.734
      vertex -7.5 53 116.01
      vertex -7.5 68 116.01
    endloop
  endfacet
  facet normal -0.406737 -2.02848e-16 -0.913545
    outer loop
      vertex -4.63525 53 114.734
      vertex -7.5 68 116.01
      vertex -4.63525 68 114.734
    endloop
  endfacet
  facet normal 0 1 -2.22045e-16
    outer loop
      vertex -15 68 129
      vertex -14.6722 68 132.119
      vertex -14.6722 68 125.881
    endloop
  endfacet
  facet normal 0 1 -2.22045e-16
    outer loop
      vertex -14.6722 68 125.881
      vertex -14.6722 68 132.119
      vertex -13.7032 68 135.101
    endloop
  endfacet
  facet normal 0 1 -2.22045e-16
    outer loop
      vertex -14.6722 68 125.881
      vertex -13.7032 68 135.101
      vertex -12.1353 68 137.817
    endloop
  endfacet
  facet normal 0 1 -2.22045e-16
    outer loop
      vertex -14.6722 68 125.881
      vertex -12.1353 68 137.817
      vertex -10.037 68 140.147
    endloop
  endfacet
  facet normal 0 1 -2.22045e-16
    outer loop
      vertex -14.6722 68 125.881
      vertex -10.037 68 140.147
      vertex -7.5 68 141.99
    endloop
  endfacet
  facet normal 0 1 -2.22045e-16
    outer loop
      vertex -14.6722 68 125.881
      vertex -7.5 68 141.99
      vertex -4.63525 68 143.266
    endloop
  endfacet
  facet normal 0 1 -2.22045e-16
    outer loop
      vertex -4.54452 68 140.584
      vertex -4.63525 68 143.266
      vertex -1.56793 68 143.918
    endloop
  endfacet
  facet normal 0 1 -2.22045e-16
    outer loop
      vertex -0.964293 68 141.942
      vertex -1.56793 68 143.918
      vertex 1.56793 68 143.918
    endloop
  endfacet
  facet normal 0 1 -2.22045e-16
    outer loop
      vertex 0.964293 68 141.942
      vertex 1.56793 68 143.918
      vertex 4.63525 68 143.266
    endloop
  endfacet
  facet normal 0 1 -2.22045e-16
    outer loop
      vertex 4.54452 68 140.584
      vertex 4.63525 68 143.266
      vertex 7.5 68 141.99
    endloop
  endfacet
  facet normal 0 1 -2.22045e-16
    outer loop
      vertex 5.98809 68 139.305
      vertex 7.5 68 141.99
      vertex 10.037 68 140.147
    endloop
  endfacet
  facet normal 0 1 -2.22045e-16
    outer loop
      vertex 7.76753 68 135.915
      vertex 10.037 68 140.147
      vertex 12.1353 68 137.817
    endloop
  endfacet
  facet normal 0 1 -2.22045e-16
    outer loop
      vertex 8 68 134
      vertex 12.1353 68 137.817
      vertex 13.7032 68 135.101
    endloop
  endfacet
  facet normal 0 1 -2.22045e-16
    outer loop
      vertex 7.76753 68 132.085
      vertex 13.7032 68 135.101
      vertex 14.6722 68 132.119
    endloop
  endfacet
  facet normal 0 1 -2.22045e-16
    outer loop
      vertex 7.5 68 129
      vertex 14.6722 68 132.119
      vertex 15 68 129
    endloop
  endfacet
  facet normal 0 1 -2.22045e-16
    outer loop
      vertex 7.5 68 116.01
      vertex 5.98809 68 128.695
      vertex 7.5 68 129
    endloop
  endfacet
  facet normal 0 1 -2.22045e-16
    outer loop
      vertex -7.5 68 129
      vertex 7.5 68 116.01
      vertex 4.63525 68 114.734
    endloop
  endfacet
  facet normal 0 1 -2.22045e-16
    outer loop
      vertex -7.5 68 129
      vertex 4.63525 68 114.734
      vertex 1.56793 68 114.082
    endloop
  endfacet
  facet normal 0 1 -2.22045e-16
    outer loop
      vertex -7.5 68 129
      vertex 1.56793 68 114.082
      vertex -1.56793 68 114.082
    endloop
  endfacet
  facet normal 0 1 -2.22045e-16
    outer loop
      vertex -7.5 68 129
      vertex -1.56793 68 114.082
      vertex -4.63525 68 114.734
    endloop
  endfacet
  facet normal 0 1 -2.22045e-16
    outer loop
      vertex 7.08365 68 130.282
      vertex 14.6722 68 132.119
      vertex 7.5 68 129
    endloop
  endfacet
  facet normal 0 1 -2.22045e-16
    outer loop
      vertex -7.5 68 116.01
      vertex -14.6722 68 125.881
      vertex -7.5 68 129
    endloop
  endfacet
  facet normal 0 1 -2.22045e-16
    outer loop
      vertex -8 68 134
      vertex -14.6722 68 125.881
      vertex -7.76753 68 135.915
    endloop
  endfacet
  facet normal 0 1 -2.22045e-16
    outer loop
      vertex -14.6722 68 125.881
      vertex -7.5 68 116.01
      vertex -10.037 68 117.853
    endloop
  endfacet
  facet normal 0 1 -2.22045e-16
    outer loop
      vertex -14.6722 68 125.881
      vertex -10.037 68 117.853
      vertex -12.1353 68 120.183
    endloop
  endfacet
  facet normal 0 1 -2.22045e-16
    outer loop
      vertex -14.6722 68 125.881
      vertex -12.1353 68 120.183
      vertex -13.7032 68 122.899
    endloop
  endfacet
  facet normal 0 1 -2.22045e-16
    outer loop
      vertex -7.76753 68 132.085
      vertex -14.6722 68 125.881
      vertex -8 68 134
    endloop
  endfacet
  facet normal 0 1 -2.22045e-16
    outer loop
      vertex -7.08365 68 130.282
      vertex -14.6722 68 125.881
      vertex -7.76753 68 132.085
    endloop
  endfacet
  facet normal 0 1 -2.22045e-16
    outer loop
      vertex -5.98809 68 128.695
      vertex -7.5 68 129
      vertex -7.08365 68 130.282
    endloop
  endfacet
  facet normal 0 1 -2.22045e-16
    outer loop
      vertex -7.5 68 129
      vertex -14.6722 68 125.881
      vertex -7.08365 68 130.282
    endloop
  endfacet
  facet normal 0 1 -2.22045e-16
    outer loop
      vertex 7.76753 68 132.085
      vertex 14.6722 68 132.119
      vertex 7.08365 68 130.282
    endloop
  endfacet
  facet normal 0 1 -2.22045e-16
    outer loop
      vertex 7.5 68 116.01
      vertex 0.964293 68 126.058
      vertex 2.83684 68 126.52
    endloop
  endfacet
  facet normal 0 1 -2.22045e-16
    outer loop
      vertex -2.83684 68 126.52
      vertex -0.964293 68 126.058
      vertex 7.5 68 116.01
    endloop
  endfacet
  facet normal 0 1 -2.22045e-16
    outer loop
      vertex -7.5 68 129
      vertex -4.54452 68 127.416
      vertex 7.5 68 116.01
    endloop
  endfacet
  facet normal 0 1 -2.22045e-16
    outer loop
      vertex -4.54452 68 127.416
      vertex -2.83684 68 126.52
      vertex 7.5 68 116.01
    endloop
  endfacet
  facet normal 0 1 -2.22045e-16
    outer loop
      vertex 7.5 68 116.01
      vertex 4.54452 68 127.416
      vertex 5.98809 68 128.695
    endloop
  endfacet
  facet normal 0 1 -2.22045e-16
    outer loop
      vertex 7.5 68 116.01
      vertex 2.83684 68 126.52
      vertex 4.54452 68 127.416
    endloop
  endfacet
  facet normal 0 1 -2.22045e-16
    outer loop
      vertex 5.98809 68 139.305
      vertex 10.037 68 140.147
      vertex 7.08365 68 137.718
    endloop
  endfacet
  facet normal 0 1 -2.22045e-16
    outer loop
      vertex 7.5 68 116.01
      vertex -0.964293 68 126.058
      vertex 0.964293 68 126.058
    endloop
  endfacet
  facet normal 0 1 -2.22045e-16
    outer loop
      vertex 7.76753 68 135.915
      vertex 12.1353 68 137.817
      vertex 8 68 134
    endloop
  endfacet
  facet normal 0 1 -2.22045e-16
    outer loop
      vertex 8 68 134
      vertex 13.7032 68 135.101
      vertex 7.76753 68 132.085
    endloop
  endfacet
  facet normal 0 1 -2.22045e-16
    outer loop
      vertex 7.08365 68 130.282
      vertex 7.5 68 129
      vertex 5.98809 68 128.695
    endloop
  endfacet
  facet normal 0 1 -2.22045e-16
    outer loop
      vertex 7.08365 68 137.718
      vertex 10.037 68 140.147
      vertex 7.76753 68 135.915
    endloop
  endfacet
  facet normal 0 1 -2.22045e-16
    outer loop
      vertex 4.54452 68 140.584
      vertex 7.5 68 141.99
      vertex 5.98809 68 139.305
    endloop
  endfacet
  facet normal 0 1 -2.22045e-16
    outer loop
      vertex 2.83684 68 141.48
      vertex 4.63525 68 143.266
      vertex 4.54452 68 140.584
    endloop
  endfacet
  facet normal 0 1 -2.22045e-16
    outer loop
      vertex 0.964293 68 141.942
      vertex 4.63525 68 143.266
      vertex 2.83684 68 141.48
    endloop
  endfacet
  facet normal 0 1 -2.22045e-16
    outer loop
      vertex -2.83684 68 141.48
      vertex -1.56793 68 143.918
      vertex -0.964293 68 141.942
    endloop
  endfacet
  facet normal 0 1 -2.22045e-16
    outer loop
      vertex -4.54452 68 140.584
      vertex -1.56793 68 143.918
      vertex -2.83684 68 141.48
    endloop
  endfacet
  facet normal 0 1 -2.22045e-16
    outer loop
      vertex -5.98809 68 139.305
      vertex -4.63525 68 143.266
      vertex -4.54452 68 140.584
    endloop
  endfacet
  facet normal 0 1 -2.22045e-16
    outer loop
      vertex -7.08365 68 137.718
      vertex -4.63525 68 143.266
      vertex -5.98809 68 139.305
    endloop
  endfacet
  facet normal 0 1 -2.22045e-16
    outer loop
      vertex -14.6722 68 125.881
      vertex -4.63525 68 143.266
      vertex -7.08365 68 137.718
    endloop
  endfacet
  facet normal 0 1 -2.22045e-16
    outer loop
      vertex -0.964293 68 141.942
      vertex 1.56793 68 143.918
      vertex 0.964293 68 141.942
    endloop
  endfacet
  facet normal 0 1 -2.22045e-16
    outer loop
      vertex 7.5 68 129
      vertex 15 68 129
      vertex 14.6722 68 125.881
    endloop
  endfacet
  facet normal 0 1 -2.22045e-16
    outer loop
      vertex 7.5 68 129
      vertex 14.6722 68 125.881
      vertex 13.7032 68 122.899
    endloop
  endfacet
  facet normal 0 1 -2.22045e-16
    outer loop
      vertex 7.5 68 129
      vertex 13.7032 68 122.899
      vertex 12.1353 68 120.183
    endloop
  endfacet
  facet normal 0 1 -2.22045e-16
    outer loop
      vertex 7.5 68 129
      vertex 12.1353 68 120.183
      vertex 10.037 68 117.853
    endloop
  endfacet
  facet normal 0 1 -2.22045e-16
    outer loop
      vertex 7.5 68 129
      vertex 10.037 68 117.853
      vertex 7.5 68 116.01
    endloop
  endfacet
  facet normal 0 1 -2.22045e-16
    outer loop
      vertex -7.5 68 129
      vertex -5.98809 68 128.695
      vertex -4.54452 68 127.416
    endloop
  endfacet
  facet normal 0 1 -2.22045e-16
    outer loop
      vertex -7.5 68 129
      vertex -4.63525 68 114.734
      vertex -7.5 68 116.01
    endloop
  endfacet
  facet normal 0 1 -2.22045e-16
    outer loop
      vertex -7.76753 68 135.915
      vertex -14.6722 68 125.881
      vertex -7.08365 68 137.718
    endloop
  endfacet
  facet normal 0.587785 -1.79638e-16 -0.809017
    outer loop
      vertex 10.037 53 117.853
      vertex 7.5 53 116.01
      vertex 9.44114 53.2556 117.42
    endloop
  endfacet
  facet normal 0.587785 -1.79638e-16 -0.809017
    outer loop
      vertex 10.037 53 117.853
      vertex 9.44114 53.2556 117.42
      vertex 10.037 53.5024 117.853
    endloop
  endfacet
  facet normal 0.406737 -2.02848e-16 -0.913545
    outer loop
      vertex 4.63525 53 114.734
      vertex 4.63525 68 114.734
      vertex 7.5 53 116.01
    endloop
  endfacet
  facet normal 0.406737 -2.02848e-16 -0.913545
    outer loop
      vertex 7.5 53 116.01
      vertex 4.63525 68 114.734
      vertex 7.5 68 116.01
    endloop
  endfacet
  facet normal 0.382683 -0.92388 0
    outer loop
      vertex 9.44114 53.2556 117.42
      vertex 9.44114 53.2556 89
      vertex 11.25 54.0048 89
    endloop
  endfacet
  facet normal 0.382683 -0.92388 0
    outer loop
      vertex 10.037 53.5024 117.853
      vertex 9.44114 53.2556 117.42
      vertex 11.25 54.0048 89
    endloop
  endfacet
  facet normal 0.382683 -0.92388 0
    outer loop
      vertex 11.25 54.0048 119.2
      vertex 10.037 53.5024 117.853
      vertex 11.25 54.0048 89
    endloop
  endfacet
  facet normal 0.608762 -0.793353 0
    outer loop
      vertex 11.25 54.0048 119.2
      vertex 11.25 54.0048 89
      vertex 12.8033 55.1967 89
    endloop
  endfacet
  facet normal 0.608762 -0.793353 0
    outer loop
      vertex 12.1353 54.6841 120.183
      vertex 11.25 54.0048 119.2
      vertex 12.8033 55.1967 89
    endloop
  endfacet
  facet normal 0.608762 -0.793353 0
    outer loop
      vertex 12.8033 55.1967 121.34
      vertex 12.1353 54.6841 120.183
      vertex 12.8033 55.1967 89
    endloop
  endfacet
  facet normal 0.793353 -0.608762 0
    outer loop
      vertex 12.8033 55.1967 121.34
      vertex 12.8033 55.1967 89
      vertex 13.9952 56.75 89
    endloop
  endfacet
  facet normal 0.793353 -0.608762 0
    outer loop
      vertex 13.7032 56.3694 122.899
      vertex 12.8033 55.1967 121.34
      vertex 13.9952 56.75 89
    endloop
  endfacet
  facet normal 0.793353 -0.608762 0
    outer loop
      vertex 13.9952 56.75 123.798
      vertex 13.7032 56.3694 122.899
      vertex 13.9952 56.75 89
    endloop
  endfacet
  facet normal 0.92388 -0.382683 0
    outer loop
      vertex 13.9952 56.75 123.798
      vertex 13.9952 56.75 89
      vertex 14.7444 58.5589 89
    endloop
  endfacet
  facet normal 0.92388 -0.382683 0
    outer loop
      vertex 14.6722 58.3845 125.881
      vertex 13.9952 56.75 123.798
      vertex 14.7444 58.5589 89
    endloop
  endfacet
  facet normal 0.92388 -0.382683 0
    outer loop
      vertex 14.7444 58.5589 126.569
      vertex 14.6722 58.3845 125.881
      vertex 14.7444 58.5589 89
    endloop
  endfacet
  facet normal 0.991445 -0.130526 0
    outer loop
      vertex 14.7444 58.5589 126.569
      vertex 14.7444 58.5589 89
      vertex 15 60.5 89
    endloop
  endfacet
  facet normal 0.991445 -0.130526 0
    outer loop
      vertex 15 60.5 129
      vertex 14.7444 58.5589 126.569
      vertex 15 60.5 89
    endloop
  endfacet
  facet normal 0.991445 0.130526 0
    outer loop
      vertex 15 60.5 89
      vertex 14.7444 62.4411 89
      vertex 14.7444 62.4411 126.569
    endloop
  endfacet
  facet normal 0.991445 0.130526 0
    outer loop
      vertex 15 60.5 129
      vertex 15 60.5 89
      vertex 14.7444 62.4411 126.569
    endloop
  endfacet
  facet normal 0 1 0
    outer loop
      vertex -11.5 56 15
      vertex -11.5 56 52
      vertex 11.5 56 15
    endloop
  endfacet
  facet normal 0 1 0
    outer loop
      vertex 11.5 56 15
      vertex -11.5 56 52
      vertex -6.38216 56 52
    endloop
  endfacet
  facet normal 0 1 0
    outer loop
      vertex -6 56 52
      vertex -6.38216 56 52
      vertex -6.38216 56 82
    endloop
  endfacet
  facet normal 0 1 0
    outer loop
      vertex 11.5 56 15
      vertex -6.38216 56 52
      vertex -6 56 52
    endloop
  endfacet
  facet normal 0 1 0
    outer loop
      vertex 6 56 52
      vertex 11.5 56 15
      vertex -6 56 52
    endloop
  endfacet
  facet normal 0 1 0
    outer loop
      vertex 6.38216 56 52
      vertex 6 56 82
      vertex 6.38216 56 82
    endloop
  endfacet
  facet normal 0 1 0
    outer loop
      vertex 6.38216 56 52
      vertex 6 56 52
      vertex 6 56 82
    endloop
  endfacet
  facet normal 0 1 0
    outer loop
      vertex 11.5 56 15
      vertex 6 56 52
      vertex 6.38216 56 52
    endloop
  endfacet
  facet normal 0 1 0
    outer loop
      vertex 11.5 56 52
      vertex 11.5 56 15
      vertex 6.38216 56 52
    endloop
  endfacet
  facet normal 0 1 0
    outer loop
      vertex -6 56 52
      vertex -6.38216 56 82
      vertex -6 56 82
    endloop
  endfacet
  facet normal 0.994522 0.104529 0
    outer loop
      vertex -11.2487 63.109 52
      vertex -11.5 65.5 52
      vertex -11.5 65.5 82
    endloop
  endfacet
  facet normal 0.994522 0.104529 0
    outer loop
      vertex -11.2487 63.109 82
      vertex -11.2487 63.109 52
      vertex -11.5 65.5 82
    endloop
  endfacet
  facet normal 0.951057 0.309017 0
    outer loop
      vertex -10.5058 60.8225 52
      vertex -11.2487 63.109 52
      vertex -11.2487 63.109 82
    endloop
  endfacet
  facet normal 0.951057 0.309017 0
    outer loop
      vertex -10.5058 60.8225 82
      vertex -10.5058 60.8225 52
      vertex -11.2487 63.109 82
    endloop
  endfacet
  facet normal 0.866025 0.5 0
    outer loop
      vertex -9.30369 58.7405 52
      vertex -10.5058 60.8225 52
      vertex -10.5058 60.8225 82
    endloop
  endfacet
  facet normal 0.866025 0.5 0
    outer loop
      vertex -9.30369 58.7405 82
      vertex -9.30369 58.7405 52
      vertex -10.5058 60.8225 82
    endloop
  endfacet
  facet normal 0.743145 0.669131 0
    outer loop
      vertex -7.695 56.9538 52
      vertex -9.30369 58.7405 52
      vertex -9.30369 58.7405 82
    endloop
  endfacet
  facet normal 0.743145 0.669131 0
    outer loop
      vertex -7.695 56.9538 82
      vertex -7.695 56.9538 52
      vertex -9.30369 58.7405 82
    endloop
  endfacet
  facet normal 0.587785 0.809017 0
    outer loop
      vertex -7.695 56.9538 52
      vertex -7.695 56.9538 82
      vertex -6.38216 56 52
    endloop
  endfacet
  facet normal 0.587785 0.809017 0
    outer loop
      vertex -6.38216 56 52
      vertex -7.695 56.9538 82
      vertex -6.38216 56 82
    endloop
  endfacet
  facet normal -0.587785 0.809017 0
    outer loop
      vertex 6.38216 56 52
      vertex 6.38216 56 82
      vertex 7.695 56.9538 52
    endloop
  endfacet
  facet normal -0.587785 0.809017 0
    outer loop
      vertex 7.695 56.9538 52
      vertex 6.38216 56 82
      vertex 7.695 56.9538 82
    endloop
  endfacet
  facet normal -0.743145 0.669131 0
    outer loop
      vertex 7.695 56.9538 52
      vertex 7.695 56.9538 82
      vertex 9.30369 58.7405 52
    endloop
  endfacet
  facet normal -0.743145 0.669131 0
    outer loop
      vertex 9.30369 58.7405 52
      vertex 7.695 56.9538 82
      vertex 9.30369 58.7405 82
    endloop
  endfacet
  facet normal -0.866025 0.5 0
    outer loop
      vertex 9.30369 58.7405 52
      vertex 9.30369 58.7405 82
      vertex 10.5058 60.8225 52
    endloop
  endfacet
  facet normal -0.866025 0.5 0
    outer loop
      vertex 10.5058 60.8225 52
      vertex 9.30369 58.7405 82
      vertex 10.5058 60.8225 82
    endloop
  endfacet
  facet normal -0.951057 0.309017 0
    outer loop
      vertex 10.5058 60.8225 52
      vertex 10.5058 60.8225 82
      vertex 11.2487 63.109 52
    endloop
  endfacet
  facet normal -0.951057 0.309017 0
    outer loop
      vertex 11.2487 63.109 52
      vertex 10.5058 60.8225 82
      vertex 11.2487 63.109 82
    endloop
  endfacet
  facet normal -0.994522 0.104529 0
    outer loop
      vertex 11.2487 63.109 52
      vertex 11.2487 63.109 82
      vertex 11.5 65.5 52
    endloop
  endfacet
  facet normal -0.994522 0.104529 0
    outer loop
      vertex 11.5 65.5 52
      vertex 11.2487 63.109 82
      vertex 11.5 65.5 82
    endloop
  endfacet
  facet normal -0.994522 -0.104529 0
    outer loop
      vertex 11.2487 67.891 52
      vertex 11.5 65.5 52
      vertex 11.2487 67.891 82
    endloop
  endfacet
  facet normal -0.994522 -0.104529 0
    outer loop
      vertex 11.2487 67.891 82
      vertex 11.5 65.5 52
      vertex 11.5 65.5 82
    endloop
  endfacet
  facet normal 0.994522 -0.104529 0
    outer loop
      vertex -11.5 65.5 82
      vertex -11.5 65.5 52
      vertex -11.2487 67.891 52
    endloop
  endfacet
  facet normal 0.994522 -0.104529 0
    outer loop
      vertex -11.2487 67.891 82
      vertex -11.5 65.5 82
      vertex -11.2487 67.891 52
    endloop
  endfacet
  facet normal 0.92388 0.382683 0
    outer loop
      vertex 14.7444 62.4411 89
      vertex 13.9952 64.25 89
      vertex 13.9952 64.25 123.798
    endloop
  endfacet
  facet normal 0.92388 0.382683 0
    outer loop
      vertex 14.7444 62.4411 126.569
      vertex 14.7444 62.4411 89
      vertex 14.6722 62.6155 125.881
    endloop
  endfacet
  facet normal 0.92388 0.382683 0
    outer loop
      vertex 14.6722 62.6155 125.881
      vertex 14.7444 62.4411 89
      vertex 13.9952 64.25 123.798
    endloop
  endfacet
  facet normal 0.793353 0.608762 0
    outer loop
      vertex 13.9952 64.25 89
      vertex 12.8033 65.8033 89
      vertex 12.8033 65.8033 121.34
    endloop
  endfacet
  facet normal 0.793353 0.608762 0
    outer loop
      vertex 13.9952 64.25 123.798
      vertex 13.9952 64.25 89
      vertex 13.7032 64.6306 122.899
    endloop
  endfacet
  facet normal 0.793353 0.608762 0
    outer loop
      vertex 13.7032 64.6306 122.899
      vertex 13.9952 64.25 89
      vertex 12.8033 65.8033 121.34
    endloop
  endfacet
  facet normal 0.608762 0.793353 0
    outer loop
      vertex 11.25 66.9952 89
      vertex 11.25 66.9952 119.2
      vertex 12.8033 65.8033 89
    endloop
  endfacet
  facet normal 0.608762 0.793353 0
    outer loop
      vertex 12.8033 65.8033 89
      vertex 11.25 66.9952 119.2
      vertex 12.1353 66.3159 120.183
    endloop
  endfacet
  facet normal 0.608762 0.793353 0
    outer loop
      vertex 12.8033 65.8033 89
      vertex 12.1353 66.3159 120.183
      vertex 12.8033 65.8033 121.34
    endloop
  endfacet
  facet normal 0.382683 0.92388 0
    outer loop
      vertex 9.44114 67.7444 89
      vertex 9.44114 67.7444 117.42
      vertex 11.25 66.9952 89
    endloop
  endfacet
  facet normal 0.382683 0.92388 0
    outer loop
      vertex 11.25 66.9952 89
      vertex 9.44114 67.7444 117.42
      vertex 10.037 67.4976 117.853
    endloop
  endfacet
  facet normal 0.382683 0.92388 0
    outer loop
      vertex 11.25 66.9952 89
      vertex 10.037 67.4976 117.853
      vertex 11.25 66.9952 119.2
    endloop
  endfacet
  facet normal 0.587785 -1.79638e-16 -0.809017
    outer loop
      vertex 7.5 68 116.01
      vertex 10.037 68 117.853
      vertex 9.44114 67.7444 117.42
    endloop
  endfacet
  facet normal 0.587785 -1.79638e-16 -0.809017
    outer loop
      vertex 9.44114 67.7444 117.42
      vertex 10.037 68 117.853
      vertex 10.037 67.4976 117.853
    endloop
  endfacet
  facet normal -0.587785 -1.79638e-16 -0.809017
    outer loop
      vertex -10.037 67.4976 117.853
      vertex -10.037 68 117.853
      vertex -9.44114 67.7444 117.42
    endloop
  endfacet
  facet normal -0.587785 -1.79638e-16 -0.809017
    outer loop
      vertex -9.44114 67.7444 117.42
      vertex -10.037 68 117.853
      vertex -7.5 68 116.01
    endloop
  endfacet
  facet normal 0 0 -1
    outer loop
      vertex -11.5 56 52
      vertex -11.5 65.5 52
      vertex -11.2487 63.109 52
    endloop
  endfacet
  facet normal 0 0 -1
    outer loop
      vertex -11.5 56 52
      vertex -11.2487 63.109 52
      vertex -10.5058 60.8225 52
    endloop
  endfacet
  facet normal 0 0 -1
    outer loop
      vertex -11.5 56 52
      vertex -10.5058 60.8225 52
      vertex -9.30369 58.7405 52
    endloop
  endfacet
  facet normal 0 0 -1
    outer loop
      vertex -11.5 56 52
      vertex -9.30369 58.7405 52
      vertex -7.695 56.9538 52
    endloop
  endfacet
  facet normal 0 0 -1
    outer loop
      vertex -11.5 56 52
      vertex -7.695 56.9538 52
      vertex -6.38216 56 52
    endloop
  endfacet
  facet normal 0 0 -1
    outer loop
      vertex 6.38216 56 52
      vertex 7.695 56.9538 52
      vertex 11.5 56 52
    endloop
  endfacet
  facet normal 0 0 -1
    outer loop
      vertex 11.5 56 52
      vertex 7.695 56.9538 52
      vertex 9.30369 58.7405 52
    endloop
  endfacet
  facet normal 0 0 -1
    outer loop
      vertex 9.30369 58.7405 52
      vertex 10.5058 60.8225 52
      vertex 11.5 56 52
    endloop
  endfacet
  facet normal 0 0 -1
    outer loop
      vertex 10.5058 60.8225 52
      vertex 11.2487 63.109 52
      vertex 11.5 56 52
    endloop
  endfacet
  facet normal 0 0 -1
    outer loop
      vertex 11.2487 63.109 52
      vertex 11.5 65.5 52
      vertex 11.5 56 52
    endloop
  endfacet
  facet normal -0.743145 -1.48577e-16 -0.669131
    outer loop
      vertex -12.1353 66.3159 120.183
      vertex -12.1353 68 120.183
      vertex -11.25 66.9952 119.2
    endloop
  endfacet
  facet normal -0.743145 -1.48577e-16 -0.669131
    outer loop
      vertex -11.25 66.9952 119.2
      vertex -12.1353 68 120.183
      vertex -10.037 68 117.853
    endloop
  endfacet
  facet normal -0.743145 -1.48577e-16 -0.669131
    outer loop
      vertex -11.25 66.9952 119.2
      vertex -10.037 68 117.853
      vertex -10.037 67.4976 117.853
    endloop
  endfacet
  facet normal -0.866025 -1.11022e-16 -0.5
    outer loop
      vertex -13.7032 64.6306 122.899
      vertex -13.7032 68 122.899
      vertex -12.8033 65.8033 121.34
    endloop
  endfacet
  facet normal -0.866025 -1.11022e-16 -0.5
    outer loop
      vertex -12.8033 65.8033 121.34
      vertex -13.7032 68 122.899
      vertex -12.1353 68 120.183
    endloop
  endfacet
  facet normal -0.866025 -1.11022e-16 -0.5
    outer loop
      vertex -12.8033 65.8033 121.34
      vertex -12.1353 68 120.183
      vertex -12.1353 66.3159 120.183
    endloop
  endfacet
  facet normal -0.951057 -6.86155e-17 -0.309017
    outer loop
      vertex -14.6722 62.6155 125.881
      vertex -14.6722 68 125.881
      vertex -13.9952 64.25 123.798
    endloop
  endfacet
  facet normal -0.951057 -6.86155e-17 -0.309017
    outer loop
      vertex -13.9952 64.25 123.798
      vertex -14.6722 68 125.881
      vertex -13.7032 68 122.899
    endloop
  endfacet
  facet normal -0.951057 -6.86155e-17 -0.309017
    outer loop
      vertex -13.9952 64.25 123.798
      vertex -13.7032 68 122.899
      vertex -13.7032 64.6306 122.899
    endloop
  endfacet
  facet normal -0.951057 -6.86155e-17 -0.309017
    outer loop
      vertex -14.6722 53 125.881
      vertex -14.6722 58.3845 125.881
      vertex -13.7032 53 122.899
    endloop
  endfacet
  facet normal -0.951057 -6.86155e-17 -0.309017
    outer loop
      vertex -13.7032 53 122.899
      vertex -14.6722 58.3845 125.881
      vertex -13.9952 56.75 123.798
    endloop
  endfacet
  facet normal -0.951057 -6.86155e-17 -0.309017
    outer loop
      vertex -13.7032 53 122.899
      vertex -13.9952 56.75 123.798
      vertex -13.7032 56.3694 122.899
    endloop
  endfacet
  facet normal -0.866025 -1.11022e-16 -0.5
    outer loop
      vertex -13.7032 53 122.899
      vertex -13.7032 56.3694 122.899
      vertex -12.1353 53 120.183
    endloop
  endfacet
  facet normal -0.866025 -1.11022e-16 -0.5
    outer loop
      vertex -12.1353 53 120.183
      vertex -13.7032 56.3694 122.899
      vertex -12.8033 55.1967 121.34
    endloop
  endfacet
  facet normal -0.866025 -1.11022e-16 -0.5
    outer loop
      vertex -12.1353 53 120.183
      vertex -12.8033 55.1967 121.34
      vertex -12.1353 54.6841 120.183
    endloop
  endfacet
  facet normal -0.743145 -1.48577e-16 -0.669131
    outer loop
      vertex -12.1353 53 120.183
      vertex -12.1353 54.6841 120.183
      vertex -10.037 53 117.853
    endloop
  endfacet
  facet normal -0.743145 -1.48577e-16 -0.669131
    outer loop
      vertex -10.037 53 117.853
      vertex -12.1353 54.6841 120.183
      vertex -11.25 54.0048 119.2
    endloop
  endfacet
  facet normal -0.743145 -1.48577e-16 -0.669131
    outer loop
      vertex -10.037 53 117.853
      vertex -11.25 54.0048 119.2
      vertex -10.037 53.5024 117.853
    endloop
  endfacet
  facet normal 0 -1 2.22045e-16
    outer loop
      vertex -14.6722 53 132.119
      vertex -15 53 129
      vertex -14.6722 53 125.881
    endloop
  endfacet
  facet normal 0 -1 2.22045e-16
    outer loop
      vertex -12.1353 53 120.183
      vertex -14.6722 53 132.119
      vertex -13.7032 53 122.899
    endloop
  endfacet
  facet normal 0 -1 2.22045e-16
    outer loop
      vertex -13.7032 53 122.899
      vertex -14.6722 53 132.119
      vertex -14.6722 53 125.881
    endloop
  endfacet
  facet normal 0 -1 2.22045e-16
    outer loop
      vertex -10.037 53 117.853
      vertex -14.6722 53 132.119
      vertex -12.1353 53 120.183
    endloop
  endfacet
  facet normal 0 -1 2.22045e-16
    outer loop
      vertex -7.5 53 116.01
      vertex -14.6722 53 132.119
      vertex -10.037 53 117.853
    endloop
  endfacet
  facet normal 0 -1 2.22045e-16
    outer loop
      vertex -4.63525 53 114.734
      vertex -14.6722 53 132.119
      vertex -7.5 53 116.01
    endloop
  endfacet
  facet normal 0 -1 2.22045e-16
    outer loop
      vertex -1.56793 53 114.082
      vertex -14.6722 53 132.119
      vertex -4.63525 53 114.734
    endloop
  endfacet
  facet normal 0 -1 2.22045e-16
    outer loop
      vertex 1.56793 53 114.082
      vertex -14.6722 53 132.119
      vertex -1.56793 53 114.082
    endloop
  endfacet
  facet normal 0 -1 2.22045e-16
    outer loop
      vertex 4.63525 53 114.734
      vertex -14.6722 53 132.119
      vertex 1.56793 53 114.082
    endloop
  endfacet
  facet normal 0 -1 2.22045e-16
    outer loop
      vertex 7.5 53 116.01
      vertex -14.6722 53 132.119
      vertex 4.63525 53 114.734
    endloop
  endfacet
  facet normal 0 -1 2.22045e-16
    outer loop
      vertex 10.037 53 117.853
      vertex -14.6722 53 132.119
      vertex 7.5 53 116.01
    endloop
  endfacet
  facet normal 0 -1 2.22045e-16
    outer loop
      vertex 12.1353 53 120.183
      vertex -14.6722 53 132.119
      vertex 10.037 53 117.853
    endloop
  endfacet
  facet normal 0 -1 2.22045e-16
    outer loop
      vertex 13.7032 53 122.899
      vertex -14.6722 53 132.119
      vertex 12.1353 53 120.183
    endloop
  endfacet
  facet normal 0 -1 2.22045e-16
    outer loop
      vertex 14.6722 53 125.881
      vertex -14.6722 53 132.119
      vertex 13.7032 53 122.899
    endloop
  endfacet
  facet normal 0 -1 2.22045e-16
    outer loop
      vertex 15 53 129
      vertex -14.6722 53 132.119
      vertex 14.6722 53 125.881
    endloop
  endfacet
  facet normal 0 -1 2.22045e-16
    outer loop
      vertex -1.95541 53 131.833
      vertex -14.6722 53 132.119
      vertex 15 53 129
    endloop
  endfacet
  facet normal 0 -1 2.22045e-16
    outer loop
      vertex -0.790917 53 132
      vertex -1.95541 53 131.833
      vertex 1.04459 53 131.833
    endloop
  endfacet
  facet normal 0 -1 2.22045e-16
    outer loop
      vertex 2.82933 53 137.911
      vertex 4.19201 53 136.73
      vertex 10.037 53 140.147
    endloop
  endfacet
  facet normal 0 -1 2.22045e-16
    outer loop
      vertex -1.95541 53 131.833
      vertex -3.59555 53 132.582
      vertex -14.6722 53 132.119
    endloop
  endfacet
  facet normal 0 -1 2.22045e-16
    outer loop
      vertex 1.56793 53 143.918
      vertex -14.6722 53 132.119
      vertex 4.63525 53 143.266
    endloop
  endfacet
  facet normal 0 -1 2.22045e-16
    outer loop
      vertex -1.56793 53 143.918
      vertex -14.6722 53 132.119
      vertex 1.56793 53 143.918
    endloop
  endfacet
  facet normal 0 -1 2.22045e-16
    outer loop
      vertex -4.63525 53 143.266
      vertex -14.6722 53 132.119
      vertex -1.56793 53 143.918
    endloop
  endfacet
  facet normal 0 -1 2.22045e-16
    outer loop
      vertex -7.5 53 141.99
      vertex -14.6722 53 132.119
      vertex -4.63525 53 143.266
    endloop
  endfacet
  facet normal 0 -1 2.22045e-16
    outer loop
      vertex -10.037 53 140.147
      vertex -14.6722 53 132.119
      vertex -7.5 53 141.99
    endloop
  endfacet
  facet normal 0 -1 2.22045e-16
    outer loop
      vertex -12.1353 53 137.817
      vertex -14.6722 53 132.119
      vertex -10.037 53 140.147
    endloop
  endfacet
  facet normal 0 -1 2.22045e-16
    outer loop
      vertex -13.7032 53 135.101
      vertex -14.6722 53 132.119
      vertex -12.1353 53 137.817
    endloop
  endfacet
  facet normal 0 -1 2.22045e-16
    outer loop
      vertex 4.19201 53 136.73
      vertex 4.7 53 135
      vertex 12.1353 53 137.817
    endloop
  endfacet
  facet normal 0 -1 2.22045e-16
    outer loop
      vertex 1.04459 53 138.167
      vertex 2.82933 53 137.911
      vertex 10.037 53 140.147
    endloop
  endfacet
  facet normal 0 -1 2.22045e-16
    outer loop
      vertex -0.790917 53 138
      vertex 0.677975 53 138
      vertex 7.5 53 141.99
    endloop
  endfacet
  facet normal 0 -1 2.22045e-16
    outer loop
      vertex 4.63525 53 143.266
      vertex -14.6722 53 132.119
      vertex -3.59555 53 137.418
    endloop
  endfacet
  facet normal 0 -1 2.22045e-16
    outer loop
      vertex 4.63525 53 143.266
      vertex -1.95541 53 138.167
      vertex 7.5 53 141.99
    endloop
  endfacet
  facet normal 0 -1 2.22045e-16
    outer loop
      vertex 4.63525 53 143.266
      vertex -3.59555 53 137.418
      vertex -1.95541 53 138.167
    endloop
  endfacet
  facet normal 0 -1 2.22045e-16
    outer loop
      vertex -1.95541 53 138.167
      vertex -0.790917 53 138
      vertex 7.5 53 141.99
    endloop
  endfacet
  facet normal 0 -1 2.22045e-16
    outer loop
      vertex 4.19201 53 133.27
      vertex 2.82933 53 132.089
      vertex 14.6722 53 132.119
    endloop
  endfacet
  facet normal 0 -1 2.22045e-16
    outer loop
      vertex 7.5 53 141.99
      vertex 1.04459 53 138.167
      vertex 10.037 53 140.147
    endloop
  endfacet
  facet normal 0 -1 2.22045e-16
    outer loop
      vertex 7.5 53 141.99
      vertex 0.677975 53 138
      vertex 1.04459 53 138.167
    endloop
  endfacet
  facet normal 0 -1 2.22045e-16
    outer loop
      vertex 10.037 53 140.147
      vertex 4.19201 53 136.73
      vertex 12.1353 53 137.817
    endloop
  endfacet
  facet normal 0 -1 2.22045e-16
    outer loop
      vertex -4.57038 53 135.902
      vertex -3.59555 53 137.418
      vertex -14.6722 53 132.119
    endloop
  endfacet
  facet normal 0 -1 2.22045e-16
    outer loop
      vertex 12.1353 53 137.817
      vertex 4.7 53 135
      vertex 13.7032 53 135.101
    endloop
  endfacet
  facet normal 0 -1 2.22045e-16
    outer loop
      vertex 13.7032 53 135.101
      vertex 4.19201 53 133.27
      vertex 14.6722 53 132.119
    endloop
  endfacet
  facet normal 0 -1 2.22045e-16
    outer loop
      vertex 14.6722 53 132.119
      vertex 2.82933 53 132.089
      vertex 15 53 129
    endloop
  endfacet
  facet normal 0 -1 2.22045e-16
    outer loop
      vertex 2.82933 53 132.089
      vertex 1.04459 53 131.833
      vertex 15 53 129
    endloop
  endfacet
  facet normal 0 -1 2.22045e-16
    outer loop
      vertex 0.677975 53 132
      vertex -0.790917 53 132
      vertex 1.04459 53 131.833
    endloop
  endfacet
  facet normal 0 -1 2.22045e-16
    outer loop
      vertex 1.04459 53 131.833
      vertex -1.95541 53 131.833
      vertex 15 53 129
    endloop
  endfacet
  facet normal 0 -1 2.22045e-16
    outer loop
      vertex 4.7 53 135
      vertex 4.19201 53 133.27
      vertex 13.7032 53 135.101
    endloop
  endfacet
  facet normal 0 -1 2.22045e-16
    outer loop
      vertex -3.59555 53 132.582
      vertex -4.57038 53 134.098
      vertex -14.6722 53 132.119
    endloop
  endfacet
  facet normal 0 -1 2.22045e-16
    outer loop
      vertex -4.57038 53 134.098
      vertex -4.57038 53 135.902
      vertex -14.6722 53 132.119
    endloop
  endfacet
  facet normal -0.994522 2.321e-17 0.104528
    outer loop
      vertex -15 53 129
      vertex -14.6722 53 132.119
      vertex -15 68 129
    endloop
  endfacet
  facet normal -0.994522 2.321e-17 0.104528
    outer loop
      vertex -15 68 129
      vertex -14.6722 53 132.119
      vertex -14.6722 68 132.119
    endloop
  endfacet
  facet normal -0.207911 -2.17192e-16 -0.978148
    outer loop
      vertex -4.63525 53 114.734
      vertex -4.63525 68 114.734
      vertex -1.56793 53 114.082
    endloop
  endfacet
  facet normal -0.207911 -2.17192e-16 -0.978148
    outer loop
      vertex -1.56793 53 114.082
      vertex -4.63525 68 114.734
      vertex -1.56793 68 114.082
    endloop
  endfacet
  facet normal 0 -2.22045e-16 -1
    outer loop
      vertex -1.56793 53 114.082
      vertex -1.56793 68 114.082
      vertex 1.56793 53 114.082
    endloop
  endfacet
  facet normal 0 -2.22045e-16 -1
    outer loop
      vertex 1.56793 53 114.082
      vertex -1.56793 68 114.082
      vertex 1.56793 68 114.082
    endloop
  endfacet
  facet normal 0.207911 -2.17192e-16 -0.978148
    outer loop
      vertex 1.56793 53 114.082
      vertex 1.56793 68 114.082
      vertex 4.63525 53 114.734
    endloop
  endfacet
  facet normal 0.207911 -2.17192e-16 -0.978148
    outer loop
      vertex 4.63525 53 114.734
      vertex 1.56793 68 114.082
      vertex 4.63525 68 114.734
    endloop
  endfacet
  facet normal 0.743145 -1.48577e-16 -0.669131
    outer loop
      vertex 11.25 66.9952 119.2
      vertex 10.037 67.4976 117.853
      vertex 10.037 68 117.853
    endloop
  endfacet
  facet normal 0.743145 -1.48577e-16 -0.669131
    outer loop
      vertex 12.1353 66.3159 120.183
      vertex 11.25 66.9952 119.2
      vertex 12.1353 68 120.183
    endloop
  endfacet
  facet normal 0.743145 -1.48577e-16 -0.669131
    outer loop
      vertex 12.1353 68 120.183
      vertex 11.25 66.9952 119.2
      vertex 10.037 68 117.853
    endloop
  endfacet
  facet normal 0.866025 -1.11022e-16 -0.5
    outer loop
      vertex 12.8033 65.8033 121.34
      vertex 12.1353 66.3159 120.183
      vertex 12.1353 68 120.183
    endloop
  endfacet
  facet normal 0.866025 -1.11022e-16 -0.5
    outer loop
      vertex 13.7032 64.6306 122.899
      vertex 12.8033 65.8033 121.34
      vertex 13.7032 68 122.899
    endloop
  endfacet
  facet normal 0.866025 -1.11022e-16 -0.5
    outer loop
      vertex 13.7032 68 122.899
      vertex 12.8033 65.8033 121.34
      vertex 12.1353 68 120.183
    endloop
  endfacet
  facet normal 0.951057 -6.86155e-17 -0.309017
    outer loop
      vertex 13.9952 64.25 123.798
      vertex 13.7032 64.6306 122.899
      vertex 13.7032 68 122.899
    endloop
  endfacet
  facet normal 0.951057 -6.86155e-17 -0.309017
    outer loop
      vertex 14.6722 62.6155 125.881
      vertex 13.9952 64.25 123.798
      vertex 14.6722 68 125.881
    endloop
  endfacet
  facet normal 0.951057 -6.86155e-17 -0.309017
    outer loop
      vertex 14.6722 68 125.881
      vertex 13.9952 64.25 123.798
      vertex 13.7032 68 122.899
    endloop
  endfacet
  facet normal 0.994522 -2.321e-17 -0.104528
    outer loop
      vertex 15 53 129
      vertex 14.6722 53 125.881
      vertex 14.6722 58.3845 125.881
    endloop
  endfacet
  facet normal 0.994522 -2.321e-17 -0.104528
    outer loop
      vertex 15 60.5 129
      vertex 15 53 129
      vertex 14.7444 58.5589 126.569
    endloop
  endfacet
  facet normal 0.994522 -2.321e-17 -0.104528
    outer loop
      vertex 14.7444 58.5589 126.569
      vertex 15 53 129
      vertex 14.6722 58.3845 125.881
    endloop
  endfacet
  facet normal 0.994522 -2.321e-17 -0.104528
    outer loop
      vertex 15 68 129
      vertex 15 53 129
      vertex 15 60.5 129
    endloop
  endfacet
  facet normal 0.994522 -2.321e-17 -0.104528
    outer loop
      vertex 14.6722 68 125.881
      vertex 15 60.5 129
      vertex 14.7444 62.4411 126.569
    endloop
  endfacet
  facet normal 0.994522 -2.321e-17 -0.104528
    outer loop
      vertex 14.6722 68 125.881
      vertex 14.7444 62.4411 126.569
      vertex 14.6722 62.6155 125.881
    endloop
  endfacet
  facet normal 0.994522 -2.321e-17 -0.104528
    outer loop
      vertex 15 68 129
      vertex 15 60.5 129
      vertex 14.6722 68 125.881
    endloop
  endfacet
  facet normal 0.994522 2.321e-17 0.104528
    outer loop
      vertex 14.6722 68 132.119
      vertex 14.6722 53 132.119
      vertex 15 53 129
    endloop
  endfacet
  facet normal 0.994522 2.321e-17 0.104528
    outer loop
      vertex 15 68 129
      vertex 14.6722 68 132.119
      vertex 15 53 129
    endloop
  endfacet
  facet normal 0.951057 6.86155e-17 0.309017
    outer loop
      vertex 13.7032 68 135.101
      vertex 13.7032 53 135.101
      vertex 14.6722 53 132.119
    endloop
  endfacet
  facet normal 0.951057 6.86155e-17 0.309017
    outer loop
      vertex 14.6722 68 132.119
      vertex 13.7032 68 135.101
      vertex 14.6722 53 132.119
    endloop
  endfacet
  facet normal 0.866025 1.11022e-16 0.5
    outer loop
      vertex 12.1353 68 137.817
      vertex 12.1353 53 137.817
      vertex 13.7032 53 135.101
    endloop
  endfacet
  facet normal 0.866025 1.11022e-16 0.5
    outer loop
      vertex 13.7032 68 135.101
      vertex 12.1353 68 137.817
      vertex 13.7032 53 135.101
    endloop
  endfacet
  facet normal 0.743145 1.48577e-16 0.669131
    outer loop
      vertex 10.037 68 140.147
      vertex 10.037 53 140.147
      vertex 12.1353 53 137.817
    endloop
  endfacet
  facet normal 0.743145 1.48577e-16 0.669131
    outer loop
      vertex 12.1353 68 137.817
      vertex 10.037 68 140.147
      vertex 12.1353 53 137.817
    endloop
  endfacet
  facet normal 0.587785 1.79638e-16 0.809017
    outer loop
      vertex 7.5 68 141.99
      vertex 7.5 53 141.99
      vertex 10.037 53 140.147
    endloop
  endfacet
  facet normal 0.587785 1.79638e-16 0.809017
    outer loop
      vertex 10.037 68 140.147
      vertex 7.5 68 141.99
      vertex 10.037 53 140.147
    endloop
  endfacet
  facet normal 0.406737 2.02848e-16 0.913545
    outer loop
      vertex 4.63525 68 143.266
      vertex 4.63525 53 143.266
      vertex 7.5 53 141.99
    endloop
  endfacet
  facet normal 0.406737 2.02848e-16 0.913545
    outer loop
      vertex 7.5 68 141.99
      vertex 4.63525 68 143.266
      vertex 7.5 53 141.99
    endloop
  endfacet
  facet normal 0.207911 2.17192e-16 0.978148
    outer loop
      vertex 1.56793 68 143.918
      vertex 1.56793 53 143.918
      vertex 4.63525 53 143.266
    endloop
  endfacet
  facet normal 0.207911 2.17192e-16 0.978148
    outer loop
      vertex 4.63525 68 143.266
      vertex 1.56793 68 143.918
      vertex 4.63525 53 143.266
    endloop
  endfacet
  facet normal 0 2.22045e-16 1
    outer loop
      vertex -1.56793 68 143.918
      vertex -1.56793 53 143.918
      vertex 1.56793 53 143.918
    endloop
  endfacet
  facet normal 0 2.22045e-16 1
    outer loop
      vertex 1.56793 68 143.918
      vertex -1.56793 68 143.918
      vertex 1.56793 53 143.918
    endloop
  endfacet
  facet normal -0.207911 2.17192e-16 0.978148
    outer loop
      vertex -4.63525 68 143.266
      vertex -4.63525 53 143.266
      vertex -1.56793 53 143.918
    endloop
  endfacet
  facet normal -0.207911 2.17192e-16 0.978148
    outer loop
      vertex -1.56793 68 143.918
      vertex -4.63525 68 143.266
      vertex -1.56793 53 143.918
    endloop
  endfacet
  facet normal -0.406737 2.02848e-16 0.913545
    outer loop
      vertex -7.5 68 141.99
      vertex -7.5 53 141.99
      vertex -4.63525 53 143.266
    endloop
  endfacet
  facet normal -0.406737 2.02848e-16 0.913545
    outer loop
      vertex -4.63525 68 143.266
      vertex -7.5 68 141.99
      vertex -4.63525 53 143.266
    endloop
  endfacet
  facet normal -0.587785 1.79638e-16 0.809017
    outer loop
      vertex -10.037 68 140.147
      vertex -10.037 53 140.147
      vertex -7.5 53 141.99
    endloop
  endfacet
  facet normal -0.587785 1.79638e-16 0.809017
    outer loop
      vertex -7.5 68 141.99
      vertex -10.037 68 140.147
      vertex -7.5 53 141.99
    endloop
  endfacet
  facet normal -0.743145 1.48577e-16 0.669131
    outer loop
      vertex -12.1353 53 137.817
      vertex -10.037 53 140.147
      vertex -12.1353 68 137.817
    endloop
  endfacet
  facet normal -0.743145 1.48577e-16 0.669131
    outer loop
      vertex -12.1353 68 137.817
      vertex -10.037 53 140.147
      vertex -10.037 68 140.147
    endloop
  endfacet
  facet normal -0.866025 1.11022e-16 0.5
    outer loop
      vertex -13.7032 53 135.101
      vertex -12.1353 53 137.817
      vertex -13.7032 68 135.101
    endloop
  endfacet
  facet normal -0.866025 1.11022e-16 0.5
    outer loop
      vertex -13.7032 68 135.101
      vertex -12.1353 53 137.817
      vertex -12.1353 68 137.817
    endloop
  endfacet
  facet normal -0.951057 6.86155e-17 0.309017
    outer loop
      vertex -14.6722 53 132.119
      vertex -13.7032 53 135.101
      vertex -14.6722 68 132.119
    endloop
  endfacet
  facet normal -0.951057 6.86155e-17 0.309017
    outer loop
      vertex -14.6722 68 132.119
      vertex -13.7032 53 135.101
      vertex -13.7032 68 135.101
    endloop
  endfacet
  facet normal 0.992709 -2.67645e-17 -0.120536
    outer loop
      vertex -8 68 134
      vertex -7.76753 68 135.915
      vertex -7.76753 60.5 135.915
    endloop
  endfacet
  facet normal 0.992709 -2.67645e-17 -0.120536
    outer loop
      vertex -8 60.5 134
      vertex -8 68 134
      vertex -7.76753 60.5 135.915
    endloop
  endfacet
  facet normal 0.992709 2.67645e-17 0.120536
    outer loop
      vertex -7.76753 60.5 132.085
      vertex -7.76753 68 132.085
      vertex -8 68 134
    endloop
  endfacet
  facet normal 0.992709 2.67645e-17 0.120536
    outer loop
      vertex -8 60.5 134
      vertex -7.76753 60.5 132.085
      vertex -8 68 134
    endloop
  endfacet
  facet normal 0.935016 -7.87382e-17 -0.354605
    outer loop
      vertex -7.76753 68 135.915
      vertex -7.08365 68 137.718
      vertex -7.08365 60.5 137.718
    endloop
  endfacet
  facet normal 0.935016 -7.87382e-17 -0.354605
    outer loop
      vertex -7.76753 60.5 135.915
      vertex -7.76753 68 135.915
      vertex -7.08365 60.5 137.718
    endloop
  endfacet
  facet normal 0.822984 -1.26136e-16 -0.568065
    outer loop
      vertex -7.08365 68 137.718
      vertex -5.98809 68 139.305
      vertex -5.98809 60.5 139.305
    endloop
  endfacet
  facet normal 0.822984 -1.26136e-16 -0.568065
    outer loop
      vertex -7.08365 60.5 137.718
      vertex -7.08365 68 137.718
      vertex -5.98809 60.5 139.305
    endloop
  endfacet
  facet normal 0.663123 -1.66203e-16 -0.748511
    outer loop
      vertex -4.54452 68 140.584
      vertex -4.54452 60.5 140.584
      vertex -5.98809 68 139.305
    endloop
  endfacet
  facet normal 0.663123 -1.66203e-16 -0.748511
    outer loop
      vertex -5.98809 68 139.305
      vertex -4.54452 60.5 140.584
      vertex -5.98809 60.5 139.305
    endloop
  endfacet
  facet normal 0.464723 -1.96611e-16 -0.885456
    outer loop
      vertex -2.83684 68 141.48
      vertex -2.83684 60.5 141.48
      vertex -4.54452 68 140.584
    endloop
  endfacet
  facet normal 0.464723 -1.96611e-16 -0.885456
    outer loop
      vertex -4.54452 68 140.584
      vertex -2.83684 60.5 141.48
      vertex -4.54452 60.5 140.584
    endloop
  endfacet
  facet normal 0.239316 -2.15592e-16 -0.970942
    outer loop
      vertex -0.964293 68 141.942
      vertex -0.964293 60.5 141.942
      vertex -2.83684 68 141.48
    endloop
  endfacet
  facet normal 0.239316 -2.15592e-16 -0.970942
    outer loop
      vertex -2.83684 68 141.48
      vertex -0.964293 60.5 141.942
      vertex -2.83684 60.5 141.48
    endloop
  endfacet
  facet normal 0 -2.22045e-16 -1
    outer loop
      vertex 0.964293 68 141.942
      vertex 0.964293 60.5 141.942
      vertex -0.964293 68 141.942
    endloop
  endfacet
  facet normal 0 -2.22045e-16 -1
    outer loop
      vertex -0.964293 68 141.942
      vertex 0.964293 60.5 141.942
      vertex -0.964293 60.5 141.942
    endloop
  endfacet
  facet normal -0.239316 -2.15592e-16 -0.970942
    outer loop
      vertex 2.83684 68 141.48
      vertex 2.83684 60.5 141.48
      vertex 0.964293 68 141.942
    endloop
  endfacet
  facet normal -0.239316 -2.15592e-16 -0.970942
    outer loop
      vertex 0.964293 68 141.942
      vertex 2.83684 60.5 141.48
      vertex 0.964293 60.5 141.942
    endloop
  endfacet
  facet normal -0.464723 -1.96611e-16 -0.885456
    outer loop
      vertex 4.54452 68 140.584
      vertex 4.54452 60.5 140.584
      vertex 2.83684 68 141.48
    endloop
  endfacet
  facet normal -0.464723 -1.96611e-16 -0.885456
    outer loop
      vertex 2.83684 68 141.48
      vertex 4.54452 60.5 140.584
      vertex 2.83684 60.5 141.48
    endloop
  endfacet
  facet normal -0.663123 -1.66203e-16 -0.748511
    outer loop
      vertex 5.98809 68 139.305
      vertex 5.98809 60.5 139.305
      vertex 4.54452 68 140.584
    endloop
  endfacet
  facet normal -0.663123 -1.66203e-16 -0.748511
    outer loop
      vertex 4.54452 68 140.584
      vertex 5.98809 60.5 139.305
      vertex 4.54452 60.5 140.584
    endloop
  endfacet
  facet normal -0.822984 -1.26136e-16 -0.568065
    outer loop
      vertex 7.08365 68 137.718
      vertex 7.08365 60.5 137.718
      vertex 5.98809 68 139.305
    endloop
  endfacet
  facet normal -0.822984 -1.26136e-16 -0.568065
    outer loop
      vertex 5.98809 68 139.305
      vertex 7.08365 60.5 137.718
      vertex 5.98809 60.5 139.305
    endloop
  endfacet
  facet normal -0.935016 -7.87382e-17 -0.354605
    outer loop
      vertex 7.76753 68 135.915
      vertex 7.76753 60.5 135.915
      vertex 7.08365 68 137.718
    endloop
  endfacet
  facet normal -0.935016 -7.87382e-17 -0.354605
    outer loop
      vertex 7.08365 68 137.718
      vertex 7.76753 60.5 135.915
      vertex 7.08365 60.5 137.718
    endloop
  endfacet
  facet normal -0.992709 -2.67645e-17 -0.120536
    outer loop
      vertex 8 68 134
      vertex 8 60.5 134
      vertex 7.76753 68 135.915
    endloop
  endfacet
  facet normal -0.992709 -2.67645e-17 -0.120536
    outer loop
      vertex 7.76753 68 135.915
      vertex 8 60.5 134
      vertex 7.76753 60.5 135.915
    endloop
  endfacet
  facet normal -0.992709 2.67645e-17 0.120536
    outer loop
      vertex 8 68 134
      vertex 7.76753 68 132.085
      vertex 8 60.5 134
    endloop
  endfacet
  facet normal -0.992709 2.67645e-17 0.120536
    outer loop
      vertex 8 60.5 134
      vertex 7.76753 68 132.085
      vertex 7.76753 60.5 132.085
    endloop
  endfacet
  facet normal -0.935016 7.87382e-17 0.354605
    outer loop
      vertex 7.76753 68 132.085
      vertex 7.08365 68 130.282
      vertex 7.76753 60.5 132.085
    endloop
  endfacet
  facet normal -0.935016 7.87382e-17 0.354605
    outer loop
      vertex 7.76753 60.5 132.085
      vertex 7.08365 68 130.282
      vertex 7.08365 60.5 130.282
    endloop
  endfacet
  facet normal -0.822984 1.26136e-16 0.568065
    outer loop
      vertex 7.08365 68 130.282
      vertex 5.98809 68 128.695
      vertex 7.08365 60.5 130.282
    endloop
  endfacet
  facet normal -0.822984 1.26136e-16 0.568065
    outer loop
      vertex 7.08365 60.5 130.282
      vertex 5.98809 68 128.695
      vertex 5.98809 60.5 128.695
    endloop
  endfacet
  facet normal -0.663123 1.66203e-16 0.748511
    outer loop
      vertex 5.98809 60.5 128.695
      vertex 5.98809 68 128.695
      vertex 4.54452 68 127.416
    endloop
  endfacet
  facet normal -0.663123 1.66203e-16 0.748511
    outer loop
      vertex 4.54452 60.5 127.416
      vertex 5.98809 60.5 128.695
      vertex 4.54452 68 127.416
    endloop
  endfacet
  facet normal -0.464723 1.96611e-16 0.885456
    outer loop
      vertex 4.54452 60.5 127.416
      vertex 4.54452 68 127.416
      vertex 2.83684 68 126.52
    endloop
  endfacet
  facet normal -0.464723 1.96611e-16 0.885456
    outer loop
      vertex 2.83684 60.5 126.52
      vertex 4.54452 60.5 127.416
      vertex 2.83684 68 126.52
    endloop
  endfacet
  facet normal -0.239316 2.15592e-16 0.970942
    outer loop
      vertex 2.83684 60.5 126.52
      vertex 2.83684 68 126.52
      vertex 0.964293 68 126.058
    endloop
  endfacet
  facet normal -0.239316 2.15592e-16 0.970942
    outer loop
      vertex 0.964293 60.5 126.058
      vertex 2.83684 60.5 126.52
      vertex 0.964293 68 126.058
    endloop
  endfacet
  facet normal 0 2.22045e-16 1
    outer loop
      vertex 0.964293 60.5 126.058
      vertex 0.964293 68 126.058
      vertex -0.964293 68 126.058
    endloop
  endfacet
  facet normal 0 2.22045e-16 1
    outer loop
      vertex -0.964293 60.5 126.058
      vertex 0.964293 60.5 126.058
      vertex -0.964293 68 126.058
    endloop
  endfacet
  facet normal 0.239316 2.15592e-16 0.970942
    outer loop
      vertex -0.964293 60.5 126.058
      vertex -0.964293 68 126.058
      vertex -2.83684 68 126.52
    endloop
  endfacet
  facet normal 0.239316 2.15592e-16 0.970942
    outer loop
      vertex -2.83684 60.5 126.52
      vertex -0.964293 60.5 126.058
      vertex -2.83684 68 126.52
    endloop
  endfacet
  facet normal 0.464723 1.96611e-16 0.885456
    outer loop
      vertex -2.83684 60.5 126.52
      vertex -2.83684 68 126.52
      vertex -4.54452 68 127.416
    endloop
  endfacet
  facet normal 0.464723 1.96611e-16 0.885456
    outer loop
      vertex -4.54452 60.5 127.416
      vertex -2.83684 60.5 126.52
      vertex -4.54452 68 127.416
    endloop
  endfacet
  facet normal 0.663123 1.66203e-16 0.748511
    outer loop
      vertex -4.54452 60.5 127.416
      vertex -4.54452 68 127.416
      vertex -5.98809 68 128.695
    endloop
  endfacet
  facet normal 0.663123 1.66203e-16 0.748511
    outer loop
      vertex -5.98809 60.5 128.695
      vertex -4.54452 60.5 127.416
      vertex -5.98809 68 128.695
    endloop
  endfacet
  facet normal 0.822984 1.26136e-16 0.568065
    outer loop
      vertex -5.98809 60.5 128.695
      vertex -5.98809 68 128.695
      vertex -7.08365 68 130.282
    endloop
  endfacet
  facet normal 0.822984 1.26136e-16 0.568065
    outer loop
      vertex -7.08365 60.5 130.282
      vertex -5.98809 60.5 128.695
      vertex -7.08365 68 130.282
    endloop
  endfacet
  facet normal 0.935016 7.87382e-17 0.354605
    outer loop
      vertex -7.08365 60.5 130.282
      vertex -7.08365 68 130.282
      vertex -7.76753 68 132.085
    endloop
  endfacet
  facet normal 0.935016 7.87382e-17 0.354605
    outer loop
      vertex -7.76753 60.5 132.085
      vertex -7.08365 60.5 130.282
      vertex -7.76753 68 132.085
    endloop
  endfacet
  facet normal 0.743145 -1.48577e-16 -0.669131
    outer loop
      vertex 12.1353 53 120.183
      vertex 10.037 53 117.853
      vertex 10.037 53.5024 117.853
    endloop
  endfacet
  facet normal 0.743145 -1.48577e-16 -0.669131
    outer loop
      vertex 12.1353 54.6841 120.183
      vertex 12.1353 53 120.183
      vertex 11.25 54.0048 119.2
    endloop
  endfacet
  facet normal 0.743145 -1.48577e-16 -0.669131
    outer loop
      vertex 11.25 54.0048 119.2
      vertex 12.1353 53 120.183
      vertex 10.037 53.5024 117.853
    endloop
  endfacet
  facet normal 0.866025 -1.11022e-16 -0.5
    outer loop
      vertex 13.7032 53 122.899
      vertex 12.1353 53 120.183
      vertex 12.1353 54.6841 120.183
    endloop
  endfacet
  facet normal 0.866025 -1.11022e-16 -0.5
    outer loop
      vertex 13.7032 56.3694 122.899
      vertex 13.7032 53 122.899
      vertex 12.8033 55.1967 121.34
    endloop
  endfacet
  facet normal 0.866025 -1.11022e-16 -0.5
    outer loop
      vertex 12.8033 55.1967 121.34
      vertex 13.7032 53 122.899
      vertex 12.1353 54.6841 120.183
    endloop
  endfacet
  facet normal 0.951057 -6.86155e-17 -0.309017
    outer loop
      vertex 14.6722 53 125.881
      vertex 13.7032 53 122.899
      vertex 13.7032 56.3694 122.899
    endloop
  endfacet
  facet normal 0.951057 -6.86155e-17 -0.309017
    outer loop
      vertex 14.6722 58.3845 125.881
      vertex 14.6722 53 125.881
      vertex 13.9952 56.75 123.798
    endloop
  endfacet
  facet normal 0.951057 -6.86155e-17 -0.309017
    outer loop
      vertex 13.9952 56.75 123.798
      vertex 14.6722 53 125.881
      vertex 13.7032 56.3694 122.899
    endloop
  endfacet
  facet normal 1 0 0
    outer loop
      vertex -4.57038 60.5 134.098
      vertex -4.57038 60.5 135.902
      vertex -4.57038 53 135.902
    endloop
  endfacet
  facet normal 1 0 0
    outer loop
      vertex -4.57038 53 134.098
      vertex -4.57038 60.5 134.098
      vertex -4.57038 53 135.902
    endloop
  endfacet
  facet normal 0.841253 1.20046e-16 0.540641
    outer loop
      vertex -3.59555 53 132.582
      vertex -3.59555 60.5 132.582
      vertex -4.57038 60.5 134.098
    endloop
  endfacet
  facet normal 0.841253 1.20046e-16 0.540641
    outer loop
      vertex -4.57038 53 134.098
      vertex -3.59555 53 132.582
      vertex -4.57038 60.5 134.098
    endloop
  endfacet
  facet normal 0.415415 2.01979e-16 0.909632
    outer loop
      vertex -1.95541 53 131.833
      vertex -1.95541 60.5 131.833
      vertex -3.59555 60.5 132.582
    endloop
  endfacet
  facet normal 0.415415 2.01979e-16 0.909632
    outer loop
      vertex -3.59555 53 132.582
      vertex -1.95541 53 131.833
      vertex -3.59555 60.5 132.582
    endloop
  endfacet
  facet normal -0.142315 2.19784e-16 0.989821
    outer loop
      vertex -0.790917 53 132
      vertex -0.790917 60.5 132
      vertex -1.95541 60.5 131.833
    endloop
  endfacet
  facet normal -0.142315 2.19784e-16 0.989821
    outer loop
      vertex -1.95541 53 131.833
      vertex -0.790917 53 132
      vertex -1.95541 60.5 131.833
    endloop
  endfacet
  facet normal 0 0 1
    outer loop
      vertex 0.677975 53 132
      vertex 0.677975 60.5 132
      vertex -0.790917 60.5 132
    endloop
  endfacet
  facet normal 0 0 1
    outer loop
      vertex -0.790917 53 132
      vertex 0.677975 53 132
      vertex -0.790917 60.5 132
    endloop
  endfacet
  facet normal 0.415415 2.01979e-16 0.909632
    outer loop
      vertex 0.677975 53 132
      vertex 1.04459 53 131.833
      vertex 1.04459 60.5 131.833
    endloop
  endfacet
  facet normal 0.415415 2.01979e-16 0.909632
    outer loop
      vertex 0.677975 60.5 132
      vertex 0.677975 53 132
      vertex 1.04459 60.5 131.833
    endloop
  endfacet
  facet normal -0.142315 2.19784e-16 0.989821
    outer loop
      vertex 2.82933 53 132.089
      vertex 2.82933 60.5 132.089
      vertex 1.04459 60.5 131.833
    endloop
  endfacet
  facet normal -0.142315 2.19784e-16 0.989821
    outer loop
      vertex 1.04459 53 131.833
      vertex 2.82933 53 132.089
      vertex 1.04459 60.5 131.833
    endloop
  endfacet
  facet normal -0.654861 1.6781e-16 0.75575
    outer loop
      vertex 4.19201 53 133.27
      vertex 4.19201 60.5 133.27
      vertex 2.82933 60.5 132.089
    endloop
  endfacet
  facet normal -0.654861 1.6781e-16 0.75575
    outer loop
      vertex 2.82933 53 132.089
      vertex 4.19201 53 133.27
      vertex 2.82933 60.5 132.089
    endloop
  endfacet
  facet normal -0.959493 6.25572e-17 0.281733
    outer loop
      vertex 4.7 60.5 135
      vertex 4.19201 60.5 133.27
      vertex 4.7 53 135
    endloop
  endfacet
  facet normal -0.959493 6.25572e-17 0.281733
    outer loop
      vertex 4.7 53 135
      vertex 4.19201 60.5 133.27
      vertex 4.19201 53 133.27
    endloop
  endfacet
  facet normal -0.959493 -6.25572e-17 -0.281733
    outer loop
      vertex 4.7 60.5 135
      vertex 4.7 53 135
      vertex 4.19201 60.5 136.73
    endloop
  endfacet
  facet normal -0.959493 -6.25572e-17 -0.281733
    outer loop
      vertex 4.19201 60.5 136.73
      vertex 4.7 53 135
      vertex 4.19201 53 136.73
    endloop
  endfacet
  facet normal -0.654861 -1.6781e-16 -0.75575
    outer loop
      vertex 4.19201 60.5 136.73
      vertex 4.19201 53 136.73
      vertex 2.82933 60.5 137.911
    endloop
  endfacet
  facet normal -0.654861 -1.6781e-16 -0.75575
    outer loop
      vertex 2.82933 60.5 137.911
      vertex 4.19201 53 136.73
      vertex 2.82933 53 137.911
    endloop
  endfacet
  facet normal -0.142315 -2.19784e-16 -0.989821
    outer loop
      vertex 2.82933 60.5 137.911
      vertex 2.82933 53 137.911
      vertex 1.04459 60.5 138.167
    endloop
  endfacet
  facet normal -0.142315 -2.19784e-16 -0.989821
    outer loop
      vertex 1.04459 60.5 138.167
      vertex 2.82933 53 137.911
      vertex 1.04459 53 138.167
    endloop
  endfacet
  facet normal 0.415415 -2.01979e-16 -0.909632
    outer loop
      vertex 1.04459 60.5 138.167
      vertex 1.04459 53 138.167
      vertex 0.677975 60.5 138
    endloop
  endfacet
  facet normal 0.415415 -2.01979e-16 -0.909632
    outer loop
      vertex 0.677975 60.5 138
      vertex 1.04459 53 138.167
      vertex 0.677975 53 138
    endloop
  endfacet
  facet normal 0 0 -1
    outer loop
      vertex 0.677975 53 138
      vertex -0.790917 53 138
      vertex 0.677975 60.5 138
    endloop
  endfacet
  facet normal 0 0 -1
    outer loop
      vertex 0.677975 60.5 138
      vertex -0.790917 53 138
      vertex -0.790917 60.5 138
    endloop
  endfacet
  facet normal -0.142315 -2.19784e-16 -0.989821
    outer loop
      vertex -0.790917 60.5 138
      vertex -0.790917 53 138
      vertex -1.95541 60.5 138.167
    endloop
  endfacet
  facet normal -0.142315 -2.19784e-16 -0.989821
    outer loop
      vertex -1.95541 60.5 138.167
      vertex -0.790917 53 138
      vertex -1.95541 53 138.167
    endloop
  endfacet
  facet normal 0.415415 -2.01979e-16 -0.909632
    outer loop
      vertex -1.95541 60.5 138.167
      vertex -1.95541 53 138.167
      vertex -3.59555 60.5 137.418
    endloop
  endfacet
  facet normal 0.415415 -2.01979e-16 -0.909632
    outer loop
      vertex -3.59555 60.5 137.418
      vertex -1.95541 53 138.167
      vertex -3.59555 53 137.418
    endloop
  endfacet
  facet normal 0.841253 -1.20046e-16 -0.540641
    outer loop
      vertex -4.57038 60.5 135.902
      vertex -3.59555 60.5 137.418
      vertex -3.59555 53 137.418
    endloop
  endfacet
  facet normal 0.841253 -1.20046e-16 -0.540641
    outer loop
      vertex -4.57038 53 135.902
      vertex -4.57038 60.5 135.902
      vertex -3.59555 53 137.418
    endloop
  endfacet
  facet normal 0 1 -2.22045e-16
    outer loop
      vertex -7.08365 60.5 137.718
      vertex -5.98809 60.5 139.305
      vertex -7.76753 60.5 135.915
    endloop
  endfacet
  facet normal 0 1 -2.22045e-16
    outer loop
      vertex -7.76753 60.5 135.915
      vertex -5.98809 60.5 139.305
      vertex -4.54452 60.5 140.584
    endloop
  endfacet
  facet normal 0 1 -2.22045e-16
    outer loop
      vertex -7.76753 60.5 135.915
      vertex -4.54452 60.5 140.584
      vertex -2.83684 60.5 141.48
    endloop
  endfacet
  facet normal 0 1 -2.22045e-16
    outer loop
      vertex -7.76753 60.5 135.915
      vertex -2.83684 60.5 141.48
      vertex -0.964293 60.5 141.942
    endloop
  endfacet
  facet normal 0 1 -2.22045e-16
    outer loop
      vertex -7.76753 60.5 135.915
      vertex -0.964293 60.5 141.942
      vertex 0.964293 60.5 141.942
    endloop
  endfacet
  facet normal 0 1 -2.22045e-16
    outer loop
      vertex -7.76753 60.5 135.915
      vertex 0.964293 60.5 141.942
      vertex 2.83684 60.5 141.48
    endloop
  endfacet
  facet normal 0 1 -2.22045e-16
    outer loop
      vertex -1.95541 60.5 138.167
      vertex 2.83684 60.5 141.48
      vertex 4.54452 60.5 140.584
    endloop
  endfacet
  facet normal 0 1 -2.22045e-16
    outer loop
      vertex 1.04459 60.5 138.167
      vertex 4.54452 60.5 140.584
      vertex 5.98809 60.5 139.305
    endloop
  endfacet
  facet normal 0 1 -2.22045e-16
    outer loop
      vertex 2.82933 60.5 137.911
      vertex 5.98809 60.5 139.305
      vertex 7.08365 60.5 137.718
    endloop
  endfacet
  facet normal 0 1 -2.22045e-16
    outer loop
      vertex 4.19201 60.5 136.73
      vertex 7.08365 60.5 137.718
      vertex 7.76753 60.5 135.915
    endloop
  endfacet
  facet normal 0 1 -2.22045e-16
    outer loop
      vertex 4.7 60.5 135
      vertex 7.76753 60.5 135.915
      vertex 8 60.5 134
    endloop
  endfacet
  facet normal 0 1 -2.22045e-16
    outer loop
      vertex 4.19201 60.5 133.27
      vertex 8 60.5 134
      vertex 7.76753 60.5 132.085
    endloop
  endfacet
  facet normal 0 1 -2.22045e-16
    outer loop
      vertex 2.82933 60.5 132.089
      vertex 7.76753 60.5 132.085
      vertex 7.08365 60.5 130.282
    endloop
  endfacet
  facet normal 0 1 -2.22045e-16
    outer loop
      vertex 1.04459 60.5 131.833
      vertex 7.08365 60.5 130.282
      vertex 5.98809 60.5 128.695
    endloop
  endfacet
  facet normal 0 1 -2.22045e-16
    outer loop
      vertex -0.790917 60.5 132
      vertex 5.98809 60.5 128.695
      vertex 4.54452 60.5 127.416
    endloop
  endfacet
  facet normal 0 1 -2.22045e-16
    outer loop
      vertex -3.59555 60.5 132.582
      vertex 4.54452 60.5 127.416
      vertex 2.83684 60.5 126.52
    endloop
  endfacet
  facet normal 0 1 -2.22045e-16
    outer loop
      vertex -7.76753 60.5 135.915
      vertex 2.83684 60.5 126.52
      vertex 0.964293 60.5 126.058
    endloop
  endfacet
  facet normal 0 1 -2.22045e-16
    outer loop
      vertex -7.76753 60.5 135.915
      vertex 0.964293 60.5 126.058
      vertex -0.964293 60.5 126.058
    endloop
  endfacet
  facet normal 0 1 -2.22045e-16
    outer loop
      vertex -7.76753 60.5 135.915
      vertex -0.964293 60.5 126.058
      vertex -2.83684 60.5 126.52
    endloop
  endfacet
  facet normal 0 1 -2.22045e-16
    outer loop
      vertex -7.76753 60.5 135.915
      vertex -2.83684 60.5 126.52
      vertex -4.54452 60.5 127.416
    endloop
  endfacet
  facet normal 0 1 -2.22045e-16
    outer loop
      vertex -7.76753 60.5 135.915
      vertex -4.54452 60.5 127.416
      vertex -5.98809 60.5 128.695
    endloop
  endfacet
  facet normal 0 1 -2.22045e-16
    outer loop
      vertex -7.76753 60.5 135.915
      vertex -5.98809 60.5 128.695
      vertex -7.08365 60.5 130.282
    endloop
  endfacet
  facet normal 0 1 -2.22045e-16
    outer loop
      vertex -7.76753 60.5 135.915
      vertex -7.08365 60.5 130.282
      vertex -7.76753 60.5 132.085
    endloop
  endfacet
  facet normal 0 1 -2.22045e-16
    outer loop
      vertex -7.76753 60.5 135.915
      vertex -7.76753 60.5 132.085
      vertex -8 60.5 134
    endloop
  endfacet
  facet normal 0 1 -2.22045e-16
    outer loop
      vertex -3.59555 60.5 132.582
      vertex -7.76753 60.5 135.915
      vertex -4.57038 60.5 134.098
    endloop
  endfacet
  facet normal 0 1 -2.22045e-16
    outer loop
      vertex -1.95541 60.5 131.833
      vertex 4.54452 60.5 127.416
      vertex -3.59555 60.5 132.582
    endloop
  endfacet
  facet normal 0 1 -2.22045e-16
    outer loop
      vertex -7.76753 60.5 135.915
      vertex -3.59555 60.5 132.582
      vertex 2.83684 60.5 126.52
    endloop
  endfacet
  facet normal 0 1 -2.22045e-16
    outer loop
      vertex -0.790917 60.5 132
      vertex 4.54452 60.5 127.416
      vertex -1.95541 60.5 131.833
    endloop
  endfacet
  facet normal 0 1 -2.22045e-16
    outer loop
      vertex 0.677975 60.5 132
      vertex 5.98809 60.5 128.695
      vertex -0.790917 60.5 132
    endloop
  endfacet
  facet normal 0 1 -2.22045e-16
    outer loop
      vertex 0.677975 60.5 132
      vertex 1.04459 60.5 131.833
      vertex 5.98809 60.5 128.695
    endloop
  endfacet
  facet normal 0 1 -2.22045e-16
    outer loop
      vertex 2.82933 60.5 137.911
      vertex 7.08365 60.5 137.718
      vertex 4.19201 60.5 136.73
    endloop
  endfacet
  facet normal 0 1 -2.22045e-16
    outer loop
      vertex 1.04459 60.5 138.167
      vertex 5.98809 60.5 139.305
      vertex 2.82933 60.5 137.911
    endloop
  endfacet
  facet normal 0 1 -2.22045e-16
    outer loop
      vertex -0.790917 60.5 138
      vertex 4.54452 60.5 140.584
      vertex 1.04459 60.5 138.167
    endloop
  endfacet
  facet normal 0 1 -2.22045e-16
    outer loop
      vertex -0.790917 60.5 138
      vertex 1.04459 60.5 138.167
      vertex 0.677975 60.5 138
    endloop
  endfacet
  facet normal 0 1 -2.22045e-16
    outer loop
      vertex -3.59555 60.5 137.418
      vertex -7.76753 60.5 135.915
      vertex -1.95541 60.5 138.167
    endloop
  endfacet
  facet normal 0 1 -2.22045e-16
    outer loop
      vertex -1.95541 60.5 138.167
      vertex 4.54452 60.5 140.584
      vertex -0.790917 60.5 138
    endloop
  endfacet
  facet normal 0 1 -2.22045e-16
    outer loop
      vertex -7.76753 60.5 135.915
      vertex 2.83684 60.5 141.48
      vertex -1.95541 60.5 138.167
    endloop
  endfacet
  facet normal 0 1 -2.22045e-16
    outer loop
      vertex -4.57038 60.5 135.902
      vertex -7.76753 60.5 135.915
      vertex -3.59555 60.5 137.418
    endloop
  endfacet
  facet normal 0 1 -2.22045e-16
    outer loop
      vertex -4.57038 60.5 134.098
      vertex -7.76753 60.5 135.915
      vertex -4.57038 60.5 135.902
    endloop
  endfacet
  facet normal 0 1 -2.22045e-16
    outer loop
      vertex 4.19201 60.5 136.73
      vertex 7.76753 60.5 135.915
      vertex 4.7 60.5 135
    endloop
  endfacet
  facet normal 0 1 -2.22045e-16
    outer loop
      vertex 4.7 60.5 135
      vertex 8 60.5 134
      vertex 4.19201 60.5 133.27
    endloop
  endfacet
  facet normal 0 1 -2.22045e-16
    outer loop
      vertex 4.19201 60.5 133.27
      vertex 7.76753 60.5 132.085
      vertex 2.82933 60.5 132.089
    endloop
  endfacet
  facet normal 0 1 -2.22045e-16
    outer loop
      vertex 2.82933 60.5 132.089
      vertex 7.08365 60.5 130.282
      vertex 1.04459 60.5 131.833
    endloop
  endfacet
endsolid OpenSCAD_Model
