solid OpenSCAD_Model
  facet normal -1 0 0
    outer loop
      vertex -11.5 56 52
      vertex -11.5 65.5 52
      vertex -11.5 56 15
    endloop
  endfacet
  facet normal -1 0 0
    outer loop
      vertex -11.5 56 15
      vertex -11.5 65.5 52
      vertex -11.5 77 52
    endloop
  endfacet
  facet normal -1 0 0
    outer loop
      vertex -11.5 56 15
      vertex -11.5 77 52
      vertex -11.5 77 15
    endloop
  endfacet
  facet normal 0 0 -1
    outer loop
      vertex -11.5 77 15
      vertex 11.5 77 15
      vertex -11.5 56 15
    endloop
  endfacet
  facet normal 0 0 -1
    outer loop
      vertex -11.5 56 15
      vertex 11.5 77 15
      vertex 11.5 56 15
    endloop
  endfacet
  facet normal 0 1 0
    outer loop
      vertex -11.5 77 52
      vertex 11.5 77 52
      vertex -11.5 77 15
    endloop
  endfacet
  facet normal 0 1 0
    outer loop
      vertex 2 77 26
      vertex 11.5 77 52
      vertex 11.5 77 15
    endloop
  endfacet
  facet normal 0 1 0
    outer loop
      vertex -11.5 77 15
      vertex -1.80194 77 26
      vertex 11.5 77 15
    endloop
  endfacet
  facet normal 0 1 0
    outer loop
      vertex 1.24698 77 27.5637
      vertex 11.5 77 52
      vertex 2 77 26
    endloop
  endfacet
  facet normal 0 1 0
    outer loop
      vertex -1.80194 77 26
      vertex 2 77 26
      vertex 11.5 77 15
    endloop
  endfacet
  facet normal 0 1 0
    outer loop
      vertex -0.445042 77 27.9499
      vertex 11.5 77 52
      vertex 1.24698 77 27.5637
    endloop
  endfacet
  facet normal 0 1 0
    outer loop
      vertex -11.5 77 15
      vertex 11.5 77 52
      vertex -1.80194 77 26.8678
    endloop
  endfacet
  facet normal 0 1 0
    outer loop
      vertex -11.5 77 15
      vertex -1.80194 77 26.8678
      vertex -1.80194 77 26
    endloop
  endfacet
  facet normal 0 1 0
    outer loop
      vertex -1.80194 77 26.8678
      vertex 11.5 77 52
      vertex -0.445042 77 27.9499
    endloop
  endfacet
  facet normal 0 -1 0
    outer loop
      vertex -11.5 56 15
      vertex 11.5 56 15
      vertex 11.5 56 52
    endloop
  endfacet
  facet normal 0 -1 0
    outer loop
      vertex 6 56 52
      vertex -11.5 56 15
      vertex 6.38216 56 52
    endloop
  endfacet
  facet normal 0 -1 0
    outer loop
      vertex 6.38216 56 52
      vertex -11.5 56 15
      vertex 11.5 56 52
    endloop
  endfacet
  facet normal 0 -1 0
    outer loop
      vertex 6 56 52
      vertex -6 56 52
      vertex -11.5 56 15
    endloop
  endfacet
  facet normal 0 -1 0
    outer loop
      vertex 6.38216 56 82
      vertex 6 56 52
      vertex 6.38216 56 52
    endloop
  endfacet
  facet normal 0 -1 0
    outer loop
      vertex -6.38216 56 52
      vertex -11.5 56 15
      vertex -6 56 52
    endloop
  endfacet
  facet normal 0 -1 0
    outer loop
      vertex -6.38216 56 52
      vertex -11.5 56 52
      vertex -11.5 56 15
    endloop
  endfacet
  facet normal 0 -1 0
    outer loop
      vertex -6 56 82
      vertex -6.38216 56 52
      vertex -6 56 52
    endloop
  endfacet
  facet normal 0 -1 0
    outer loop
      vertex -6.38216 56 82
      vertex -6.38216 56 52
      vertex -6 56 82
    endloop
  endfacet
  facet normal 0 -1 0
    outer loop
      vertex 6 56 82
      vertex 6 56 52
      vertex 6.38216 56 82
    endloop
  endfacet
  facet normal 0 0 1
    outer loop
      vertex -11.5 77 52
      vertex -11.2487 67.891 52
      vertex -10.5058 70.1775 52
    endloop
  endfacet
  facet normal 0 0 1
    outer loop
      vertex -7.73657 74 52
      vertex -11.5 77 52
      vertex -9.30369 72.2595 52
    endloop
  endfacet
  facet normal 0 0 1
    outer loop
      vertex -9.30369 72.2595 52
      vertex -11.5 77 52
      vertex -10.5058 70.1775 52
    endloop
  endfacet
  facet normal 0 0 1
    outer loop
      vertex -11.5 65.5 52
      vertex -11.2487 67.891 52
      vertex -11.5 77 52
    endloop
  endfacet
  facet normal 0 0 1
    outer loop
      vertex 7.73657 74 52
      vertex 11.5 77 52
      vertex -7.73657 74 52
    endloop
  endfacet
  facet normal 0 0 1
    outer loop
      vertex 9.30369 72.2595 52
      vertex 11.5 77 52
      vertex 7.73657 74 52
    endloop
  endfacet
  facet normal 0 0 1
    outer loop
      vertex 10.5058 70.1775 52
      vertex 11.5 77 52
      vertex 9.30369 72.2595 52
    endloop
  endfacet
  facet normal 0 0 1
    outer loop
      vertex 11.2487 67.891 52
      vertex 11.5 77 52
      vertex 10.5058 70.1775 52
    endloop
  endfacet
  facet normal 0 0 1
    outer loop
      vertex 11.5 65.5 52
      vertex 11.5 77 52
      vertex 11.2487 67.891 52
    endloop
  endfacet
  facet normal 0 0 1
    outer loop
      vertex 11.5 77 52
      vertex -11.5 77 52
      vertex -7.73657 74 52
    endloop
  endfacet
  facet normal -0.994522 0.104529 0
    outer loop
      vertex -11.5 65.5 82
      vertex -11.2487 67.891 82
      vertex -11.5 65.5 52
    endloop
  endfacet
  facet normal -0.994522 0.104529 0
    outer loop
      vertex -11.5 65.5 52
      vertex -11.2487 67.891 82
      vertex -11.2487 67.891 52
    endloop
  endfacet
  facet normal -0.994522 -0.104529 0
    outer loop
      vertex -11.2487 63.109 52
      vertex -11.2487 63.109 82
      vertex -11.5 65.5 52
    endloop
  endfacet
  facet normal -0.994522 -0.104529 0
    outer loop
      vertex -11.5 65.5 52
      vertex -11.2487 63.109 82
      vertex -11.5 65.5 82
    endloop
  endfacet
  facet normal 0 0 1
    outer loop
      vertex -10.5058 60.8225 52
      vertex -11.2487 63.109 52
      vertex -11.5 56 52
    endloop
  endfacet
  facet normal 0 0 1
    outer loop
      vertex -11.5 56 52
      vertex -6.38216 56 52
      vertex -7.695 56.9538 52
    endloop
  endfacet
  facet normal 0 0 1
    outer loop
      vertex -11.2487 63.109 52
      vertex -11.5 65.5 52
      vertex -11.5 56 52
    endloop
  endfacet
  facet normal 0 0 1
    outer loop
      vertex -9.30369 58.7405 52
      vertex -11.5 56 52
      vertex -7.695 56.9538 52
    endloop
  endfacet
  facet normal 0 0 1
    outer loop
      vertex -9.30369 58.7405 52
      vertex -10.5058 60.8225 52
      vertex -11.5 56 52
    endloop
  endfacet
  facet normal 1 0 0
    outer loop
      vertex 11.5 56 15
      vertex 11.5 77 15
      vertex 11.5 77 52
    endloop
  endfacet
  facet normal 1 0 0
    outer loop
      vertex 11.5 56 52
      vertex 11.5 56 15
      vertex 11.5 65.5 52
    endloop
  endfacet
  facet normal 1 0 0
    outer loop
      vertex 11.5 65.5 52
      vertex 11.5 56 15
      vertex 11.5 77 52
    endloop
  endfacet
  facet normal 0 -1 -2.22045e-16
    outer loop
      vertex -1.80194 77 26
      vertex -1.80194 77 25.1322
      vertex -0.445042 77 24.0501
    endloop
  endfacet
  facet normal 0 -1 -2.22045e-16
    outer loop
      vertex 2 77 26
      vertex -1.80194 77 26
      vertex 1.24698 77 24.4363
    endloop
  endfacet
  facet normal 0 -1 -2.22045e-16
    outer loop
      vertex 1.24698 77 24.4363
      vertex -1.80194 77 26
      vertex -0.445042 77 24.0501
    endloop
  endfacet
  facet normal -1 0 0
    outer loop
      vertex -1.80194 77 26.8678
      vertex -1.80194 85 26.8678
      vertex -1.80194 77 26
    endloop
  endfacet
  facet normal -1 0 0
    outer loop
      vertex -1.80194 77 26
      vertex -1.80194 85 26.8678
      vertex -1.80194 85 25.1322
    endloop
  endfacet
  facet normal -1 0 0
    outer loop
      vertex -1.80194 77 26
      vertex -1.80194 85 25.1322
      vertex -1.80194 77 25.1322
    endloop
  endfacet
  facet normal -0.62349 -1.73601e-16 0.781831
    outer loop
      vertex -1.80194 77 26.8678
      vertex -0.445042 77 27.9499
      vertex -0.445042 85 27.9499
    endloop
  endfacet
  facet normal -0.62349 -1.73601e-16 0.781831
    outer loop
      vertex -1.80194 85 26.8678
      vertex -1.80194 77 26.8678
      vertex -0.445042 85 27.9499
    endloop
  endfacet
  facet normal 0.222521 -2.16477e-16 0.974928
    outer loop
      vertex -0.445042 77 27.9499
      vertex 1.24698 77 27.5637
      vertex 1.24698 85 27.5637
    endloop
  endfacet
  facet normal 0.222521 -2.16477e-16 0.974928
    outer loop
      vertex -0.445042 85 27.9499
      vertex -0.445042 77 27.9499
      vertex 1.24698 85 27.5637
    endloop
  endfacet
  facet normal 0.900969 -9.63415e-17 0.433884
    outer loop
      vertex 1.24698 77 27.5637
      vertex 2 77 26
      vertex 2 85 26
    endloop
  endfacet
  facet normal 0.900969 -9.63415e-17 0.433884
    outer loop
      vertex 1.24698 85 27.5637
      vertex 1.24698 77 27.5637
      vertex 2 85 26
    endloop
  endfacet
  facet normal 0.900969 9.63415e-17 -0.433884
    outer loop
      vertex 1.24698 77 24.4363
      vertex 1.24698 85 24.4363
      vertex 2 85 26
    endloop
  endfacet
  facet normal 0.900969 9.63415e-17 -0.433884
    outer loop
      vertex 2 77 26
      vertex 1.24698 77 24.4363
      vertex 2 85 26
    endloop
  endfacet
  facet normal -0.587785 -0.809017 0
    outer loop
      vertex -7.695 56.9538 52
      vertex -6.38216 56 52
      vertex -6.38216 56 82
    endloop
  endfacet
  facet normal -0.587785 -0.809017 0
    outer loop
      vertex -7.695 56.9538 82
      vertex -7.695 56.9538 52
      vertex -6.38216 56 82
    endloop
  endfacet
  facet normal 0 0 1
    outer loop
      vertex -11.5 65.5 82
      vertex -11.2487 63.109 82
      vertex -10.5058 60.8225 82
    endloop
  endfacet
  facet normal 0 0 1
    outer loop
      vertex -7.695 56.9538 82
      vertex -11.5 65.5 82
      vertex -9.30369 58.7405 82
    endloop
  endfacet
  facet normal 0 0 1
    outer loop
      vertex -9.30369 58.7405 82
      vertex -11.5 65.5 82
      vertex -10.5058 60.8225 82
    endloop
  endfacet
  facet normal 0 0 1
    outer loop
      vertex -6.38216 56 82
      vertex -11.5 65.5 82
      vertex -7.695 56.9538 82
    endloop
  endfacet
  facet normal 0 0 1
    outer loop
      vertex -6 56 82
      vertex -11.5 65.5 82
      vertex -6.38216 56 82
    endloop
  endfacet
  facet normal 0 0 1
    outer loop
      vertex 6 53 82
      vertex -11.5 65.5 82
      vertex -6 56 82
    endloop
  endfacet
  facet normal 0 0 1
    outer loop
      vertex 6 53 82
      vertex -6 56 82
      vertex -6 53 82
    endloop
  endfacet
  facet normal 0 0 1
    outer loop
      vertex 6 56 82
      vertex -11.5 65.5 82
      vertex 6 53 82
    endloop
  endfacet
  facet normal 0 0 1
    outer loop
      vertex 6.38216 56 82
      vertex -11.5 65.5 82
      vertex 6 56 82
    endloop
  endfacet
  facet normal 0 0 1
    outer loop
      vertex 7.695 56.9538 82
      vertex -11.5 65.5 82
      vertex 6.38216 56 82
    endloop
  endfacet
  facet normal 0 0 1
    outer loop
      vertex 9.30369 58.7405 82
      vertex -11.5 65.5 82
      vertex 7.695 56.9538 82
    endloop
  endfacet
  facet normal 0 0 1
    outer loop
      vertex 10.5058 60.8225 82
      vertex -11.5 65.5 82
      vertex 9.30369 58.7405 82
    endloop
  endfacet
  facet normal 0 0 1
    outer loop
      vertex 11.2487 63.109 82
      vertex -11.5 65.5 82
      vertex 10.5058 60.8225 82
    endloop
  endfacet
  facet normal 0 0 1
    outer loop
      vertex 11.5 65.5 82
      vertex -11.5 65.5 82
      vertex 11.2487 63.109 82
    endloop
  endfacet
  facet normal 0 0 1
    outer loop
      vertex 11.2487 67.891 82
      vertex -11.5 65.5 82
      vertex 11.5 65.5 82
    endloop
  endfacet
  facet normal 0 0 1
    outer loop
      vertex 10.5058 70.1775 82
      vertex -11.5 65.5 82
      vertex 11.2487 67.891 82
    endloop
  endfacet
  facet normal 0 0 1
    outer loop
      vertex 9.30369 72.2595 82
      vertex -11.5 65.5 82
      vertex 10.5058 70.1775 82
    endloop
  endfacet
  facet normal 0 0 1
    outer loop
      vertex 7.73657 74 82
      vertex -11.5 65.5 82
      vertex 9.30369 72.2595 82
    endloop
  endfacet
  facet normal 0 0 1
    outer loop
      vertex -7.73657 74 82
      vertex -11.5 65.5 82
      vertex 7.73657 74 82
    endloop
  endfacet
  facet normal 0 0 1
    outer loop
      vertex -9.30369 72.2595 82
      vertex -11.5 65.5 82
      vertex -7.73657 74 82
    endloop
  endfacet
  facet normal 0 0 1
    outer loop
      vertex -10.5058 70.1775 82
      vertex -11.5 65.5 82
      vertex -9.30369 72.2595 82
    endloop
  endfacet
  facet normal 0 0 1
    outer loop
      vertex -11.2487 67.891 82
      vertex -11.5 65.5 82
      vertex -10.5058 70.1775 82
    endloop
  endfacet
  facet normal -1 0 0
    outer loop
      vertex -6 53 82
      vertex -6 56 82
      vertex -6 53 52
    endloop
  endfacet
  facet normal -1 0 0
    outer loop
      vertex -6 53 52
      vertex -6 56 82
      vertex -6 56 52
    endloop
  endfacet
  facet normal 0 0 -1
    outer loop
      vertex -6 56 52
      vertex 6 56 52
      vertex -6 53 52
    endloop
  endfacet
  facet normal 0 0 -1
    outer loop
      vertex -6 53 52
      vertex 6 56 52
      vertex 6 53 52
    endloop
  endfacet
  facet normal 1 0 0
    outer loop
      vertex 6 53 52
      vertex 6 56 52
      vertex 6 56 82
    endloop
  endfacet
  facet normal 1 0 0
    outer loop
      vertex 6 53 82
      vertex 6 53 52
      vertex 6 56 82
    endloop
  endfacet
  facet normal 0.587785 -0.809017 0
    outer loop
      vertex 6.38216 56 52
      vertex 7.695 56.9538 52
      vertex 7.695 56.9538 82
    endloop
  endfacet
  facet normal 0.587785 -0.809017 0
    outer loop
      vertex 6.38216 56 82
      vertex 6.38216 56 52
      vertex 7.695 56.9538 82
    endloop
  endfacet
  facet normal 0 0 1
    outer loop
      vertex 11.2487 63.109 52
      vertex 11.5 56 52
      vertex 11.5 65.5 52
    endloop
  endfacet
  facet normal 0 0 1
    outer loop
      vertex 10.5058 60.8225 52
      vertex 11.5 56 52
      vertex 11.2487 63.109 52
    endloop
  endfacet
  facet normal 0 0 1
    outer loop
      vertex 9.30369 58.7405 52
      vertex 11.5 56 52
      vertex 10.5058 60.8225 52
    endloop
  endfacet
  facet normal 0 0 1
    outer loop
      vertex 7.695 56.9538 52
      vertex 11.5 56 52
      vertex 9.30369 58.7405 52
    endloop
  endfacet
  facet normal 0 0 1
    outer loop
      vertex 6.38216 56 52
      vertex 11.5 56 52
      vertex 7.695 56.9538 52
    endloop
  endfacet
  facet normal 0.994522 -0.104529 0
    outer loop
      vertex 11.2487 63.109 52
      vertex 11.5 65.5 52
      vertex 11.5 65.5 82
    endloop
  endfacet
  facet normal 0.994522 -0.104529 0
    outer loop
      vertex 11.2487 63.109 82
      vertex 11.2487 63.109 52
      vertex 11.5 65.5 82
    endloop
  endfacet
  facet normal 0.994522 0.104529 0
    outer loop
      vertex 11.2487 67.891 52
      vertex 11.2487 67.891 82
      vertex 11.5 65.5 82
    endloop
  endfacet
  facet normal 0.994522 0.104529 0
    outer loop
      vertex 11.5 65.5 52
      vertex 11.2487 67.891 52
      vertex 11.5 65.5 82
    endloop
  endfacet
  facet normal 0.951057 0.309017 0
    outer loop
      vertex 10.5058 70.1775 52
      vertex 10.5058 70.1775 82
      vertex 11.2487 67.891 82
    endloop
  endfacet
  facet normal 0.951057 0.309017 0
    outer loop
      vertex 11.2487 67.891 52
      vertex 10.5058 70.1775 52
      vertex 11.2487 67.891 82
    endloop
  endfacet
  facet normal 0.866025 0.5 0
    outer loop
      vertex 9.30369 72.2595 52
      vertex 9.30369 72.2595 82
      vertex 10.5058 70.1775 82
    endloop
  endfacet
  facet normal 0.866025 0.5 0
    outer loop
      vertex 10.5058 70.1775 52
      vertex 9.30369 72.2595 52
      vertex 10.5058 70.1775 82
    endloop
  endfacet
  facet normal 0.743145 0.669131 0
    outer loop
      vertex 7.73657 74 52
      vertex 7.73657 74 82
      vertex 9.30369 72.2595 82
    endloop
  endfacet
  facet normal 0.743145 0.669131 0
    outer loop
      vertex 9.30369 72.2595 52
      vertex 7.73657 74 52
      vertex 9.30369 72.2595 82
    endloop
  endfacet
  facet normal 0 1 0
    outer loop
      vertex -7.73657 74 82
      vertex 7.73657 74 82
      vertex -7.73657 74 52
    endloop
  endfacet
  facet normal 0 1 0
    outer loop
      vertex -7.73657 74 52
      vertex 7.73657 74 82
      vertex 7.73657 74 52
    endloop
  endfacet
  facet normal -0.743145 0.669131 0
    outer loop
      vertex -9.30369 72.2595 82
      vertex -7.73657 74 82
      vertex -9.30369 72.2595 52
    endloop
  endfacet
  facet normal -0.743145 0.669131 0
    outer loop
      vertex -9.30369 72.2595 52
      vertex -7.73657 74 82
      vertex -7.73657 74 52
    endloop
  endfacet
  facet normal -0.866025 0.5 0
    outer loop
      vertex -10.5058 70.1775 82
      vertex -9.30369 72.2595 82
      vertex -10.5058 70.1775 52
    endloop
  endfacet
  facet normal -0.866025 0.5 0
    outer loop
      vertex -10.5058 70.1775 52
      vertex -9.30369 72.2595 82
      vertex -9.30369 72.2595 52
    endloop
  endfacet
  facet normal -0.951057 0.309017 0
    outer loop
      vertex -11.2487 67.891 82
      vertex -10.5058 70.1775 82
      vertex -11.2487 67.891 52
    endloop
  endfacet
  facet normal -0.951057 0.309017 0
    outer loop
      vertex -11.2487 67.891 52
      vertex -10.5058 70.1775 82
      vertex -10.5058 70.1775 52
    endloop
  endfacet
  facet normal -0.951057 -0.309017 0
    outer loop
      vertex -10.5058 60.8225 52
      vertex -10.5058 60.8225 82
      vertex -11.2487 63.109 52
    endloop
  endfacet
  facet normal -0.951057 -0.309017 0
    outer loop
      vertex -11.2487 63.109 52
      vertex -10.5058 60.8225 82
      vertex -11.2487 63.109 82
    endloop
  endfacet
  facet normal -0.866025 -0.5 0
    outer loop
      vertex -9.30369 58.7405 52
      vertex -9.30369 58.7405 82
      vertex -10.5058 60.8225 52
    endloop
  endfacet
  facet normal -0.866025 -0.5 0
    outer loop
      vertex -10.5058 60.8225 52
      vertex -9.30369 58.7405 82
      vertex -10.5058 60.8225 82
    endloop
  endfacet
  facet normal -0.743145 -0.669131 0
    outer loop
      vertex -7.695 56.9538 52
      vertex -7.695 56.9538 82
      vertex -9.30369 58.7405 52
    endloop
  endfacet
  facet normal -0.743145 -0.669131 0
    outer loop
      vertex -9.30369 58.7405 52
      vertex -7.695 56.9538 82
      vertex -9.30369 58.7405 82
    endloop
  endfacet
  facet normal 0.222521 2.16477e-16 -0.974928
    outer loop
      vertex -0.445042 85 24.0501
      vertex 1.24698 85 24.4363
      vertex -0.445042 77 24.0501
    endloop
  endfacet
  facet normal 0.222521 2.16477e-16 -0.974928
    outer loop
      vertex -0.445042 77 24.0501
      vertex 1.24698 85 24.4363
      vertex 1.24698 77 24.4363
    endloop
  endfacet
  facet normal -0.62349 1.73601e-16 -0.781831
    outer loop
      vertex -1.80194 85 25.1322
      vertex -0.445042 85 24.0501
      vertex -1.80194 77 25.1322
    endloop
  endfacet
  facet normal -0.62349 1.73601e-16 -0.781831
    outer loop
      vertex -1.80194 77 25.1322
      vertex -0.445042 85 24.0501
      vertex -0.445042 77 24.0501
    endloop
  endfacet
  facet normal 0 1 2.22045e-16
    outer loop
      vertex -0.445042 85 27.9499
      vertex 1.24698 85 27.5637
      vertex -1.80194 85 26.8678
    endloop
  endfacet
  facet normal 0 1 2.22045e-16
    outer loop
      vertex -1.80194 85 26.8678
      vertex 1.24698 85 27.5637
      vertex 2 85 26
    endloop
  endfacet
  facet normal 0 1 2.22045e-16
    outer loop
      vertex -1.80194 85 26.8678
      vertex 2 85 26
      vertex 1.24698 85 24.4363
    endloop
  endfacet
  facet normal 0 1 2.22045e-16
    outer loop
      vertex -1.80194 85 26.8678
      vertex 1.24698 85 24.4363
      vertex -0.445042 85 24.0501
    endloop
  endfacet
  facet normal 0 1 2.22045e-16
    outer loop
      vertex -1.80194 85 26.8678
      vertex -0.445042 85 24.0501
      vertex -1.80194 85 25.1322
    endloop
  endfacet
  facet normal 0.951057 -0.309017 0
    outer loop
      vertex 10.5058 60.8225 52
      vertex 11.2487 63.109 52
      vertex 11.2487 63.109 82
    endloop
  endfacet
  facet normal 0.951057 -0.309017 0
    outer loop
      vertex 10.5058 60.8225 82
      vertex 10.5058 60.8225 52
      vertex 11.2487 63.109 82
    endloop
  endfacet
  facet normal 0.866025 -0.5 0
    outer loop
      vertex 9.30369 58.7405 52
      vertex 10.5058 60.8225 52
      vertex 10.5058 60.8225 82
    endloop
  endfacet
  facet normal 0.866025 -0.5 0
    outer loop
      vertex 9.30369 58.7405 82
      vertex 9.30369 58.7405 52
      vertex 10.5058 60.8225 82
    endloop
  endfacet
  facet normal 0.743145 -0.669131 0
    outer loop
      vertex 7.695 56.9538 52
      vertex 9.30369 58.7405 52
      vertex 9.30369 58.7405 82
    endloop
  endfacet
  facet normal 0.743145 -0.669131 0
    outer loop
      vertex 7.695 56.9538 82
      vertex 7.695 56.9538 52
      vertex 9.30369 58.7405 82
    endloop
  endfacet
  facet normal 0 -1 0
    outer loop
      vertex -6 53 52
      vertex 6 53 52
      vertex 6 53 82
    endloop
  endfacet
  facet normal 0 -1 0
    outer loop
      vertex -6 53 82
      vertex -6 53 52
      vertex 6 53 82
    endloop
  endfacet
endsolid OpenSCAD_Model
