solid OpenSCAD_Model
  facet normal -1.22461e-16 0 1
    outer loop
      vertex 39.2482 -8.34246 2
      vertex 40.125 0 2
      vertex 39.2482 8.34246 2
    endloop
  endfacet
  facet normal -1.22461e-16 0 1
    outer loop
      vertex 38.125 0 2
      vertex 39.2482 -8.34246 2
      vertex 36.656 16.3203 2
    endloop
  endfacet
  facet normal -1.22461e-16 0 1
    outer loop
      vertex 36.656 16.3203 2
      vertex 39.2482 -8.34246 2
      vertex 39.2482 8.34246 2
    endloop
  endfacet
  facet normal -1.22461e-16 0 1
    outer loop
      vertex 30.8438 22.4093 2
      vertex 34.8289 15.5068 2
      vertex 32.4618 23.5849 2
    endloop
  endfacet
  facet normal -1.22461e-16 0 1
    outer loop
      vertex 32.4618 -23.5849 2
      vertex 39.2482 -8.34246 2
      vertex 26.8489 -29.8187 2
    endloop
  endfacet
  facet normal -1.22461e-16 0 1
    outer loop
      vertex 36.656 -16.3203 2
      vertex 39.2482 -8.34246 2
      vertex 32.4618 -23.5849 2
    endloop
  endfacet
  facet normal -1.22461e-16 0 1
    outer loop
      vertex 37.2919 7.92663 2
      vertex 38.125 0 2
      vertex 36.656 16.3203 2
    endloop
  endfacet
  facet normal -1.22461e-16 0 1
    outer loop
      vertex -30.8438 22.4093 2
      vertex -25.5106 28.3324 2
      vertex -32.4618 23.5849 2
    endloop
  endfacet
  facet normal -1.22461e-16 0 1
    outer loop
      vertex 19.0625 -33.0172 2
      vertex 11.7813 -36.259 2
      vertex 12.3993 -38.1611 2
    endloop
  endfacet
  facet normal -1.22461e-16 0 1
    outer loop
      vertex 26.8489 -29.8187 2
      vertex 39.2482 -8.34246 2
      vertex 34.8289 -15.5068 2
    endloop
  endfacet
  facet normal -1.22461e-16 0 1
    outer loop
      vertex 26.8489 -29.8187 2
      vertex 30.8438 -22.4093 2
      vertex 20.0625 -34.7493 2
    endloop
  endfacet
  facet normal -1.22461e-16 0 1
    outer loop
      vertex 26.8489 -29.8187 2
      vertex 34.8289 -15.5068 2
      vertex 30.8438 -22.4093 2
    endloop
  endfacet
  facet normal -1.22461e-16 0 1
    outer loop
      vertex 30.8438 -22.4093 2
      vertex 25.5106 -28.3324 2
      vertex 20.0625 -34.7493 2
    endloop
  endfacet
  facet normal -1.22461e-16 0 1
    outer loop
      vertex 20.0625 -34.7493 2
      vertex 19.0625 -33.0172 2
      vertex 12.3993 -38.1611 2
    endloop
  endfacet
  facet normal -1.22461e-16 0 1
    outer loop
      vertex 25.5106 -28.3324 2
      vertex 19.0625 -33.0172 2
      vertex 20.0625 -34.7493 2
    endloop
  endfacet
  facet normal -1.22461e-16 0 1
    outer loop
      vertex 12.3993 -38.1611 2
      vertex 11.7813 -36.259 2
      vertex 4.19421 -39.9052 2
    endloop
  endfacet
  facet normal -1.22461e-16 0 1
    outer loop
      vertex 4.19421 -39.9052 2
      vertex 3.98515 -37.9161 2
      vertex -4.1942 -39.9052 2
    endloop
  endfacet
  facet normal -1.22461e-16 0 1
    outer loop
      vertex -4.1942 -39.9052 2
      vertex -3.98515 -37.9161 2
      vertex -12.3993 -38.1611 2
    endloop
  endfacet
  facet normal -1.22461e-16 0 1
    outer loop
      vertex -12.3993 -38.1611 2
      vertex -11.7813 -36.259 2
      vertex -20.0625 -34.7493 2
    endloop
  endfacet
  facet normal -1.22461e-16 0 1
    outer loop
      vertex -20.0625 -34.7493 2
      vertex -19.0625 -33.0172 2
      vertex -26.8489 -29.8187 2
    endloop
  endfacet
  facet normal -1.22461e-16 0 1
    outer loop
      vertex -26.8489 -29.8187 2
      vertex -25.5106 -28.3324 2
      vertex -32.4618 -23.5849 2
    endloop
  endfacet
  facet normal -1.22461e-16 0 1
    outer loop
      vertex -32.4618 -23.5849 2
      vertex -30.8438 -22.4093 2
      vertex -36.656 -16.3203 2
    endloop
  endfacet
  facet normal -1.22461e-16 0 1
    outer loop
      vertex -36.656 -16.3203 2
      vertex -34.8289 -15.5068 2
      vertex -39.2482 -8.34246 2
    endloop
  endfacet
  facet normal -1.22461e-16 0 1
    outer loop
      vertex -39.2482 -8.34246 2
      vertex -37.2919 -7.92663 2
      vertex -40.125 0 2
    endloop
  endfacet
  facet normal -1.22461e-16 0 1
    outer loop
      vertex -40.125 0 2
      vertex -38.125 0 2
      vertex -39.2482 8.34246 2
    endloop
  endfacet
  facet normal -1.22461e-16 0 1
    outer loop
      vertex -38.125 0 2
      vertex -37.2919 7.92663 2
      vertex -39.2482 8.34246 2
    endloop
  endfacet
  facet normal -1.22461e-16 0 1
    outer loop
      vertex -39.2482 8.34246 2
      vertex -34.8289 15.5068 2
      vertex -36.656 16.3203 2
    endloop
  endfacet
  facet normal -1.22461e-16 0 1
    outer loop
      vertex -36.656 16.3203 2
      vertex -30.8438 22.4093 2
      vertex -32.4618 23.5849 2
    endloop
  endfacet
  facet normal -1.22461e-16 0 1
    outer loop
      vertex 11.7813 -36.259 2
      vertex 3.98515 -37.9161 2
      vertex 4.19421 -39.9052 2
    endloop
  endfacet
  facet normal -1.22461e-16 0 1
    outer loop
      vertex -32.4618 23.5849 2
      vertex -25.5106 28.3324 2
      vertex -26.8489 29.8187 2
    endloop
  endfacet
  facet normal -1.22461e-16 0 1
    outer loop
      vertex 3.98515 -37.9161 2
      vertex -3.98515 -37.9161 2
      vertex -4.1942 -39.9052 2
    endloop
  endfacet
  facet normal -1.22461e-16 0 1
    outer loop
      vertex -26.8489 29.8187 2
      vertex -19.0625 33.0172 2
      vertex -20.0625 34.7493 2
    endloop
  endfacet
  facet normal -1.22461e-16 0 1
    outer loop
      vertex -3.98515 -37.9161 2
      vertex -11.7813 -36.259 2
      vertex -12.3993 -38.1611 2
    endloop
  endfacet
  facet normal -1.22461e-16 0 1
    outer loop
      vertex -20.0625 34.7493 2
      vertex -11.7813 36.259 2
      vertex -12.3993 38.1611 2
    endloop
  endfacet
  facet normal -1.22461e-16 0 1
    outer loop
      vertex -11.7813 -36.259 2
      vertex -19.0625 -33.0172 2
      vertex -20.0625 -34.7493 2
    endloop
  endfacet
  facet normal -1.22461e-16 0 1
    outer loop
      vertex -12.3993 38.1611 2
      vertex -3.98515 37.9161 2
      vertex -4.1942 39.9052 2
    endloop
  endfacet
  facet normal -1.22461e-16 0 1
    outer loop
      vertex -19.0625 -33.0172 2
      vertex -25.5106 -28.3324 2
      vertex -26.8489 -29.8187 2
    endloop
  endfacet
  facet normal -1.22461e-16 0 1
    outer loop
      vertex -4.1942 39.9052 2
      vertex 3.98515 37.9161 2
      vertex 4.19421 39.9052 2
    endloop
  endfacet
  facet normal -1.22461e-16 0 1
    outer loop
      vertex -25.5106 -28.3324 2
      vertex -30.8438 -22.4093 2
      vertex -32.4618 -23.5849 2
    endloop
  endfacet
  facet normal -1.22461e-16 0 1
    outer loop
      vertex 4.19421 39.9052 2
      vertex 11.7813 36.259 2
      vertex 12.3993 38.1611 2
    endloop
  endfacet
  facet normal -1.22461e-16 0 1
    outer loop
      vertex -30.8438 -22.4093 2
      vertex -34.8289 -15.5068 2
      vertex -36.656 -16.3203 2
    endloop
  endfacet
  facet normal -1.22461e-16 0 1
    outer loop
      vertex 12.3993 38.1611 2
      vertex 19.0625 33.0172 2
      vertex 20.0625 34.7493 2
    endloop
  endfacet
  facet normal -1.22461e-16 0 1
    outer loop
      vertex -34.8289 -15.5068 2
      vertex -37.2919 -7.92663 2
      vertex -39.2482 -8.34246 2
    endloop
  endfacet
  facet normal -1.22461e-16 0 1
    outer loop
      vertex 20.0625 34.7493 2
      vertex 25.5106 28.3324 2
      vertex 26.8489 29.8187 2
    endloop
  endfacet
  facet normal -1.22461e-16 0 1
    outer loop
      vertex -37.2919 -7.92663 2
      vertex -38.125 0 2
      vertex -40.125 0 2
    endloop
  endfacet
  facet normal -1.22461e-16 0 1
    outer loop
      vertex 26.8489 29.8187 2
      vertex 30.8438 22.4093 2
      vertex 32.4618 23.5849 2
    endloop
  endfacet
  facet normal -1.22461e-16 0 1
    outer loop
      vertex -37.2919 7.92663 2
      vertex -34.8289 15.5068 2
      vertex -39.2482 8.34246 2
    endloop
  endfacet
  facet normal -1.22461e-16 0 1
    outer loop
      vertex 32.4618 23.5849 2
      vertex 34.8289 15.5068 2
      vertex 36.656 16.3203 2
    endloop
  endfacet
  facet normal -1.22461e-16 0 1
    outer loop
      vertex 34.8289 15.5068 2
      vertex 37.2919 7.92663 2
      vertex 36.656 16.3203 2
    endloop
  endfacet
  facet normal -1.22461e-16 0 1
    outer loop
      vertex -25.5106 28.3324 2
      vertex -19.0625 33.0172 2
      vertex -26.8489 29.8187 2
    endloop
  endfacet
  facet normal -1.22461e-16 0 1
    outer loop
      vertex -19.0625 33.0172 2
      vertex -11.7813 36.259 2
      vertex -20.0625 34.7493 2
    endloop
  endfacet
  facet normal -1.22461e-16 0 1
    outer loop
      vertex -11.7813 36.259 2
      vertex -3.98515 37.9161 2
      vertex -12.3993 38.1611 2
    endloop
  endfacet
  facet normal -1.22461e-16 0 1
    outer loop
      vertex -3.98515 37.9161 2
      vertex 3.98515 37.9161 2
      vertex -4.1942 39.9052 2
    endloop
  endfacet
  facet normal -1.22461e-16 0 1
    outer loop
      vertex 3.98515 37.9161 2
      vertex 11.7813 36.259 2
      vertex 4.19421 39.9052 2
    endloop
  endfacet
  facet normal -1.22461e-16 0 1
    outer loop
      vertex 11.7813 36.259 2
      vertex 19.0625 33.0172 2
      vertex 12.3993 38.1611 2
    endloop
  endfacet
  facet normal -1.22461e-16 0 1
    outer loop
      vertex 19.0625 33.0172 2
      vertex 25.5106 28.3324 2
      vertex 20.0625 34.7493 2
    endloop
  endfacet
  facet normal -1.22461e-16 0 1
    outer loop
      vertex 25.5106 28.3324 2
      vertex 30.8438 22.4093 2
      vertex 26.8489 29.8187 2
    endloop
  endfacet
  facet normal -1.22461e-16 0 1
    outer loop
      vertex 38.125 0 2
      vertex 37.2919 -7.92663 2
      vertex 39.2482 -8.34246 2
    endloop
  endfacet
  facet normal -1.22461e-16 0 1
    outer loop
      vertex -34.8289 15.5068 2
      vertex -30.8438 22.4093 2
      vertex -36.656 16.3203 2
    endloop
  endfacet
  facet normal -1.22461e-16 0 1
    outer loop
      vertex 37.2919 -7.92663 2
      vertex 34.8289 -15.5068 2
      vertex 39.2482 -8.34246 2
    endloop
  endfacet
  facet normal 0.994522 0.104529 1.2179e-16
    outer loop
      vertex 39.2482 8.34246 2
      vertex 40.125 0 2
      vertex 40.125 0 4.91373e-15
    endloop
  endfacet
  facet normal 0.994522 0.104529 1.2179e-16
    outer loop
      vertex 39.2482 8.34246 4.80636e-15
      vertex 39.2482 8.34246 2
      vertex 40.125 0 4.91373e-15
    endloop
  endfacet
  facet normal 0.994522 -0.104529 1.2179e-16
    outer loop
      vertex 40.125 0 4.91373e-15
      vertex 40.125 0 2
      vertex 39.2482 -8.34246 2
    endloop
  endfacet
  facet normal 0.994522 -0.104529 1.2179e-16
    outer loop
      vertex 39.2482 -8.34246 4.80636e-15
      vertex 40.125 0 4.91373e-15
      vertex 39.2482 -8.34246 2
    endloop
  endfacet
  facet normal 0.951057 -0.309017 1.16467e-16
    outer loop
      vertex 39.2482 -8.34246 4.80636e-15
      vertex 39.2482 -8.34246 2
      vertex 36.656 -16.3203 2
    endloop
  endfacet
  facet normal 0.951057 -0.309017 1.16467e-16
    outer loop
      vertex 36.656 -16.3203 4.48892e-15
      vertex 39.2482 -8.34246 4.80636e-15
      vertex 36.656 -16.3203 2
    endloop
  endfacet
  facet normal 0.866025 -0.5 1.06054e-16
    outer loop
      vertex 36.656 -16.3203 4.48892e-15
      vertex 36.656 -16.3203 2
      vertex 32.4618 -23.5849 2
    endloop
  endfacet
  facet normal 0.866025 -0.5 1.06054e-16
    outer loop
      vertex 32.4618 -23.5849 3.97529e-15
      vertex 36.656 -16.3203 4.48892e-15
      vertex 32.4618 -23.5849 2
    endloop
  endfacet
  facet normal 0.743145 -0.669131 9.1006e-17
    outer loop
      vertex 32.4618 -23.5849 3.97529e-15
      vertex 32.4618 -23.5849 2
      vertex 26.8489 -29.8187 2
    endloop
  endfacet
  facet normal 0.743145 -0.669131 9.1006e-17
    outer loop
      vertex 26.8489 -29.8187 3.28793e-15
      vertex 32.4618 -23.5849 3.97529e-15
      vertex 26.8489 -29.8187 2
    endloop
  endfacet
  facet normal 0.587785 -0.809017 7.19806e-17
    outer loop
      vertex 26.8489 -29.8187 3.28793e-15
      vertex 26.8489 -29.8187 2
      vertex 20.0625 -34.7493 2
    endloop
  endfacet
  facet normal 0.587785 -0.809017 7.19806e-17
    outer loop
      vertex 20.0625 -34.7493 2.45687e-15
      vertex 26.8489 -29.8187 3.28793e-15
      vertex 20.0625 -34.7493 2
    endloop
  endfacet
  facet normal 0.406737 -0.913545 4.98092e-17
    outer loop
      vertex 20.0625 -34.7493 2.45687e-15
      vertex 20.0625 -34.7493 2
      vertex 12.3993 -38.1611 2
    endloop
  endfacet
  facet normal 0.406737 -0.913545 4.98092e-17
    outer loop
      vertex 12.3993 -38.1611 1.51843e-15
      vertex 20.0625 -34.7493 2.45687e-15
      vertex 12.3993 -38.1611 2
    endloop
  endfacet
  facet normal 0.207912 -0.978148 2.5461e-17
    outer loop
      vertex 12.3993 -38.1611 1.51843e-15
      vertex 12.3993 -38.1611 2
      vertex 4.19421 -39.9052 2
    endloop
  endfacet
  facet normal 0.207912 -0.978148 2.5461e-17
    outer loop
      vertex 4.19421 -39.9052 5.13625e-16
      vertex 12.3993 -38.1611 1.51843e-15
      vertex 4.19421 -39.9052 2
    endloop
  endfacet
  facet normal 0 -1 0
    outer loop
      vertex 4.19421 -39.9052 5.13625e-16
      vertex 4.19421 -39.9052 2
      vertex -4.1942 -39.9052 2
    endloop
  endfacet
  facet normal 0 -1 0
    outer loop
      vertex -4.1942 -39.9052 -5.13625e-16
      vertex 4.19421 -39.9052 5.13625e-16
      vertex -4.1942 -39.9052 2
    endloop
  endfacet
  facet normal -0.207912 -0.978148 -2.5461e-17
    outer loop
      vertex -4.1942 -39.9052 -5.13625e-16
      vertex -4.1942 -39.9052 2
      vertex -12.3993 -38.1611 2
    endloop
  endfacet
  facet normal -0.207912 -0.978148 -2.5461e-17
    outer loop
      vertex -12.3993 -38.1611 -1.51843e-15
      vertex -4.1942 -39.9052 -5.13625e-16
      vertex -12.3993 -38.1611 2
    endloop
  endfacet
  facet normal -0.406737 -0.913545 -4.98092e-17
    outer loop
      vertex -12.3993 -38.1611 -1.51843e-15
      vertex -12.3993 -38.1611 2
      vertex -20.0625 -34.7493 2
    endloop
  endfacet
  facet normal -0.406737 -0.913545 -4.98092e-17
    outer loop
      vertex -20.0625 -34.7493 -2.45687e-15
      vertex -12.3993 -38.1611 -1.51843e-15
      vertex -20.0625 -34.7493 2
    endloop
  endfacet
  facet normal -0.587785 -0.809017 -7.19806e-17
    outer loop
      vertex -20.0625 -34.7493 -2.45687e-15
      vertex -20.0625 -34.7493 2
      vertex -26.8489 -29.8187 2
    endloop
  endfacet
  facet normal -0.587785 -0.809017 -7.19806e-17
    outer loop
      vertex -26.8489 -29.8187 -3.28793e-15
      vertex -20.0625 -34.7493 -2.45687e-15
      vertex -26.8489 -29.8187 2
    endloop
  endfacet
  facet normal -0.743145 -0.669131 -9.1006e-17
    outer loop
      vertex -26.8489 -29.8187 2
      vertex -32.4618 -23.5849 2
      vertex -26.8489 -29.8187 -3.28793e-15
    endloop
  endfacet
  facet normal -0.743145 -0.669131 -9.1006e-17
    outer loop
      vertex -26.8489 -29.8187 -3.28793e-15
      vertex -32.4618 -23.5849 2
      vertex -32.4618 -23.5849 -3.97529e-15
    endloop
  endfacet
  facet normal -0.866025 -0.5 -1.06054e-16
    outer loop
      vertex -32.4618 -23.5849 2
      vertex -36.656 -16.3203 2
      vertex -32.4618 -23.5849 -3.97529e-15
    endloop
  endfacet
  facet normal -0.866025 -0.5 -1.06054e-16
    outer loop
      vertex -32.4618 -23.5849 -3.97529e-15
      vertex -36.656 -16.3203 2
      vertex -36.656 -16.3203 -4.48892e-15
    endloop
  endfacet
  facet normal -0.951057 -0.309017 -1.16467e-16
    outer loop
      vertex -36.656 -16.3203 2
      vertex -39.2482 -8.34246 2
      vertex -36.656 -16.3203 -4.48892e-15
    endloop
  endfacet
  facet normal -0.951057 -0.309017 -1.16467e-16
    outer loop
      vertex -36.656 -16.3203 -4.48892e-15
      vertex -39.2482 -8.34246 2
      vertex -39.2482 -8.34246 -4.80636e-15
    endloop
  endfacet
  facet normal -0.994522 -0.104529 -1.2179e-16
    outer loop
      vertex -39.2482 -8.34246 2
      vertex -40.125 0 2
      vertex -39.2482 -8.34246 -4.80636e-15
    endloop
  endfacet
  facet normal -0.994522 -0.104529 -1.2179e-16
    outer loop
      vertex -39.2482 -8.34246 -4.80636e-15
      vertex -40.125 0 2
      vertex -40.125 0 -4.91373e-15
    endloop
  endfacet
  facet normal -0.994522 0.104529 -1.2179e-16
    outer loop
      vertex -39.2482 8.34246 2
      vertex -39.2482 8.34246 -4.80636e-15
      vertex -40.125 0 2
    endloop
  endfacet
  facet normal -0.994522 0.104529 -1.2179e-16
    outer loop
      vertex -40.125 0 2
      vertex -39.2482 8.34246 -4.80636e-15
      vertex -40.125 0 -4.91373e-15
    endloop
  endfacet
  facet normal -0.951057 0.309017 -1.16467e-16
    outer loop
      vertex -36.656 16.3203 2
      vertex -36.656 16.3203 -4.48892e-15
      vertex -39.2482 8.34246 2
    endloop
  endfacet
  facet normal -0.951057 0.309017 -1.16467e-16
    outer loop
      vertex -39.2482 8.34246 2
      vertex -36.656 16.3203 -4.48892e-15
      vertex -39.2482 8.34246 -4.80636e-15
    endloop
  endfacet
  facet normal -0.866025 0.5 -1.06054e-16
    outer loop
      vertex -32.4618 23.5849 2
      vertex -32.4618 23.5849 -3.97529e-15
      vertex -36.656 16.3203 2
    endloop
  endfacet
  facet normal -0.866025 0.5 -1.06054e-16
    outer loop
      vertex -36.656 16.3203 2
      vertex -32.4618 23.5849 -3.97529e-15
      vertex -36.656 16.3203 -4.48892e-15
    endloop
  endfacet
  facet normal -0.743145 0.669131 -9.1006e-17
    outer loop
      vertex -26.8489 29.8187 2
      vertex -26.8489 29.8187 -3.28793e-15
      vertex -32.4618 23.5849 2
    endloop
  endfacet
  facet normal -0.743145 0.669131 -9.1006e-17
    outer loop
      vertex -32.4618 23.5849 2
      vertex -26.8489 29.8187 -3.28793e-15
      vertex -32.4618 23.5849 -3.97529e-15
    endloop
  endfacet
  facet normal -0.587785 0.809017 -7.19806e-17
    outer loop
      vertex -20.0625 34.7493 2
      vertex -20.0625 34.7493 -2.45687e-15
      vertex -26.8489 29.8187 2
    endloop
  endfacet
  facet normal -0.587785 0.809017 -7.19806e-17
    outer loop
      vertex -26.8489 29.8187 2
      vertex -20.0625 34.7493 -2.45687e-15
      vertex -26.8489 29.8187 -3.28793e-15
    endloop
  endfacet
  facet normal -0.406737 0.913545 -4.98092e-17
    outer loop
      vertex -12.3993 38.1611 2
      vertex -12.3993 38.1611 -1.51843e-15
      vertex -20.0625 34.7493 2
    endloop
  endfacet
  facet normal -0.406737 0.913545 -4.98092e-17
    outer loop
      vertex -20.0625 34.7493 2
      vertex -12.3993 38.1611 -1.51843e-15
      vertex -20.0625 34.7493 -2.45687e-15
    endloop
  endfacet
  facet normal -0.207912 0.978148 -2.5461e-17
    outer loop
      vertex -4.1942 39.9052 2
      vertex -4.1942 39.9052 -5.13625e-16
      vertex -12.3993 38.1611 2
    endloop
  endfacet
  facet normal -0.207912 0.978148 -2.5461e-17
    outer loop
      vertex -12.3993 38.1611 2
      vertex -4.1942 39.9052 -5.13625e-16
      vertex -12.3993 38.1611 -1.51843e-15
    endloop
  endfacet
  facet normal 0 1 0
    outer loop
      vertex 4.19421 39.9052 2
      vertex 4.19421 39.9052 5.13625e-16
      vertex -4.1942 39.9052 2
    endloop
  endfacet
  facet normal 0 1 0
    outer loop
      vertex -4.1942 39.9052 2
      vertex 4.19421 39.9052 5.13625e-16
      vertex -4.1942 39.9052 -5.13625e-16
    endloop
  endfacet
  facet normal 0.207912 0.978148 2.5461e-17
    outer loop
      vertex 12.3993 38.1611 2
      vertex 12.3993 38.1611 1.51843e-15
      vertex 4.19421 39.9052 2
    endloop
  endfacet
  facet normal 0.207912 0.978148 2.5461e-17
    outer loop
      vertex 4.19421 39.9052 2
      vertex 12.3993 38.1611 1.51843e-15
      vertex 4.19421 39.9052 5.13625e-16
    endloop
  endfacet
  facet normal 0.406737 0.913545 4.98092e-17
    outer loop
      vertex 20.0625 34.7493 2
      vertex 20.0625 34.7493 2.45687e-15
      vertex 12.3993 38.1611 2
    endloop
  endfacet
  facet normal 0.406737 0.913545 4.98092e-17
    outer loop
      vertex 12.3993 38.1611 2
      vertex 20.0625 34.7493 2.45687e-15
      vertex 12.3993 38.1611 1.51843e-15
    endloop
  endfacet
  facet normal 0.587785 0.809017 7.19806e-17
    outer loop
      vertex 26.8489 29.8187 2
      vertex 26.8489 29.8187 3.28793e-15
      vertex 20.0625 34.7493 2
    endloop
  endfacet
  facet normal 0.587785 0.809017 7.19806e-17
    outer loop
      vertex 20.0625 34.7493 2
      vertex 26.8489 29.8187 3.28793e-15
      vertex 20.0625 34.7493 2.45687e-15
    endloop
  endfacet
  facet normal 0.743145 0.669131 9.1006e-17
    outer loop
      vertex 26.8489 29.8187 2
      vertex 32.4618 23.5849 2
      vertex 32.4618 23.5849 3.97529e-15
    endloop
  endfacet
  facet normal 0.743145 0.669131 9.1006e-17
    outer loop
      vertex 26.8489 29.8187 3.28793e-15
      vertex 26.8489 29.8187 2
      vertex 32.4618 23.5849 3.97529e-15
    endloop
  endfacet
  facet normal 0.866025 0.5 1.06054e-16
    outer loop
      vertex 32.4618 23.5849 2
      vertex 36.656 16.3203 2
      vertex 36.656 16.3203 4.48892e-15
    endloop
  endfacet
  facet normal 0.866025 0.5 1.06054e-16
    outer loop
      vertex 32.4618 23.5849 3.97529e-15
      vertex 32.4618 23.5849 2
      vertex 36.656 16.3203 4.48892e-15
    endloop
  endfacet
  facet normal 0.951057 0.309017 1.16467e-16
    outer loop
      vertex 36.656 16.3203 2
      vertex 39.2482 8.34246 2
      vertex 39.2482 8.34246 4.80636e-15
    endloop
  endfacet
  facet normal 0.951057 0.309017 1.16467e-16
    outer loop
      vertex 36.656 16.3203 4.48892e-15
      vertex 36.656 16.3203 2
      vertex 39.2482 8.34246 4.80636e-15
    endloop
  endfacet
  facet normal 0.994522 -0.104529 1.2179e-16
    outer loop
      vertex 38.125 0 2
      vertex 38.125 0 6
      vertex 37.2919 -7.92663 6
    endloop
  endfacet
  facet normal 0.994522 -0.104529 1.2179e-16
    outer loop
      vertex 37.2919 -7.92663 2
      vertex 38.125 0 2
      vertex 37.2919 -7.92663 6
    endloop
  endfacet
  facet normal 0.994522 0.104529 1.2179e-16
    outer loop
      vertex 37.2919 7.92663 6
      vertex 38.125 0 6
      vertex 38.125 0 2
    endloop
  endfacet
  facet normal 0.994522 0.104529 1.2179e-16
    outer loop
      vertex 37.2919 7.92663 2
      vertex 37.2919 7.92663 6
      vertex 38.125 0 2
    endloop
  endfacet
  facet normal 0.951057 0.309017 1.16467e-16
    outer loop
      vertex 34.8289 15.5068 6
      vertex 37.2919 7.92663 6
      vertex 37.2919 7.92663 2
    endloop
  endfacet
  facet normal 0.951057 0.309017 1.16467e-16
    outer loop
      vertex 34.8289 15.5068 2
      vertex 34.8289 15.5068 6
      vertex 37.2919 7.92663 2
    endloop
  endfacet
  facet normal 0.866025 0.5 1.06054e-16
    outer loop
      vertex 30.8438 22.4093 6
      vertex 34.8289 15.5068 6
      vertex 34.8289 15.5068 2
    endloop
  endfacet
  facet normal 0.866025 0.5 1.06054e-16
    outer loop
      vertex 30.8438 22.4093 2
      vertex 30.8438 22.4093 6
      vertex 34.8289 15.5068 2
    endloop
  endfacet
  facet normal 0.743145 0.669131 9.1006e-17
    outer loop
      vertex 25.5106 28.3324 6
      vertex 30.8438 22.4093 6
      vertex 30.8438 22.4093 2
    endloop
  endfacet
  facet normal 0.743145 0.669131 9.1006e-17
    outer loop
      vertex 25.5106 28.3324 2
      vertex 25.5106 28.3324 6
      vertex 30.8438 22.4093 2
    endloop
  endfacet
  facet normal 0.587785 0.809017 7.19806e-17
    outer loop
      vertex 25.5106 28.3324 6
      vertex 25.5106 28.3324 2
      vertex 19.0625 33.0172 6
    endloop
  endfacet
  facet normal 0.587785 0.809017 7.19806e-17
    outer loop
      vertex 19.0625 33.0172 6
      vertex 25.5106 28.3324 2
      vertex 19.0625 33.0172 2
    endloop
  endfacet
  facet normal 0.406737 0.913545 4.98092e-17
    outer loop
      vertex 19.0625 33.0172 6
      vertex 19.0625 33.0172 2
      vertex 11.7813 36.259 6
    endloop
  endfacet
  facet normal 0.406737 0.913545 4.98092e-17
    outer loop
      vertex 11.7813 36.259 6
      vertex 19.0625 33.0172 2
      vertex 11.7813 36.259 2
    endloop
  endfacet
  facet normal 0.207912 0.978148 2.5461e-17
    outer loop
      vertex 11.7813 36.259 6
      vertex 11.7813 36.259 2
      vertex 3.98515 37.9161 6
    endloop
  endfacet
  facet normal 0.207912 0.978148 2.5461e-17
    outer loop
      vertex 3.98515 37.9161 6
      vertex 11.7813 36.259 2
      vertex 3.98515 37.9161 2
    endloop
  endfacet
  facet normal 0 1 0
    outer loop
      vertex 3.98515 37.9161 6
      vertex 3.98515 37.9161 2
      vertex -3.98515 37.9161 6
    endloop
  endfacet
  facet normal 0 1 0
    outer loop
      vertex -3.98515 37.9161 6
      vertex 3.98515 37.9161 2
      vertex -3.98515 37.9161 2
    endloop
  endfacet
  facet normal -0.207912 0.978148 -2.5461e-17
    outer loop
      vertex -3.98515 37.9161 6
      vertex -3.98515 37.9161 2
      vertex -11.7813 36.259 6
    endloop
  endfacet
  facet normal -0.207912 0.978148 -2.5461e-17
    outer loop
      vertex -11.7813 36.259 6
      vertex -3.98515 37.9161 2
      vertex -11.7813 36.259 2
    endloop
  endfacet
  facet normal -0.406737 0.913545 -4.98092e-17
    outer loop
      vertex -11.7813 36.259 6
      vertex -11.7813 36.259 2
      vertex -19.0625 33.0172 6
    endloop
  endfacet
  facet normal -0.406737 0.913545 -4.98092e-17
    outer loop
      vertex -19.0625 33.0172 6
      vertex -11.7813 36.259 2
      vertex -19.0625 33.0172 2
    endloop
  endfacet
  facet normal -0.587785 0.809017 -7.19806e-17
    outer loop
      vertex -19.0625 33.0172 6
      vertex -19.0625 33.0172 2
      vertex -25.5106 28.3324 6
    endloop
  endfacet
  facet normal -0.587785 0.809017 -7.19806e-17
    outer loop
      vertex -25.5106 28.3324 6
      vertex -19.0625 33.0172 2
      vertex -25.5106 28.3324 2
    endloop
  endfacet
  facet normal -0.743145 0.669131 -9.1006e-17
    outer loop
      vertex -25.5106 28.3324 6
      vertex -25.5106 28.3324 2
      vertex -30.8438 22.4093 6
    endloop
  endfacet
  facet normal -0.743145 0.669131 -9.1006e-17
    outer loop
      vertex -30.8438 22.4093 6
      vertex -25.5106 28.3324 2
      vertex -30.8438 22.4093 2
    endloop
  endfacet
  facet normal -0.866025 0.5 -1.06054e-16
    outer loop
      vertex -30.8438 22.4093 6
      vertex -30.8438 22.4093 2
      vertex -34.8289 15.5068 6
    endloop
  endfacet
  facet normal -0.866025 0.5 -1.06054e-16
    outer loop
      vertex -34.8289 15.5068 6
      vertex -30.8438 22.4093 2
      vertex -34.8289 15.5068 2
    endloop
  endfacet
  facet normal -0.951057 0.309017 -1.16467e-16
    outer loop
      vertex -34.8289 15.5068 6
      vertex -34.8289 15.5068 2
      vertex -37.2919 7.92663 6
    endloop
  endfacet
  facet normal -0.951057 0.309017 -1.16467e-16
    outer loop
      vertex -37.2919 7.92663 6
      vertex -34.8289 15.5068 2
      vertex -37.2919 7.92663 2
    endloop
  endfacet
  facet normal -0.994522 0.104529 -1.2179e-16
    outer loop
      vertex -37.2919 7.92663 6
      vertex -37.2919 7.92663 2
      vertex -38.125 0 6
    endloop
  endfacet
  facet normal -0.994522 0.104529 -1.2179e-16
    outer loop
      vertex -38.125 0 6
      vertex -37.2919 7.92663 2
      vertex -38.125 0 2
    endloop
  endfacet
  facet normal -0.994522 -0.104529 -1.2179e-16
    outer loop
      vertex -37.2919 -7.92663 6
      vertex -38.125 0 6
      vertex -37.2919 -7.92663 2
    endloop
  endfacet
  facet normal -0.994522 -0.104529 -1.2179e-16
    outer loop
      vertex -37.2919 -7.92663 2
      vertex -38.125 0 6
      vertex -38.125 0 2
    endloop
  endfacet
  facet normal -0.951057 -0.309017 -1.16467e-16
    outer loop
      vertex -34.8289 -15.5068 6
      vertex -37.2919 -7.92663 6
      vertex -34.8289 -15.5068 2
    endloop
  endfacet
  facet normal -0.951057 -0.309017 -1.16467e-16
    outer loop
      vertex -34.8289 -15.5068 2
      vertex -37.2919 -7.92663 6
      vertex -37.2919 -7.92663 2
    endloop
  endfacet
  facet normal -0.866025 -0.5 -1.06054e-16
    outer loop
      vertex -30.8438 -22.4093 6
      vertex -34.8289 -15.5068 6
      vertex -30.8438 -22.4093 2
    endloop
  endfacet
  facet normal -0.866025 -0.5 -1.06054e-16
    outer loop
      vertex -30.8438 -22.4093 2
      vertex -34.8289 -15.5068 6
      vertex -34.8289 -15.5068 2
    endloop
  endfacet
  facet normal -0.743145 -0.669131 -9.1006e-17
    outer loop
      vertex -25.5106 -28.3324 6
      vertex -30.8438 -22.4093 6
      vertex -25.5106 -28.3324 2
    endloop
  endfacet
  facet normal -0.743145 -0.669131 -9.1006e-17
    outer loop
      vertex -25.5106 -28.3324 2
      vertex -30.8438 -22.4093 6
      vertex -30.8438 -22.4093 2
    endloop
  endfacet
  facet normal -0.587785 -0.809017 -7.19806e-17
    outer loop
      vertex -19.0625 -33.0172 2
      vertex -19.0625 -33.0172 6
      vertex -25.5106 -28.3324 6
    endloop
  endfacet
  facet normal -0.587785 -0.809017 -7.19806e-17
    outer loop
      vertex -25.5106 -28.3324 2
      vertex -19.0625 -33.0172 2
      vertex -25.5106 -28.3324 6
    endloop
  endfacet
  facet normal -0.406737 -0.913545 -4.98092e-17
    outer loop
      vertex -11.7813 -36.259 2
      vertex -11.7813 -36.259 6
      vertex -19.0625 -33.0172 6
    endloop
  endfacet
  facet normal -0.406737 -0.913545 -4.98092e-17
    outer loop
      vertex -19.0625 -33.0172 2
      vertex -11.7813 -36.259 2
      vertex -19.0625 -33.0172 6
    endloop
  endfacet
  facet normal -0.207912 -0.978148 -2.5461e-17
    outer loop
      vertex -3.98515 -37.9161 2
      vertex -3.98515 -37.9161 6
      vertex -11.7813 -36.259 6
    endloop
  endfacet
  facet normal -0.207912 -0.978148 -2.5461e-17
    outer loop
      vertex -11.7813 -36.259 2
      vertex -3.98515 -37.9161 2
      vertex -11.7813 -36.259 6
    endloop
  endfacet
  facet normal 0 -1 0
    outer loop
      vertex 3.98515 -37.9161 2
      vertex 3.98515 -37.9161 6
      vertex -3.98515 -37.9161 6
    endloop
  endfacet
  facet normal 0 -1 0
    outer loop
      vertex -3.98515 -37.9161 2
      vertex 3.98515 -37.9161 2
      vertex -3.98515 -37.9161 6
    endloop
  endfacet
  facet normal 0.207912 -0.978148 2.5461e-17
    outer loop
      vertex 11.7813 -36.259 2
      vertex 11.7813 -36.259 6
      vertex 3.98515 -37.9161 6
    endloop
  endfacet
  facet normal 0.207912 -0.978148 2.5461e-17
    outer loop
      vertex 3.98515 -37.9161 2
      vertex 11.7813 -36.259 2
      vertex 3.98515 -37.9161 6
    endloop
  endfacet
  facet normal 0.406737 -0.913545 4.98092e-17
    outer loop
      vertex 19.0625 -33.0172 2
      vertex 19.0625 -33.0172 6
      vertex 11.7813 -36.259 6
    endloop
  endfacet
  facet normal 0.406737 -0.913545 4.98092e-17
    outer loop
      vertex 11.7813 -36.259 2
      vertex 19.0625 -33.0172 2
      vertex 11.7813 -36.259 6
    endloop
  endfacet
  facet normal 0.587785 -0.809017 7.19806e-17
    outer loop
      vertex 25.5106 -28.3324 2
      vertex 25.5106 -28.3324 6
      vertex 19.0625 -33.0172 6
    endloop
  endfacet
  facet normal 0.587785 -0.809017 7.19806e-17
    outer loop
      vertex 19.0625 -33.0172 2
      vertex 25.5106 -28.3324 2
      vertex 19.0625 -33.0172 6
    endloop
  endfacet
  facet normal 0.743145 -0.669131 9.1006e-17
    outer loop
      vertex 30.8438 -22.4093 2
      vertex 30.8438 -22.4093 6
      vertex 25.5106 -28.3324 6
    endloop
  endfacet
  facet normal 0.743145 -0.669131 9.1006e-17
    outer loop
      vertex 25.5106 -28.3324 2
      vertex 30.8438 -22.4093 2
      vertex 25.5106 -28.3324 6
    endloop
  endfacet
  facet normal 0.866025 -0.5 1.06054e-16
    outer loop
      vertex 34.8289 -15.5068 2
      vertex 34.8289 -15.5068 6
      vertex 30.8438 -22.4093 6
    endloop
  endfacet
  facet normal 0.866025 -0.5 1.06054e-16
    outer loop
      vertex 30.8438 -22.4093 2
      vertex 34.8289 -15.5068 2
      vertex 30.8438 -22.4093 6
    endloop
  endfacet
  facet normal 0.951057 -0.309017 1.16467e-16
    outer loop
      vertex 37.2919 -7.92663 2
      vertex 37.2919 -7.92663 6
      vertex 34.8289 -15.5068 6
    endloop
  endfacet
  facet normal 0.951057 -0.309017 1.16467e-16
    outer loop
      vertex 34.8289 -15.5068 2
      vertex 37.2919 -7.92663 2
      vertex 34.8289 -15.5068 6
    endloop
  endfacet
  facet normal 1.22461e-16 0 -1
    outer loop
      vertex 40.125 0 4.91373e-15
      vertex 39.2482 -8.34246 4.80636e-15
      vertex 39.2482 8.34246 4.80636e-15
    endloop
  endfacet
  facet normal 1.22461e-16 0 -1
    outer loop
      vertex 39.2482 8.34246 4.80636e-15
      vertex 39.2482 -8.34246 4.80636e-15
      vertex 36.656 -16.3203 4.48892e-15
    endloop
  endfacet
  facet normal 1.22461e-16 0 -1
    outer loop
      vertex 39.2482 8.34246 4.80636e-15
      vertex 36.656 -16.3203 4.48892e-15
      vertex 32.4618 -23.5849 3.97529e-15
    endloop
  endfacet
  facet normal 1.22461e-16 0 -1
    outer loop
      vertex 39.2482 8.34246 4.80636e-15
      vertex 32.4618 -23.5849 3.97529e-15
      vertex 26.8489 -29.8187 3.28793e-15
    endloop
  endfacet
  facet normal 1.22461e-16 0 -1
    outer loop
      vertex 39.2482 8.34246 4.80636e-15
      vertex 26.8489 -29.8187 3.28793e-15
      vertex 20.0625 -34.7493 2.45687e-15
    endloop
  endfacet
  facet normal 1.22461e-16 0 -1
    outer loop
      vertex 39.2482 8.34246 4.80636e-15
      vertex 20.0625 -34.7493 2.45687e-15
      vertex 12.3993 -38.1611 1.51843e-15
    endloop
  endfacet
  facet normal 1.22461e-16 0 -1
    outer loop
      vertex 39.2482 8.34246 4.80636e-15
      vertex 12.3993 -38.1611 1.51843e-15
      vertex 4.19421 -39.9052 5.13625e-16
    endloop
  endfacet
  facet normal 1.22461e-16 0 -1
    outer loop
      vertex 39.2482 8.34246 4.80636e-15
      vertex 4.19421 -39.9052 5.13625e-16
      vertex -4.1942 -39.9052 -5.13625e-16
    endloop
  endfacet
  facet normal 1.22461e-16 0 -1
    outer loop
      vertex -0.482147 -30.7208 -5.9044e-17
      vertex -4.1942 -39.9052 -5.13625e-16
      vertex -12.3993 -38.1611 -1.51843e-15
    endloop
  endfacet
  facet normal 1.22461e-16 0 -1
    outer loop
      vertex -3.54182 -28.6089 -4.33734e-16
      vertex -12.3993 -38.1611 -1.51843e-15
      vertex -20.0625 -34.7493 -2.45687e-15
    endloop
  endfacet
  facet normal 1.22461e-16 0 -1
    outer loop
      vertex 11 -10.45 1.34707e-15
      vertex -20.0625 -34.7493 -2.45687e-15
      vertex -26.8489 -29.8187 -3.28793e-15
    endloop
  endfacet
  facet normal 1.22461e-16 0 -1
    outer loop
      vertex -11 -10.45 -1.34707e-15
      vertex -36.656 -16.3203 -4.48892e-15
      vertex -39.2482 -8.34246 -4.80636e-15
    endloop
  endfacet
  facet normal 1.22461e-16 0 -1
    outer loop
      vertex -11 -10.45 -1.34707e-15
      vertex -32.4618 -23.5849 -3.97529e-15
      vertex -36.656 -16.3203 -4.48892e-15
    endloop
  endfacet
  facet normal 1.22461e-16 0 -1
    outer loop
      vertex -11 -10.45 -1.34707e-15
      vertex -39.2482 8.34246 -4.80636e-15
      vertex -11 10.45 -1.34707e-15
    endloop
  endfacet
  facet normal 1.22461e-16 0 -1
    outer loop
      vertex -11 -10.45 -1.34707e-15
      vertex -40.125 0 -4.91373e-15
      vertex -39.2482 8.34246 -4.80636e-15
    endloop
  endfacet
  facet normal 1.22461e-16 0 -1
    outer loop
      vertex -11 10.45 -1.34707e-15
      vertex -39.2482 8.34246 -4.80636e-15
      vertex -36.656 16.3203 -4.48892e-15
    endloop
  endfacet
  facet normal 1.22461e-16 0 -1
    outer loop
      vertex 39.2482 8.34246 4.80636e-15
      vertex -36.656 16.3203 -4.48892e-15
      vertex -32.4618 23.5849 -3.97529e-15
    endloop
  endfacet
  facet normal 1.22461e-16 0 -1
    outer loop
      vertex 39.2482 8.34246 4.80636e-15
      vertex -32.4618 23.5849 -3.97529e-15
      vertex -26.8489 29.8187 -3.28793e-15
    endloop
  endfacet
  facet normal 1.22461e-16 0 -1
    outer loop
      vertex -4 26.75 -4.89843e-16
      vertex -26.8489 29.8187 -3.28793e-15
      vertex -20.0625 34.7493 -2.45687e-15
    endloop
  endfacet
  facet normal 1.22461e-16 0 -1
    outer loop
      vertex -2.27226 30.0419 -2.78262e-16
      vertex -20.0625 34.7493 -2.45687e-15
      vertex -12.3993 38.1611 -1.51843e-15
    endloop
  endfacet
  facet normal 1.22461e-16 0 -1
    outer loop
      vertex 1.41842 30.4901 1.73701e-16
      vertex -12.3993 38.1611 -1.51843e-15
      vertex -4.1942 39.9052 -5.13625e-16
    endloop
  endfacet
  facet normal 1.22461e-16 0 -1
    outer loop
      vertex 39.2482 8.34246 4.80636e-15
      vertex -4.1942 39.9052 -5.13625e-16
      vertex 4.19421 39.9052 5.13625e-16
    endloop
  endfacet
  facet normal 1.22461e-16 0 -1
    outer loop
      vertex 39.2482 8.34246 4.80636e-15
      vertex 4.19421 39.9052 5.13625e-16
      vertex 12.3993 38.1611 1.51843e-15
    endloop
  endfacet
  facet normal 1.22461e-16 0 -1
    outer loop
      vertex 39.2482 8.34246 4.80636e-15
      vertex 12.3993 38.1611 1.51843e-15
      vertex 20.0625 34.7493 2.45687e-15
    endloop
  endfacet
  facet normal 1.22461e-16 0 -1
    outer loop
      vertex 39.2482 8.34246 4.80636e-15
      vertex 20.0625 34.7493 2.45687e-15
      vertex 26.8489 29.8187 3.28793e-15
    endloop
  endfacet
  facet normal 1.22461e-16 0 -1
    outer loop
      vertex 39.2482 8.34246 4.80636e-15
      vertex 26.8489 29.8187 3.28793e-15
      vertex 32.4618 23.5849 3.97529e-15
    endloop
  endfacet
  facet normal 1.22461e-16 0 -1
    outer loop
      vertex 39.2482 8.34246 4.80636e-15
      vertex 32.4618 23.5849 3.97529e-15
      vertex 36.656 16.3203 4.48892e-15
    endloop
  endfacet
  facet normal 1.22461e-16 0 -1
    outer loop
      vertex 39.2482 8.34246 4.80636e-15
      vertex -20.0625 -34.7493 -2.45687e-15
      vertex 11 -10.45 1.34707e-15
    endloop
  endfacet
  facet normal 1.22461e-16 0 -1
    outer loop
      vertex 11 10.45 1.34707e-15
      vertex 39.2482 8.34246 4.80636e-15
      vertex 11 -10.45 1.34707e-15
    endloop
  endfacet
  facet normal 1.22461e-16 0 -1
    outer loop
      vertex -11 -10.45 -1.34707e-15
      vertex -39.2482 -8.34246 -4.80636e-15
      vertex -40.125 0 -4.91373e-15
    endloop
  endfacet
  facet normal 1.22461e-16 0 -1
    outer loop
      vertex 39.2482 8.34246 4.80636e-15
      vertex 11 10.45 1.34707e-15
      vertex -36.656 16.3203 -4.48892e-15
    endloop
  endfacet
  facet normal 1.22461e-16 0 -1
    outer loop
      vertex 11 10.45 1.34707e-15
      vertex -11 10.45 -1.34707e-15
      vertex -36.656 16.3203 -4.48892e-15
    endloop
  endfacet
  facet normal 1.22461e-16 0 -1
    outer loop
      vertex 2.99404 -24.0975 3.66652e-16
      vertex 39.2482 8.34246 4.80636e-15
      vertex 3.88377 -25.7927 4.75609e-16
    endloop
  endfacet
  facet normal 1.22461e-16 0 -1
    outer loop
      vertex 3.88377 25.7927 4.75609e-16
      vertex 39.2482 8.34246 4.80636e-15
      vertex 2.99404 24.0975 3.66652e-16
    endloop
  endfacet
  facet normal 1.22461e-16 0 -1
    outer loop
      vertex 39.2482 8.34246 4.80636e-15
      vertex 3.88377 -27.7073 4.75609e-16
      vertex 3.88377 -25.7927 4.75609e-16
    endloop
  endfacet
  facet normal 1.22461e-16 0 -1
    outer loop
      vertex -3.54182 -24.8911 -4.33734e-16
      vertex -20.0625 -34.7493 -2.45687e-15
      vertex -2.27226 -23.4581 -2.78262e-16
    endloop
  endfacet
  facet normal 1.22461e-16 0 -1
    outer loop
      vertex 39.2482 8.34246 4.80636e-15
      vertex 2.99404 -24.0975 3.66652e-16
      vertex 1.41842 -23.0099 1.73701e-16
    endloop
  endfacet
  facet normal 1.22461e-16 0 -1
    outer loop
      vertex 39.2482 8.34246 4.80636e-15
      vertex 1.41842 -23.0099 1.73701e-16
      vertex -0.482147 -22.7792 -5.9044e-17
    endloop
  endfacet
  facet normal 1.22461e-16 0 -1
    outer loop
      vertex 39.2482 8.34246 4.80636e-15
      vertex -0.482147 -22.7792 -5.9044e-17
      vertex -2.27226 -23.4581 -2.78262e-16
    endloop
  endfacet
  facet normal 1.22461e-16 0 -1
    outer loop
      vertex 39.2482 8.34246 4.80636e-15
      vertex -2.27226 -23.4581 -2.78262e-16
      vertex -20.0625 -34.7493 -2.45687e-15
    endloop
  endfacet
  facet normal 1.22461e-16 0 -1
    outer loop
      vertex -4 -26.75 -4.89843e-16
      vertex -20.0625 -34.7493 -2.45687e-15
      vertex -3.54182 -24.8911 -4.33734e-16
    endloop
  endfacet
  facet normal 1.22461e-16 0 -1
    outer loop
      vertex -3.54182 -28.6089 -4.33734e-16
      vertex -20.0625 -34.7493 -2.45687e-15
      vertex -4 -26.75 -4.89843e-16
    endloop
  endfacet
  facet normal 1.22461e-16 0 -1
    outer loop
      vertex -2.27226 -30.0419 -2.78262e-16
      vertex -12.3993 -38.1611 -1.51843e-15
      vertex -3.54182 -28.6089 -4.33734e-16
    endloop
  endfacet
  facet normal 1.22461e-16 0 -1
    outer loop
      vertex 1.41842 -30.4901 1.73701e-16
      vertex -4.1942 -39.9052 -5.13625e-16
      vertex -0.482147 -30.7208 -5.9044e-17
    endloop
  endfacet
  facet normal 1.22461e-16 0 -1
    outer loop
      vertex 2.99404 -29.4025 3.66652e-16
      vertex -4.1942 -39.9052 -5.13625e-16
      vertex 1.41842 -30.4901 1.73701e-16
    endloop
  endfacet
  facet normal 1.22461e-16 0 -1
    outer loop
      vertex 39.2482 8.34246 4.80636e-15
      vertex -4.1942 -39.9052 -5.13625e-16
      vertex 2.99404 -29.4025 3.66652e-16
    endloop
  endfacet
  facet normal 1.22461e-16 0 -1
    outer loop
      vertex 39.2482 8.34246 4.80636e-15
      vertex 2.99404 -29.4025 3.66652e-16
      vertex 3.88377 -27.7073 4.75609e-16
    endloop
  endfacet
  facet normal 1.22461e-16 0 -1
    outer loop
      vertex 2.99404 29.4025 3.66652e-16
      vertex 39.2482 8.34246 4.80636e-15
      vertex 3.88377 27.7073 4.75609e-16
    endloop
  endfacet
  facet normal 1.22461e-16 0 -1
    outer loop
      vertex 39.2482 8.34246 4.80636e-15
      vertex 3.88377 25.7927 4.75609e-16
      vertex 3.88377 27.7073 4.75609e-16
    endloop
  endfacet
  facet normal 1.22461e-16 0 -1
    outer loop
      vertex -0.482147 30.7208 -5.9044e-17
      vertex -12.3993 38.1611 -1.51843e-15
      vertex 1.41842 30.4901 1.73701e-16
    endloop
  endfacet
  facet normal 1.22461e-16 0 -1
    outer loop
      vertex 39.2482 8.34246 4.80636e-15
      vertex 2.99404 29.4025 3.66652e-16
      vertex -4.1942 39.9052 -5.13625e-16
    endloop
  endfacet
  facet normal 1.22461e-16 0 -1
    outer loop
      vertex 2.99404 29.4025 3.66652e-16
      vertex 1.41842 30.4901 1.73701e-16
      vertex -4.1942 39.9052 -5.13625e-16
    endloop
  endfacet
  facet normal 1.22461e-16 0 -1
    outer loop
      vertex -3.54182 28.6089 -4.33734e-16
      vertex -20.0625 34.7493 -2.45687e-15
      vertex -2.27226 30.0419 -2.78262e-16
    endloop
  endfacet
  facet normal 1.22461e-16 0 -1
    outer loop
      vertex -4 26.75 -4.89843e-16
      vertex -20.0625 34.7493 -2.45687e-15
      vertex -3.54182 28.6089 -4.33734e-16
    endloop
  endfacet
  facet normal 1.22461e-16 0 -1
    outer loop
      vertex -3.54182 24.8911 -4.33734e-16
      vertex -26.8489 29.8187 -3.28793e-15
      vertex -4 26.75 -4.89843e-16
    endloop
  endfacet
  facet normal 1.22461e-16 0 -1
    outer loop
      vertex 1.41842 23.0099 1.73701e-16
      vertex 39.2482 8.34246 4.80636e-15
      vertex -0.482147 22.7792 -5.9044e-17
    endloop
  endfacet
  facet normal 1.22461e-16 0 -1
    outer loop
      vertex -2.27226 23.4581 -2.78262e-16
      vertex -26.8489 29.8187 -3.28793e-15
      vertex -3.54182 24.8911 -4.33734e-16
    endloop
  endfacet
  facet normal 1.22461e-16 0 -1
    outer loop
      vertex -0.482147 22.7792 -5.9044e-17
      vertex -26.8489 29.8187 -3.28793e-15
      vertex -2.27226 23.4581 -2.78262e-16
    endloop
  endfacet
  facet normal 1.22461e-16 0 -1
    outer loop
      vertex 39.2482 8.34246 4.80636e-15
      vertex -26.8489 29.8187 -3.28793e-15
      vertex -0.482147 22.7792 -5.9044e-17
    endloop
  endfacet
  facet normal 1.22461e-16 0 -1
    outer loop
      vertex 2.99404 24.0975 3.66652e-16
      vertex 39.2482 8.34246 4.80636e-15
      vertex 1.41842 23.0099 1.73701e-16
    endloop
  endfacet
  facet normal 1.22461e-16 0 -1
    outer loop
      vertex -2.27226 30.0419 -2.78262e-16
      vertex -12.3993 38.1611 -1.51843e-15
      vertex -0.482147 30.7208 -5.9044e-17
    endloop
  endfacet
  facet normal 1.22461e-16 0 -1
    outer loop
      vertex 11 -10.45 1.34707e-15
      vertex -26.8489 -29.8187 -3.28793e-15
      vertex -32.4618 -23.5849 -3.97529e-15
    endloop
  endfacet
  facet normal 1.22461e-16 0 -1
    outer loop
      vertex 11 -10.45 1.34707e-15
      vertex -32.4618 -23.5849 -3.97529e-15
      vertex -11 -10.45 -1.34707e-15
    endloop
  endfacet
  facet normal 1.22461e-16 0 -1
    outer loop
      vertex -0.482147 -30.7208 -5.9044e-17
      vertex -12.3993 -38.1611 -1.51843e-15
      vertex -2.27226 -30.0419 -2.78262e-16
    endloop
  endfacet
  facet normal -1.22461e-16 0 1
    outer loop
      vertex 37.2919 -7.92663 6
      vertex 38.125 0 6
      vertex 37.2919 7.92663 6
    endloop
  endfacet
  facet normal -1.22461e-16 0 1
    outer loop
      vertex 36.125 0 6
      vertex 37.2919 -7.92663 6
      vertex 34.8289 15.5068 6
    endloop
  endfacet
  facet normal -1.22461e-16 0 1
    outer loop
      vertex 34.8289 15.5068 6
      vertex 37.2919 -7.92663 6
      vertex 37.2919 7.92663 6
    endloop
  endfacet
  facet normal -1.22461e-16 0 1
    outer loop
      vertex 35.3356 -7.51081 6
      vertex 33.0018 -14.6934 6
      vertex 37.2919 -7.92663 6
    endloop
  endfacet
  facet normal -1.22461e-16 0 1
    outer loop
      vertex 29.2257 21.2337 6
      vertex 33.0018 14.6934 6
      vertex 30.8438 22.4093 6
    endloop
  endfacet
  facet normal -1.22461e-16 0 1
    outer loop
      vertex -33.0018 -14.6934 6
      vertex -35.3356 -7.51081 6
      vertex -37.2919 -7.92663 6
    endloop
  endfacet
  facet normal -1.22461e-16 0 1
    outer loop
      vertex -29.2257 -21.2337 6
      vertex -33.0018 -14.6934 6
      vertex -34.8289 -15.5068 6
    endloop
  endfacet
  facet normal -1.22461e-16 0 1
    outer loop
      vertex -24.1723 -26.8461 6
      vertex -29.2257 -21.2337 6
      vertex -30.8438 -22.4093 6
    endloop
  endfacet
  facet normal -1.22461e-16 0 1
    outer loop
      vertex -18.0625 -31.2852 6
      vertex -24.1723 -26.8461 6
      vertex -25.5106 -28.3324 6
    endloop
  endfacet
  facet normal -1.22461e-16 0 1
    outer loop
      vertex -11.1632 -34.3569 6
      vertex -18.0625 -31.2852 6
      vertex -19.0625 -33.0172 6
    endloop
  endfacet
  facet normal -1.22461e-16 0 1
    outer loop
      vertex -3.77609 -35.9271 6
      vertex -11.1632 -34.3569 6
      vertex -11.7813 -36.259 6
    endloop
  endfacet
  facet normal -1.22461e-16 0 1
    outer loop
      vertex 3.77609 -35.9271 6
      vertex -3.77609 -35.9271 6
      vertex -3.98515 -37.9161 6
    endloop
  endfacet
  facet normal -1.22461e-16 0 1
    outer loop
      vertex -35.3356 -7.51081 6
      vertex -36.125 0 6
      vertex -38.125 0 6
    endloop
  endfacet
  facet normal -1.22461e-16 0 1
    outer loop
      vertex 30.8438 -22.4093 6
      vertex 37.2919 -7.92663 6
      vertex 25.5106 -28.3324 6
    endloop
  endfacet
  facet normal -1.22461e-16 0 1
    outer loop
      vertex 34.8289 -15.5068 6
      vertex 37.2919 -7.92663 6
      vertex 30.8438 -22.4093 6
    endloop
  endfacet
  facet normal -1.22461e-16 0 1
    outer loop
      vertex 35.3356 7.51081 6
      vertex 36.125 0 6
      vertex 34.8289 15.5068 6
    endloop
  endfacet
  facet normal -1.22461e-16 0 1
    outer loop
      vertex -33.0018 14.6934 6
      vertex -29.2257 21.2337 6
      vertex -34.8289 15.5068 6
    endloop
  endfacet
  facet normal -1.22461e-16 0 1
    outer loop
      vertex 18.0625 -31.2852 6
      vertex 11.1632 -34.3569 6
      vertex 11.7813 -36.259 6
    endloop
  endfacet
  facet normal -1.22461e-16 0 1
    outer loop
      vertex 25.5106 -28.3324 6
      vertex 37.2919 -7.92663 6
      vertex 33.0018 -14.6934 6
    endloop
  endfacet
  facet normal -1.22461e-16 0 1
    outer loop
      vertex 25.5106 -28.3324 6
      vertex 29.2257 -21.2337 6
      vertex 19.0625 -33.0172 6
    endloop
  endfacet
  facet normal -1.22461e-16 0 1
    outer loop
      vertex 25.5106 -28.3324 6
      vertex 33.0018 -14.6934 6
      vertex 29.2257 -21.2337 6
    endloop
  endfacet
  facet normal -1.22461e-16 0 1
    outer loop
      vertex 29.2257 -21.2337 6
      vertex 24.1723 -26.8461 6
      vertex 19.0625 -33.0172 6
    endloop
  endfacet
  facet normal -1.22461e-16 0 1
    outer loop
      vertex 19.0625 -33.0172 6
      vertex 18.0625 -31.2852 6
      vertex 11.7813 -36.259 6
    endloop
  endfacet
  facet normal -1.22461e-16 0 1
    outer loop
      vertex 24.1723 -26.8461 6
      vertex 18.0625 -31.2852 6
      vertex 19.0625 -33.0172 6
    endloop
  endfacet
  facet normal -1.22461e-16 0 1
    outer loop
      vertex 11.7813 -36.259 6
      vertex 11.1632 -34.3569 6
      vertex 3.98515 -37.9161 6
    endloop
  endfacet
  facet normal -1.22461e-16 0 1
    outer loop
      vertex 3.98515 -37.9161 6
      vertex 3.77609 -35.9271 6
      vertex -3.98515 -37.9161 6
    endloop
  endfacet
  facet normal -1.22461e-16 0 1
    outer loop
      vertex -3.98515 -37.9161 6
      vertex -3.77609 -35.9271 6
      vertex -11.7813 -36.259 6
    endloop
  endfacet
  facet normal -1.22461e-16 0 1
    outer loop
      vertex -11.7813 -36.259 6
      vertex -11.1632 -34.3569 6
      vertex -19.0625 -33.0172 6
    endloop
  endfacet
  facet normal -1.22461e-16 0 1
    outer loop
      vertex -19.0625 -33.0172 6
      vertex -18.0625 -31.2852 6
      vertex -25.5106 -28.3324 6
    endloop
  endfacet
  facet normal -1.22461e-16 0 1
    outer loop
      vertex -25.5106 -28.3324 6
      vertex -24.1723 -26.8461 6
      vertex -30.8438 -22.4093 6
    endloop
  endfacet
  facet normal -1.22461e-16 0 1
    outer loop
      vertex -30.8438 -22.4093 6
      vertex -29.2257 -21.2337 6
      vertex -34.8289 -15.5068 6
    endloop
  endfacet
  facet normal -1.22461e-16 0 1
    outer loop
      vertex -34.8289 -15.5068 6
      vertex -33.0018 -14.6934 6
      vertex -37.2919 -7.92663 6
    endloop
  endfacet
  facet normal -1.22461e-16 0 1
    outer loop
      vertex -37.2919 -7.92663 6
      vertex -35.3356 -7.51081 6
      vertex -38.125 0 6
    endloop
  endfacet
  facet normal -1.22461e-16 0 1
    outer loop
      vertex -38.125 0 6
      vertex -36.125 0 6
      vertex -37.2919 7.92663 6
    endloop
  endfacet
  facet normal -1.22461e-16 0 1
    outer loop
      vertex -37.2919 7.92663 6
      vertex -35.3356 7.51081 6
      vertex -34.8289 15.5068 6
    endloop
  endfacet
  facet normal -1.22461e-16 0 1
    outer loop
      vertex 11.1632 -34.3569 6
      vertex 3.77609 -35.9271 6
      vertex 3.98515 -37.9161 6
    endloop
  endfacet
  facet normal -1.22461e-16 0 1
    outer loop
      vertex -35.3356 7.51081 6
      vertex -33.0018 14.6934 6
      vertex -34.8289 15.5068 6
    endloop
  endfacet
  facet normal -1.22461e-16 0 1
    outer loop
      vertex -34.8289 15.5068 6
      vertex -29.2257 21.2337 6
      vertex -30.8438 22.4093 6
    endloop
  endfacet
  facet normal -1.22461e-16 0 1
    outer loop
      vertex -30.8438 22.4093 6
      vertex -24.1723 26.8461 6
      vertex -25.5106 28.3324 6
    endloop
  endfacet
  facet normal -1.22461e-16 0 1
    outer loop
      vertex -25.5106 28.3324 6
      vertex -18.0625 31.2852 6
      vertex -19.0625 33.0172 6
    endloop
  endfacet
  facet normal -1.22461e-16 0 1
    outer loop
      vertex -19.0625 33.0172 6
      vertex -11.1632 34.3569 6
      vertex -11.7813 36.259 6
    endloop
  endfacet
  facet normal -1.22461e-16 0 1
    outer loop
      vertex -11.7813 36.259 6
      vertex -3.77609 35.9271 6
      vertex -3.98515 37.9161 6
    endloop
  endfacet
  facet normal -1.22461e-16 0 1
    outer loop
      vertex -3.98515 37.9161 6
      vertex 3.77609 35.9271 6
      vertex 3.98515 37.9161 6
    endloop
  endfacet
  facet normal -1.22461e-16 0 1
    outer loop
      vertex 3.98515 37.9161 6
      vertex 11.1632 34.3569 6
      vertex 11.7813 36.259 6
    endloop
  endfacet
  facet normal -1.22461e-16 0 1
    outer loop
      vertex 11.7813 36.259 6
      vertex 18.0625 31.2852 6
      vertex 19.0625 33.0172 6
    endloop
  endfacet
  facet normal -1.22461e-16 0 1
    outer loop
      vertex 19.0625 33.0172 6
      vertex 24.1723 26.8461 6
      vertex 25.5106 28.3324 6
    endloop
  endfacet
  facet normal -1.22461e-16 0 1
    outer loop
      vertex -36.125 0 6
      vertex -35.3356 7.51081 6
      vertex -37.2919 7.92663 6
    endloop
  endfacet
  facet normal -1.22461e-16 0 1
    outer loop
      vertex 25.5106 28.3324 6
      vertex 29.2257 21.2337 6
      vertex 30.8438 22.4093 6
    endloop
  endfacet
  facet normal -1.22461e-16 0 1
    outer loop
      vertex 30.8438 22.4093 6
      vertex 33.0018 14.6934 6
      vertex 34.8289 15.5068 6
    endloop
  endfacet
  facet normal -1.22461e-16 0 1
    outer loop
      vertex 33.0018 14.6934 6
      vertex 35.3356 7.51081 6
      vertex 34.8289 15.5068 6
    endloop
  endfacet
  facet normal -1.22461e-16 0 1
    outer loop
      vertex -29.2257 21.2337 6
      vertex -24.1723 26.8461 6
      vertex -30.8438 22.4093 6
    endloop
  endfacet
  facet normal -1.22461e-16 0 1
    outer loop
      vertex -24.1723 26.8461 6
      vertex -18.0625 31.2852 6
      vertex -25.5106 28.3324 6
    endloop
  endfacet
  facet normal -1.22461e-16 0 1
    outer loop
      vertex -18.0625 31.2852 6
      vertex -11.1632 34.3569 6
      vertex -19.0625 33.0172 6
    endloop
  endfacet
  facet normal -1.22461e-16 0 1
    outer loop
      vertex -11.1632 34.3569 6
      vertex -3.77609 35.9271 6
      vertex -11.7813 36.259 6
    endloop
  endfacet
  facet normal -1.22461e-16 0 1
    outer loop
      vertex -3.77609 35.9271 6
      vertex 3.77609 35.9271 6
      vertex -3.98515 37.9161 6
    endloop
  endfacet
  facet normal -1.22461e-16 0 1
    outer loop
      vertex 3.77609 35.9271 6
      vertex 11.1632 34.3569 6
      vertex 3.98515 37.9161 6
    endloop
  endfacet
  facet normal -1.22461e-16 0 1
    outer loop
      vertex 11.1632 34.3569 6
      vertex 18.0625 31.2852 6
      vertex 11.7813 36.259 6
    endloop
  endfacet
  facet normal -1.22461e-16 0 1
    outer loop
      vertex 18.0625 31.2852 6
      vertex 24.1723 26.8461 6
      vertex 19.0625 33.0172 6
    endloop
  endfacet
  facet normal -1.22461e-16 0 1
    outer loop
      vertex 24.1723 26.8461 6
      vertex 29.2257 21.2337 6
      vertex 25.5106 28.3324 6
    endloop
  endfacet
  facet normal -1.22461e-16 0 1
    outer loop
      vertex 36.125 0 6
      vertex 35.3356 -7.51081 6
      vertex 37.2919 -7.92663 6
    endloop
  endfacet
  facet normal -1 0 -1.22461e-16
    outer loop
      vertex 11 10.45 1.34707e-15
      vertex 11 -10.45 1.34707e-15
      vertex 11 10.45 2
    endloop
  endfacet
  facet normal -1 0 -1.22461e-16
    outer loop
      vertex 11 10.45 2
      vertex 11 -10.45 1.34707e-15
      vertex 11 -10.45 2
    endloop
  endfacet
  facet normal 0 1 0
    outer loop
      vertex -11 -10.45 -1.34707e-15
      vertex -11 -10.45 2
      vertex 11 -10.45 1.34707e-15
    endloop
  endfacet
  facet normal 0 1 0
    outer loop
      vertex 11 -10.45 1.34707e-15
      vertex -11 -10.45 2
      vertex 11 -10.45 2
    endloop
  endfacet
  facet normal 1 0 1.22461e-16
    outer loop
      vertex -11 -10.45 -1.34707e-15
      vertex -11 10.45 -1.34707e-15
      vertex -11 10.45 2
    endloop
  endfacet
  facet normal 1 0 1.22461e-16
    outer loop
      vertex -11 -10.45 2
      vertex -11 -10.45 -1.34707e-15
      vertex -11 10.45 2
    endloop
  endfacet
  facet normal 0 -1 0
    outer loop
      vertex -11 10.45 2
      vertex -11 10.45 -1.34707e-15
      vertex 11 10.45 1.34707e-15
    endloop
  endfacet
  facet normal 0 -1 0
    outer loop
      vertex 11 10.45 2
      vertex -11 10.45 2
      vertex 11 10.45 1.34707e-15
    endloop
  endfacet
  facet normal -1 0 -1.22461e-16
    outer loop
      vertex 3.88377 -25.7927 4.75609e-16
      vertex 3.88377 -27.7073 4.75609e-16
      vertex 3.88377 -25.7927 2
    endloop
  endfacet
  facet normal -1 0 -1.22461e-16
    outer loop
      vertex 3.88377 -25.7927 2
      vertex 3.88377 -27.7073 4.75609e-16
      vertex 3.88377 -27.7073 2
    endloop
  endfacet
  facet normal -0.885456 0.464723 -1.08434e-16
    outer loop
      vertex 2.99404 -29.4025 3.66652e-16
      vertex 2.99404 -29.4025 2
      vertex 3.88377 -27.7073 4.75609e-16
    endloop
  endfacet
  facet normal -0.885456 0.464723 -1.08434e-16
    outer loop
      vertex 3.88377 -27.7073 4.75609e-16
      vertex 2.99404 -29.4025 2
      vertex 3.88377 -27.7073 2
    endloop
  endfacet
  facet normal -0.568065 0.822984 -6.95656e-17
    outer loop
      vertex 1.41842 -30.4901 1.73701e-16
      vertex 1.41842 -30.4901 2
      vertex 2.99404 -29.4025 3.66652e-16
    endloop
  endfacet
  facet normal -0.568065 0.822984 -6.95656e-17
    outer loop
      vertex 2.99404 -29.4025 3.66652e-16
      vertex 1.41842 -30.4901 2
      vertex 2.99404 -29.4025 2
    endloop
  endfacet
  facet normal -0.120536 0.992709 -1.4761e-17
    outer loop
      vertex -0.482147 -30.7208 -5.9044e-17
      vertex -0.482147 -30.7208 2
      vertex 1.41842 -30.4901 1.73701e-16
    endloop
  endfacet
  facet normal -0.120536 0.992709 -1.4761e-17
    outer loop
      vertex 1.41842 -30.4901 1.73701e-16
      vertex -0.482147 -30.7208 2
      vertex 1.41842 -30.4901 2
    endloop
  endfacet
  facet normal 0.354605 0.935016 4.34251e-17
    outer loop
      vertex -2.27226 -30.0419 -2.78262e-16
      vertex -2.27226 -30.0419 2
      vertex -0.482147 -30.7208 -5.9044e-17
    endloop
  endfacet
  facet normal 0.354605 0.935016 4.34251e-17
    outer loop
      vertex -0.482147 -30.7208 -5.9044e-17
      vertex -2.27226 -30.0419 2
      vertex -0.482147 -30.7208 2
    endloop
  endfacet
  facet normal 0.748511 0.663123 9.16631e-17
    outer loop
      vertex -2.27226 -30.0419 -2.78262e-16
      vertex -3.54182 -28.6089 -4.33734e-16
      vertex -3.54182 -28.6089 2
    endloop
  endfacet
  facet normal 0.748511 0.663123 9.16631e-17
    outer loop
      vertex -2.27226 -30.0419 2
      vertex -2.27226 -30.0419 -2.78262e-16
      vertex -3.54182 -28.6089 2
    endloop
  endfacet
  facet normal 0.970942 0.239316 1.18902e-16
    outer loop
      vertex -3.54182 -28.6089 -4.33734e-16
      vertex -4 -26.75 -4.89843e-16
      vertex -4 -26.75 2
    endloop
  endfacet
  facet normal 0.970942 0.239316 1.18902e-16
    outer loop
      vertex -3.54182 -28.6089 2
      vertex -3.54182 -28.6089 -4.33734e-16
      vertex -4 -26.75 2
    endloop
  endfacet
  facet normal 0.970942 -0.239316 1.18902e-16
    outer loop
      vertex -4 -26.75 2
      vertex -4 -26.75 -4.89843e-16
      vertex -3.54182 -24.8911 -4.33734e-16
    endloop
  endfacet
  facet normal 0.970942 -0.239316 1.18902e-16
    outer loop
      vertex -3.54182 -24.8911 2
      vertex -4 -26.75 2
      vertex -3.54182 -24.8911 -4.33734e-16
    endloop
  endfacet
  facet normal 0.748511 -0.663123 9.16631e-17
    outer loop
      vertex -3.54182 -24.8911 2
      vertex -3.54182 -24.8911 -4.33734e-16
      vertex -2.27226 -23.4581 -2.78262e-16
    endloop
  endfacet
  facet normal 0.748511 -0.663123 9.16631e-17
    outer loop
      vertex -2.27226 -23.4581 2
      vertex -3.54182 -24.8911 2
      vertex -2.27226 -23.4581 -2.78262e-16
    endloop
  endfacet
  facet normal 0.354605 -0.935016 4.34251e-17
    outer loop
      vertex -2.27226 -23.4581 2
      vertex -2.27226 -23.4581 -2.78262e-16
      vertex -0.482147 -22.7792 -5.9044e-17
    endloop
  endfacet
  facet normal 0.354605 -0.935016 4.34251e-17
    outer loop
      vertex -0.482147 -22.7792 2
      vertex -2.27226 -23.4581 2
      vertex -0.482147 -22.7792 -5.9044e-17
    endloop
  endfacet
  facet normal -0.120536 -0.992709 -1.4761e-17
    outer loop
      vertex -0.482147 -22.7792 2
      vertex -0.482147 -22.7792 -5.9044e-17
      vertex 1.41842 -23.0099 1.73701e-16
    endloop
  endfacet
  facet normal -0.120536 -0.992709 -1.4761e-17
    outer loop
      vertex 1.41842 -23.0099 2
      vertex -0.482147 -22.7792 2
      vertex 1.41842 -23.0099 1.73701e-16
    endloop
  endfacet
  facet normal -0.568065 -0.822984 -6.95656e-17
    outer loop
      vertex 1.41842 -23.0099 2
      vertex 1.41842 -23.0099 1.73701e-16
      vertex 2.99404 -24.0975 3.66652e-16
    endloop
  endfacet
  facet normal -0.568065 -0.822984 -6.95656e-17
    outer loop
      vertex 2.99404 -24.0975 2
      vertex 1.41842 -23.0099 2
      vertex 2.99404 -24.0975 3.66652e-16
    endloop
  endfacet
  facet normal -0.885456 -0.464723 -1.08434e-16
    outer loop
      vertex 2.99404 -24.0975 3.66652e-16
      vertex 3.88377 -25.7927 4.75609e-16
      vertex 2.99404 -24.0975 2
    endloop
  endfacet
  facet normal -0.885456 -0.464723 -1.08434e-16
    outer loop
      vertex 2.99404 -24.0975 2
      vertex 3.88377 -25.7927 4.75609e-16
      vertex 3.88377 -25.7927 2
    endloop
  endfacet
  facet normal -1 0 -1.22461e-16
    outer loop
      vertex 3.88377 27.7073 4.75609e-16
      vertex 3.88377 25.7927 4.75609e-16
      vertex 3.88377 27.7073 2
    endloop
  endfacet
  facet normal -1 0 -1.22461e-16
    outer loop
      vertex 3.88377 27.7073 2
      vertex 3.88377 25.7927 4.75609e-16
      vertex 3.88377 25.7927 2
    endloop
  endfacet
  facet normal -0.885456 0.464723 -1.08434e-16
    outer loop
      vertex 2.99404 24.0975 3.66652e-16
      vertex 2.99404 24.0975 2
      vertex 3.88377 25.7927 4.75609e-16
    endloop
  endfacet
  facet normal -0.885456 0.464723 -1.08434e-16
    outer loop
      vertex 3.88377 25.7927 4.75609e-16
      vertex 2.99404 24.0975 2
      vertex 3.88377 25.7927 2
    endloop
  endfacet
  facet normal -0.568065 0.822984 -6.95656e-17
    outer loop
      vertex 1.41842 23.0099 1.73701e-16
      vertex 1.41842 23.0099 2
      vertex 2.99404 24.0975 3.66652e-16
    endloop
  endfacet
  facet normal -0.568065 0.822984 -6.95656e-17
    outer loop
      vertex 2.99404 24.0975 3.66652e-16
      vertex 1.41842 23.0099 2
      vertex 2.99404 24.0975 2
    endloop
  endfacet
  facet normal -0.120536 0.992709 -1.4761e-17
    outer loop
      vertex -0.482147 22.7792 -5.9044e-17
      vertex -0.482147 22.7792 2
      vertex 1.41842 23.0099 1.73701e-16
    endloop
  endfacet
  facet normal -0.120536 0.992709 -1.4761e-17
    outer loop
      vertex 1.41842 23.0099 1.73701e-16
      vertex -0.482147 22.7792 2
      vertex 1.41842 23.0099 2
    endloop
  endfacet
  facet normal 0.354605 0.935016 4.34251e-17
    outer loop
      vertex -2.27226 23.4581 -2.78262e-16
      vertex -2.27226 23.4581 2
      vertex -0.482147 22.7792 -5.9044e-17
    endloop
  endfacet
  facet normal 0.354605 0.935016 4.34251e-17
    outer loop
      vertex -0.482147 22.7792 -5.9044e-17
      vertex -2.27226 23.4581 2
      vertex -0.482147 22.7792 2
    endloop
  endfacet
  facet normal 0.748511 0.663123 9.16631e-17
    outer loop
      vertex -2.27226 23.4581 -2.78262e-16
      vertex -3.54182 24.8911 -4.33734e-16
      vertex -3.54182 24.8911 2
    endloop
  endfacet
  facet normal 0.748511 0.663123 9.16631e-17
    outer loop
      vertex -2.27226 23.4581 2
      vertex -2.27226 23.4581 -2.78262e-16
      vertex -3.54182 24.8911 2
    endloop
  endfacet
  facet normal 0.970942 0.239316 1.18902e-16
    outer loop
      vertex -3.54182 24.8911 -4.33734e-16
      vertex -4 26.75 -4.89843e-16
      vertex -4 26.75 2
    endloop
  endfacet
  facet normal 0.970942 0.239316 1.18902e-16
    outer loop
      vertex -3.54182 24.8911 2
      vertex -3.54182 24.8911 -4.33734e-16
      vertex -4 26.75 2
    endloop
  endfacet
  facet normal 0.970942 -0.239316 1.18902e-16
    outer loop
      vertex -4 26.75 2
      vertex -4 26.75 -4.89843e-16
      vertex -3.54182 28.6089 -4.33734e-16
    endloop
  endfacet
  facet normal 0.970942 -0.239316 1.18902e-16
    outer loop
      vertex -3.54182 28.6089 2
      vertex -4 26.75 2
      vertex -3.54182 28.6089 -4.33734e-16
    endloop
  endfacet
  facet normal 0.748511 -0.663123 9.16631e-17
    outer loop
      vertex -3.54182 28.6089 2
      vertex -3.54182 28.6089 -4.33734e-16
      vertex -2.27226 30.0419 -2.78262e-16
    endloop
  endfacet
  facet normal 0.748511 -0.663123 9.16631e-17
    outer loop
      vertex -2.27226 30.0419 2
      vertex -3.54182 28.6089 2
      vertex -2.27226 30.0419 -2.78262e-16
    endloop
  endfacet
  facet normal 0.354605 -0.935016 4.34251e-17
    outer loop
      vertex -2.27226 30.0419 2
      vertex -2.27226 30.0419 -2.78262e-16
      vertex -0.482147 30.7208 -5.9044e-17
    endloop
  endfacet
  facet normal 0.354605 -0.935016 4.34251e-17
    outer loop
      vertex -0.482147 30.7208 2
      vertex -2.27226 30.0419 2
      vertex -0.482147 30.7208 -5.9044e-17
    endloop
  endfacet
  facet normal -0.120536 -0.992709 -1.4761e-17
    outer loop
      vertex -0.482147 30.7208 2
      vertex -0.482147 30.7208 -5.9044e-17
      vertex 1.41842 30.4901 1.73701e-16
    endloop
  endfacet
  facet normal -0.120536 -0.992709 -1.4761e-17
    outer loop
      vertex 1.41842 30.4901 2
      vertex -0.482147 30.7208 2
      vertex 1.41842 30.4901 1.73701e-16
    endloop
  endfacet
  facet normal -0.568065 -0.822984 -6.95656e-17
    outer loop
      vertex 1.41842 30.4901 2
      vertex 1.41842 30.4901 1.73701e-16
      vertex 2.99404 29.4025 3.66652e-16
    endloop
  endfacet
  facet normal -0.568065 -0.822984 -6.95656e-17
    outer loop
      vertex 2.99404 29.4025 2
      vertex 1.41842 30.4901 2
      vertex 2.99404 29.4025 3.66652e-16
    endloop
  endfacet
  facet normal -0.885456 -0.464723 -1.08434e-16
    outer loop
      vertex 2.99404 29.4025 3.66652e-16
      vertex 3.88377 27.7073 4.75609e-16
      vertex 2.99404 29.4025 2
    endloop
  endfacet
  facet normal -0.885456 -0.464723 -1.08434e-16
    outer loop
      vertex 2.99404 29.4025 2
      vertex 3.88377 27.7073 4.75609e-16
      vertex 3.88377 27.7073 2
    endloop
  endfacet
  facet normal -0.994522 -0.104528 -1.2179e-16
    outer loop
      vertex 35.3356 7.51081 2
      vertex 36.125 0 2
      vertex 35.3356 7.51081 6
    endloop
  endfacet
  facet normal -0.994522 -0.104528 -1.2179e-16
    outer loop
      vertex 35.3356 7.51081 6
      vertex 36.125 0 2
      vertex 36.125 0 6
    endloop
  endfacet
  facet normal -0.994522 0.104528 -1.2179e-16
    outer loop
      vertex 35.3356 -7.51081 2
      vertex 35.3356 -7.51081 6
      vertex 36.125 0 2
    endloop
  endfacet
  facet normal -0.994522 0.104528 -1.2179e-16
    outer loop
      vertex 36.125 0 2
      vertex 35.3356 -7.51081 6
      vertex 36.125 0 6
    endloop
  endfacet
  facet normal -0.951057 -0.309017 -1.16467e-16
    outer loop
      vertex 33.0018 14.6934 2
      vertex 35.3356 7.51081 2
      vertex 33.0018 14.6934 6
    endloop
  endfacet
  facet normal -0.951057 -0.309017 -1.16467e-16
    outer loop
      vertex 33.0018 14.6934 6
      vertex 35.3356 7.51081 2
      vertex 35.3356 7.51081 6
    endloop
  endfacet
  facet normal -0.866025 -0.5 -1.06054e-16
    outer loop
      vertex 29.2257 21.2337 2
      vertex 33.0018 14.6934 2
      vertex 29.2257 21.2337 6
    endloop
  endfacet
  facet normal -0.866025 -0.5 -1.06054e-16
    outer loop
      vertex 29.2257 21.2337 6
      vertex 33.0018 14.6934 2
      vertex 33.0018 14.6934 6
    endloop
  endfacet
  facet normal -0.743145 -0.669131 -9.1006e-17
    outer loop
      vertex 24.1723 26.8461 2
      vertex 29.2257 21.2337 2
      vertex 24.1723 26.8461 6
    endloop
  endfacet
  facet normal -0.743145 -0.669131 -9.1006e-17
    outer loop
      vertex 24.1723 26.8461 6
      vertex 29.2257 21.2337 2
      vertex 29.2257 21.2337 6
    endloop
  endfacet
  facet normal -0.587785 -0.809017 -7.19806e-17
    outer loop
      vertex 18.0625 31.2852 6
      vertex 18.0625 31.2852 2
      vertex 24.1723 26.8461 2
    endloop
  endfacet
  facet normal -0.587785 -0.809017 -7.19806e-17
    outer loop
      vertex 24.1723 26.8461 6
      vertex 18.0625 31.2852 6
      vertex 24.1723 26.8461 2
    endloop
  endfacet
  facet normal -0.406737 -0.913545 -4.98092e-17
    outer loop
      vertex 11.1632 34.3569 6
      vertex 11.1632 34.3569 2
      vertex 18.0625 31.2852 2
    endloop
  endfacet
  facet normal -0.406737 -0.913545 -4.98092e-17
    outer loop
      vertex 18.0625 31.2852 6
      vertex 11.1632 34.3569 6
      vertex 18.0625 31.2852 2
    endloop
  endfacet
  facet normal -0.207912 -0.978148 -2.5461e-17
    outer loop
      vertex 3.77609 35.9271 6
      vertex 3.77609 35.9271 2
      vertex 11.1632 34.3569 2
    endloop
  endfacet
  facet normal -0.207912 -0.978148 -2.5461e-17
    outer loop
      vertex 11.1632 34.3569 6
      vertex 3.77609 35.9271 6
      vertex 11.1632 34.3569 2
    endloop
  endfacet
  facet normal 0 -1 0
    outer loop
      vertex -3.77609 35.9271 6
      vertex -3.77609 35.9271 2
      vertex 3.77609 35.9271 2
    endloop
  endfacet
  facet normal 0 -1 0
    outer loop
      vertex 3.77609 35.9271 6
      vertex -3.77609 35.9271 6
      vertex 3.77609 35.9271 2
    endloop
  endfacet
  facet normal 0.207912 -0.978148 2.5461e-17
    outer loop
      vertex -11.1632 34.3569 6
      vertex -11.1632 34.3569 2
      vertex -3.77609 35.9271 2
    endloop
  endfacet
  facet normal 0.207912 -0.978148 2.5461e-17
    outer loop
      vertex -3.77609 35.9271 6
      vertex -11.1632 34.3569 6
      vertex -3.77609 35.9271 2
    endloop
  endfacet
  facet normal 0.406737 -0.913545 4.98092e-17
    outer loop
      vertex -18.0625 31.2852 6
      vertex -18.0625 31.2852 2
      vertex -11.1632 34.3569 2
    endloop
  endfacet
  facet normal 0.406737 -0.913545 4.98092e-17
    outer loop
      vertex -11.1632 34.3569 6
      vertex -18.0625 31.2852 6
      vertex -11.1632 34.3569 2
    endloop
  endfacet
  facet normal 0.587785 -0.809017 7.19806e-17
    outer loop
      vertex -24.1723 26.8461 6
      vertex -24.1723 26.8461 2
      vertex -18.0625 31.2852 2
    endloop
  endfacet
  facet normal 0.587785 -0.809017 7.19806e-17
    outer loop
      vertex -18.0625 31.2852 6
      vertex -24.1723 26.8461 6
      vertex -18.0625 31.2852 2
    endloop
  endfacet
  facet normal 0.743145 -0.669131 9.1006e-17
    outer loop
      vertex -29.2257 21.2337 6
      vertex -29.2257 21.2337 2
      vertex -24.1723 26.8461 2
    endloop
  endfacet
  facet normal 0.743145 -0.669131 9.1006e-17
    outer loop
      vertex -24.1723 26.8461 6
      vertex -29.2257 21.2337 6
      vertex -24.1723 26.8461 2
    endloop
  endfacet
  facet normal 0.866025 -0.5 1.06054e-16
    outer loop
      vertex -33.0018 14.6934 6
      vertex -33.0018 14.6934 2
      vertex -29.2257 21.2337 2
    endloop
  endfacet
  facet normal 0.866025 -0.5 1.06054e-16
    outer loop
      vertex -29.2257 21.2337 6
      vertex -33.0018 14.6934 6
      vertex -29.2257 21.2337 2
    endloop
  endfacet
  facet normal 0.951057 -0.309017 1.16467e-16
    outer loop
      vertex -35.3356 7.51081 6
      vertex -35.3356 7.51081 2
      vertex -33.0018 14.6934 2
    endloop
  endfacet
  facet normal 0.951057 -0.309017 1.16467e-16
    outer loop
      vertex -33.0018 14.6934 6
      vertex -35.3356 7.51081 6
      vertex -33.0018 14.6934 2
    endloop
  endfacet
  facet normal 0.994522 -0.104528 1.2179e-16
    outer loop
      vertex -36.125 0 6
      vertex -36.125 0 2
      vertex -35.3356 7.51081 2
    endloop
  endfacet
  facet normal 0.994522 -0.104528 1.2179e-16
    outer loop
      vertex -35.3356 7.51081 6
      vertex -36.125 0 6
      vertex -35.3356 7.51081 2
    endloop
  endfacet
  facet normal 0.994522 0.104528 1.2179e-16
    outer loop
      vertex -35.3356 -7.51081 2
      vertex -36.125 0 2
      vertex -36.125 0 6
    endloop
  endfacet
  facet normal 0.994522 0.104528 1.2179e-16
    outer loop
      vertex -35.3356 -7.51081 6
      vertex -35.3356 -7.51081 2
      vertex -36.125 0 6
    endloop
  endfacet
  facet normal 0.951057 0.309017 1.16467e-16
    outer loop
      vertex -33.0018 -14.6934 2
      vertex -35.3356 -7.51081 2
      vertex -35.3356 -7.51081 6
    endloop
  endfacet
  facet normal 0.951057 0.309017 1.16467e-16
    outer loop
      vertex -33.0018 -14.6934 6
      vertex -33.0018 -14.6934 2
      vertex -35.3356 -7.51081 6
    endloop
  endfacet
  facet normal 0.866025 0.5 1.06054e-16
    outer loop
      vertex -29.2257 -21.2337 2
      vertex -33.0018 -14.6934 2
      vertex -33.0018 -14.6934 6
    endloop
  endfacet
  facet normal 0.866025 0.5 1.06054e-16
    outer loop
      vertex -29.2257 -21.2337 6
      vertex -29.2257 -21.2337 2
      vertex -33.0018 -14.6934 6
    endloop
  endfacet
  facet normal 0.743145 0.669131 9.1006e-17
    outer loop
      vertex -24.1723 -26.8461 2
      vertex -29.2257 -21.2337 2
      vertex -29.2257 -21.2337 6
    endloop
  endfacet
  facet normal 0.743145 0.669131 9.1006e-17
    outer loop
      vertex -24.1723 -26.8461 6
      vertex -24.1723 -26.8461 2
      vertex -29.2257 -21.2337 6
    endloop
  endfacet
  facet normal 0.587785 0.809017 7.19806e-17
    outer loop
      vertex -24.1723 -26.8461 2
      vertex -24.1723 -26.8461 6
      vertex -18.0625 -31.2852 2
    endloop
  endfacet
  facet normal 0.587785 0.809017 7.19806e-17
    outer loop
      vertex -18.0625 -31.2852 2
      vertex -24.1723 -26.8461 6
      vertex -18.0625 -31.2852 6
    endloop
  endfacet
  facet normal 0.406737 0.913545 4.98092e-17
    outer loop
      vertex -18.0625 -31.2852 2
      vertex -18.0625 -31.2852 6
      vertex -11.1632 -34.3569 2
    endloop
  endfacet
  facet normal 0.406737 0.913545 4.98092e-17
    outer loop
      vertex -11.1632 -34.3569 2
      vertex -18.0625 -31.2852 6
      vertex -11.1632 -34.3569 6
    endloop
  endfacet
  facet normal 0.207912 0.978148 2.5461e-17
    outer loop
      vertex -11.1632 -34.3569 2
      vertex -11.1632 -34.3569 6
      vertex -3.77609 -35.9271 2
    endloop
  endfacet
  facet normal 0.207912 0.978148 2.5461e-17
    outer loop
      vertex -3.77609 -35.9271 2
      vertex -11.1632 -34.3569 6
      vertex -3.77609 -35.9271 6
    endloop
  endfacet
  facet normal 0 1 0
    outer loop
      vertex -3.77609 -35.9271 2
      vertex -3.77609 -35.9271 6
      vertex 3.77609 -35.9271 2
    endloop
  endfacet
  facet normal 0 1 0
    outer loop
      vertex 3.77609 -35.9271 2
      vertex -3.77609 -35.9271 6
      vertex 3.77609 -35.9271 6
    endloop
  endfacet
  facet normal -0.207912 0.978148 -2.5461e-17
    outer loop
      vertex 3.77609 -35.9271 2
      vertex 3.77609 -35.9271 6
      vertex 11.1632 -34.3569 2
    endloop
  endfacet
  facet normal -0.207912 0.978148 -2.5461e-17
    outer loop
      vertex 11.1632 -34.3569 2
      vertex 3.77609 -35.9271 6
      vertex 11.1632 -34.3569 6
    endloop
  endfacet
  facet normal -0.406737 0.913545 -4.98092e-17
    outer loop
      vertex 11.1632 -34.3569 2
      vertex 11.1632 -34.3569 6
      vertex 18.0625 -31.2852 2
    endloop
  endfacet
  facet normal -0.406737 0.913545 -4.98092e-17
    outer loop
      vertex 18.0625 -31.2852 2
      vertex 11.1632 -34.3569 6
      vertex 18.0625 -31.2852 6
    endloop
  endfacet
  facet normal -0.587785 0.809017 -7.19806e-17
    outer loop
      vertex 18.0625 -31.2852 2
      vertex 18.0625 -31.2852 6
      vertex 24.1723 -26.8461 2
    endloop
  endfacet
  facet normal -0.587785 0.809017 -7.19806e-17
    outer loop
      vertex 24.1723 -26.8461 2
      vertex 18.0625 -31.2852 6
      vertex 24.1723 -26.8461 6
    endloop
  endfacet
  facet normal -0.743145 0.669131 -9.1006e-17
    outer loop
      vertex 24.1723 -26.8461 2
      vertex 24.1723 -26.8461 6
      vertex 29.2257 -21.2337 2
    endloop
  endfacet
  facet normal -0.743145 0.669131 -9.1006e-17
    outer loop
      vertex 29.2257 -21.2337 2
      vertex 24.1723 -26.8461 6
      vertex 29.2257 -21.2337 6
    endloop
  endfacet
  facet normal -0.866025 0.5 -1.06054e-16
    outer loop
      vertex 29.2257 -21.2337 2
      vertex 29.2257 -21.2337 6
      vertex 33.0018 -14.6934 2
    endloop
  endfacet
  facet normal -0.866025 0.5 -1.06054e-16
    outer loop
      vertex 33.0018 -14.6934 2
      vertex 29.2257 -21.2337 6
      vertex 33.0018 -14.6934 6
    endloop
  endfacet
  facet normal -0.951057 0.309017 -1.16467e-16
    outer loop
      vertex 33.0018 -14.6934 2
      vertex 33.0018 -14.6934 6
      vertex 35.3356 -7.51081 2
    endloop
  endfacet
  facet normal -0.951057 0.309017 -1.16467e-16
    outer loop
      vertex 35.3356 -7.51081 2
      vertex 33.0018 -14.6934 6
      vertex 35.3356 -7.51081 6
    endloop
  endfacet
  facet normal -1.22461e-16 0 1
    outer loop
      vertex 35.3356 -7.51081 2
      vertex 36.125 0 2
      vertex 35.3356 7.51081 2
    endloop
  endfacet
  facet normal -1.22461e-16 0 1
    outer loop
      vertex 29.2257 21.2337 2
      vertex 35.3356 -7.51081 2
      vertex 33.0018 14.6934 2
    endloop
  endfacet
  facet normal -1.22461e-16 0 1
    outer loop
      vertex 33.0018 14.6934 2
      vertex 35.3356 -7.51081 2
      vertex 35.3356 7.51081 2
    endloop
  endfacet
  facet normal -1.22461e-16 0 1
    outer loop
      vertex 24.1723 26.8461 2
      vertex 35.3356 -7.51081 2
      vertex 29.2257 21.2337 2
    endloop
  endfacet
  facet normal -1.22461e-16 0 1
    outer loop
      vertex 18.0625 31.2852 2
      vertex 35.3356 -7.51081 2
      vertex 24.1723 26.8461 2
    endloop
  endfacet
  facet normal -1.22461e-16 0 1
    outer loop
      vertex 11.1632 34.3569 2
      vertex 35.3356 -7.51081 2
      vertex 18.0625 31.2852 2
    endloop
  endfacet
  facet normal -1.22461e-16 0 1
    outer loop
      vertex 3.77609 35.9271 2
      vertex 35.3356 -7.51081 2
      vertex 11.1632 34.3569 2
    endloop
  endfacet
  facet normal -1.22461e-16 0 1
    outer loop
      vertex 3.88377 27.7073 2
      vertex 35.3356 -7.51081 2
      vertex 3.77609 35.9271 2
    endloop
  endfacet
  facet normal -1.22461e-16 0 1
    outer loop
      vertex 2.99404 -24.0975 2
      vertex 3.88377 -25.7927 2
      vertex 35.3356 -7.51081 2
    endloop
  endfacet
  facet normal -1.22461e-16 0 1
    outer loop
      vertex -11 -10.45 2
      vertex -11 10.45 2
      vertex -33.0018 14.6934 2
    endloop
  endfacet
  facet normal -1.22461e-16 0 1
    outer loop
      vertex -11 -10.45 2
      vertex -33.0018 14.6934 2
      vertex -35.3356 7.51081 2
    endloop
  endfacet
  facet normal -1.22461e-16 0 1
    outer loop
      vertex -11 -10.45 2
      vertex -35.3356 7.51081 2
      vertex -36.125 0 2
    endloop
  endfacet
  facet normal -1.22461e-16 0 1
    outer loop
      vertex -24.1723 -26.8461 2
      vertex 35.3356 -7.51081 2
      vertex -29.2257 -21.2337 2
    endloop
  endfacet
  facet normal -1.22461e-16 0 1
    outer loop
      vertex -2.27226 -23.4581 2
      vertex 35.3356 -7.51081 2
      vertex -24.1723 -26.8461 2
    endloop
  endfacet
  facet normal -1.22461e-16 0 1
    outer loop
      vertex 2.99404 24.0975 2
      vertex 1.41842 23.0099 2
      vertex 35.3356 -7.51081 2
    endloop
  endfacet
  facet normal -1.22461e-16 0 1
    outer loop
      vertex 3.77609 -35.9271 2
      vertex 35.3356 -7.51081 2
      vertex -3.77609 -35.9271 2
    endloop
  endfacet
  facet normal -1.22461e-16 0 1
    outer loop
      vertex 11.1632 -34.3569 2
      vertex 35.3356 -7.51081 2
      vertex 3.77609 -35.9271 2
    endloop
  endfacet
  facet normal -1.22461e-16 0 1
    outer loop
      vertex 18.0625 -31.2852 2
      vertex 35.3356 -7.51081 2
      vertex 11.1632 -34.3569 2
    endloop
  endfacet
  facet normal -1.22461e-16 0 1
    outer loop
      vertex 24.1723 -26.8461 2
      vertex 35.3356 -7.51081 2
      vertex 18.0625 -31.2852 2
    endloop
  endfacet
  facet normal -1.22461e-16 0 1
    outer loop
      vertex 29.2257 -21.2337 2
      vertex 35.3356 -7.51081 2
      vertex 24.1723 -26.8461 2
    endloop
  endfacet
  facet normal -1.22461e-16 0 1
    outer loop
      vertex 33.0018 -14.6934 2
      vertex 35.3356 -7.51081 2
      vertex 29.2257 -21.2337 2
    endloop
  endfacet
  facet normal -1.22461e-16 0 1
    outer loop
      vertex 11 -10.45 2
      vertex -11 -10.45 2
      vertex -33.0018 -14.6934 2
    endloop
  endfacet
  facet normal -1.22461e-16 0 1
    outer loop
      vertex -29.2257 -21.2337 2
      vertex 11 -10.45 2
      vertex -33.0018 -14.6934 2
    endloop
  endfacet
  facet normal -1.22461e-16 0 1
    outer loop
      vertex -29.2257 -21.2337 2
      vertex 35.3356 -7.51081 2
      vertex 11 -10.45 2
    endloop
  endfacet
  facet normal -1.22461e-16 0 1
    outer loop
      vertex -33.0018 -14.6934 2
      vertex -11 -10.45 2
      vertex -35.3356 -7.51081 2
    endloop
  endfacet
  facet normal -1.22461e-16 0 1
    outer loop
      vertex -11 -10.45 2
      vertex -36.125 0 2
      vertex -35.3356 -7.51081 2
    endloop
  endfacet
  facet normal -1.22461e-16 0 1
    outer loop
      vertex -33.0018 14.6934 2
      vertex -11 10.45 2
      vertex -29.2257 21.2337 2
    endloop
  endfacet
  facet normal -1.22461e-16 0 1
    outer loop
      vertex 3.88377 -27.7073 2
      vertex 35.3356 -7.51081 2
      vertex 3.88377 -25.7927 2
    endloop
  endfacet
  facet normal -1.22461e-16 0 1
    outer loop
      vertex -2.27226 -30.0419 2
      vertex -3.54182 -28.6089 2
      vertex -11.1632 -34.3569 2
    endloop
  endfacet
  facet normal -1.22461e-16 0 1
    outer loop
      vertex 2.99404 -29.4025 2
      vertex 35.3356 -7.51081 2
      vertex 3.88377 -27.7073 2
    endloop
  endfacet
  facet normal -1.22461e-16 0 1
    outer loop
      vertex -3.77609 -35.9271 2
      vertex 35.3356 -7.51081 2
      vertex 2.99404 -29.4025 2
    endloop
  endfacet
  facet normal -1.22461e-16 0 1
    outer loop
      vertex -3.54182 -24.8911 2
      vertex -2.27226 -23.4581 2
      vertex -18.0625 -31.2852 2
    endloop
  endfacet
  facet normal -1.22461e-16 0 1
    outer loop
      vertex -3.77609 -35.9271 2
      vertex 2.99404 -29.4025 2
      vertex 1.41842 -30.4901 2
    endloop
  endfacet
  facet normal -1.22461e-16 0 1
    outer loop
      vertex -3.77609 -35.9271 2
      vertex -0.482147 -30.7208 2
      vertex -11.1632 -34.3569 2
    endloop
  endfacet
  facet normal -1.22461e-16 0 1
    outer loop
      vertex -0.482147 -30.7208 2
      vertex -2.27226 -30.0419 2
      vertex -11.1632 -34.3569 2
    endloop
  endfacet
  facet normal -1.22461e-16 0 1
    outer loop
      vertex -11.1632 -34.3569 2
      vertex -3.54182 -28.6089 2
      vertex -18.0625 -31.2852 2
    endloop
  endfacet
  facet normal -1.22461e-16 0 1
    outer loop
      vertex -3.54182 -28.6089 2
      vertex -4 -26.75 2
      vertex -18.0625 -31.2852 2
    endloop
  endfacet
  facet normal -1.22461e-16 0 1
    outer loop
      vertex -4 -26.75 2
      vertex -3.54182 -24.8911 2
      vertex -18.0625 -31.2852 2
    endloop
  endfacet
  facet normal -1.22461e-16 0 1
    outer loop
      vertex -18.0625 -31.2852 2
      vertex -2.27226 -23.4581 2
      vertex -24.1723 -26.8461 2
    endloop
  endfacet
  facet normal -1.22461e-16 0 1
    outer loop
      vertex -0.482147 -22.7792 2
      vertex 35.3356 -7.51081 2
      vertex -2.27226 -23.4581 2
    endloop
  endfacet
  facet normal -1.22461e-16 0 1
    outer loop
      vertex -0.482147 -22.7792 2
      vertex 1.41842 -23.0099 2
      vertex 35.3356 -7.51081 2
    endloop
  endfacet
  facet normal -1.22461e-16 0 1
    outer loop
      vertex 3.88377 27.7073 2
      vertex 3.88377 25.7927 2
      vertex 35.3356 -7.51081 2
    endloop
  endfacet
  facet normal -1.22461e-16 0 1
    outer loop
      vertex 1.41842 -30.4901 2
      vertex -0.482147 -30.7208 2
      vertex -3.77609 -35.9271 2
    endloop
  endfacet
  facet normal -1.22461e-16 0 1
    outer loop
      vertex 2.99404 29.4025 2
      vertex 3.88377 27.7073 2
      vertex 3.77609 35.9271 2
    endloop
  endfacet
  facet normal -1.22461e-16 0 1
    outer loop
      vertex 2.99404 24.0975 2
      vertex 35.3356 -7.51081 2
      vertex 3.88377 25.7927 2
    endloop
  endfacet
  facet normal -1.22461e-16 0 1
    outer loop
      vertex 1.41842 23.0099 2
      vertex -0.482147 22.7792 2
      vertex 11 10.45 2
    endloop
  endfacet
  facet normal -1.22461e-16 0 1
    outer loop
      vertex 11 10.45 2
      vertex 35.3356 -7.51081 2
      vertex 1.41842 23.0099 2
    endloop
  endfacet
  facet normal -1.22461e-16 0 1
    outer loop
      vertex -4 26.75 2
      vertex -3.54182 28.6089 2
      vertex -11.1632 34.3569 2
    endloop
  endfacet
  facet normal -1.22461e-16 0 1
    outer loop
      vertex -2.27226 23.4581 2
      vertex 11 10.45 2
      vertex -0.482147 22.7792 2
    endloop
  endfacet
  facet normal -1.22461e-16 0 1
    outer loop
      vertex -3.54182 24.8911 2
      vertex -4 26.75 2
      vertex -11.1632 34.3569 2
    endloop
  endfacet
  facet normal -1.22461e-16 0 1
    outer loop
      vertex -18.0625 31.2852 2
      vertex 11 10.45 2
      vertex -2.27226 23.4581 2
    endloop
  endfacet
  facet normal -1.22461e-16 0 1
    outer loop
      vertex -18.0625 31.2852 2
      vertex -3.54182 24.8911 2
      vertex -11.1632 34.3569 2
    endloop
  endfacet
  facet normal -1.22461e-16 0 1
    outer loop
      vertex -2.27226 23.4581 2
      vertex -3.54182 24.8911 2
      vertex -18.0625 31.2852 2
    endloop
  endfacet
  facet normal -1.22461e-16 0 1
    outer loop
      vertex -3.54182 28.6089 2
      vertex -2.27226 30.0419 2
      vertex -11.1632 34.3569 2
    endloop
  endfacet
  facet normal -1.22461e-16 0 1
    outer loop
      vertex -0.482147 30.7208 2
      vertex 1.41842 30.4901 2
      vertex -3.77609 35.9271 2
    endloop
  endfacet
  facet normal -1.22461e-16 0 1
    outer loop
      vertex -11.1632 34.3569 2
      vertex -2.27226 30.0419 2
      vertex -3.77609 35.9271 2
    endloop
  endfacet
  facet normal -1.22461e-16 0 1
    outer loop
      vertex -2.27226 30.0419 2
      vertex -0.482147 30.7208 2
      vertex -3.77609 35.9271 2
    endloop
  endfacet
  facet normal -1.22461e-16 0 1
    outer loop
      vertex -3.77609 35.9271 2
      vertex 1.41842 30.4901 2
      vertex 3.77609 35.9271 2
    endloop
  endfacet
  facet normal -1.22461e-16 0 1
    outer loop
      vertex 1.41842 30.4901 2
      vertex 2.99404 29.4025 2
      vertex 3.77609 35.9271 2
    endloop
  endfacet
  facet normal -1.22461e-16 0 1
    outer loop
      vertex -11 10.45 2
      vertex -24.1723 26.8461 2
      vertex -29.2257 21.2337 2
    endloop
  endfacet
  facet normal -1.22461e-16 0 1
    outer loop
      vertex -11 10.45 2
      vertex -18.0625 31.2852 2
      vertex -24.1723 26.8461 2
    endloop
  endfacet
  facet normal -1.22461e-16 0 1
    outer loop
      vertex -11 10.45 2
      vertex 11 10.45 2
      vertex -18.0625 31.2852 2
    endloop
  endfacet
  facet normal -1.22461e-16 0 1
    outer loop
      vertex 1.41842 -23.0099 2
      vertex 2.99404 -24.0975 2
      vertex 35.3356 -7.51081 2
    endloop
  endfacet
  facet normal -1.22461e-16 0 1
    outer loop
      vertex 11 10.45 2
      vertex 11 -10.45 2
      vertex 35.3356 -7.51081 2
    endloop
  endfacet
endsolid OpenSCAD_Model
