solid OpenSCAD_Model
  facet normal 0 0 -1
    outer loop
      vertex -47 0 0
      vertex -45.9729 9.77185 0
      vertex -45.9729 -9.77185 0
    endloop
  endfacet
  facet normal 0 0 -1
    outer loop
      vertex -45.9729 -9.77185 0
      vertex -45.9729 9.77185 0
      vertex -42.9366 19.1166 0
    endloop
  endfacet
  facet normal 0 0 -1
    outer loop
      vertex -45.9729 -9.77185 0
      vertex -42.9366 19.1166 0
      vertex -38.0238 27.6259 0
    endloop
  endfacet
  facet normal 0 0 -1
    outer loop
      vertex -45.9729 -9.77185 0
      vertex -38.0238 27.6259 0
      vertex -31.4491 34.9278 0
    endloop
  endfacet
  facet normal 0 0 -1
    outer loop
      vertex -45.9729 -9.77185 0
      vertex -31.4491 34.9278 0
      vertex -23.5 40.7032 0
    endloop
  endfacet
  facet normal 0 0 -1
    outer loop
      vertex -27.4964 24.7578 0
      vertex -23.5 40.7032 0
      vertex -14.5238 44.6997 0
    endloop
  endfacet
  facet normal 0 0 -1
    outer loop
      vertex -19 31.5202 0
      vertex -14.5238 44.6997 0
      vertex -4.91284 46.7425 0
    endloop
  endfacet
  facet normal 0 0 -1
    outer loop
      vertex 19 31.6797 0
      vertex 23.5 40.7032 0
      vertex 31.4491 34.9278 0
    endloop
  endfacet
  facet normal 0 0 -1
    outer loop
      vertex 24.7578 27.4964 0
      vertex 31.4491 34.9278 0
      vertex 38.0238 27.6259 0
    endloop
  endfacet
  facet normal 0 0 -1
    outer loop
      vertex 29.9336 21.7481 0
      vertex 38.0238 27.6259 0
      vertex 42.9366 19.1166 0
    endloop
  endfacet
  facet normal 0 0 -1
    outer loop
      vertex 33.8012 15.0493 0
      vertex 42.9366 19.1166 0
      vertex 45.9729 9.77185 0
    endloop
  endfacet
  facet normal 0 0 -1
    outer loop
      vertex 36.4745 5 0
      vertex 45.9729 9.77185 0
      vertex 47 0 0
    endloop
  endfacet
  facet normal 0 0 -1
    outer loop
      vertex 36.5566 -5 0
      vertex 47 0 0
      vertex 45.9729 -9.77185 0
    endloop
  endfacet
  facet normal 0 0 -1
    outer loop
      vertex 35.1891 -11.4336 0
      vertex 45.9729 -9.77185 0
      vertex 42.9366 -19.1166 0
    endloop
  endfacet
  facet normal 0 0 -1
    outer loop
      vertex 27.4964 -24.7578 0
      vertex 42.9366 -19.1166 0
      vertex 38.0238 -27.6259 0
    endloop
  endfacet
  facet normal 0 0 -1
    outer loop
      vertex 21.7481 -29.9336 0
      vertex 38.0238 -27.6259 0
      vertex 31.4491 -34.9278 0
    endloop
  endfacet
  facet normal 0 0 -1
    outer loop
      vertex 15.0493 -33.8012 0
      vertex 31.4491 -34.9278 0
      vertex 23.5 -40.7032 0
    endloop
  endfacet
  facet normal 0 0 -1
    outer loop
      vertex 5 -36.4745 0
      vertex 23.5 -40.7032 0
      vertex 14.5238 -44.6997 0
    endloop
  endfacet
  facet normal 0 0 -1
    outer loop
      vertex -5 -36.5566 0
      vertex 14.5238 -44.6997 0
      vertex 4.91284 -46.7425 0
    endloop
  endfacet
  facet normal 0 0 -1
    outer loop
      vertex -18.5 -32.0429 0
      vertex 4.91284 -46.7425 0
      vertex -4.91284 -46.7425 0
    endloop
  endfacet
  facet normal 0 0 -1
    outer loop
      vertex -45.9729 -9.77185 0
      vertex -4.91284 -46.7425 0
      vertex -14.5238 -44.6997 0
    endloop
  endfacet
  facet normal 0 0 -1
    outer loop
      vertex -45.9729 -9.77185 0
      vertex -14.5238 -44.6997 0
      vertex -23.5 -40.7032 0
    endloop
  endfacet
  facet normal 0 0 -1
    outer loop
      vertex -45.9729 -9.77185 0
      vertex -23.5 -40.7032 0
      vertex -31.4491 -34.9278 0
    endloop
  endfacet
  facet normal 0 0 -1
    outer loop
      vertex -45.9729 -9.77185 0
      vertex -31.4491 -34.9278 0
      vertex -38.0238 -27.6259 0
    endloop
  endfacet
  facet normal 0 0 -1
    outer loop
      vertex -45.9729 -9.77185 0
      vertex -38.0238 -27.6259 0
      vertex -42.9366 -19.1166 0
    endloop
  endfacet
  facet normal 0 0 -1
    outer loop
      vertex -45.9729 -9.77185 0
      vertex -23.5 40.7032 0
      vertex -35.1891 11.4336 0
    endloop
  endfacet
  facet normal 0 0 -1
    outer loop
      vertex -36.4745 -5 0
      vertex -45.9729 -9.77185 0
      vertex -36.5566 5 0
    endloop
  endfacet
  facet normal 0 0 -1
    outer loop
      vertex -36.1915 -7.69273 0
      vertex -45.9729 -9.77185 0
      vertex -36.4745 -5 0
    endloop
  endfacet
  facet normal 0 0 -1
    outer loop
      vertex -5 6 0
      vertex -19 6 0
      vertex 19 31.6797 0
    endloop
  endfacet
  facet normal 0 0 -1
    outer loop
      vertex -19 31.5202 0
      vertex 4.91284 46.7425 0
      vertex 14.5238 44.6997 0
    endloop
  endfacet
  facet normal 0 0 -1
    outer loop
      vertex -19 31.5202 0
      vertex -4.91284 46.7425 0
      vertex 4.91284 46.7425 0
    endloop
  endfacet
  facet normal 0 0 -1
    outer loop
      vertex -21.7481 29.9336 0
      vertex -14.5238 44.6997 0
      vertex -19 31.5202 0
    endloop
  endfacet
  facet normal 0 0 -1
    outer loop
      vertex -27.4964 24.7578 0
      vertex -14.5238 44.6997 0
      vertex -21.7481 29.9336 0
    endloop
  endfacet
  facet normal 0 0 -1
    outer loop
      vertex -29.75 -5 0
      vertex 29.75 5 0
      vertex 47 0 0
    endloop
  endfacet
  facet normal 0 0 -1
    outer loop
      vertex -32.0429 18.5 0
      vertex -23.5 40.7032 0
      vertex -27.4964 24.7578 0
    endloop
  endfacet
  facet normal 0 0 -1
    outer loop
      vertex -35.1891 11.4336 0
      vertex -23.5 40.7032 0
      vertex -32.0429 18.5 0
    endloop
  endfacet
  facet normal 0 0 -1
    outer loop
      vertex -29.75 -5 0
      vertex 47 0 0
      vertex -5 -5 0
    endloop
  endfacet
  facet normal 0 0 -1
    outer loop
      vertex -19 31.5202 0
      vertex 14.5238 44.6997 0
      vertex 23.5 40.7032 0
    endloop
  endfacet
  facet normal 0 0 -1
    outer loop
      vertex -33.8012 -15.0493 0
      vertex -45.9729 -9.77185 0
      vertex -36.1915 -7.69273 0
    endloop
  endfacet
  facet normal 0 0 -1
    outer loop
      vertex -29.9336 -21.7481 0
      vertex -45.9729 -9.77185 0
      vertex -33.8012 -15.0493 0
    endloop
  endfacet
  facet normal 0 0 -1
    outer loop
      vertex -18.5 -32.0429 0
      vertex -4.91284 -46.7425 0
      vertex -24.7578 -27.4964 0
    endloop
  endfacet
  facet normal 0 0 -1
    outer loop
      vertex -45.9729 -9.77185 0
      vertex -29.9336 -21.7481 0
      vertex -24.7578 -27.4964 0
    endloop
  endfacet
  facet normal 0 0 -1
    outer loop
      vertex -45.9729 -9.77185 0
      vertex -24.7578 -27.4964 0
      vertex -4.91284 -46.7425 0
    endloop
  endfacet
  facet normal 0 0 -1
    outer loop
      vertex -11.4336 -35.1891 0
      vertex 4.91284 -46.7425 0
      vertex -18.5 -32.0429 0
    endloop
  endfacet
  facet normal 0 0 -1
    outer loop
      vertex -5 -36.5566 0
      vertex 4.91284 -46.7425 0
      vertex -11.4336 -35.1891 0
    endloop
  endfacet
  facet normal 0 0 -1
    outer loop
      vertex 35.1891 -11.4336 0
      vertex 42.9366 -19.1166 0
      vertex 32.0429 -18.5 0
    endloop
  endfacet
  facet normal 0 0 -1
    outer loop
      vertex 36.1915 7.69273 0
      vertex 45.9729 9.77185 0
      vertex 36.4745 5 0
    endloop
  endfacet
  facet normal 0 0 -1
    outer loop
      vertex 15.0493 -33.8012 0
      vertex 23.5 -40.7032 0
      vertex 7.69273 -36.1915 0
    endloop
  endfacet
  facet normal 0 0 -1
    outer loop
      vertex 7.69273 -36.1915 0
      vertex 23.5 -40.7032 0
      vertex 5 -36.4745 0
    endloop
  endfacet
  facet normal 0 0 -1
    outer loop
      vertex 27.4964 -24.7578 0
      vertex 38.0238 -27.6259 0
      vertex 21.7481 -29.9336 0
    endloop
  endfacet
  facet normal 0 0 -1
    outer loop
      vertex 32.0429 -18.5 0
      vertex 42.9366 -19.1166 0
      vertex 27.4964 -24.7578 0
    endloop
  endfacet
  facet normal 0 0 -1
    outer loop
      vertex 21.7481 -29.9336 0
      vertex 31.4491 -34.9278 0
      vertex 15.0493 -33.8012 0
    endloop
  endfacet
  facet normal 0 0 -1
    outer loop
      vertex 5 -5 0
      vertex 47 0 0
      vertex 36.5566 -5 0
    endloop
  endfacet
  facet normal 0 0 -1
    outer loop
      vertex 19 6 0
      vertex 5 6 0
      vertex 19 31.6797 0
    endloop
  endfacet
  facet normal 0 0 -1
    outer loop
      vertex 29.75 5 0
      vertex -29.75 -5 0
      vertex 5 5 0
    endloop
  endfacet
  facet normal 0 0 -1
    outer loop
      vertex -29.75 -5 0
      vertex 5 6 0
      vertex 5 5 0
    endloop
  endfacet
  facet normal 0 0 -1
    outer loop
      vertex 5 6 0
      vertex -29.75 -5 0
      vertex -36.4745 -5 0
    endloop
  endfacet
  facet normal 0 0 -1
    outer loop
      vertex 36.5566 -5 0
      vertex 45.9729 -9.77185 0
      vertex 35.1891 -11.4336 0
    endloop
  endfacet
  facet normal 0 0 -1
    outer loop
      vertex 29.75 5 0
      vertex 36.4745 5 0
      vertex 47 0 0
    endloop
  endfacet
  facet normal 0 0 -1
    outer loop
      vertex 33.8012 15.0493 0
      vertex 45.9729 9.77185 0
      vertex 36.1915 7.69273 0
    endloop
  endfacet
  facet normal 0 0 -1
    outer loop
      vertex -5 -5 0
      vertex 47 0 0
      vertex 5 -5 0
    endloop
  endfacet
  facet normal 0 0 -1
    outer loop
      vertex 29.9336 21.7481 0
      vertex 42.9366 19.1166 0
      vertex 33.8012 15.0493 0
    endloop
  endfacet
  facet normal 0 0 -1
    outer loop
      vertex 5 6 0
      vertex -5 6 0
      vertex 19 31.6797 0
    endloop
  endfacet
  facet normal 0 0 -1
    outer loop
      vertex 24.7578 27.4964 0
      vertex 38.0238 27.6259 0
      vertex 29.9336 21.7481 0
    endloop
  endfacet
  facet normal 0 0 -1
    outer loop
      vertex -19 31.5202 0
      vertex 23.5 40.7032 0
      vertex -19 6 0
    endloop
  endfacet
  facet normal 0 0 -1
    outer loop
      vertex -19 6 0
      vertex 23.5 40.7032 0
      vertex 19 31.6797 0
    endloop
  endfacet
  facet normal 0 0 -1
    outer loop
      vertex 5 6 0
      vertex -36.4745 -5 0
      vertex -5 5 0
    endloop
  endfacet
  facet normal 0 0 -1
    outer loop
      vertex -36.5566 5 0
      vertex -45.9729 -9.77185 0
      vertex -35.1891 11.4336 0
    endloop
  endfacet
  facet normal 0 0 -1
    outer loop
      vertex -5 5 0
      vertex -36.4745 -5 0
      vertex -36.5566 5 0
    endloop
  endfacet
  facet normal 0 0 -1
    outer loop
      vertex 5 -36.4745 0
      vertex -5 -5 0
      vertex 5 -5 0
    endloop
  endfacet
  facet normal 0 0 -1
    outer loop
      vertex 5 6 0
      vertex -5 5 0
      vertex -5 6 0
    endloop
  endfacet
  facet normal 0 0 -1
    outer loop
      vertex 19 31.6797 0
      vertex 31.4491 34.9278 0
      vertex 24.7578 27.4964 0
    endloop
  endfacet
  facet normal 0 0 -1
    outer loop
      vertex 5 -36.4745 0
      vertex 14.5238 -44.6997 0
      vertex -5 -36.5566 0
    endloop
  endfacet
  facet normal 0 0 -1
    outer loop
      vertex -5 -5 0
      vertex 5 -36.4745 0
      vertex -5 -36.5566 0
    endloop
  endfacet
  facet normal -0.994522 0.104528 0
    outer loop
      vertex -47 0 0
      vertex -47 0 2
      vertex -45.9729 9.77185 0
    endloop
  endfacet
  facet normal -0.994522 0.104528 0
    outer loop
      vertex -45.9729 9.77185 0
      vertex -47 0 2
      vertex -45.9729 9.77185 2
    endloop
  endfacet
  facet normal -0.994522 -0.104528 0
    outer loop
      vertex -47 0 0
      vertex -45.9729 -9.77185 0
      vertex -47 0 2
    endloop
  endfacet
  facet normal -0.994522 -0.104528 0
    outer loop
      vertex -47 0 2
      vertex -45.9729 -9.77185 0
      vertex -45.9729 -9.77185 2
    endloop
  endfacet
  facet normal -0.951057 -0.309017 0
    outer loop
      vertex -45.9729 -9.77185 0
      vertex -42.9366 -19.1166 0
      vertex -45.9729 -9.77185 2
    endloop
  endfacet
  facet normal -0.951057 -0.309017 0
    outer loop
      vertex -45.9729 -9.77185 2
      vertex -42.9366 -19.1166 0
      vertex -42.9366 -19.1166 2
    endloop
  endfacet
  facet normal -0.866025 -0.5 0
    outer loop
      vertex -42.9366 -19.1166 0
      vertex -38.0238 -27.6259 0
      vertex -42.9366 -19.1166 2
    endloop
  endfacet
  facet normal -0.866025 -0.5 0
    outer loop
      vertex -42.9366 -19.1166 2
      vertex -38.0238 -27.6259 0
      vertex -38.0238 -27.6259 2
    endloop
  endfacet
  facet normal -0.743145 -0.669131 0
    outer loop
      vertex -38.0238 -27.6259 0
      vertex -31.4491 -34.9278 0
      vertex -38.0238 -27.6259 2
    endloop
  endfacet
  facet normal -0.743145 -0.669131 0
    outer loop
      vertex -38.0238 -27.6259 2
      vertex -31.4491 -34.9278 0
      vertex -31.4491 -34.9278 2
    endloop
  endfacet
  facet normal -0.587785 -0.809017 0
    outer loop
      vertex -31.4491 -34.9278 2
      vertex -31.4491 -34.9278 0
      vertex -23.5 -40.7032 0
    endloop
  endfacet
  facet normal -0.587785 -0.809017 0
    outer loop
      vertex -23.5 -40.7032 2
      vertex -31.4491 -34.9278 2
      vertex -23.5 -40.7032 0
    endloop
  endfacet
  facet normal -0.406737 -0.913545 0
    outer loop
      vertex -23.5 -40.7032 2
      vertex -23.5 -40.7032 0
      vertex -14.5238 -44.6997 0
    endloop
  endfacet
  facet normal -0.406737 -0.913545 0
    outer loop
      vertex -14.5238 -44.6997 2
      vertex -23.5 -40.7032 2
      vertex -14.5238 -44.6997 0
    endloop
  endfacet
  facet normal -0.207912 -0.978148 0
    outer loop
      vertex -14.5238 -44.6997 2
      vertex -14.5238 -44.6997 0
      vertex -4.91284 -46.7425 0
    endloop
  endfacet
  facet normal -0.207912 -0.978148 0
    outer loop
      vertex -4.91284 -46.7425 2
      vertex -14.5238 -44.6997 2
      vertex -4.91284 -46.7425 0
    endloop
  endfacet
  facet normal 0 -1 0
    outer loop
      vertex -4.91284 -46.7425 2
      vertex -4.91284 -46.7425 0
      vertex 4.91284 -46.7425 0
    endloop
  endfacet
  facet normal 0 -1 0
    outer loop
      vertex 4.91284 -46.7425 2
      vertex -4.91284 -46.7425 2
      vertex 4.91284 -46.7425 0
    endloop
  endfacet
  facet normal 0.207912 -0.978148 0
    outer loop
      vertex 4.91284 -46.7425 2
      vertex 4.91284 -46.7425 0
      vertex 14.5238 -44.6997 0
    endloop
  endfacet
  facet normal 0.207912 -0.978148 0
    outer loop
      vertex 14.5238 -44.6997 2
      vertex 4.91284 -46.7425 2
      vertex 14.5238 -44.6997 0
    endloop
  endfacet
  facet normal 0.406737 -0.913545 0
    outer loop
      vertex 14.5238 -44.6997 2
      vertex 14.5238 -44.6997 0
      vertex 23.5 -40.7032 0
    endloop
  endfacet
  facet normal 0.406737 -0.913545 0
    outer loop
      vertex 23.5 -40.7032 2
      vertex 14.5238 -44.6997 2
      vertex 23.5 -40.7032 0
    endloop
  endfacet
  facet normal 0.587785 -0.809017 0
    outer loop
      vertex 23.5 -40.7032 2
      vertex 23.5 -40.7032 0
      vertex 31.4491 -34.9278 0
    endloop
  endfacet
  facet normal 0.587785 -0.809017 0
    outer loop
      vertex 31.4491 -34.9278 2
      vertex 23.5 -40.7032 2
      vertex 31.4491 -34.9278 0
    endloop
  endfacet
  facet normal 0.743145 -0.669131 0
    outer loop
      vertex 31.4491 -34.9278 2
      vertex 31.4491 -34.9278 0
      vertex 38.0238 -27.6259 0
    endloop
  endfacet
  facet normal 0.743145 -0.669131 0
    outer loop
      vertex 38.0238 -27.6259 2
      vertex 31.4491 -34.9278 2
      vertex 38.0238 -27.6259 0
    endloop
  endfacet
  facet normal 0.866025 -0.5 0
    outer loop
      vertex 38.0238 -27.6259 2
      vertex 38.0238 -27.6259 0
      vertex 42.9366 -19.1166 0
    endloop
  endfacet
  facet normal 0.866025 -0.5 0
    outer loop
      vertex 42.9366 -19.1166 2
      vertex 38.0238 -27.6259 2
      vertex 42.9366 -19.1166 0
    endloop
  endfacet
  facet normal 0.951057 -0.309017 0
    outer loop
      vertex 42.9366 -19.1166 2
      vertex 42.9366 -19.1166 0
      vertex 45.9729 -9.77185 0
    endloop
  endfacet
  facet normal 0.951057 -0.309017 0
    outer loop
      vertex 45.9729 -9.77185 2
      vertex 42.9366 -19.1166 2
      vertex 45.9729 -9.77185 0
    endloop
  endfacet
  facet normal 0.994522 -0.104528 0
    outer loop
      vertex 45.9729 -9.77185 2
      vertex 45.9729 -9.77185 0
      vertex 47 0 0
    endloop
  endfacet
  facet normal 0.994522 -0.104528 0
    outer loop
      vertex 47 0 2
      vertex 45.9729 -9.77185 2
      vertex 47 0 0
    endloop
  endfacet
  facet normal 0.994522 0.104528 0
    outer loop
      vertex 47 0 0
      vertex 45.9729 9.77185 0
      vertex 45.9729 9.77185 2
    endloop
  endfacet
  facet normal 0.994522 0.104528 0
    outer loop
      vertex 47 0 2
      vertex 47 0 0
      vertex 45.9729 9.77185 2
    endloop
  endfacet
  facet normal 0.951057 0.309017 0
    outer loop
      vertex 45.9729 9.77185 0
      vertex 42.9366 19.1166 0
      vertex 42.9366 19.1166 2
    endloop
  endfacet
  facet normal 0.951057 0.309017 0
    outer loop
      vertex 45.9729 9.77185 2
      vertex 45.9729 9.77185 0
      vertex 42.9366 19.1166 2
    endloop
  endfacet
  facet normal 0.866025 0.5 0
    outer loop
      vertex 42.9366 19.1166 0
      vertex 38.0238 27.6259 0
      vertex 38.0238 27.6259 2
    endloop
  endfacet
  facet normal 0.866025 0.5 0
    outer loop
      vertex 42.9366 19.1166 2
      vertex 42.9366 19.1166 0
      vertex 38.0238 27.6259 2
    endloop
  endfacet
  facet normal 0.743145 0.669131 0
    outer loop
      vertex 38.0238 27.6259 0
      vertex 31.4491 34.9278 0
      vertex 31.4491 34.9278 2
    endloop
  endfacet
  facet normal 0.743145 0.669131 0
    outer loop
      vertex 38.0238 27.6259 2
      vertex 38.0238 27.6259 0
      vertex 31.4491 34.9278 2
    endloop
  endfacet
  facet normal 0.587785 0.809017 0
    outer loop
      vertex 23.5 40.7032 0
      vertex 23.5 40.7032 2
      vertex 31.4491 34.9278 0
    endloop
  endfacet
  facet normal 0.587785 0.809017 0
    outer loop
      vertex 31.4491 34.9278 0
      vertex 23.5 40.7032 2
      vertex 31.4491 34.9278 2
    endloop
  endfacet
  facet normal 0.406737 0.913545 0
    outer loop
      vertex 14.5238 44.6997 0
      vertex 14.5238 44.6997 2
      vertex 23.5 40.7032 0
    endloop
  endfacet
  facet normal 0.406737 0.913545 0
    outer loop
      vertex 23.5 40.7032 0
      vertex 14.5238 44.6997 2
      vertex 23.5 40.7032 2
    endloop
  endfacet
  facet normal 0.207912 0.978148 0
    outer loop
      vertex 4.91284 46.7425 0
      vertex 4.91284 46.7425 2
      vertex 14.5238 44.6997 0
    endloop
  endfacet
  facet normal 0.207912 0.978148 0
    outer loop
      vertex 14.5238 44.6997 0
      vertex 4.91284 46.7425 2
      vertex 14.5238 44.6997 2
    endloop
  endfacet
  facet normal 0 1 0
    outer loop
      vertex -4.91284 46.7425 0
      vertex -4.91284 46.7425 2
      vertex 4.91284 46.7425 0
    endloop
  endfacet
  facet normal 0 1 0
    outer loop
      vertex 4.91284 46.7425 0
      vertex -4.91284 46.7425 2
      vertex 4.91284 46.7425 2
    endloop
  endfacet
  facet normal -0.207912 0.978148 0
    outer loop
      vertex -14.5238 44.6997 0
      vertex -14.5238 44.6997 2
      vertex -4.91284 46.7425 0
    endloop
  endfacet
  facet normal -0.207912 0.978148 0
    outer loop
      vertex -4.91284 46.7425 0
      vertex -14.5238 44.6997 2
      vertex -4.91284 46.7425 2
    endloop
  endfacet
  facet normal -0.406737 0.913545 0
    outer loop
      vertex -23.5 40.7032 0
      vertex -23.5 40.7032 2
      vertex -14.5238 44.6997 0
    endloop
  endfacet
  facet normal -0.406737 0.913545 0
    outer loop
      vertex -14.5238 44.6997 0
      vertex -23.5 40.7032 2
      vertex -14.5238 44.6997 2
    endloop
  endfacet
  facet normal -0.587785 0.809017 0
    outer loop
      vertex -31.4491 34.9278 0
      vertex -31.4491 34.9278 2
      vertex -23.5 40.7032 0
    endloop
  endfacet
  facet normal -0.587785 0.809017 0
    outer loop
      vertex -23.5 40.7032 0
      vertex -31.4491 34.9278 2
      vertex -23.5 40.7032 2
    endloop
  endfacet
  facet normal -0.743145 0.669131 0
    outer loop
      vertex -38.0238 27.6259 0
      vertex -38.0238 27.6259 2
      vertex -31.4491 34.9278 0
    endloop
  endfacet
  facet normal -0.743145 0.669131 0
    outer loop
      vertex -31.4491 34.9278 0
      vertex -38.0238 27.6259 2
      vertex -31.4491 34.9278 2
    endloop
  endfacet
  facet normal -0.866025 0.5 0
    outer loop
      vertex -42.9366 19.1166 0
      vertex -42.9366 19.1166 2
      vertex -38.0238 27.6259 0
    endloop
  endfacet
  facet normal -0.866025 0.5 0
    outer loop
      vertex -38.0238 27.6259 0
      vertex -42.9366 19.1166 2
      vertex -38.0238 27.6259 2
    endloop
  endfacet
  facet normal -0.951057 0.309017 0
    outer loop
      vertex -45.9729 9.77185 0
      vertex -45.9729 9.77185 2
      vertex -42.9366 19.1166 0
    endloop
  endfacet
  facet normal -0.951057 0.309017 0
    outer loop
      vertex -42.9366 19.1166 0
      vertex -45.9729 9.77185 2
      vertex -42.9366 19.1166 2
    endloop
  endfacet
  facet normal 0.978148 -0.207912 0
    outer loop
      vertex -35.1891 11.4336 0
      vertex -35.1891 11.4336 2
      vertex -36.5566 5 2
    endloop
  endfacet
  facet normal 0.978148 -0.207912 0
    outer loop
      vertex -36.5566 5 0
      vertex -35.1891 11.4336 0
      vertex -36.5566 5 2
    endloop
  endfacet
  facet normal 0.913545 -0.406737 0
    outer loop
      vertex -32.0429 18.5 0
      vertex -32.0429 18.5 2
      vertex -35.1891 11.4336 2
    endloop
  endfacet
  facet normal 0.913545 -0.406737 0
    outer loop
      vertex -35.1891 11.4336 0
      vertex -32.0429 18.5 0
      vertex -35.1891 11.4336 2
    endloop
  endfacet
  facet normal 0.809017 -0.587785 0
    outer loop
      vertex -27.4964 24.7578 0
      vertex -27.4964 24.7578 2
      vertex -32.0429 18.5 2
    endloop
  endfacet
  facet normal 0.809017 -0.587785 0
    outer loop
      vertex -32.0429 18.5 0
      vertex -27.4964 24.7578 0
      vertex -32.0429 18.5 2
    endloop
  endfacet
  facet normal 0.669131 -0.743145 0
    outer loop
      vertex -21.7481 29.9336 0
      vertex -21.7481 29.9336 2
      vertex -27.4964 24.7578 2
    endloop
  endfacet
  facet normal 0.669131 -0.743145 0
    outer loop
      vertex -27.4964 24.7578 0
      vertex -21.7481 29.9336 0
      vertex -27.4964 24.7578 2
    endloop
  endfacet
  facet normal 0.5 -0.866025 0
    outer loop
      vertex -19 31.5202 0
      vertex -19 31.5202 2
      vertex -21.7481 29.9336 2
    endloop
  endfacet
  facet normal 0.5 -0.866025 0
    outer loop
      vertex -21.7481 29.9336 0
      vertex -19 31.5202 0
      vertex -21.7481 29.9336 2
    endloop
  endfacet
  facet normal -1 0 0
    outer loop
      vertex -19 6 0
      vertex -19 6 30
      vertex -19 31.5202 0
    endloop
  endfacet
  facet normal -1 0 0
    outer loop
      vertex -19 31.5202 2
      vertex -19 6 30
      vertex -19 37 30
    endloop
  endfacet
  facet normal -1 0 0
    outer loop
      vertex -19 31.5202 0
      vertex -19 6 30
      vertex -19 31.5202 2
    endloop
  endfacet
  facet normal -1 0 0
    outer loop
      vertex -19 31.5202 2
      vertex -19 37 30
      vertex -19 37 2
    endloop
  endfacet
  facet normal 0 -1 0
    outer loop
      vertex -19 6 30
      vertex -19 6 0
      vertex -5 6 0
    endloop
  endfacet
  facet normal 0 -1 0
    outer loop
      vertex 5 6 2
      vertex -19 6 30
      vertex -5 6 2
    endloop
  endfacet
  facet normal 0 -1 0
    outer loop
      vertex -5 6 2
      vertex -19 6 30
      vertex -5 6 0
    endloop
  endfacet
  facet normal 0 -1 0
    outer loop
      vertex 19 6 0
      vertex -19 6 30
      vertex 5 6 2
    endloop
  endfacet
  facet normal 0 -1 0
    outer loop
      vertex 19 6 0
      vertex 5 6 2
      vertex 5 6 0
    endloop
  endfacet
  facet normal 0 -1 0
    outer loop
      vertex 19 6 30
      vertex -19 6 30
      vertex 19 6 0
    endloop
  endfacet
  facet normal -1 1.77321e-16 0
    outer loop
      vertex -5 6 2
      vertex -5 6 0
      vertex -5 5 2
    endloop
  endfacet
  facet normal -1 1.77321e-16 0
    outer loop
      vertex -5 5 2
      vertex -5 6 0
      vertex -5 5 0
    endloop
  endfacet
  facet normal 1.77321e-16 1 0
    outer loop
      vertex -5 5 2
      vertex -5 5 0
      vertex -36.5566 5 2
    endloop
  endfacet
  facet normal 1.77321e-16 1 0
    outer loop
      vertex -36.5566 5 2
      vertex -5 5 0
      vertex -36.5566 5 0
    endloop
  endfacet
  facet normal -1.22461e-16 -1 0
    outer loop
      vertex -29.75 -5 0
      vertex -29.75 -5 2
      vertex -36.4745 -5 2
    endloop
  endfacet
  facet normal -1.22461e-16 -1 0
    outer loop
      vertex -36.4745 -5 0
      vertex -29.75 -5 0
      vertex -36.4745 -5 2
    endloop
  endfacet
  facet normal 0.994522 0.104528 0
    outer loop
      vertex -36.4745 -5 2
      vertex -36.1915 -7.69273 2
      vertex -36.1915 -7.69273 0
    endloop
  endfacet
  facet normal 0.994522 0.104528 0
    outer loop
      vertex -36.4745 -5 0
      vertex -36.4745 -5 2
      vertex -36.1915 -7.69273 0
    endloop
  endfacet
  facet normal -1 0 0
    outer loop
      vertex -29.75 -5 2
      vertex -29.75 -5 83
      vertex -29.75 5 83
    endloop
  endfacet
  facet normal -1 0 0
    outer loop
      vertex -29.75 -5 0
      vertex -29.75 -5 83
      vertex -29.75 -5 2
    endloop
  endfacet
  facet normal -1 0 0
    outer loop
      vertex -29.75 -5 2
      vertex -29.75 5 83
      vertex -29.75 5 2
    endloop
  endfacet
  facet normal 0 -1 0
    outer loop
      vertex -23.75 -5 9
      vertex -29.75 -5 0
      vertex -5 -5 0
    endloop
  endfacet
  facet normal 0 -1 0
    outer loop
      vertex -23.75 -5 9
      vertex -23.75 -5 83
      vertex -29.75 -5 83
    endloop
  endfacet
  facet normal 0 -1 0
    outer loop
      vertex -5 -5 2
      vertex -23.75 -5 9
      vertex -5 -5 0
    endloop
  endfacet
  facet normal 0 -1 0
    outer loop
      vertex 29.75 -5 83
      vertex 23.75 -5 83
      vertex 29.75 -5 2
    endloop
  endfacet
  facet normal 0 -1 0
    outer loop
      vertex 29.75 -5 2
      vertex 23.75 -5 9
      vertex -5 -5 2
    endloop
  endfacet
  facet normal 0 -1 0
    outer loop
      vertex -29.75 -5 83
      vertex -29.75 -5 0
      vertex -23.75 -5 9
    endloop
  endfacet
  facet normal 0 -1 0
    outer loop
      vertex 23.75 -5 9
      vertex -23.75 -5 9
      vertex -5 -5 2
    endloop
  endfacet
  facet normal 0 -1 0
    outer loop
      vertex 23.75 -5 83
      vertex 23.75 -5 9
      vertex 29.75 -5 2
    endloop
  endfacet
  facet normal -1 1.22461e-16 0
    outer loop
      vertex -5 -5 2
      vertex -5 -5 0
      vertex -5 -36.5566 2
    endloop
  endfacet
  facet normal -1 1.22461e-16 0
    outer loop
      vertex -5 -36.5566 2
      vertex -5 -5 0
      vertex -5 -36.5566 0
    endloop
  endfacet
  facet normal 0.207912 0.978148 0
    outer loop
      vertex -5 -36.5566 2
      vertex -5 -36.5566 0
      vertex -11.4336 -35.1891 2
    endloop
  endfacet
  facet normal 0.207912 0.978148 0
    outer loop
      vertex -11.4336 -35.1891 2
      vertex -5 -36.5566 0
      vertex -11.4336 -35.1891 0
    endloop
  endfacet
  facet normal 0.406737 0.913545 0
    outer loop
      vertex -11.4336 -35.1891 2
      vertex -11.4336 -35.1891 0
      vertex -18.5 -32.0429 2
    endloop
  endfacet
  facet normal 0.406737 0.913545 0
    outer loop
      vertex -18.5 -32.0429 2
      vertex -11.4336 -35.1891 0
      vertex -18.5 -32.0429 0
    endloop
  endfacet
  facet normal 0.587785 0.809017 0
    outer loop
      vertex -18.5 -32.0429 2
      vertex -18.5 -32.0429 0
      vertex -24.7578 -27.4964 2
    endloop
  endfacet
  facet normal 0.587785 0.809017 0
    outer loop
      vertex -24.7578 -27.4964 2
      vertex -18.5 -32.0429 0
      vertex -24.7578 -27.4964 0
    endloop
  endfacet
  facet normal 0.743145 0.669131 0
    outer loop
      vertex -29.9336 -21.7481 2
      vertex -24.7578 -27.4964 2
      vertex -24.7578 -27.4964 0
    endloop
  endfacet
  facet normal 0.743145 0.669131 0
    outer loop
      vertex -29.9336 -21.7481 0
      vertex -29.9336 -21.7481 2
      vertex -24.7578 -27.4964 0
    endloop
  endfacet
  facet normal 0.866025 0.5 0
    outer loop
      vertex -33.8012 -15.0493 2
      vertex -29.9336 -21.7481 2
      vertex -29.9336 -21.7481 0
    endloop
  endfacet
  facet normal 0.866025 0.5 0
    outer loop
      vertex -33.8012 -15.0493 0
      vertex -33.8012 -15.0493 2
      vertex -29.9336 -21.7481 0
    endloop
  endfacet
  facet normal 0.951057 0.309017 0
    outer loop
      vertex -36.1915 -7.69273 2
      vertex -33.8012 -15.0493 2
      vertex -33.8012 -15.0493 0
    endloop
  endfacet
  facet normal 0.951057 0.309017 0
    outer loop
      vertex -36.1915 -7.69273 0
      vertex -36.1915 -7.69273 2
      vertex -33.8012 -15.0493 0
    endloop
  endfacet
  facet normal 1 -1.36718e-16 0
    outer loop
      vertex 5 -5 0
      vertex 5 -5 2
      vertex 5 -36.4745 2
    endloop
  endfacet
  facet normal 1 -1.36718e-16 0
    outer loop
      vertex 5 -36.4745 0
      vertex 5 -5 0
      vertex 5 -36.4745 2
    endloop
  endfacet
  facet normal -1.36718e-16 -1 0
    outer loop
      vertex 36.5566 -5 0
      vertex 36.5566 -5 2
      vertex 5 -5 2
    endloop
  endfacet
  facet normal -1.36718e-16 -1 0
    outer loop
      vertex 5 -5 0
      vertex 36.5566 -5 0
      vertex 5 -5 2
    endloop
  endfacet
  facet normal -0.978148 0.207912 0
    outer loop
      vertex 36.5566 -5 2
      vertex 36.5566 -5 0
      vertex 35.1891 -11.4336 2
    endloop
  endfacet
  facet normal -0.978148 0.207912 0
    outer loop
      vertex 35.1891 -11.4336 2
      vertex 36.5566 -5 0
      vertex 35.1891 -11.4336 0
    endloop
  endfacet
  facet normal -0.913545 0.406737 0
    outer loop
      vertex 35.1891 -11.4336 2
      vertex 35.1891 -11.4336 0
      vertex 32.0429 -18.5 2
    endloop
  endfacet
  facet normal -0.913545 0.406737 0
    outer loop
      vertex 32.0429 -18.5 2
      vertex 35.1891 -11.4336 0
      vertex 32.0429 -18.5 0
    endloop
  endfacet
  facet normal -0.809017 0.587785 0
    outer loop
      vertex 32.0429 -18.5 2
      vertex 32.0429 -18.5 0
      vertex 27.4964 -24.7578 2
    endloop
  endfacet
  facet normal -0.809017 0.587785 0
    outer loop
      vertex 27.4964 -24.7578 2
      vertex 32.0429 -18.5 0
      vertex 27.4964 -24.7578 0
    endloop
  endfacet
  facet normal -0.669131 0.743145 0
    outer loop
      vertex 27.4964 -24.7578 2
      vertex 27.4964 -24.7578 0
      vertex 21.7481 -29.9336 2
    endloop
  endfacet
  facet normal -0.669131 0.743145 0
    outer loop
      vertex 21.7481 -29.9336 2
      vertex 27.4964 -24.7578 0
      vertex 21.7481 -29.9336 0
    endloop
  endfacet
  facet normal -0.5 0.866025 0
    outer loop
      vertex 21.7481 -29.9336 2
      vertex 21.7481 -29.9336 0
      vertex 15.0493 -33.8012 2
    endloop
  endfacet
  facet normal -0.5 0.866025 0
    outer loop
      vertex 15.0493 -33.8012 2
      vertex 21.7481 -29.9336 0
      vertex 15.0493 -33.8012 0
    endloop
  endfacet
  facet normal -0.309017 0.951057 0
    outer loop
      vertex 15.0493 -33.8012 2
      vertex 15.0493 -33.8012 0
      vertex 7.69273 -36.1915 2
    endloop
  endfacet
  facet normal -0.309017 0.951057 0
    outer loop
      vertex 7.69273 -36.1915 2
      vertex 15.0493 -33.8012 0
      vertex 7.69273 -36.1915 0
    endloop
  endfacet
  facet normal -0.104528 0.994522 0
    outer loop
      vertex 7.69273 -36.1915 2
      vertex 7.69273 -36.1915 0
      vertex 5 -36.4745 2
    endloop
  endfacet
  facet normal -0.104528 0.994522 0
    outer loop
      vertex 5 -36.4745 2
      vertex 7.69273 -36.1915 0
      vertex 5 -36.4745 0
    endloop
  endfacet
  facet normal 1 0 0
    outer loop
      vertex 5 6 0
      vertex 5 6 2
      vertex 5 5 2
    endloop
  endfacet
  facet normal 1 0 0
    outer loop
      vertex 5 5 0
      vertex 5 6 0
      vertex 5 5 2
    endloop
  endfacet
  facet normal 1 0 0
    outer loop
      vertex 19 6 30
      vertex 19 6 0
      vertex 19 31.6797 0
    endloop
  endfacet
  facet normal 1 0 0
    outer loop
      vertex 19 37 2
      vertex 19 6 30
      vertex 19 31.6797 2
    endloop
  endfacet
  facet normal 1 0 0
    outer loop
      vertex 19 31.6797 2
      vertex 19 6 30
      vertex 19 31.6797 0
    endloop
  endfacet
  facet normal 1 0 0
    outer loop
      vertex 19 37 30
      vertex 19 6 30
      vertex 19 37 2
    endloop
  endfacet
  facet normal -0.587785 -0.809017 0
    outer loop
      vertex 24.7578 27.4964 0
      vertex 24.7578 27.4964 2
      vertex 19 31.6797 2
    endloop
  endfacet
  facet normal -0.587785 -0.809017 0
    outer loop
      vertex 19 31.6797 0
      vertex 24.7578 27.4964 0
      vertex 19 31.6797 2
    endloop
  endfacet
  facet normal -0.743145 -0.669131 0
    outer loop
      vertex 29.9336 21.7481 2
      vertex 24.7578 27.4964 2
      vertex 29.9336 21.7481 0
    endloop
  endfacet
  facet normal -0.743145 -0.669131 0
    outer loop
      vertex 29.9336 21.7481 0
      vertex 24.7578 27.4964 2
      vertex 24.7578 27.4964 0
    endloop
  endfacet
  facet normal -0.866025 -0.5 0
    outer loop
      vertex 33.8012 15.0493 2
      vertex 29.9336 21.7481 2
      vertex 33.8012 15.0493 0
    endloop
  endfacet
  facet normal -0.866025 -0.5 0
    outer loop
      vertex 33.8012 15.0493 0
      vertex 29.9336 21.7481 2
      vertex 29.9336 21.7481 0
    endloop
  endfacet
  facet normal -0.951057 -0.309017 0
    outer loop
      vertex 36.1915 7.69273 2
      vertex 33.8012 15.0493 2
      vertex 36.1915 7.69273 0
    endloop
  endfacet
  facet normal -0.951057 -0.309017 0
    outer loop
      vertex 36.1915 7.69273 0
      vertex 33.8012 15.0493 2
      vertex 33.8012 15.0493 0
    endloop
  endfacet
  facet normal -0.994522 -0.104528 0
    outer loop
      vertex 36.4745 5 2
      vertex 36.1915 7.69273 2
      vertex 36.4745 5 0
    endloop
  endfacet
  facet normal -0.994522 -0.104528 0
    outer loop
      vertex 36.4745 5 0
      vertex 36.1915 7.69273 2
      vertex 36.1915 7.69273 0
    endloop
  endfacet
  facet normal 0 1 0
    outer loop
      vertex 36.4745 5 2
      vertex 36.4745 5 0
      vertex 29.75 5 2
    endloop
  endfacet
  facet normal 0 1 0
    outer loop
      vertex 29.75 5 2
      vertex 36.4745 5 0
      vertex 29.75 5 0
    endloop
  endfacet
  facet normal 0 1 0
    outer loop
      vertex -23.75 5 83
      vertex -23.75 5 9
      vertex -29.75 5 83
    endloop
  endfacet
  facet normal 0 1 0
    outer loop
      vertex 29.75 5 0
      vertex -23.75 5 9
      vertex 29.75 5 2
    endloop
  endfacet
  facet normal 0 1 0
    outer loop
      vertex 29.75 5 83
      vertex 23.75 5 9
      vertex 23.75 5 83
    endloop
  endfacet
  facet normal 0 1 0
    outer loop
      vertex 29.75 5 2
      vertex 23.75 5 9
      vertex 29.75 5 83
    endloop
  endfacet
  facet normal 0 1 0
    outer loop
      vertex -23.75 5 9
      vertex 23.75 5 9
      vertex 29.75 5 2
    endloop
  endfacet
  facet normal 0 1 0
    outer loop
      vertex 5 5 2
      vertex -23.75 5 9
      vertex 29.75 5 0
    endloop
  endfacet
  facet normal 0 1 0
    outer loop
      vertex 5 5 0
      vertex 5 5 2
      vertex 29.75 5 0
    endloop
  endfacet
  facet normal 0 1 0
    outer loop
      vertex -29.75 5 83
      vertex -23.75 5 9
      vertex -29.75 5 2
    endloop
  endfacet
  facet normal 0 1 0
    outer loop
      vertex -29.75 5 2
      vertex -23.75 5 9
      vertex 5 5 2
    endloop
  endfacet
  facet normal 0 0 1
    outer loop
      vertex -45.9729 9.77185 2
      vertex -47 0 2
      vertex -45.9729 -9.77185 2
    endloop
  endfacet
  facet normal 0 0 1
    outer loop
      vertex -38.0238 -27.6259 2
      vertex -45.9729 9.77185 2
      vertex -42.9366 -19.1166 2
    endloop
  endfacet
  facet normal 0 0 1
    outer loop
      vertex -42.9366 -19.1166 2
      vertex -45.9729 9.77185 2
      vertex -45.9729 -9.77185 2
    endloop
  endfacet
  facet normal 0 0 1
    outer loop
      vertex -31.4491 -34.9278 2
      vertex -45.9729 9.77185 2
      vertex -38.0238 -27.6259 2
    endloop
  endfacet
  facet normal 0 0 1
    outer loop
      vertex -23.5 -40.7032 2
      vertex -45.9729 9.77185 2
      vertex -31.4491 -34.9278 2
    endloop
  endfacet
  facet normal 0 0 1
    outer loop
      vertex -33.8012 -15.0493 2
      vertex -45.9729 9.77185 2
      vertex -23.5 -40.7032 2
    endloop
  endfacet
  facet normal 0 0 1
    outer loop
      vertex -33.8012 -15.0493 2
      vertex -36.1915 -7.69273 2
      vertex -45.9729 9.77185 2
    endloop
  endfacet
  facet normal 0 0 1
    outer loop
      vertex -11.4336 -35.1891 2
      vertex -18.5 -32.0429 2
      vertex -4.91284 -46.7425 2
    endloop
  endfacet
  facet normal 0 0 1
    outer loop
      vertex 15.0493 -33.8012 2
      vertex 7.69273 -36.1915 2
      vertex 23.5 -40.7032 2
    endloop
  endfacet
  facet normal 0 0 1
    outer loop
      vertex -19 31.5202 2
      vertex -19 37 2
      vertex -21.7481 29.9336 2
    endloop
  endfacet
  facet normal 0 0 1
    outer loop
      vertex -32.0429 18.5 2
      vertex -27.4964 24.7578 2
      vertex -45.9729 9.77185 2
    endloop
  endfacet
  facet normal 0 0 1
    outer loop
      vertex 29.75 5 2
      vertex 29.75 -5 2
      vertex 47 0 2
    endloop
  endfacet
  facet normal 0 0 1
    outer loop
      vertex -19 37 2
      vertex 4.91284 46.7425 2
      vertex -4.91284 46.7425 2
    endloop
  endfacet
  facet normal 0 0 1
    outer loop
      vertex -23.5 40.7032 2
      vertex -45.9729 9.77185 2
      vertex -14.5238 44.6997 2
    endloop
  endfacet
  facet normal 0 0 1
    outer loop
      vertex -31.4491 34.9278 2
      vertex -45.9729 9.77185 2
      vertex -23.5 40.7032 2
    endloop
  endfacet
  facet normal 0 0 1
    outer loop
      vertex -38.0238 27.6259 2
      vertex -45.9729 9.77185 2
      vertex -31.4491 34.9278 2
    endloop
  endfacet
  facet normal 0 0 1
    outer loop
      vertex -42.9366 19.1166 2
      vertex -45.9729 9.77185 2
      vertex -38.0238 27.6259 2
    endloop
  endfacet
  facet normal 0 0 1
    outer loop
      vertex 33.8012 15.0493 2
      vertex 36.1915 7.69273 2
      vertex 45.9729 9.77185 2
    endloop
  endfacet
  facet normal 0 0 1
    outer loop
      vertex 24.7578 27.4964 2
      vertex 29.9336 21.7481 2
      vertex 38.0238 27.6259 2
    endloop
  endfacet
  facet normal 0 0 1
    outer loop
      vertex 29.75 -5 2
      vertex -5 -5 2
      vertex 5 -5 2
    endloop
  endfacet
  facet normal 0 0 1
    outer loop
      vertex -19 37 2
      vertex 14.5238 44.6997 2
      vertex 4.91284 46.7425 2
    endloop
  endfacet
  facet normal 0 0 1
    outer loop
      vertex -19 37 2
      vertex 23.5 40.7032 2
      vertex 14.5238 44.6997 2
    endloop
  endfacet
  facet normal 0 0 1
    outer loop
      vertex -14.5238 44.6997 2
      vertex -19 37 2
      vertex -4.91284 46.7425 2
    endloop
  endfacet
  facet normal 0 0 1
    outer loop
      vertex -14.5238 44.6997 2
      vertex -45.9729 9.77185 2
      vertex -19 37 2
    endloop
  endfacet
  facet normal 0 0 1
    outer loop
      vertex 23.5 40.7032 2
      vertex 19 37 2
      vertex 31.4491 34.9278 2
    endloop
  endfacet
  facet normal 0 0 1
    outer loop
      vertex -21.7481 29.9336 2
      vertex -45.9729 9.77185 2
      vertex -27.4964 24.7578 2
    endloop
  endfacet
  facet normal 0 0 1
    outer loop
      vertex 19 37 2
      vertex 19 31.6797 2
      vertex 31.4491 34.9278 2
    endloop
  endfacet
  facet normal 0 0 1
    outer loop
      vertex -21.7481 29.9336 2
      vertex -19 37 2
      vertex -45.9729 9.77185 2
    endloop
  endfacet
  facet normal 0 0 1
    outer loop
      vertex 31.4491 34.9278 2
      vertex 24.7578 27.4964 2
      vertex 38.0238 27.6259 2
    endloop
  endfacet
  facet normal 0 0 1
    outer loop
      vertex -19 37 2
      vertex 19 37 2
      vertex 23.5 40.7032 2
    endloop
  endfacet
  facet normal 0 0 1
    outer loop
      vertex 38.0238 27.6259 2
      vertex 29.9336 21.7481 2
      vertex 42.9366 19.1166 2
    endloop
  endfacet
  facet normal 0 0 1
    outer loop
      vertex 42.9366 19.1166 2
      vertex 33.8012 15.0493 2
      vertex 45.9729 9.77185 2
    endloop
  endfacet
  facet normal 0 0 1
    outer loop
      vertex 45.9729 9.77185 2
      vertex 36.1915 7.69273 2
      vertex 47 0 2
    endloop
  endfacet
  facet normal 0 0 1
    outer loop
      vertex 19 31.6797 2
      vertex 24.7578 27.4964 2
      vertex 31.4491 34.9278 2
    endloop
  endfacet
  facet normal 0 0 1
    outer loop
      vertex 36.1915 7.69273 2
      vertex 36.4745 5 2
      vertex 47 0 2
    endloop
  endfacet
  facet normal 0 0 1
    outer loop
      vertex 36.4745 5 2
      vertex 29.75 5 2
      vertex 47 0 2
    endloop
  endfacet
  facet normal 0 0 1
    outer loop
      vertex 27.4964 -24.7578 2
      vertex 21.7481 -29.9336 2
      vertex 31.4491 -34.9278 2
    endloop
  endfacet
  facet normal 0 0 1
    outer loop
      vertex 4.91284 -46.7425 2
      vertex -5 -36.5566 2
      vertex -4.91284 -46.7425 2
    endloop
  endfacet
  facet normal 0 0 1
    outer loop
      vertex -5 5 2
      vertex 5 5 2
      vertex -5 6 2
    endloop
  endfacet
  facet normal 0 0 1
    outer loop
      vertex -5 -36.5566 2
      vertex -11.4336 -35.1891 2
      vertex -4.91284 -46.7425 2
    endloop
  endfacet
  facet normal 0 0 1
    outer loop
      vertex -29.75 -5 2
      vertex -29.75 5 2
      vertex -36.5566 5 2
    endloop
  endfacet
  facet normal 0 0 1
    outer loop
      vertex -4.91284 -46.7425 2
      vertex -18.5 -32.0429 2
      vertex -14.5238 -44.6997 2
    endloop
  endfacet
  facet normal 0 0 1
    outer loop
      vertex -14.5238 -44.6997 2
      vertex -24.7578 -27.4964 2
      vertex -23.5 -40.7032 2
    endloop
  endfacet
  facet normal 0 0 1
    outer loop
      vertex -24.7578 -27.4964 2
      vertex -29.9336 -21.7481 2
      vertex -23.5 -40.7032 2
    endloop
  endfacet
  facet normal 0 0 1
    outer loop
      vertex -29.9336 -21.7481 2
      vertex -33.8012 -15.0493 2
      vertex -23.5 -40.7032 2
    endloop
  endfacet
  facet normal 0 0 1
    outer loop
      vertex -36.1915 -7.69273 2
      vertex -36.4745 -5 2
      vertex -45.9729 9.77185 2
    endloop
  endfacet
  facet normal 0 0 1
    outer loop
      vertex -29.75 5 2
      vertex 5 5 2
      vertex -5 5 2
    endloop
  endfacet
  facet normal 0 0 1
    outer loop
      vertex -18.5 -32.0429 2
      vertex -24.7578 -27.4964 2
      vertex -14.5238 -44.6997 2
    endloop
  endfacet
  facet normal 0 0 1
    outer loop
      vertex -29.75 -5 2
      vertex -36.5566 5 2
      vertex -45.9729 9.77185 2
    endloop
  endfacet
  facet normal 0 0 1
    outer loop
      vertex 35.1891 -11.4336 2
      vertex 32.0429 -18.5 2
      vertex 42.9366 -19.1166 2
    endloop
  endfacet
  facet normal 0 0 1
    outer loop
      vertex 29.9336 21.7481 2
      vertex 33.8012 15.0493 2
      vertex 42.9366 19.1166 2
    endloop
  endfacet
  facet normal 0 0 1
    outer loop
      vertex 5 6 2
      vertex -5 6 2
      vertex 5 5 2
    endloop
  endfacet
  facet normal 0 0 1
    outer loop
      vertex -35.1891 11.4336 2
      vertex -32.0429 18.5 2
      vertex -45.9729 9.77185 2
    endloop
  endfacet
  facet normal 0 0 1
    outer loop
      vertex 14.5238 -44.6997 2
      vertex 5 -36.4745 2
      vertex 4.91284 -46.7425 2
    endloop
  endfacet
  facet normal 0 0 1
    outer loop
      vertex -36.4745 -5 2
      vertex -29.75 -5 2
      vertex -45.9729 9.77185 2
    endloop
  endfacet
  facet normal 0 0 1
    outer loop
      vertex 32.0429 -18.5 2
      vertex 27.4964 -24.7578 2
      vertex 38.0238 -27.6259 2
    endloop
  endfacet
  facet normal 0 0 1
    outer loop
      vertex 47 0 2
      vertex 36.5566 -5 2
      vertex 45.9729 -9.77185 2
    endloop
  endfacet
  facet normal 0 0 1
    outer loop
      vertex 47 0 2
      vertex 29.75 -5 2
      vertex 36.5566 -5 2
    endloop
  endfacet
  facet normal 0 0 1
    outer loop
      vertex 45.9729 -9.77185 2
      vertex 35.1891 -11.4336 2
      vertex 42.9366 -19.1166 2
    endloop
  endfacet
  facet normal 0 0 1
    outer loop
      vertex 42.9366 -19.1166 2
      vertex 32.0429 -18.5 2
      vertex 38.0238 -27.6259 2
    endloop
  endfacet
  facet normal 0 0 1
    outer loop
      vertex 5 -5 2
      vertex 36.5566 -5 2
      vertex 29.75 -5 2
    endloop
  endfacet
  facet normal 0 0 1
    outer loop
      vertex 38.0238 -27.6259 2
      vertex 27.4964 -24.7578 2
      vertex 31.4491 -34.9278 2
    endloop
  endfacet
  facet normal 0 0 1
    outer loop
      vertex 31.4491 -34.9278 2
      vertex 21.7481 -29.9336 2
      vertex 23.5 -40.7032 2
    endloop
  endfacet
  facet normal 0 0 1
    outer loop
      vertex 21.7481 -29.9336 2
      vertex 15.0493 -33.8012 2
      vertex 23.5 -40.7032 2
    endloop
  endfacet
  facet normal 0 0 1
    outer loop
      vertex 5 -36.4745 2
      vertex 5 -5 2
      vertex -5 -5 2
    endloop
  endfacet
  facet normal 0 0 1
    outer loop
      vertex 23.5 -40.7032 2
      vertex 7.69273 -36.1915 2
      vertex 14.5238 -44.6997 2
    endloop
  endfacet
  facet normal 0 0 1
    outer loop
      vertex 7.69273 -36.1915 2
      vertex 5 -36.4745 2
      vertex 14.5238 -44.6997 2
    endloop
  endfacet
  facet normal 0 0 1
    outer loop
      vertex -5 5 2
      vertex -36.5566 5 2
      vertex -29.75 5 2
    endloop
  endfacet
  facet normal 0 0 1
    outer loop
      vertex 36.5566 -5 2
      vertex 35.1891 -11.4336 2
      vertex 45.9729 -9.77185 2
    endloop
  endfacet
  facet normal 0 0 1
    outer loop
      vertex -36.5566 5 2
      vertex -35.1891 11.4336 2
      vertex -45.9729 9.77185 2
    endloop
  endfacet
  facet normal 0 0 1
    outer loop
      vertex -5 -5 2
      vertex 4.91284 -46.7425 2
      vertex 5 -36.4745 2
    endloop
  endfacet
  facet normal 0 0 1
    outer loop
      vertex -5 -5 2
      vertex -5 -36.5566 2
      vertex 4.91284 -46.7425 2
    endloop
  endfacet
  facet normal 0 1 0
    outer loop
      vertex -19 37 2
      vertex -19 37 30
      vertex 19 37 2
    endloop
  endfacet
  facet normal 0 1 0
    outer loop
      vertex 19 37 2
      vertex -19 37 30
      vertex 19 37 30
    endloop
  endfacet
  facet normal 0 0 1
    outer loop
      vertex -17 8.5 30
      vertex -19 6 30
      vertex 19 6 30
    endloop
  endfacet
  facet normal 0 0 1
    outer loop
      vertex -19 37 30
      vertex -19 6 30
      vertex -17 8.5 30
    endloop
  endfacet
  facet normal 0 0 1
    outer loop
      vertex -19 37 30
      vertex -17 8.5 30
      vertex -17 21.5 30
    endloop
  endfacet
  facet normal 0 0 1
    outer loop
      vertex 19 37 30
      vertex 17 21.5 30
      vertex 19 6 30
    endloop
  endfacet
  facet normal 0 0 1
    outer loop
      vertex 17 21.5 30
      vertex 17 8.5 30
      vertex 19 6 30
    endloop
  endfacet
  facet normal 0 0 1
    outer loop
      vertex -15.5 25 30
      vertex -15.5 35 30
      vertex -19 37 30
    endloop
  endfacet
  facet normal 0 0 1
    outer loop
      vertex -19 37 30
      vertex -17 21.5 30
      vertex -15.5 25 30
    endloop
  endfacet
  facet normal 0 0 1
    outer loop
      vertex -15.5 35 30
      vertex 15.5 35 30
      vertex -19 37 30
    endloop
  endfacet
  facet normal 0 0 1
    outer loop
      vertex 19 37 30
      vertex 15.5 35 30
      vertex 17 21.5 30
    endloop
  endfacet
  facet normal 0 0 1
    outer loop
      vertex 19 37 30
      vertex -19 37 30
      vertex 15.5 35 30
    endloop
  endfacet
  facet normal 0 0 1
    outer loop
      vertex 15.5 35 30
      vertex 15.5 25 30
      vertex 17 21.5 30
    endloop
  endfacet
  facet normal 0 0 1
    outer loop
      vertex 15.5 25 30
      vertex -15.5 25 30
      vertex 17 21.5 30
    endloop
  endfacet
  facet normal 0 0 1
    outer loop
      vertex 17 8.5 30
      vertex -17 8.5 30
      vertex 19 6 30
    endloop
  endfacet
  facet normal 0 0 1
    outer loop
      vertex -17 21.5 30
      vertex 17 21.5 30
      vertex -15.5 25 30
    endloop
  endfacet
  facet normal 0 0 1
    outer loop
      vertex -29.75 5 83
      vertex -29.75 -5 83
      vertex -23.75 -5 83
    endloop
  endfacet
  facet normal 0 0 1
    outer loop
      vertex -23.75 1 83
      vertex -29.75 5 83
      vertex -25.75 1 83
    endloop
  endfacet
  facet normal 0 0 1
    outer loop
      vertex -25.75 -1 83
      vertex -29.75 5 83
      vertex -23.75 -5 83
    endloop
  endfacet
  facet normal 0 0 1
    outer loop
      vertex -23.75 -1 83
      vertex -25.75 -1 83
      vertex -23.75 -5 83
    endloop
  endfacet
  facet normal 0 0 1
    outer loop
      vertex -25.75 1 83
      vertex -29.75 5 83
      vertex -25.75 -1 83
    endloop
  endfacet
  facet normal 0 0 1
    outer loop
      vertex -23.75 1 83
      vertex -23.75 5 83
      vertex -29.75 5 83
    endloop
  endfacet
  facet normal 1 0 0
    outer loop
      vertex -23.75 -1 9
      vertex -23.75 -1 83
      vertex -23.75 -5 83
    endloop
  endfacet
  facet normal 1 0 0
    outer loop
      vertex -23.75 -5 9
      vertex -23.75 -1 9
      vertex -23.75 -5 83
    endloop
  endfacet
  facet normal 0 0 1
    outer loop
      vertex 23.75 -5 9
      vertex 23.75 -1 9
      vertex -23.75 -1 9
    endloop
  endfacet
  facet normal 0 0 1
    outer loop
      vertex -23.75 -5 9
      vertex 23.75 -5 9
      vertex -23.75 -1 9
    endloop
  endfacet
  facet normal -1 0 0
    outer loop
      vertex 23.75 -1 83
      vertex 23.75 -1 9
      vertex 23.75 -5 83
    endloop
  endfacet
  facet normal -1 0 0
    outer loop
      vertex 23.75 -5 83
      vertex 23.75 -1 9
      vertex 23.75 -5 9
    endloop
  endfacet
  facet normal 0 0 1
    outer loop
      vertex 23.75 -1 83
      vertex 23.75 -5 83
      vertex 29.75 -5 83
    endloop
  endfacet
  facet normal 0 0 1
    outer loop
      vertex 25.75 -1 83
      vertex 23.75 -1 83
      vertex 29.75 -5 83
    endloop
  endfacet
  facet normal 0 0 1
    outer loop
      vertex 29.75 5 83
      vertex 25.75 1 83
      vertex 29.75 -5 83
    endloop
  endfacet
  facet normal 0 0 1
    outer loop
      vertex 23.75 5 83
      vertex 23.75 1 83
      vertex 29.75 5 83
    endloop
  endfacet
  facet normal 0 0 1
    outer loop
      vertex 23.75 1 83
      vertex 25.75 1 83
      vertex 29.75 5 83
    endloop
  endfacet
  facet normal 0 0 1
    outer loop
      vertex 25.75 1 83
      vertex 25.75 -1 83
      vertex 29.75 -5 83
    endloop
  endfacet
  facet normal 1 0 0
    outer loop
      vertex 29.75 -5 83
      vertex 29.75 -5 2
      vertex 29.75 5 2
    endloop
  endfacet
  facet normal 1 0 0
    outer loop
      vertex 29.75 5 83
      vertex 29.75 -5 83
      vertex 29.75 5 2
    endloop
  endfacet
  facet normal -1 0 0
    outer loop
      vertex 23.75 5 83
      vertex 23.75 5 9
      vertex 23.75 1 83
    endloop
  endfacet
  facet normal -1 0 0
    outer loop
      vertex 23.75 1 83
      vertex 23.75 5 9
      vertex 23.75 1 9
    endloop
  endfacet
  facet normal 0 0 1
    outer loop
      vertex 23.75 1 9
      vertex 23.75 5 9
      vertex -23.75 5 9
    endloop
  endfacet
  facet normal 0 0 1
    outer loop
      vertex -23.75 1 9
      vertex 23.75 1 9
      vertex -23.75 5 9
    endloop
  endfacet
  facet normal 1 0 0
    outer loop
      vertex -23.75 5 9
      vertex -23.75 5 83
      vertex -23.75 1 83
    endloop
  endfacet
  facet normal 1 0 0
    outer loop
      vertex -23.75 1 9
      vertex -23.75 5 9
      vertex -23.75 1 83
    endloop
  endfacet
  facet normal 1 0 0
    outer loop
      vertex -17 21.5 2.25
      vertex -17 21.5 30
      vertex -17 8.5 30
    endloop
  endfacet
  facet normal 1 0 0
    outer loop
      vertex -17 8.5 2.25
      vertex -17 21.5 2.25
      vertex -17 8.5 30
    endloop
  endfacet
  facet normal 0 1 0
    outer loop
      vertex 17 8.5 30
      vertex 17 8.5 2.25
      vertex -17 8.5 30
    endloop
  endfacet
  facet normal 0 1 0
    outer loop
      vertex -17 8.5 30
      vertex 17 8.5 2.25
      vertex -17 8.5 2.25
    endloop
  endfacet
  facet normal -1 0 0
    outer loop
      vertex 17 21.5 30
      vertex 17 21.5 2.25
      vertex 17 8.5 30
    endloop
  endfacet
  facet normal -1 0 0
    outer loop
      vertex 17 8.5 30
      vertex 17 21.5 2.25
      vertex 17 8.5 2.25
    endloop
  endfacet
  facet normal 0 -1 0
    outer loop
      vertex 17 21.5 2.25
      vertex 17 21.5 30
      vertex -17 21.5 30
    endloop
  endfacet
  facet normal 0 -1 0
    outer loop
      vertex -17 21.5 2.25
      vertex 17 21.5 2.25
      vertex -17 21.5 30
    endloop
  endfacet
  facet normal 1 0 0
    outer loop
      vertex -15.5 35 2.25
      vertex -15.5 35 30
      vertex -15.5 25 30
    endloop
  endfacet
  facet normal 1 0 0
    outer loop
      vertex -15.5 25 2.25
      vertex -15.5 35 2.25
      vertex -15.5 25 30
    endloop
  endfacet
  facet normal 0 1 0
    outer loop
      vertex 15.5 25 30
      vertex 15.5 25 2.25
      vertex -15.5 25 30
    endloop
  endfacet
  facet normal 0 1 0
    outer loop
      vertex -15.5 25 30
      vertex 15.5 25 2.25
      vertex -15.5 25 2.25
    endloop
  endfacet
  facet normal -1 0 0
    outer loop
      vertex 15.5 35 30
      vertex 15.5 35 2.25
      vertex 15.5 25 30
    endloop
  endfacet
  facet normal -1 0 0
    outer loop
      vertex 15.5 25 30
      vertex 15.5 35 2.25
      vertex 15.5 25 2.25
    endloop
  endfacet
  facet normal 0 -1 0
    outer loop
      vertex 15.5 35 2.25
      vertex 15.5 35 30
      vertex -15.5 35 30
    endloop
  endfacet
  facet normal 0 -1 0
    outer loop
      vertex -15.5 35 2.25
      vertex 15.5 35 2.25
      vertex -15.5 35 30
    endloop
  endfacet
  facet normal 0 -1 0
    outer loop
      vertex 25.75 1 7.25
      vertex 25.75 1 83
      vertex 23.75 1 83
    endloop
  endfacet
  facet normal 0 -1 0
    outer loop
      vertex -23.75 1 9
      vertex 25.75 1 7.25
      vertex 23.75 1 9
    endloop
  endfacet
  facet normal 0 -1 0
    outer loop
      vertex 23.75 1 9
      vertex 25.75 1 7.25
      vertex 23.75 1 83
    endloop
  endfacet
  facet normal 0 -1 0
    outer loop
      vertex -25.75 1 7.25
      vertex 25.75 1 7.25
      vertex -23.75 1 9
    endloop
  endfacet
  facet normal 0 -1 0
    outer loop
      vertex -25.75 1 83
      vertex -23.75 1 9
      vertex -23.75 1 83
    endloop
  endfacet
  facet normal 0 -1 0
    outer loop
      vertex -25.75 1 7.25
      vertex -23.75 1 9
      vertex -25.75 1 83
    endloop
  endfacet
  facet normal 1 0 0
    outer loop
      vertex -25.75 1 7.25
      vertex -25.75 1 83
      vertex -25.75 -1 83
    endloop
  endfacet
  facet normal 1 0 0
    outer loop
      vertex -25.75 -1 7.25
      vertex -25.75 1 7.25
      vertex -25.75 -1 83
    endloop
  endfacet
  facet normal 0 1 0
    outer loop
      vertex -23.75 -1 83
      vertex -23.75 -1 9
      vertex -25.75 -1 83
    endloop
  endfacet
  facet normal 0 1 0
    outer loop
      vertex -25.75 -1 7.25
      vertex -23.75 -1 9
      vertex 25.75 -1 7.25
    endloop
  endfacet
  facet normal 0 1 0
    outer loop
      vertex 25.75 -1 83
      vertex 23.75 -1 9
      vertex 23.75 -1 83
    endloop
  endfacet
  facet normal 0 1 0
    outer loop
      vertex 25.75 -1 7.25
      vertex 23.75 -1 9
      vertex 25.75 -1 83
    endloop
  endfacet
  facet normal 0 1 0
    outer loop
      vertex -23.75 -1 9
      vertex 23.75 -1 9
      vertex 25.75 -1 7.25
    endloop
  endfacet
  facet normal 0 1 0
    outer loop
      vertex -25.75 -1 83
      vertex -23.75 -1 9
      vertex -25.75 -1 7.25
    endloop
  endfacet
  facet normal -1 0 0
    outer loop
      vertex 25.75 1 83
      vertex 25.75 1 7.25
      vertex 25.75 -1 83
    endloop
  endfacet
  facet normal -1 0 0
    outer loop
      vertex 25.75 -1 83
      vertex 25.75 1 7.25
      vertex 25.75 -1 7.25
    endloop
  endfacet
  facet normal 0 0 1
    outer loop
      vertex 17 8.5 2.25
      vertex 17 21.5 2.25
      vertex -17 21.5 2.25
    endloop
  endfacet
  facet normal 0 0 1
    outer loop
      vertex -17 8.5 2.25
      vertex 17 8.5 2.25
      vertex -17 21.5 2.25
    endloop
  endfacet
  facet normal 0 0 1
    outer loop
      vertex 15.5 25 2.25
      vertex 15.5 35 2.25
      vertex -15.5 35 2.25
    endloop
  endfacet
  facet normal 0 0 1
    outer loop
      vertex -15.5 25 2.25
      vertex 15.5 25 2.25
      vertex -15.5 35 2.25
    endloop
  endfacet
  facet normal 0 0 1
    outer loop
      vertex 25.75 -1 7.25
      vertex 25.75 1 7.25
      vertex -25.75 1 7.25
    endloop
  endfacet
  facet normal 0 0 1
    outer loop
      vertex -25.75 -1 7.25
      vertex 25.75 -1 7.25
      vertex -25.75 1 7.25
    endloop
  endfacet
endsolid OpenSCAD_Model
