solid OpenSCAD_Model
  facet normal 2.22045e-16 0 1
    outer loop
      vertex -18 -10 15
      vertex -18 10 15
      vertex -22 10 15
    endloop
  endfacet
  facet normal 2.22045e-16 0 1
    outer loop
      vertex -22 -10 15
      vertex -18 -10 15
      vertex -22 10 15
    endloop
  endfacet
  facet normal 1 0 -1.77321e-16
    outer loop
      vertex -18 6.42658 6.53648
      vertex -18 10 4
      vertex -18 10 15
    endloop
  endfacet
  facet normal 1 0 -1.77321e-16
    outer loop
      vertex -18 -3.57341 6.53648
      vertex -18 -5 5.5
      vertex -18 10 15
    endloop
  endfacet
  facet normal 1 0 -1.77321e-16
    outer loop
      vertex -18 -10 4
      vertex -18 10 4
      vertex -18 -5 5.5
    endloop
  endfacet
  facet normal 1 0 -1.77321e-16
    outer loop
      vertex -18 4.11832 8.21353
      vertex -18 5.88168 8.21353
      vertex -18 10 15
    endloop
  endfacet
  facet normal 1 0 -1.77321e-16
    outer loop
      vertex -18 -10 15
      vertex -18 -10 4
      vertex -18 -6.42658 6.53648
    endloop
  endfacet
  facet normal 1 0 -1.77321e-16
    outer loop
      vertex -18 -10 15
      vertex -18 -5.88168 8.21353
      vertex -18 10 15
    endloop
  endfacet
  facet normal 1 0 -1.77321e-16
    outer loop
      vertex -18 -10 15
      vertex -18 -6.42658 6.53648
      vertex -18 -5.88168 8.21353
    endloop
  endfacet
  facet normal 1 0 -1.77321e-16
    outer loop
      vertex -18 -5.88168 8.21353
      vertex -18 -4.11832 8.21353
      vertex -18 10 15
    endloop
  endfacet
  facet normal 1 0 -1.77321e-16
    outer loop
      vertex -18 -4.11832 8.21353
      vertex -18 -3.57341 6.53648
      vertex -18 10 15
    endloop
  endfacet
  facet normal 1 0 -1.77321e-16
    outer loop
      vertex -18 -5 5.5
      vertex -18 10 4
      vertex -18 5 5.5
    endloop
  endfacet
  facet normal 1 0 -1.77321e-16
    outer loop
      vertex -18 5.88168 8.21353
      vertex -18 6.42658 6.53648
      vertex -18 10 15
    endloop
  endfacet
  facet normal 1 0 -1.77321e-16
    outer loop
      vertex -18 -5 5.5
      vertex -18 5 5.5
      vertex -18 3.57341 6.53648
    endloop
  endfacet
  facet normal 1 0 -1.77321e-16
    outer loop
      vertex -18 -5 5.5
      vertex -18 4.11832 8.21353
      vertex -18 10 15
    endloop
  endfacet
  facet normal 1 0 -1.77321e-16
    outer loop
      vertex -18 -5 5.5
      vertex -18 3.57341 6.53648
      vertex -18 4.11832 8.21353
    endloop
  endfacet
  facet normal 1 0 -1.77321e-16
    outer loop
      vertex -18 5 5.5
      vertex -18 10 4
      vertex -18 6.42658 6.53648
    endloop
  endfacet
  facet normal 1 0 -1.77321e-16
    outer loop
      vertex -18 -5 5.5
      vertex -18 -6.42658 6.53648
      vertex -18 -10 4
    endloop
  endfacet
  facet normal 0 -1 0
    outer loop
      vertex -18 -10 4
      vertex -22 -10 4.88498e-15
      vertex -2.65982e-15 -10 0
    endloop
  endfacet
  facet normal 0 -1 0
    outer loop
      vertex -2.65982e-15 -10 0
      vertex -2.65982e-15 -10 2.22045e-15
      vertex -7.32913e-15 -10 2.22045e-15
    endloop
  endfacet
  facet normal 0 -1 0
    outer loop
      vertex -18 -10 4
      vertex -2.65982e-15 -10 0
      vertex -7.32913e-15 -10 2.22045e-15
    endloop
  endfacet
  facet normal 0 -1 0
    outer loop
      vertex -2.30518e-15 -10 2
      vertex -1.95053e-15 -10 4
      vertex -7.32913e-15 -10 2.22045e-15
    endloop
  endfacet
  facet normal 0 -1 0
    outer loop
      vertex -1.95053e-15 -10 4
      vertex -18 -10 4
      vertex -7.32913e-15 -10 2.22045e-15
    endloop
  endfacet
  facet normal 0 -1 0
    outer loop
      vertex -18 -10 15
      vertex -22 -10 15
      vertex -18 -10 4
    endloop
  endfacet
  facet normal 0 -1 0
    outer loop
      vertex -22 -10 15
      vertex -22 -10 4.88498e-15
      vertex -18 -10 4
    endloop
  endfacet
  facet normal -1 0 1.77321e-16
    outer loop
      vertex -22 -5 5.5
      vertex -22 10 15
      vertex -22 -10 4.88498e-15
    endloop
  endfacet
  facet normal -1 0 1.77321e-16
    outer loop
      vertex -22 6.42658 6.53648
      vertex -22 10 15
      vertex -22 10 4.88498e-15
    endloop
  endfacet
  facet normal -1 0 1.77321e-16
    outer loop
      vertex -22 -3.57341 6.53648
      vertex -22 10 15
      vertex -22 -5 5.5
    endloop
  endfacet
  facet normal -1 0 1.77321e-16
    outer loop
      vertex -22 -6.42658 6.53648
      vertex -22 -5 5.5
      vertex -22 -10 4.88498e-15
    endloop
  endfacet
  facet normal -1 0 1.77321e-16
    outer loop
      vertex -22 -4.11832 8.21353
      vertex -22 10 15
      vertex -22 -3.57341 6.53648
    endloop
  endfacet
  facet normal -1 0 1.77321e-16
    outer loop
      vertex -22 -10 15
      vertex -22 10 15
      vertex -22 -4.11832 8.21353
    endloop
  endfacet
  facet normal -1 0 1.77321e-16
    outer loop
      vertex -22 -6.42658 6.53648
      vertex -22 -10 15
      vertex -22 -5.88168 8.21353
    endloop
  endfacet
  facet normal -1 0 1.77321e-16
    outer loop
      vertex -22 5.88168 8.21353
      vertex -22 10 15
      vertex -22 6.42658 6.53648
    endloop
  endfacet
  facet normal -1 0 1.77321e-16
    outer loop
      vertex -22 -10 15
      vertex -22 -6.42658 6.53648
      vertex -22 -10 4.88498e-15
    endloop
  endfacet
  facet normal -1 0 1.77321e-16
    outer loop
      vertex -22 3.57341 6.53648
      vertex -22 -10 4.88498e-15
      vertex -22 4.11832 8.21353
    endloop
  endfacet
  facet normal -1 0 1.77321e-16
    outer loop
      vertex -22 -10 4.88498e-15
      vertex -22 5 5.5
      vertex -22 10 4.88498e-15
    endloop
  endfacet
  facet normal -1 0 1.77321e-16
    outer loop
      vertex -22 5 5.5
      vertex -22 6.42658 6.53648
      vertex -22 10 4.88498e-15
    endloop
  endfacet
  facet normal -1 0 1.77321e-16
    outer loop
      vertex -22 4.11832 8.21353
      vertex -22 10 15
      vertex -22 5.88168 8.21353
    endloop
  endfacet
  facet normal -1 0 1.77321e-16
    outer loop
      vertex -22 -10 4.88498e-15
      vertex -22 10 15
      vertex -22 4.11832 8.21353
    endloop
  endfacet
  facet normal -1 0 1.77321e-16
    outer loop
      vertex -22 -10 4.88498e-15
      vertex -22 3.57341 6.53648
      vertex -22 5 5.5
    endloop
  endfacet
  facet normal -1 0 1.77321e-16
    outer loop
      vertex -22 -5.88168 8.21353
      vertex -22 -10 15
      vertex -22 -4.11832 8.21353
    endloop
  endfacet
  facet normal 0 1 0
    outer loop
      vertex -5.73167e-15 10 4
      vertex -2.65982e-15 10 0
      vertex -18 10 4
    endloop
  endfacet
  facet normal 0 1 0
    outer loop
      vertex -22 10 4.88498e-15
      vertex -22 10 15
      vertex -18 10 4
    endloop
  endfacet
  facet normal 0 1 0
    outer loop
      vertex -22 10 4.88498e-15
      vertex -18 10 4
      vertex -2.65982e-15 10 0
    endloop
  endfacet
  facet normal 0 1 0
    outer loop
      vertex -2.65982e-15 10 0
      vertex -5.73167e-15 10 4
      vertex -2.30518e-15 10 2
    endloop
  endfacet
  facet normal 0 1 0
    outer loop
      vertex -18 10 4
      vertex -22 10 15
      vertex -18 10 15
    endloop
  endfacet
  facet normal 0 1 0
    outer loop
      vertex -1.95053e-15 10 4
      vertex -5.73167e-15 10 4
      vertex -18 10 4
    endloop
  endfacet
  facet normal 2.22045e-16 0 1
    outer loop
      vertex -4.06737 -9.13545 4
      vertex -17.5 -5 4
      vertex -2.07912 -9.78148 4
    endloop
  endfacet
  facet normal 2.22045e-16 0 1
    outer loop
      vertex -5.87785 -8.09017 4
      vertex -17.5 -5 4
      vertex -4.06737 -9.13545 4
    endloop
  endfacet
  facet normal 2.22045e-16 0 1
    outer loop
      vertex -18 -10 4
      vertex -1.95053e-15 -10 4
      vertex -2.07912 -9.78148 4
    endloop
  endfacet
  facet normal 2.22045e-16 0 1
    outer loop
      vertex -7.43145 -6.69131 4
      vertex -17.5 -5 4
      vertex -5.87785 -8.09017 4
    endloop
  endfacet
  facet normal 2.22045e-16 0 1
    outer loop
      vertex -17.5 -5 4
      vertex -18 -10 4
      vertex -2.07912 -9.78148 4
    endloop
  endfacet
  facet normal 2.22045e-16 0 1
    outer loop
      vertex -8.66025 -5 4
      vertex -17.5 -5 4
      vertex -7.43145 -6.69131 4
    endloop
  endfacet
  facet normal 2.22045e-16 0 1
    outer loop
      vertex -17.5 5 4
      vertex -18 10 4
      vertex -17.5 -5 4
    endloop
  endfacet
  facet normal 2.22045e-16 0 1
    outer loop
      vertex -8.66025 5 4
      vertex -7.43145 6.69131 4
      vertex -17.5 5 4
    endloop
  endfacet
  facet normal 2.22045e-16 0 1
    outer loop
      vertex -7.43145 6.69131 4
      vertex -7.04198 7.04198 4
      vertex -17.5 5 4
    endloop
  endfacet
  facet normal 2.22045e-16 0 1
    outer loop
      vertex -7.04198 7.04198 4
      vertex -1.95053e-15 10 4
      vertex -17.5 5 4
    endloop
  endfacet
  facet normal 2.22045e-16 0 1
    outer loop
      vertex -4.54804 4.54804 4
      vertex -3.66158 5.37055 4
      vertex -7.04198 7.04198 4
    endloop
  endfacet
  facet normal 2.22045e-16 0 1
    outer loop
      vertex -3.66158 5.37055 4
      vertex -1.91591 6.21122 4
      vertex -7.04198 7.04198 4
    endloop
  endfacet
  facet normal 2.22045e-16 0 1
    outer loop
      vertex -1.91591 6.21122 4
      vertex -2.06156e-15 6.5 4
      vertex -7.04198 7.04198 4
    endloop
  endfacet
  facet normal 2.22045e-16 0 1
    outer loop
      vertex -2.06156e-15 6.5 4
      vertex -1.95053e-15 10 4
      vertex -7.04198 7.04198 4
    endloop
  endfacet
  facet normal 2.22045e-16 0 1
    outer loop
      vertex -1.95053e-15 6.5 4
      vertex -1.95053e-15 10 4
      vertex -2.06156e-15 6.5 4
    endloop
  endfacet
  facet normal 2.22045e-16 0 1
    outer loop
      vertex -1.95053e-15 10 4
      vertex -18 10 4
      vertex -17.5 5 4
    endloop
  endfacet
  facet normal 2.22045e-16 0 1
    outer loop
      vertex -18 10 4
      vertex -18 -10 4
      vertex -17.5 -5 4
    endloop
  endfacet
  facet normal 1.79638e-16 -0.587785 0.809017
    outer loop
      vertex -18 -5 5.5
      vertex -18 -3.57341 6.53648
      vertex -22 -3.57341 6.53648
    endloop
  endfacet
  facet normal 1.79638e-16 -0.587785 0.809017
    outer loop
      vertex -22 -5 5.5
      vertex -18 -5 5.5
      vertex -22 -3.57341 6.53648
    endloop
  endfacet
  facet normal 1.79638e-16 0.587785 0.809017
    outer loop
      vertex -18 -5 5.5
      vertex -22 -5 5.5
      vertex -22 -6.42658 6.53648
    endloop
  endfacet
  facet normal 1.79638e-16 0.587785 0.809017
    outer loop
      vertex -18 -6.42658 6.53648
      vertex -18 -5 5.5
      vertex -22 -6.42658 6.53648
    endloop
  endfacet
  facet normal -6.86156e-17 -0.951056 -0.309017
    outer loop
      vertex -18 -3.57341 6.53648
      vertex -18 -4.11832 8.21353
      vertex -22 -4.11832 8.21353
    endloop
  endfacet
  facet normal -6.86156e-17 -0.951056 -0.309017
    outer loop
      vertex -22 -3.57341 6.53648
      vertex -18 -3.57341 6.53648
      vertex -22 -4.11832 8.21353
    endloop
  endfacet
  facet normal -2.22045e-16 0 -1
    outer loop
      vertex -22 -5.88168 8.21353
      vertex -22 -4.11832 8.21353
      vertex -18 -5.88168 8.21353
    endloop
  endfacet
  facet normal -2.22045e-16 0 -1
    outer loop
      vertex -18 -5.88168 8.21353
      vertex -22 -4.11832 8.21353
      vertex -18 -4.11832 8.21353
    endloop
  endfacet
  facet normal -6.86156e-17 0.951056 -0.309017
    outer loop
      vertex -22 -6.42658 6.53648
      vertex -22 -5.88168 8.21353
      vertex -18 -6.42658 6.53648
    endloop
  endfacet
  facet normal -6.86156e-17 0.951056 -0.309017
    outer loop
      vertex -18 -6.42658 6.53648
      vertex -22 -5.88168 8.21353
      vertex -18 -5.88168 8.21353
    endloop
  endfacet
  facet normal 1.79638e-16 -0.587785 0.809017
    outer loop
      vertex -18 5 5.5
      vertex -18 6.42658 6.53648
      vertex -22 6.42658 6.53648
    endloop
  endfacet
  facet normal 1.79638e-16 -0.587785 0.809017
    outer loop
      vertex -22 5 5.5
      vertex -18 5 5.5
      vertex -22 6.42658 6.53648
    endloop
  endfacet
  facet normal 1.79638e-16 0.587785 0.809017
    outer loop
      vertex -18 5 5.5
      vertex -22 5 5.5
      vertex -22 3.57341 6.53648
    endloop
  endfacet
  facet normal 1.79638e-16 0.587785 0.809017
    outer loop
      vertex -18 3.57341 6.53648
      vertex -18 5 5.5
      vertex -22 3.57341 6.53648
    endloop
  endfacet
  facet normal -6.86156e-17 -0.951056 -0.309017
    outer loop
      vertex -18 6.42658 6.53648
      vertex -18 5.88168 8.21353
      vertex -22 5.88168 8.21353
    endloop
  endfacet
  facet normal -6.86156e-17 -0.951056 -0.309017
    outer loop
      vertex -22 6.42658 6.53648
      vertex -18 6.42658 6.53648
      vertex -22 5.88168 8.21353
    endloop
  endfacet
  facet normal -2.22045e-16 0 -1
    outer loop
      vertex -22 4.11832 8.21353
      vertex -22 5.88168 8.21353
      vertex -18 4.11832 8.21353
    endloop
  endfacet
  facet normal -2.22045e-16 0 -1
    outer loop
      vertex -18 4.11832 8.21353
      vertex -22 5.88168 8.21353
      vertex -18 5.88168 8.21353
    endloop
  endfacet
  facet normal -6.86156e-17 0.951056 -0.309017
    outer loop
      vertex -22 3.57341 6.53648
      vertex -22 4.11832 8.21353
      vertex -18 3.57341 6.53648
    endloop
  endfacet
  facet normal -6.86156e-17 0.951056 -0.309017
    outer loop
      vertex -18 3.57341 6.53648
      vertex -22 4.11832 8.21353
      vertex -18 4.11832 8.21353
    endloop
  endfacet
  facet normal -2.22045e-16 0 -1
    outer loop
      vertex -3.10391e-15 10 9.86076e-32
      vertex -22 10 4.88498e-15
      vertex -2.65982e-15 10 0
    endloop
  endfacet
  facet normal -2.22045e-16 0 -1
    outer loop
      vertex -4.06737 9.13545 9.03137e-16
      vertex -22 10 4.88498e-15
      vertex -2.07912 9.78148 4.61657e-16
    endloop
  endfacet
  facet normal -2.22045e-16 0 -1
    outer loop
      vertex -5.87785 8.09017 1.30515e-15
      vertex -22 10 4.88498e-15
      vertex -4.06737 9.13545 9.03137e-16
    endloop
  endfacet
  facet normal -2.22045e-16 0 -1
    outer loop
      vertex -7.04198 7.04198 1.56363e-15
      vertex -22 10 4.88498e-15
      vertex -5.87785 8.09017 1.30515e-15
    endloop
  endfacet
  facet normal -2.22045e-16 0 -1
    outer loop
      vertex -6.5 5 1.44329e-15
      vertex -22 10 4.88498e-15
      vertex -7.04198 7.04198 1.56363e-15
    endloop
  endfacet
  facet normal -2.22045e-16 0 -1
    outer loop
      vertex -3.74007 -1.41842 8.30461e-16
      vertex -7.04198 7.04198 1.56363e-15
      vertex -3.97084 0.482147 8.81702e-16
    endloop
  endfacet
  facet normal -2.22045e-16 0 -1
    outer loop
      vertex -2.65249 -2.99404 5.88971e-16
      vertex -2.65982e-15 -10 0
      vertex -3.74007 -1.41842 8.30461e-16
    endloop
  endfacet
  facet normal -2.22045e-16 0 -1
    outer loop
      vertex -0.957263 -3.88377 2.12555e-16
      vertex -2.65982e-15 -10 0
      vertex -2.65249 -2.99404 5.88971e-16
    endloop
  endfacet
  facet normal -2.22045e-16 0 -1
    outer loop
      vertex -2.65982e-15 -3.88377 0
      vertex -2.65982e-15 -10 0
      vertex -0.957263 -3.88377 2.12555e-16
    endloop
  endfacet
  facet normal -2.22045e-16 0 -1
    outer loop
      vertex -6.5 5 1.44329e-15
      vertex -3.74007 -1.41842 8.30461e-16
      vertex -6.5 -5 1.44329e-15
    endloop
  endfacet
  facet normal -2.22045e-16 0 -1
    outer loop
      vertex -3.74007 -1.41842 8.30461e-16
      vertex -2.65982e-15 -10 0
      vertex -6.5 -5 1.44329e-15
    endloop
  endfacet
  facet normal -2.22045e-16 0 -1
    outer loop
      vertex -22 -10 4.88498e-15
      vertex -6.5 -5 1.44329e-15
      vertex -2.65982e-15 -10 0
    endloop
  endfacet
  facet normal -2.22045e-16 0 -1
    outer loop
      vertex -17.5 5 3.88578e-15
      vertex -22 10 4.88498e-15
      vertex -6.5 5 1.44329e-15
    endloop
  endfacet
  facet normal -2.22045e-16 0 -1
    outer loop
      vertex -3.74007 -1.41842 8.30461e-16
      vertex -6.5 5 1.44329e-15
      vertex -7.04198 7.04198 1.56363e-15
    endloop
  endfacet
  facet normal -2.22045e-16 0 -1
    outer loop
      vertex -22 -10 4.88498e-15
      vertex -22 10 4.88498e-15
      vertex -17.5 5 3.88578e-15
    endloop
  endfacet
  facet normal -2.22045e-16 0 -1
    outer loop
      vertex -22 -10 4.88498e-15
      vertex -17.5 5 3.88578e-15
      vertex -17.5 -5 3.88578e-15
    endloop
  endfacet
  facet normal -2.22045e-16 0 -1
    outer loop
      vertex -22 -10 4.88498e-15
      vertex -17.5 -5 3.88578e-15
      vertex -6.5 -5 1.44329e-15
    endloop
  endfacet
  facet normal -2.22045e-16 0 -1
    outer loop
      vertex -2.07912 9.78148 4.61657e-16
      vertex -22 10 4.88498e-15
      vertex -3.10391e-15 10 9.86076e-32
    endloop
  endfacet
  facet normal -2.22045e-16 0 -1
    outer loop
      vertex -3.29194 2.27226 7.30956e-16
      vertex -3.97084 0.482147 8.81702e-16
      vertex -7.04198 7.04198 1.56363e-15
    endloop
  endfacet
  facet normal -2.22045e-16 0 -1
    outer loop
      vertex -2.75126 2.75126 6.10902e-16
      vertex -3.29194 2.27226 7.30956e-16
      vertex -7.04198 7.04198 1.56363e-15
    endloop
  endfacet
  facet normal 1 0 -1.77321e-16
    outer loop
      vertex -2.65982e-15 -10 0
      vertex -2.65982e-15 -3.88377 0
      vertex -2.65982e-15 -3.88377 8.6237e-16
    endloop
  endfacet
  facet normal 1 0 -1.77321e-16
    outer loop
      vertex -2.65982e-15 -10 2.22045e-15
      vertex -2.65982e-15 -10 0
      vertex -2.65982e-15 -3.88377 8.6237e-16
    endloop
  endfacet
  facet normal -0.104528 -0.994522 2.62573e-16
    outer loop
      vertex -1.95053e-15 -10 4
      vertex -1.50644e-15 -10 4
      vertex -2.07912 -9.78148 4
    endloop
  endfacet
  facet normal -0.104528 -0.994522 2.62573e-16
    outer loop
      vertex -2.30518e-15 -10 2
      vertex -1.50644e-15 -10 4
      vertex -1.95053e-15 -10 4
    endloop
  endfacet
  facet normal 0.104528 -0.994522 1.79083e-16
    outer loop
      vertex 2.07912 -9.78148 1.24861e-15
      vertex 2.07912 -9.78148 4
      vertex -1.50644e-15 -10 4
    endloop
  endfacet
  facet normal 0.104528 -0.994522 1.79083e-16
    outer loop
      vertex -3.10391e-15 -10 2.22045e-15
      vertex 2.07912 -9.78148 1.24861e-15
      vertex -2.30518e-15 -10 2
    endloop
  endfacet
  facet normal 0.104528 -0.994522 1.79083e-16
    outer loop
      vertex -2.30518e-15 -10 2
      vertex 2.07912 -9.78148 1.24861e-15
      vertex -1.50644e-15 -10 4
    endloop
  endfacet
  facet normal -0.104528 -0.994522 2.62573e-16
    outer loop
      vertex -3.10391e-15 -10 2.22045e-15
      vertex -2.30518e-15 -10 2
      vertex -7.32913e-15 -10 2.22045e-15
    endloop
  endfacet
  facet normal -4.44089e-16 -2.22045e-16 -1
    outer loop
      vertex 8.66025 5 -4.95615e-15
      vertex 9.51056 3.09017 -4.90969e-15
      vertex 7.43145 6.69131 -4.78599e-15
    endloop
  endfacet
  facet normal -4.44089e-16 -2.22045e-16 -1
    outer loop
      vertex 7.43145 6.69131 -4.78599e-15
      vertex 9.51056 3.09017 -4.90969e-15
      vertex 9.94522 1.04528 -4.64866e-15
    endloop
  endfacet
  facet normal -4.44089e-16 -2.22045e-16 -1
    outer loop
      vertex 7.43145 6.69131 -4.78599e-15
      vertex 9.94522 1.04528 -4.64866e-15
      vertex 9.94522 -1.04529 -4.18446e-15
    endloop
  endfacet
  facet normal -4.44089e-16 -2.22045e-16 -1
    outer loop
      vertex 7.43145 6.69131 -4.78599e-15
      vertex 9.94522 -1.04529 -4.18446e-15
      vertex 9.51056 -3.09017 -3.53738e-15
    endloop
  endfacet
  facet normal -4.44089e-16 -2.22045e-16 -1
    outer loop
      vertex 7.43145 6.69131 -4.78599e-15
      vertex 9.51056 -3.09017 -3.53738e-15
      vertex 8.66025 -5 -2.7357e-15
    endloop
  endfacet
  facet normal -4.44089e-16 -2.22045e-16 -1
    outer loop
      vertex 7.43145 6.69131 -4.78599e-15
      vertex 8.66025 -5 -2.7357e-15
      vertex 7.43145 -6.69131 -1.81446e-15
    endloop
  endfacet
  facet normal -4.44089e-16 -2.22045e-16 -1
    outer loop
      vertex 7.43145 6.69131 -4.78599e-15
      vertex 7.43145 -6.69131 -1.81446e-15
      vertex 5.87785 -8.09017 -8.13912e-16
    endloop
  endfacet
  facet normal -4.44089e-16 -2.22045e-16 -1
    outer loop
      vertex 7.43145 6.69131 -4.78599e-15
      vertex 5.87785 -8.09017 -8.13912e-16
      vertex 4.06737 -9.13546 2.22205e-16
    endloop
  endfacet
  facet normal -4.44089e-16 -2.22045e-16 -1
    outer loop
      vertex 7.43145 6.69131 -4.78599e-15
      vertex 4.06737 -9.13546 2.22205e-16
      vertex 2.07912 -9.78148 1.24861e-15
    endloop
  endfacet
  facet normal -4.44089e-16 -2.22045e-16 -1
    outer loop
      vertex -2.65982e-15 -10 2.22045e-15
      vertex 2.07912 -9.78148 1.24861e-15
      vertex -3.10391e-15 -10 2.22045e-15
    endloop
  endfacet
  facet normal -4.44089e-16 -2.22045e-16 -1
    outer loop
      vertex 2.65249 -2.99404 -5.13132e-16
      vertex 3.74006 -1.41842 -1.34597e-15
      vertex -2.65982e-15 -10 2.22045e-15
    endloop
  endfacet
  facet normal -4.44089e-16 -2.22045e-16 -1
    outer loop
      vertex 7.43145 6.69131 -4.78599e-15
      vertex 2.07912 -9.78148 1.24861e-15
      vertex -2.65982e-15 -10 2.22045e-15
    endloop
  endfacet
  facet normal -4.44089e-16 -2.22045e-16 -1
    outer loop
      vertex 3.74006 -1.41842 -1.34597e-15
      vertex 7.43145 6.69131 -4.78599e-15
      vertex -2.65982e-15 -10 2.22045e-15
    endloop
  endfacet
  facet normal -4.44089e-16 -2.22045e-16 -1
    outer loop
      vertex 3.97083 0.482147 -1.87046e-15
      vertex 7.43145 6.69131 -4.78599e-15
      vertex 3.74006 -1.41842 -1.34597e-15
    endloop
  endfacet
  facet normal -4.44089e-16 -2.22045e-16 -1
    outer loop
      vertex 3.29193 2.27226 -1.96646e-15
      vertex 7.43145 6.69131 -4.78599e-15
      vertex 3.97083 0.482147 -1.87046e-15
    endloop
  endfacet
  facet normal -4.44089e-16 -2.22045e-16 -1
    outer loop
      vertex 7.43145 6.69131 -4.78599e-15
      vertex 3.29193 2.27226 -1.96646e-15
      vertex 1.85889 3.54182 -1.61196e-15
    endloop
  endfacet
  facet normal -4.44089e-16 -2.22045e-16 -1
    outer loop
      vertex 1.85889 3.54182 -1.61196e-15
      vertex -2.65982e-15 4 -8.88178e-16
      vertex 7.43145 6.69131 -4.78599e-15
    endloop
  endfacet
  facet normal -4.44089e-16 -2.22045e-16 -1
    outer loop
      vertex -2.65982e-15 4 -8.88178e-16
      vertex -1.85889 3.54182 3.90714e-17
      vertex 7.43145 6.69131 -4.78599e-15
    endloop
  endfacet
  facet normal -4.44089e-16 -2.22045e-16 -1
    outer loop
      vertex -1.85889 3.54182 3.90714e-17
      vertex -2.75126 2.75126 6.10902e-16
      vertex -7.04198 7.04198 1.56363e-15
    endloop
  endfacet
  facet normal -4.44089e-16 -2.22045e-16 -1
    outer loop
      vertex -1.85889 3.54182 3.90714e-17
      vertex -7.04198 7.04198 1.56363e-15
      vertex 7.43145 6.69131 -4.78599e-15
    endloop
  endfacet
  facet normal -4.44089e-16 -2.22045e-16 -1
    outer loop
      vertex 7.43145 6.69131 -4.78599e-15
      vertex -7.04198 7.04198 1.56363e-15
      vertex -5.87785 8.09017 8.13912e-16
    endloop
  endfacet
  facet normal -4.44089e-16 -2.22045e-16 -1
    outer loop
      vertex 7.43145 6.69131 -4.78599e-15
      vertex -5.87785 8.09017 8.13912e-16
      vertex -4.06737 9.13545 -2.22205e-16
    endloop
  endfacet
  facet normal -4.44089e-16 -2.22045e-16 -1
    outer loop
      vertex 7.43145 6.69131 -4.78599e-15
      vertex -4.06737 9.13545 -2.22205e-16
      vertex -2.07912 9.78148 -1.24861e-15
    endloop
  endfacet
  facet normal -4.44089e-16 -2.22045e-16 -1
    outer loop
      vertex 7.43145 6.69131 -4.78599e-15
      vertex -2.07912 9.78148 -1.24861e-15
      vertex -3.10391e-15 10 -2.22045e-15
    endloop
  endfacet
  facet normal -4.44089e-16 -2.22045e-16 -1
    outer loop
      vertex 7.43145 6.69131 -4.78599e-15
      vertex -3.10391e-15 10 -2.22045e-15
      vertex 2.07912 9.78148 -3.09524e-15
    endloop
  endfacet
  facet normal -4.44089e-16 -2.22045e-16 -1
    outer loop
      vertex 7.43145 6.69131 -4.78599e-15
      vertex 2.07912 9.78148 -3.09524e-15
      vertex 4.06737 9.13545 -3.83475e-15
    endloop
  endfacet
  facet normal -4.44089e-16 -2.22045e-16 -1
    outer loop
      vertex 7.43145 6.69131 -4.78599e-15
      vertex 4.06737 9.13545 -3.83475e-15
      vertex 5.87785 8.09017 -4.40667e-15
    endloop
  endfacet
  facet normal -4.44089e-16 -2.22045e-16 -1
    outer loop
      vertex -2.65982e-15 -10 2.22045e-15
      vertex -3.10391e-15 -10 2.22045e-15
      vertex -7.32913e-15 -10 2.22045e-15
    endloop
  endfacet
  facet normal -4.44089e-16 -2.22045e-16 -1
    outer loop
      vertex 0.957263 -3.88377 4.37259e-16
      vertex 2.65249 -2.99404 -5.13132e-16
      vertex -2.65982e-15 -10 2.22045e-15
    endloop
  endfacet
  facet normal -4.44089e-16 -2.22045e-16 -1
    outer loop
      vertex -2.65982e-15 -3.88377 8.6237e-16
      vertex 0.957263 -3.88377 4.37259e-16
      vertex -2.65982e-15 -10 2.22045e-15
    endloop
  endfacet
  facet normal 0.104528 0.994522 -2.62573e-16
    outer loop
      vertex -3.10391e-15 10 -2.22045e-15
      vertex -3.10391e-15 10 9.86076e-32
      vertex 2.07912 9.78148 -3.09524e-15
    endloop
  endfacet
  facet normal 0.104528 0.994522 -2.62573e-16
    outer loop
      vertex 2.07912 9.78148 -3.09524e-15
      vertex -3.10391e-15 10 9.86076e-32
      vertex -2.65982e-15 10 0
    endloop
  endfacet
  facet normal 0.104528 0.994522 -2.62573e-16
    outer loop
      vertex 2.07912 9.78148 -3.09524e-15
      vertex -2.65982e-15 10 0
      vertex -2.30518e-15 10 2
    endloop
  endfacet
  facet normal 0.104528 0.994522 -2.62573e-16
    outer loop
      vertex 2.07912 9.78148 -3.09524e-15
      vertex -2.30518e-15 10 2
      vertex -1.50644e-15 10 4
    endloop
  endfacet
  facet normal 0.104528 0.994522 -2.62573e-16
    outer loop
      vertex 2.07912 9.78148 -3.09524e-15
      vertex -1.50644e-15 10 4
      vertex 2.07912 9.78148 4
    endloop
  endfacet
  facet normal -0.104528 0.994522 -1.79083e-16
    outer loop
      vertex -2.30518e-15 10 2
      vertex -5.73167e-15 10 4
      vertex -1.50644e-15 10 4
    endloop
  endfacet
  facet normal 4.44089e-16 2.22045e-16 1
    outer loop
      vertex 7.43145 6.69131 4
      vertex 5.87785 8.09017 4
      vertex 4.06737 9.13546 4
    endloop
  endfacet
  facet normal 4.44089e-16 2.22045e-16 1
    outer loop
      vertex -1.50644e-15 10 4
      vertex 7.43145 6.69131 4
      vertex 2.07912 9.78148 4
    endloop
  endfacet
  facet normal 4.44089e-16 2.22045e-16 1
    outer loop
      vertex 2.07912 9.78148 4
      vertex 7.43145 6.69131 4
      vertex 4.06737 9.13546 4
    endloop
  endfacet
  facet normal 4.44089e-16 2.22045e-16 1
    outer loop
      vertex -1.95053e-15 10 4
      vertex 7.43145 6.69131 4
      vertex -1.50644e-15 10 4
    endloop
  endfacet
  facet normal 4.44089e-16 2.22045e-16 1
    outer loop
      vertex -5.73167e-15 10 4
      vertex -1.95053e-15 10 4
      vertex -1.50644e-15 10 4
    endloop
  endfacet
  facet normal 4.44089e-16 2.22045e-16 1
    outer loop
      vertex -4.54804 4.54804 4
      vertex -7.04198 7.04198 4
      vertex -5.08191 4.05268 4
    endloop
  endfacet
  facet normal 4.44089e-16 2.22045e-16 1
    outer loop
      vertex 1.91591 6.21122 4
      vertex 7.43145 6.69131 4
      vertex -1.95053e-15 6.5 4
    endloop
  endfacet
  facet normal 4.44089e-16 2.22045e-16 1
    outer loop
      vertex 3.66158 5.37055 4
      vertex 7.43145 6.69131 4
      vertex 1.91591 6.21122 4
    endloop
  endfacet
  facet normal 4.44089e-16 2.22045e-16 1
    outer loop
      vertex 5.0819 4.05268 4
      vertex 7.43145 6.69131 4
      vertex 3.66158 5.37055 4
    endloop
  endfacet
  facet normal 4.44089e-16 2.22045e-16 1
    outer loop
      vertex 6.05068 2.37472 4
      vertex 7.43145 6.69131 4
      vertex 5.0819 4.05268 4
    endloop
  endfacet
  facet normal 4.44089e-16 2.22045e-16 1
    outer loop
      vertex 6.48182 0.485746 4
      vertex 7.43145 6.69131 4
      vertex 6.05068 2.37472 4
    endloop
  endfacet
  facet normal 4.44089e-16 2.22045e-16 1
    outer loop
      vertex 6.33703 -1.44639 4
      vertex 7.43145 6.69131 4
      vertex 6.48182 0.485746 4
    endloop
  endfacet
  facet normal 4.44089e-16 2.22045e-16 1
    outer loop
      vertex 5.87785 -8.09017 4
      vertex 7.43145 6.69131 4
      vertex 6.33703 -1.44639 4
    endloop
  endfacet
  facet normal 4.44089e-16 2.22045e-16 1
    outer loop
      vertex 4.06737 -9.13545 4
      vertex 6.33703 -1.44639 4
      vertex 5.62916 -3.25 4
    endloop
  endfacet
  facet normal 4.44089e-16 2.22045e-16 1
    outer loop
      vertex 2.07912 -9.78148 4
      vertex 5.62916 -3.25 4
      vertex 4.42112 -4.76484 4
    endloop
  endfacet
  facet normal 4.44089e-16 2.22045e-16 1
    outer loop
      vertex -2.07912 -9.78148 4
      vertex 4.42112 -4.76484 4
      vertex 2.82024 -5.8563 4
    endloop
  endfacet
  facet normal 4.44089e-16 2.22045e-16 1
    outer loop
      vertex -4.06737 -9.13545 4
      vertex 2.82024 -5.8563 4
      vertex 0.968775 -6.4274 4
    endloop
  endfacet
  facet normal 4.44089e-16 2.22045e-16 1
    outer loop
      vertex -7.43145 -6.69131 4
      vertex 0.968775 -6.4274 4
      vertex -0.968775 -6.4274 4
    endloop
  endfacet
  facet normal 4.44089e-16 2.22045e-16 1
    outer loop
      vertex -6.5 -5 4
      vertex -0.968775 -6.4274 4
      vertex -2.82024 -5.8563 4
    endloop
  endfacet
  facet normal 4.44089e-16 2.22045e-16 1
    outer loop
      vertex -6.5 -5 4
      vertex -2.82024 -5.8563 4
      vertex -4.42112 -4.76484 4
    endloop
  endfacet
  facet normal 4.44089e-16 2.22045e-16 1
    outer loop
      vertex -6.5 -5 4
      vertex -4.42112 -4.76484 4
      vertex -5.62917 -3.25 4
    endloop
  endfacet
  facet normal 4.44089e-16 2.22045e-16 1
    outer loop
      vertex -6.5 -5 4
      vertex -5.62917 -3.25 4
      vertex -6.33703 -1.44639 4
    endloop
  endfacet
  facet normal 4.44089e-16 2.22045e-16 1
    outer loop
      vertex -6.5 5 4
      vertex -6.5 -5 4
      vertex -6.48183 0.485746 4
    endloop
  endfacet
  facet normal 4.44089e-16 2.22045e-16 1
    outer loop
      vertex -6.48183 0.485746 4
      vertex -6.5 -5 4
      vertex -6.33703 -1.44639 4
    endloop
  endfacet
  facet normal 4.44089e-16 2.22045e-16 1
    outer loop
      vertex -6.5 5 4
      vertex -6.48183 0.485746 4
      vertex -6.05068 2.37472 4
    endloop
  endfacet
  facet normal 4.44089e-16 2.22045e-16 1
    outer loop
      vertex -6.5 5 4
      vertex -6.05068 2.37472 4
      vertex -5.08191 4.05268 4
    endloop
  endfacet
  facet normal 4.44089e-16 2.22045e-16 1
    outer loop
      vertex -7.04198 7.04198 4
      vertex -6.5 5 4
      vertex -5.08191 4.05268 4
    endloop
  endfacet
  facet normal 4.44089e-16 2.22045e-16 1
    outer loop
      vertex -8.66025 -5 4
      vertex -0.968775 -6.4274 4
      vertex -6.5 -5 4
    endloop
  endfacet
  facet normal 4.44089e-16 2.22045e-16 1
    outer loop
      vertex -7.43145 -6.69131 4
      vertex -0.968775 -6.4274 4
      vertex -8.66025 -5 4
    endloop
  endfacet
  facet normal 4.44089e-16 2.22045e-16 1
    outer loop
      vertex -5.87785 -8.09017 4
      vertex 0.968775 -6.4274 4
      vertex -7.43145 -6.69131 4
    endloop
  endfacet
  facet normal 4.44089e-16 2.22045e-16 1
    outer loop
      vertex -4.06737 -9.13545 4
      vertex 0.968775 -6.4274 4
      vertex -5.87785 -8.09017 4
    endloop
  endfacet
  facet normal 4.44089e-16 2.22045e-16 1
    outer loop
      vertex -2.07912 -9.78148 4
      vertex 2.82024 -5.8563 4
      vertex -4.06737 -9.13545 4
    endloop
  endfacet
  facet normal 4.44089e-16 2.22045e-16 1
    outer loop
      vertex -1.50644e-15 -10 4
      vertex 4.42112 -4.76484 4
      vertex -2.07912 -9.78148 4
    endloop
  endfacet
  facet normal 4.44089e-16 2.22045e-16 1
    outer loop
      vertex 2.07912 -9.78148 4
      vertex 4.42112 -4.76484 4
      vertex -1.50644e-15 -10 4
    endloop
  endfacet
  facet normal 4.44089e-16 2.22045e-16 1
    outer loop
      vertex 4.06737 -9.13545 4
      vertex 5.62916 -3.25 4
      vertex 2.07912 -9.78148 4
    endloop
  endfacet
  facet normal 4.44089e-16 2.22045e-16 1
    outer loop
      vertex 5.87785 -8.09017 4
      vertex 6.33703 -1.44639 4
      vertex 4.06737 -9.13545 4
    endloop
  endfacet
  facet normal 4.44089e-16 2.22045e-16 1
    outer loop
      vertex 7.43145 -6.69131 4
      vertex 7.43145 6.69131 4
      vertex 5.87785 -8.09017 4
    endloop
  endfacet
  facet normal 4.44089e-16 2.22045e-16 1
    outer loop
      vertex 8.66025 -5 4
      vertex 7.43145 6.69131 4
      vertex 7.43145 -6.69131 4
    endloop
  endfacet
  facet normal 4.44089e-16 2.22045e-16 1
    outer loop
      vertex 9.51056 -3.09017 4
      vertex 7.43145 6.69131 4
      vertex 8.66025 -5 4
    endloop
  endfacet
  facet normal 4.44089e-16 2.22045e-16 1
    outer loop
      vertex 9.94522 -1.04528 4
      vertex 7.43145 6.69131 4
      vertex 9.51056 -3.09017 4
    endloop
  endfacet
  facet normal 4.44089e-16 2.22045e-16 1
    outer loop
      vertex 9.94522 1.04529 4
      vertex 7.43145 6.69131 4
      vertex 9.94522 -1.04528 4
    endloop
  endfacet
  facet normal 4.44089e-16 2.22045e-16 1
    outer loop
      vertex 9.51056 3.09017 4
      vertex 7.43145 6.69131 4
      vertex 9.94522 1.04529 4
    endloop
  endfacet
  facet normal 4.44089e-16 2.22045e-16 1
    outer loop
      vertex 8.66025 5 4
      vertex 7.43145 6.69131 4
      vertex 9.51056 3.09017 4
    endloop
  endfacet
  facet normal 4.44089e-16 2.22045e-16 1
    outer loop
      vertex -1.95053e-15 10 4
      vertex -1.95053e-15 6.5 4
      vertex 7.43145 6.69131 4
    endloop
  endfacet
  facet normal 4.44089e-16 2.22045e-16 1
    outer loop
      vertex -8.66025 5 4
      vertex -7.04198 7.04198 4
      vertex -7.43145 6.69131 4
    endloop
  endfacet
  facet normal 4.44089e-16 2.22045e-16 1
    outer loop
      vertex -8.66025 5 4
      vertex -6.5 5 4
      vertex -7.04198 7.04198 4
    endloop
  endfacet
  facet normal 0.149042 0.988831 -2.79087e-16
    outer loop
      vertex -1.00324e-15 6.5 6.65
      vertex -1.95053e-15 6.5 4
      vertex -2.06156e-15 6.5 4
    endloop
  endfacet
  facet normal 0.149042 0.988831 -2.79087e-16
    outer loop
      vertex 1.91591 6.21122 4
      vertex -1.95053e-15 6.5 4
      vertex -1.00324e-15 6.5 6.65
    endloop
  endfacet
  facet normal 0.149042 0.988831 -2.79087e-16
    outer loop
      vertex 1.91591 6.21122 4
      vertex -1.00324e-15 6.5 6.65
      vertex 1.91591 6.21122 6.65
    endloop
  endfacet
  facet normal -0.149042 0.988831 -1.60042e-16
    outer loop
      vertex -1.91591 6.21122 6.65
      vertex -1.00324e-15 6.5 6.65
      vertex -1.91591 6.21122 4
    endloop
  endfacet
  facet normal -0.149042 0.988831 -1.60042e-16
    outer loop
      vertex -1.91591 6.21122 4
      vertex -1.00324e-15 6.5 6.65
      vertex -2.06156e-15 6.5 4
    endloop
  endfacet
  facet normal -0.433884 0.900969 -2.67769e-17
    outer loop
      vertex -3.66158 5.37055 6.65
      vertex -1.91591 6.21122 6.65
      vertex -3.66158 5.37055 4
    endloop
  endfacet
  facet normal -0.433884 0.900969 -2.67769e-17
    outer loop
      vertex -3.66158 5.37055 4
      vertex -1.91591 6.21122 6.65
      vertex -1.91591 6.21122 4
    endloop
  endfacet
  facet normal -0.680172 0.733052 1.08867e-16
    outer loop
      vertex -5.08191 4.05268 4
      vertex -5.08191 4.05268 6.65
      vertex -4.54804 4.54804 4
    endloop
  endfacet
  facet normal -0.680172 0.733052 1.08867e-16
    outer loop
      vertex -4.54804 4.54804 4
      vertex -5.08191 4.05268 6.65
      vertex -3.66158 5.37055 6.65
    endloop
  endfacet
  facet normal -0.680172 0.733052 1.08867e-16
    outer loop
      vertex -4.54804 4.54804 4
      vertex -3.66158 5.37055 6.65
      vertex -3.66158 5.37055 4
    endloop
  endfacet
  facet normal 0 -1 0
    outer loop
      vertex -6.5 5 1.44329e-15
      vertex -6.5 5 4
      vertex -8.66025 5 4
    endloop
  endfacet
  facet normal 0 -1 0
    outer loop
      vertex -17.5 5 4
      vertex -6.5 5 1.44329e-15
      vertex -8.66025 5 4
    endloop
  endfacet
  facet normal 0 -1 0
    outer loop
      vertex -17.5 5 3.88578e-15
      vertex -6.5 5 1.44329e-15
      vertex -17.5 5 4
    endloop
  endfacet
  facet normal 1 0 -1.77321e-16
    outer loop
      vertex -17.5 -5 3.88578e-15
      vertex -17.5 5 3.88578e-15
      vertex -17.5 5 4
    endloop
  endfacet
  facet normal 1 0 -1.77321e-16
    outer loop
      vertex -17.5 -5 4
      vertex -17.5 -5 3.88578e-15
      vertex -17.5 5 4
    endloop
  endfacet
  facet normal 0 1 0
    outer loop
      vertex -17.5 -5 3.88578e-15
      vertex -17.5 -5 4
      vertex -6.5 -5 1.44329e-15
    endloop
  endfacet
  facet normal 0 1 0
    outer loop
      vertex -6.5 -5 1.44329e-15
      vertex -17.5 -5 4
      vertex -8.66025 -5 4
    endloop
  endfacet
  facet normal 0 1 0
    outer loop
      vertex -6.5 -5 1.44329e-15
      vertex -8.66025 -5 4
      vertex -6.5 -5 4
    endloop
  endfacet
  facet normal -9.86076e-32 1 -2.22045e-16
    outer loop
      vertex -0.957263 -3.88377 2.5
      vertex 0.957263 -3.88377 2.5
      vertex -0.957263 -3.88377 2.12555e-16
    endloop
  endfacet
  facet normal -9.86076e-32 1 -2.22045e-16
    outer loop
      vertex -2.65982e-15 -3.88377 8.6237e-16
      vertex 0.957263 -3.88377 2.5
      vertex 0.957263 -3.88377 4.37259e-16
    endloop
  endfacet
  facet normal -9.86076e-32 1 -2.22045e-16
    outer loop
      vertex -0.957263 -3.88377 2.12555e-16
      vertex 0.957263 -3.88377 2.5
      vertex -2.65982e-15 -3.88377 8.6237e-16
    endloop
  endfacet
  facet normal -9.86076e-32 1 -2.22045e-16
    outer loop
      vertex -2.65982e-15 -3.88377 0
      vertex -0.957263 -3.88377 2.12555e-16
      vertex -2.65982e-15 -3.88377 8.6237e-16
    endloop
  endfacet
  facet normal 0.464723 0.885456 -3.82205e-16
    outer loop
      vertex -2.65249 -2.99404 5.88971e-16
      vertex -2.65249 -2.99404 2.5
      vertex -0.957263 -3.88377 2.12555e-16
    endloop
  endfacet
  facet normal 0.464723 0.885456 -3.82205e-16
    outer loop
      vertex -0.957263 -3.88377 2.12555e-16
      vertex -2.65249 -2.99404 2.5
      vertex -0.957263 -3.88377 2.5
    endloop
  endfacet
  facet normal 0.822984 0.568065 -4.54807e-16
    outer loop
      vertex -2.65249 -2.99404 5.88971e-16
      vertex -3.74007 -1.41842 8.30461e-16
      vertex -3.74007 -1.41842 2.5
    endloop
  endfacet
  facet normal 0.822984 0.568065 -4.54807e-16
    outer loop
      vertex -2.65249 -2.99404 2.5
      vertex -2.65249 -2.99404 5.88971e-16
      vertex -3.74007 -1.41842 2.5
    endloop
  endfacet
  facet normal 0.992709 0.120536 -4.23219e-16
    outer loop
      vertex -3.74007 -1.41842 8.30461e-16
      vertex -3.97084 0.482147 8.81702e-16
      vertex -3.97084 0.482147 2.5
    endloop
  endfacet
  facet normal 0.992709 0.120536 -4.23219e-16
    outer loop
      vertex -3.74007 -1.41842 2.5
      vertex -3.74007 -1.41842 8.30461e-16
      vertex -3.97084 0.482147 2.5
    endloop
  endfacet
  facet normal 0.935016 -0.354605 -2.94675e-16
    outer loop
      vertex -3.97084 0.482147 8.81702e-16
      vertex -3.29194 2.27226 7.30956e-16
      vertex -3.29194 2.27226 2.5
    endloop
  endfacet
  facet normal 0.935016 -0.354605 -2.94675e-16
    outer loop
      vertex -3.97084 0.482147 2.5
      vertex -3.97084 0.482147 8.81702e-16
      vertex -3.29194 2.27226 2.5
    endloop
  endfacet
  facet normal 0.663123 -0.748511 -9.86259e-17
    outer loop
      vertex -1.85889 3.54182 3.90714e-17
      vertex -1.85889 3.54182 2.5
      vertex -3.29194 2.27226 2.5
    endloop
  endfacet
  facet normal 0.663123 -0.748511 -9.86259e-17
    outer loop
      vertex -2.75126 2.75126 6.10902e-16
      vertex -1.85889 3.54182 3.90714e-17
      vertex -3.29194 2.27226 2.5
    endloop
  endfacet
  facet normal 0.663123 -0.748511 -9.86259e-17
    outer loop
      vertex -3.29194 2.27226 7.30956e-16
      vertex -2.75126 2.75126 6.10902e-16
      vertex -3.29194 2.27226 2.5
    endloop
  endfacet
  facet normal -0.669131 0.743145 1.02217e-16
    outer loop
      vertex -5.87785 8.09017 8.13912e-16
      vertex -7.04198 7.04198 1.56363e-15
      vertex -5.87785 8.09017 1.30515e-15
    endloop
  endfacet
  facet normal -0.5 0.866025 7.38664e-18
    outer loop
      vertex -5.87785 8.09017 8.13912e-16
      vertex -5.87785 8.09017 1.30515e-15
      vertex -4.06737 9.13545 -2.22205e-16
    endloop
  endfacet
  facet normal -0.5 0.866025 7.38664e-18
    outer loop
      vertex -4.06737 9.13545 -2.22205e-16
      vertex -5.87785 8.09017 1.30515e-15
      vertex -4.06737 9.13545 9.03137e-16
    endloop
  endfacet
  facet normal -0.309017 0.951057 -8.77662e-17
    outer loop
      vertex -4.06737 9.13545 -2.22205e-16
      vertex -4.06737 9.13545 9.03137e-16
      vertex -2.07912 9.78148 -1.24861e-15
    endloop
  endfacet
  facet normal -0.309017 0.951057 -8.77662e-17
    outer loop
      vertex -2.07912 9.78148 -1.24861e-15
      vertex -4.06737 9.13545 9.03137e-16
      vertex -2.07912 9.78148 4.61657e-16
    endloop
  endfacet
  facet normal -0.104528 0.994522 -1.79083e-16
    outer loop
      vertex -2.07912 9.78148 -1.24861e-15
      vertex -2.07912 9.78148 4.61657e-16
      vertex -3.10391e-15 10 -2.22045e-15
    endloop
  endfacet
  facet normal -0.104528 0.994522 -1.79083e-16
    outer loop
      vertex -3.10391e-15 10 -2.22045e-15
      vertex -2.07912 9.78148 4.61657e-16
      vertex -3.10391e-15 10 9.86076e-32
    endloop
  endfacet
  facet normal -1 0 1.77321e-16
    outer loop
      vertex -6.5 -5 4
      vertex -6.5 5 4
      vertex -6.5 -5 1.44329e-15
    endloop
  endfacet
  facet normal -1 0 1.77321e-16
    outer loop
      vertex -6.5 -5 1.44329e-15
      vertex -6.5 5 4
      vertex -6.5 5 1.44329e-15
    endloop
  endfacet
  facet normal 0.309017 -0.951057 8.77662e-17
    outer loop
      vertex 4.06737 -9.13546 2.22205e-16
      vertex 4.06737 -9.13545 4
      vertex 2.07912 -9.78148 4
    endloop
  endfacet
  facet normal 0.309017 -0.951057 8.77662e-17
    outer loop
      vertex 2.07912 -9.78148 1.24861e-15
      vertex 4.06737 -9.13546 2.22205e-16
      vertex 2.07912 -9.78148 4
    endloop
  endfacet
  facet normal 0.809017 0.587785 -4.53608e-16
    outer loop
      vertex 7.43145 6.69131 -4.78599e-15
      vertex 7.43145 6.69131 4
      vertex 8.66025 5 4
    endloop
  endfacet
  facet normal 0.809017 0.587785 -4.53608e-16
    outer loop
      vertex 8.66025 5 -4.95615e-15
      vertex 7.43145 6.69131 -4.78599e-15
      vertex 8.66025 5 4
    endloop
  endfacet
  facet normal 0.669131 0.743145 -4.32239e-16
    outer loop
      vertex 5.87785 8.09017 -4.40667e-15
      vertex 5.87785 8.09017 4
      vertex 7.43145 6.69131 -4.78599e-15
    endloop
  endfacet
  facet normal 0.669131 0.743145 -4.32239e-16
    outer loop
      vertex 7.43145 6.69131 -4.78599e-15
      vertex 5.87785 8.09017 4
      vertex 7.43145 6.69131 4
    endloop
  endfacet
  facet normal 0.5 0.866025 -3.91979e-16
    outer loop
      vertex 4.06737 9.13545 -3.83475e-15
      vertex 4.06737 9.13546 4
      vertex 5.87785 8.09017 -4.40667e-15
    endloop
  endfacet
  facet normal 0.5 0.866025 -3.91979e-16
    outer loop
      vertex 5.87785 8.09017 -4.40667e-15
      vertex 4.06737 9.13546 4
      vertex 5.87785 8.09017 4
    endloop
  endfacet
  facet normal 0.309017 0.951057 -3.34588e-16
    outer loop
      vertex 2.07912 9.78148 -3.09524e-15
      vertex 2.07912 9.78148 4
      vertex 4.06737 9.13545 -3.83475e-15
    endloop
  endfacet
  facet normal 0.309017 0.951057 -3.34588e-16
    outer loop
      vertex 4.06737 9.13545 -3.83475e-15
      vertex 2.07912 9.78148 4
      vertex 4.06737 9.13546 4
    endloop
  endfacet
  facet normal 0.239316 -0.970942 1.20018e-16
    outer loop
      vertex -2.65982e-15 4 -8.88178e-16
      vertex -1.6614e-15 4 2.5
      vertex -1.85889 3.54182 2.5
    endloop
  endfacet
  facet normal 0.239316 -0.970942 1.20018e-16
    outer loop
      vertex -1.85889 3.54182 3.90714e-17
      vertex -2.65982e-15 4 -8.88178e-16
      vertex -1.85889 3.54182 2.5
    endloop
  endfacet
  facet normal -0.239316 -0.970942 3.11167e-16
    outer loop
      vertex 1.85889 3.54182 -1.61196e-15
      vertex 1.85889 3.54182 2.5
      vertex -1.6614e-15 4 2.5
    endloop
  endfacet
  facet normal -0.239316 -0.970942 3.11167e-16
    outer loop
      vertex -2.65982e-15 4 -8.88178e-16
      vertex 1.85889 3.54182 -1.61196e-15
      vertex -1.6614e-15 4 2.5
    endloop
  endfacet
  facet normal -0.663123 -0.748511 4.31031e-16
    outer loop
      vertex 3.29193 2.27226 -1.96646e-15
      vertex 3.29193 2.27226 2.5
      vertex 1.85889 3.54182 2.5
    endloop
  endfacet
  facet normal -0.663123 -0.748511 4.31031e-16
    outer loop
      vertex 1.85889 3.54182 -1.61196e-15
      vertex 3.29193 2.27226 -1.96646e-15
      vertex 1.85889 3.54182 2.5
    endloop
  endfacet
  facet normal -0.935016 -0.354605 4.52152e-16
    outer loop
      vertex 3.97083 0.482147 -1.87046e-15
      vertex 3.97083 0.482147 2.5
      vertex 3.29193 2.27226 -1.96646e-15
    endloop
  endfacet
  facet normal -0.935016 -0.354605 4.52152e-16
    outer loop
      vertex 3.29193 2.27226 -1.96646e-15
      vertex 3.97083 0.482147 2.5
      vertex 3.29193 2.27226 2.5
    endloop
  endfacet
  facet normal -0.992709 0.120536 3.6969e-16
    outer loop
      vertex 3.74006 -1.41842 -1.34597e-15
      vertex 3.74006 -1.41842 2.5
      vertex 3.97083 0.482147 -1.87046e-15
    endloop
  endfacet
  facet normal -0.992709 0.120536 3.6969e-16
    outer loop
      vertex 3.97083 0.482147 -1.87046e-15
      vertex 3.74006 -1.41842 2.5
      vertex 3.97083 0.482147 2.5
    endloop
  endfacet
  facet normal -0.822984 0.568065 2.02536e-16
    outer loop
      vertex 2.65249 -2.99404 -5.13132e-16
      vertex 2.65249 -2.99404 2.5
      vertex 3.74006 -1.41842 -1.34597e-15
    endloop
  endfacet
  facet normal -0.822984 0.568065 2.02536e-16
    outer loop
      vertex 3.74006 -1.41842 -1.34597e-15
      vertex 2.65249 -2.99404 2.5
      vertex 3.74006 -1.41842 2.5
    endloop
  endfacet
  facet normal -0.464723 0.885456 -1.10162e-17
    outer loop
      vertex 0.957263 -3.88377 4.37259e-16
      vertex 0.957263 -3.88377 2.5
      vertex 2.65249 -2.99404 -5.13132e-16
    endloop
  endfacet
  facet normal -0.464723 0.885456 -1.10162e-17
    outer loop
      vertex 2.65249 -2.99404 -5.13132e-16
      vertex 0.957263 -3.88377 2.5
      vertex 2.65249 -2.99404 2.5
    endloop
  endfacet
  facet normal 0.5 -0.866025 -7.38664e-18
    outer loop
      vertex 5.87785 -8.09017 -8.13912e-16
      vertex 5.87785 -8.09017 4
      vertex 4.06737 -9.13545 4
    endloop
  endfacet
  facet normal 0.5 -0.866025 -7.38664e-18
    outer loop
      vertex 4.06737 -9.13546 2.22205e-16
      vertex 5.87785 -8.09017 -8.13912e-16
      vertex 4.06737 -9.13545 4
    endloop
  endfacet
  facet normal 0.669131 -0.743145 -1.02217e-16
    outer loop
      vertex 7.43145 -6.69131 -1.81446e-15
      vertex 7.43145 -6.69131 4
      vertex 5.87785 -8.09017 4
    endloop
  endfacet
  facet normal 0.669131 -0.743145 -1.02217e-16
    outer loop
      vertex 5.87785 -8.09017 -8.13912e-16
      vertex 7.43145 -6.69131 -1.81446e-15
      vertex 5.87785 -8.09017 4
    endloop
  endfacet
  facet normal 0.809017 -0.587785 -1.92579e-16
    outer loop
      vertex 8.66025 -5 -2.7357e-15
      vertex 8.66025 -5 4
      vertex 7.43145 -6.69131 4
    endloop
  endfacet
  facet normal 0.809017 -0.587785 -1.92579e-16
    outer loop
      vertex 7.43145 -6.69131 -1.81446e-15
      vertex 8.66025 -5 -2.7357e-15
      vertex 7.43145 -6.69131 4
    endloop
  endfacet
  facet normal 0.913545 -0.406737 -2.74525e-16
    outer loop
      vertex 9.51056 -3.09017 -3.53738e-15
      vertex 9.51056 -3.09017 4
      vertex 8.66025 -5 4
    endloop
  endfacet
  facet normal 0.913545 -0.406737 -2.74525e-16
    outer loop
      vertex 8.66025 -5 -2.7357e-15
      vertex 9.51056 -3.09017 -3.53738e-15
      vertex 8.66025 -5 4
    endloop
  endfacet
  facet normal 0.978148 -0.207912 -3.44473e-16
    outer loop
      vertex 9.94522 -1.04529 -4.18446e-15
      vertex 9.94522 -1.04528 4
      vertex 9.51056 -3.09017 4
    endloop
  endfacet
  facet normal 0.978148 -0.207912 -3.44473e-16
    outer loop
      vertex 9.51056 -3.09017 -3.53738e-15
      vertex 9.94522 -1.04529 -4.18446e-15
      vertex 9.51056 -3.09017 4
    endloop
  endfacet
  facet normal 1 -4.93038e-32 -3.99366e-16
    outer loop
      vertex 9.94522 1.04528 -4.64866e-15
      vertex 9.94522 1.04529 4
      vertex 9.94522 -1.04528 4
    endloop
  endfacet
  facet normal 1 -4.93038e-32 -3.99366e-16
    outer loop
      vertex 9.94522 -1.04529 -4.18446e-15
      vertex 9.94522 1.04528 -4.64866e-15
      vertex 9.94522 -1.04528 4
    endloop
  endfacet
  facet normal 0.978148 0.207912 -4.36804e-16
    outer loop
      vertex 9.51056 3.09017 -4.90969e-15
      vertex 9.51056 3.09017 4
      vertex 9.94522 1.04529 4
    endloop
  endfacet
  facet normal 0.978148 0.207912 -4.36804e-16
    outer loop
      vertex 9.94522 1.04528 -4.64866e-15
      vertex 9.51056 3.09017 -4.90969e-15
      vertex 9.94522 1.04529 4
    endloop
  endfacet
  facet normal 0.913545 0.406737 -4.55153e-16
    outer loop
      vertex 8.66025 5 -4.95615e-15
      vertex 8.66025 5 4
      vertex 9.51056 3.09017 4
    endloop
  endfacet
  facet normal 0.913545 0.406737 -4.55153e-16
    outer loop
      vertex 9.51056 3.09017 -4.90969e-15
      vertex 8.66025 5 -4.95615e-15
      vertex 9.51056 3.09017 4
    endloop
  endfacet
  facet normal -0.866026 0.5 2.34839e-16
    outer loop
      vertex -6.05068 2.37472 4
      vertex -6.05068 2.37472 6.65
      vertex -5.08191 4.05268 4
    endloop
  endfacet
  facet normal -0.866026 0.5 2.34839e-16
    outer loop
      vertex -5.08191 4.05268 4
      vertex -6.05068 2.37472 6.65
      vertex -5.08191 4.05268 6.65
    endloop
  endfacet
  facet normal -0.974928 0.222521 3.39943e-16
    outer loop
      vertex -6.48183 0.485746 4
      vertex -6.48183 0.485746 6.65
      vertex -6.05068 2.37472 4
    endloop
  endfacet
  facet normal -0.974928 0.222521 3.39943e-16
    outer loop
      vertex -6.05068 2.37472 4
      vertex -6.48183 0.485746 6.65
      vertex -6.05068 2.37472 6.65
    endloop
  endfacet
  facet normal -0.997204 -0.0747305 4.14843e-16
    outer loop
      vertex -6.33703 -1.44639 4
      vertex -6.33703 -1.44639 6.65
      vertex -6.48183 0.485746 4
    endloop
  endfacet
  facet normal -0.997204 -0.0747305 4.14843e-16
    outer loop
      vertex -6.48183 0.485746 4
      vertex -6.33703 -1.44639 6.65
      vertex -6.48183 0.485746 6.65
    endloop
  endfacet
  facet normal -0.930874 -0.365341 4.52881e-16
    outer loop
      vertex -5.62917 -3.25 4
      vertex -5.62917 -3.25 6.65
      vertex -6.33703 -1.44639 4
    endloop
  endfacet
  facet normal -0.930874 -0.365341 4.52881e-16
    outer loop
      vertex -6.33703 -1.44639 4
      vertex -5.62917 -3.25 6.65
      vertex -6.33703 -1.44639 6.65
    endloop
  endfacet
  facet normal -0.781832 -0.62349 4.50679e-16
    outer loop
      vertex -4.42112 -4.76484 4
      vertex -4.42112 -4.76484 6.65
      vertex -5.62917 -3.25 4
    endloop
  endfacet
  facet normal -0.781832 -0.62349 4.50679e-16
    outer loop
      vertex -5.62917 -3.25 4
      vertex -4.42112 -4.76484 6.65
      vertex -5.62917 -3.25 6.65
    endloop
  endfacet
  facet normal -0.56332 -0.826239 4.08433e-16
    outer loop
      vertex -2.82024 -5.8563 4
      vertex -2.82024 -5.8563 6.65
      vertex -4.42112 -4.76484 6.65
    endloop
  endfacet
  facet normal -0.56332 -0.826239 4.08433e-16
    outer loop
      vertex -4.42112 -4.76484 4
      vertex -2.82024 -5.8563 4
      vertex -4.42112 -4.76484 6.65
    endloop
  endfacet
  facet normal -0.294755 -0.955573 3.29895e-16
    outer loop
      vertex -0.968775 -6.4274 4
      vertex -0.968775 -6.4274 6.65
      vertex -2.82024 -5.8563 6.65
    endloop
  endfacet
  facet normal -0.294755 -0.955573 3.29895e-16
    outer loop
      vertex -2.82024 -5.8563 4
      vertex -0.968775 -6.4274 4
      vertex -2.82024 -5.8563 6.65
    endloop
  endfacet
  facet normal 9.86076e-32 -1 2.22045e-16
    outer loop
      vertex 0.968775 -6.4274 4
      vertex 0.968775 -6.4274 6.65
      vertex -0.968775 -6.4274 6.65
    endloop
  endfacet
  facet normal 9.86076e-32 -1 2.22045e-16
    outer loop
      vertex -0.968775 -6.4274 4
      vertex 0.968775 -6.4274 4
      vertex -0.968775 -6.4274 6.65
    endloop
  endfacet
  facet normal 0.294755 -0.955573 9.44648e-17
    outer loop
      vertex 2.82024 -5.8563 4
      vertex 2.82024 -5.8563 6.65
      vertex 0.968775 -6.4274 6.65
    endloop
  endfacet
  facet normal 0.294755 -0.955573 9.44648e-17
    outer loop
      vertex 0.968775 -6.4274 4
      vertex 2.82024 -5.8563 4
      vertex 0.968775 -6.4274 6.65
    endloop
  endfacet
  facet normal 0.56332 -0.826239 -4.1509e-17
    outer loop
      vertex 4.42112 -4.76484 4
      vertex 4.42112 -4.76484 6.65
      vertex 2.82024 -5.8563 6.65
    endloop
  endfacet
  facet normal 0.56332 -0.826239 -4.1509e-17
    outer loop
      vertex 2.82024 -5.8563 4
      vertex 4.42112 -4.76484 4
      vertex 2.82024 -5.8563 6.65
    endloop
  endfacet
  facet normal 0.781832 -0.62349 -1.73794e-16
    outer loop
      vertex 5.62916 -3.25 4
      vertex 5.62916 -3.25 6.65
      vertex 4.42112 -4.76484 6.65
    endloop
  endfacet
  facet normal 0.781832 -0.62349 -1.73794e-16
    outer loop
      vertex 4.42112 -4.76484 4
      vertex 5.62916 -3.25 4
      vertex 4.42112 -4.76484 6.65
    endloop
  endfacet
  facet normal 0.930874 -0.365341 -2.90637e-16
    outer loop
      vertex 6.33703 -1.44639 4
      vertex 6.33703 -1.44639 6.65
      vertex 5.62916 -3.25 6.65
    endloop
  endfacet
  facet normal 0.930874 -0.365341 -2.90637e-16
    outer loop
      vertex 5.62916 -3.25 4
      vertex 6.33703 -1.44639 4
      vertex 5.62916 -3.25 6.65
    endloop
  endfacet
  facet normal 0.997204 -0.0747305 -3.81656e-16
    outer loop
      vertex 6.48182 0.485746 4
      vertex 6.48182 0.485746 6.65
      vertex 6.33703 -1.44639 6.65
    endloop
  endfacet
  facet normal 0.997204 -0.0747305 -3.81656e-16
    outer loop
      vertex 6.33703 -1.44639 4
      vertex 6.48182 0.485746 4
      vertex 6.33703 -1.44639 6.65
    endloop
  endfacet
  facet normal 0.974928 0.222521 -4.38763e-16
    outer loop
      vertex 6.05068 2.37472 4
      vertex 6.05068 2.37472 6.65
      vertex 6.48182 0.485746 6.65
    endloop
  endfacet
  facet normal 0.974928 0.222521 -4.38763e-16
    outer loop
      vertex 6.48182 0.485746 4
      vertex 6.05068 2.37472 4
      vertex 6.48182 0.485746 6.65
    endloop
  endfacet
  facet normal 0.866026 0.5 -4.56883e-16
    outer loop
      vertex 5.0819 4.05268 4
      vertex 5.0819 4.05268 6.65
      vertex 6.05068 2.37472 6.65
    endloop
  endfacet
  facet normal 0.866026 0.5 -4.56883e-16
    outer loop
      vertex 6.05068 2.37472 4
      vertex 5.0819 4.05268 4
      vertex 6.05068 2.37472 6.65
    endloop
  endfacet
  facet normal 0.680172 0.733052 -4.34408e-16
    outer loop
      vertex 3.66158 5.37055 4
      vertex 3.66158 5.37055 6.65
      vertex 5.0819 4.05268 4
    endloop
  endfacet
  facet normal 0.680172 0.733052 -4.34408e-16
    outer loop
      vertex 5.0819 4.05268 4
      vertex 3.66158 5.37055 6.65
      vertex 5.0819 4.05268 6.65
    endloop
  endfacet
  facet normal 0.433884 0.900969 -3.73334e-16
    outer loop
      vertex 1.91591 6.21122 4
      vertex 1.91591 6.21122 6.65
      vertex 3.66158 5.37055 4
    endloop
  endfacet
  facet normal 0.433884 0.900969 -3.73334e-16
    outer loop
      vertex 3.66158 5.37055 4
      vertex 1.91591 6.21122 6.65
      vertex 3.66158 5.37055 6.65
    endloop
  endfacet
  facet normal 4.44089e-16 2.22045e-16 1
    outer loop
      vertex 5.0819 4.05268 6.65
      vertex 3.66158 5.37055 6.65
      vertex 1.91591 6.21122 6.65
    endloop
  endfacet
  facet normal 4.44089e-16 2.22045e-16 1
    outer loop
      vertex -1.91591 6.21122 6.65
      vertex 5.0819 4.05268 6.65
      vertex -1.00324e-15 6.5 6.65
    endloop
  endfacet
  facet normal 4.44089e-16 2.22045e-16 1
    outer loop
      vertex -1.00324e-15 6.5 6.65
      vertex 5.0819 4.05268 6.65
      vertex 1.91591 6.21122 6.65
    endloop
  endfacet
  facet normal 4.44089e-16 2.22045e-16 1
    outer loop
      vertex -3.66158 5.37055 6.65
      vertex 5.0819 4.05268 6.65
      vertex -1.91591 6.21122 6.65
    endloop
  endfacet
  facet normal 4.44089e-16 2.22045e-16 1
    outer loop
      vertex -2.35771e-15 4.5 6.65
      vertex 5.0819 4.05268 6.65
      vertex -3.66158 5.37055 6.65
    endloop
  endfacet
  facet normal 4.44089e-16 2.22045e-16 1
    outer loop
      vertex 4.27975 1.39058 6.65
      vertex 4.47535 -0.470378 6.65
      vertex 5.0819 4.05268 6.65
    endloop
  endfacet
  facet normal 4.44089e-16 2.22045e-16 1
    outer loop
      vertex 2.64503 -3.64058 6.65
      vertex 0.935603 -4.40166 6.65
      vertex 0.968775 -6.4274 6.65
    endloop
  endfacet
  facet normal 4.44089e-16 2.22045e-16 1
    outer loop
      vertex 3.89711 -2.25 6.65
      vertex 2.64503 -3.64058 6.65
      vertex 2.82024 -5.8563 6.65
    endloop
  endfacet
  facet normal 4.44089e-16 2.22045e-16 1
    outer loop
      vertex 5.62916 -3.25 6.65
      vertex 5.0819 4.05268 6.65
      vertex 4.42112 -4.76484 6.65
    endloop
  endfacet
  facet normal 4.44089e-16 2.22045e-16 1
    outer loop
      vertex 6.33703 -1.44639 6.65
      vertex 5.0819 4.05268 6.65
      vertex 5.62916 -3.25 6.65
    endloop
  endfacet
  facet normal 4.44089e-16 2.22045e-16 1
    outer loop
      vertex 6.48182 0.485746 6.65
      vertex 5.0819 4.05268 6.65
      vertex 6.33703 -1.44639 6.65
    endloop
  endfacet
  facet normal 4.44089e-16 2.22045e-16 1
    outer loop
      vertex 6.05068 2.37472 6.65
      vertex 5.0819 4.05268 6.65
      vertex 6.48182 0.485746 6.65
    endloop
  endfacet
  facet normal 4.44089e-16 2.22045e-16 1
    outer loop
      vertex -4.47535 -0.470378 6.65
      vertex -4.27975 1.39058 6.65
      vertex -6.48183 0.485746 6.65
    endloop
  endfacet
  facet normal 4.44089e-16 2.22045e-16 1
    outer loop
      vertex 0.935603 -4.40166 6.65
      vertex -0.935603 -4.40166 6.65
      vertex -0.968775 -6.4274 6.65
    endloop
  endfacet
  facet normal 4.44089e-16 2.22045e-16 1
    outer loop
      vertex -3.89711 -2.25 6.65
      vertex -4.47535 -0.470378 6.65
      vertex -6.33703 -1.44639 6.65
    endloop
  endfacet
  facet normal 4.44089e-16 2.22045e-16 1
    outer loop
      vertex 4.42112 -4.76484 6.65
      vertex 4.47535 -0.470378 6.65
      vertex 2.82024 -5.8563 6.65
    endloop
  endfacet
  facet normal 4.44089e-16 2.22045e-16 1
    outer loop
      vertex 4.42112 -4.76484 6.65
      vertex 5.0819 4.05268 6.65
      vertex 4.47535 -0.470378 6.65
    endloop
  endfacet
  facet normal 4.44089e-16 2.22045e-16 1
    outer loop
      vertex 4.47535 -0.470378 6.65
      vertex 3.89711 -2.25 6.65
      vertex 2.82024 -5.8563 6.65
    endloop
  endfacet
  facet normal 4.44089e-16 2.22045e-16 1
    outer loop
      vertex 2.82024 -5.8563 6.65
      vertex 2.64503 -3.64058 6.65
      vertex 0.968775 -6.4274 6.65
    endloop
  endfacet
  facet normal 4.44089e-16 2.22045e-16 1
    outer loop
      vertex 0.968775 -6.4274 6.65
      vertex 0.935603 -4.40166 6.65
      vertex -0.968775 -6.4274 6.65
    endloop
  endfacet
  facet normal 4.44089e-16 2.22045e-16 1
    outer loop
      vertex -0.968775 -6.4274 6.65
      vertex -0.935603 -4.40166 6.65
      vertex -2.82024 -5.8563 6.65
    endloop
  endfacet
  facet normal 4.44089e-16 2.22045e-16 1
    outer loop
      vertex -2.82024 -5.8563 6.65
      vertex -2.64503 -3.64058 6.65
      vertex -4.42112 -4.76484 6.65
    endloop
  endfacet
  facet normal 4.44089e-16 2.22045e-16 1
    outer loop
      vertex -4.42112 -4.76484 6.65
      vertex -3.89711 -2.25 6.65
      vertex -5.62917 -3.25 6.65
    endloop
  endfacet
  facet normal 4.44089e-16 2.22045e-16 1
    outer loop
      vertex -6.33703 -1.44639 6.65
      vertex -4.47535 -0.470378 6.65
      vertex -6.48183 0.485746 6.65
    endloop
  endfacet
  facet normal 4.44089e-16 2.22045e-16 1
    outer loop
      vertex -0.935603 -4.40166 6.65
      vertex -2.64503 -3.64058 6.65
      vertex -2.82024 -5.8563 6.65
    endloop
  endfacet
  facet normal 4.44089e-16 2.22045e-16 1
    outer loop
      vertex -6.48183 0.485746 6.65
      vertex -4.27975 1.39058 6.65
      vertex -6.05068 2.37472 6.65
    endloop
  endfacet
  facet normal 4.44089e-16 2.22045e-16 1
    outer loop
      vertex -2.64503 -3.64058 6.65
      vertex -3.89711 -2.25 6.65
      vertex -4.42112 -4.76484 6.65
    endloop
  endfacet
  facet normal 4.44089e-16 2.22045e-16 1
    outer loop
      vertex -6.05068 2.37472 6.65
      vertex -3.34415 3.01109 6.65
      vertex -5.08191 4.05268 6.65
    endloop
  endfacet
  facet normal 4.44089e-16 2.22045e-16 1
    outer loop
      vertex -3.89711 -2.25 6.65
      vertex -6.33703 -1.44639 6.65
      vertex -5.62917 -3.25 6.65
    endloop
  endfacet
  facet normal 4.44089e-16 2.22045e-16 1
    outer loop
      vertex -5.08191 4.05268 6.65
      vertex -1.83032 4.11095 6.65
      vertex -3.66158 5.37055 6.65
    endloop
  endfacet
  facet normal 4.44089e-16 2.22045e-16 1
    outer loop
      vertex -1.83032 4.11095 6.65
      vertex -2.35771e-15 4.5 6.65
      vertex -3.66158 5.37055 6.65
    endloop
  endfacet
  facet normal 4.44089e-16 2.22045e-16 1
    outer loop
      vertex 1.83031 4.11095 6.65
      vertex 5.0819 4.05268 6.65
      vertex -2.35771e-15 4.5 6.65
    endloop
  endfacet
  facet normal 4.44089e-16 2.22045e-16 1
    outer loop
      vertex -4.27975 1.39058 6.65
      vertex -3.34415 3.01109 6.65
      vertex -6.05068 2.37472 6.65
    endloop
  endfacet
  facet normal 4.44089e-16 2.22045e-16 1
    outer loop
      vertex -3.34415 3.01109 6.65
      vertex -1.83032 4.11095 6.65
      vertex -5.08191 4.05268 6.65
    endloop
  endfacet
  facet normal 4.44089e-16 2.22045e-16 1
    outer loop
      vertex 1.83031 4.11095 6.65
      vertex 3.34415 3.01109 6.65
      vertex 5.0819 4.05268 6.65
    endloop
  endfacet
  facet normal 4.44089e-16 2.22045e-16 1
    outer loop
      vertex 3.34415 3.01109 6.65
      vertex 4.27975 1.39058 6.65
      vertex 5.0819 4.05268 6.65
    endloop
  endfacet
  facet normal -4.44089e-16 -2.22045e-16 -1
    outer loop
      vertex 3.97083 0.482147 2.5
      vertex 3.74006 -1.41842 2.5
      vertex 3.29193 2.27226 2.5
    endloop
  endfacet
  facet normal -4.44089e-16 -2.22045e-16 -1
    outer loop
      vertex 3.29193 2.27226 2.5
      vertex 3.74006 -1.41842 2.5
      vertex 2.65249 -2.99404 2.5
    endloop
  endfacet
  facet normal -4.44089e-16 -2.22045e-16 -1
    outer loop
      vertex 3.29193 2.27226 2.5
      vertex 2.65249 -2.99404 2.5
      vertex 0.957263 -3.88377 2.5
    endloop
  endfacet
  facet normal -4.44089e-16 -2.22045e-16 -1
    outer loop
      vertex 1.38564 -0.8 2.5
      vertex 0.957263 -3.88377 2.5
      vertex -0.957263 -3.88377 2.5
    endloop
  endfacet
  facet normal -4.44089e-16 -2.22045e-16 -1
    outer loop
      vertex -2.77163e-15 -1.6 2.5
      vertex -0.957263 -3.88377 2.5
      vertex -2.65249 -2.99404 2.5
    endloop
  endfacet
  facet normal -4.44089e-16 -2.22045e-16 -1
    outer loop
      vertex -1.38564 -0.8 2.5
      vertex -2.65249 -2.99404 2.5
      vertex -3.74007 -1.41842 2.5
    endloop
  endfacet
  facet normal -4.44089e-16 -2.22045e-16 -1
    outer loop
      vertex -1.38564 0.8 2.5
      vertex -3.74007 -1.41842 2.5
      vertex -3.97084 0.482147 2.5
    endloop
  endfacet
  facet normal -4.44089e-16 -2.22045e-16 -1
    outer loop
      vertex -2.77163e-15 1.6 2.5
      vertex -3.97084 0.482147 2.5
      vertex -3.29194 2.27226 2.5
    endloop
  endfacet
  facet normal -4.44089e-16 -2.22045e-16 -1
    outer loop
      vertex 3.29193 2.27226 2.5
      vertex -3.29194 2.27226 2.5
      vertex -1.85889 3.54182 2.5
    endloop
  endfacet
  facet normal -4.44089e-16 -2.22045e-16 -1
    outer loop
      vertex 3.29193 2.27226 2.5
      vertex -1.85889 3.54182 2.5
      vertex -1.6614e-15 4 2.5
    endloop
  endfacet
  facet normal -4.44089e-16 -2.22045e-16 -1
    outer loop
      vertex 3.29193 2.27226 2.5
      vertex -1.6614e-15 4 2.5
      vertex 1.85889 3.54182 2.5
    endloop
  endfacet
  facet normal -4.44089e-16 -2.22045e-16 -1
    outer loop
      vertex -2.77163e-15 1.6 2.5
      vertex 3.29193 2.27226 2.5
      vertex 1.38564 0.8 2.5
    endloop
  endfacet
  facet normal -4.44089e-16 -2.22045e-16 -1
    outer loop
      vertex -1.38564 -0.8 2.5
      vertex -3.74007 -1.41842 2.5
      vertex -1.38564 0.8 2.5
    endloop
  endfacet
  facet normal -4.44089e-16 -2.22045e-16 -1
    outer loop
      vertex 3.29193 2.27226 2.5
      vertex -2.77163e-15 1.6 2.5
      vertex -3.29194 2.27226 2.5
    endloop
  endfacet
  facet normal -4.44089e-16 -2.22045e-16 -1
    outer loop
      vertex -2.77163e-15 -1.6 2.5
      vertex -2.65249 -2.99404 2.5
      vertex -1.38564 -0.8 2.5
    endloop
  endfacet
  facet normal -4.44089e-16 -2.22045e-16 -1
    outer loop
      vertex -1.38564 0.8 2.5
      vertex -3.97084 0.482147 2.5
      vertex -2.77163e-15 1.6 2.5
    endloop
  endfacet
  facet normal -4.44089e-16 -2.22045e-16 -1
    outer loop
      vertex 3.29193 2.27226 2.5
      vertex 0.957263 -3.88377 2.5
      vertex 1.38564 -0.8 2.5
    endloop
  endfacet
  facet normal -4.44089e-16 -2.22045e-16 -1
    outer loop
      vertex 1.38564 0.8 2.5
      vertex 3.29193 2.27226 2.5
      vertex 1.38564 -0.8 2.5
    endloop
  endfacet
  facet normal -4.44089e-16 -2.22045e-16 -1
    outer loop
      vertex 1.38564 -0.8 2.5
      vertex -0.957263 -3.88377 2.5
      vertex -2.77163e-15 -1.6 2.5
    endloop
  endfacet
  facet normal 0.587785 0.809017 -4.14379e-16
    outer loop
      vertex 1.83031 4.11095 6.65
      vertex 1.83032 4.11096 14.95
      vertex 3.34415 3.01109 6.65
    endloop
  endfacet
  facet normal 0.587785 0.809017 -4.14379e-16
    outer loop
      vertex 3.34415 3.01109 6.65
      vertex 1.83032 4.11096 14.95
      vertex 3.34415 3.01109 14.95
    endloop
  endfacet
  facet normal 0.866026 0.5 -4.56883e-16
    outer loop
      vertex 3.34415 3.01109 6.65
      vertex 3.34415 3.01109 14.95
      vertex 4.27975 1.39058 14.95
    endloop
  endfacet
  facet normal 0.866026 0.5 -4.56883e-16
    outer loop
      vertex 4.27975 1.39058 6.65
      vertex 3.34415 3.01109 6.65
      vertex 4.27975 1.39058 14.95
    endloop
  endfacet
  facet normal 0.207911 0.978148 -3.00225e-16
    outer loop
      vertex -2.35771e-15 4.5 6.65
      vertex 9.57028e-16 4.5 14.95
      vertex 1.83031 4.11095 6.65
    endloop
  endfacet
  facet normal 0.207911 0.978148 -3.00225e-16
    outer loop
      vertex 1.83031 4.11095 6.65
      vertex 9.57028e-16 4.5 14.95
      vertex 1.83032 4.11096 14.95
    endloop
  endfacet
  facet normal -0.207911 0.978148 -1.3416e-16
    outer loop
      vertex -1.83032 4.11095 6.65
      vertex -1.83031 4.11096 14.95
      vertex -2.35771e-15 4.5 6.65
    endloop
  endfacet
  facet normal -0.207911 0.978148 -1.3416e-16
    outer loop
      vertex -2.35771e-15 4.5 6.65
      vertex -1.83031 4.11096 14.95
      vertex 9.57028e-16 4.5 14.95
    endloop
  endfacet
  facet normal -0.587785 0.809017 5.51035e-17
    outer loop
      vertex -3.34415 3.01109 6.65
      vertex -3.34415 3.01109 14.95
      vertex -1.83032 4.11095 6.65
    endloop
  endfacet
  facet normal -0.587785 0.809017 5.51035e-17
    outer loop
      vertex -1.83032 4.11095 6.65
      vertex -3.34415 3.01109 14.95
      vertex -1.83031 4.11096 14.95
    endloop
  endfacet
  facet normal -0.866026 0.5 2.34839e-16
    outer loop
      vertex -4.27975 1.39058 6.65
      vertex -4.27975 1.39058 14.95
      vertex -3.34415 3.01109 6.65
    endloop
  endfacet
  facet normal -0.866026 0.5 2.34839e-16
    outer loop
      vertex -3.34415 3.01109 6.65
      vertex -4.27975 1.39058 14.95
      vertex -3.34415 3.01109 14.95
    endloop
  endfacet
  facet normal -0.994522 0.104529 3.73968e-16
    outer loop
      vertex -4.47535 -0.470378 6.65
      vertex -4.47535 -0.470378 14.95
      vertex -4.27975 1.39058 6.65
    endloop
  endfacet
  facet normal -0.994522 0.104529 3.73968e-16
    outer loop
      vertex -4.27975 1.39058 6.65
      vertex -4.47535 -0.470378 14.95
      vertex -4.27975 1.39058 14.95
    endloop
  endfacet
  facet normal -0.951056 -0.309017 4.48435e-16
    outer loop
      vertex -3.89711 -2.25 6.65
      vertex -3.89711 -2.25 14.95
      vertex -4.47535 -0.470378 6.65
    endloop
  endfacet
  facet normal -0.951056 -0.309017 4.48435e-16
    outer loop
      vertex -4.47535 -0.470378 6.65
      vertex -3.89711 -2.25 14.95
      vertex -4.47535 -0.470378 14.95
    endloop
  endfacet
  facet normal -0.743145 -0.669131 4.45364e-16
    outer loop
      vertex -2.64503 -3.64058 6.65
      vertex -2.64503 -3.64058 14.95
      vertex -3.89711 -2.25 6.65
    endloop
  endfacet
  facet normal -0.743145 -0.669131 4.45364e-16
    outer loop
      vertex -3.89711 -2.25 6.65
      vertex -2.64503 -3.64058 14.95
      vertex -3.89711 -2.25 14.95
    endloop
  endfacet
  facet normal -0.406737 -0.913545 3.65285e-16
    outer loop
      vertex -0.935603 -4.40166 6.65
      vertex -0.935603 -4.40166 14.95
      vertex -2.64503 -3.64058 14.95
    endloop
  endfacet
  facet normal -0.406737 -0.913545 3.65285e-16
    outer loop
      vertex -2.64503 -3.64058 6.65
      vertex -0.935603 -4.40166 6.65
      vertex -2.64503 -3.64058 14.95
    endloop
  endfacet
  facet normal 9.86076e-32 -1 2.22045e-16
    outer loop
      vertex 0.935603 -4.40166 6.65
      vertex 0.935603 -4.40166 14.95
      vertex -0.935603 -4.40166 14.95
    endloop
  endfacet
  facet normal 9.86076e-32 -1 2.22045e-16
    outer loop
      vertex -0.935603 -4.40166 6.65
      vertex 0.935603 -4.40166 6.65
      vertex -0.935603 -4.40166 14.95
    endloop
  endfacet
  facet normal 0.406737 -0.913545 4.0411e-17
    outer loop
      vertex 2.64503 -3.64058 6.65
      vertex 2.64503 -3.64058 14.95
      vertex 0.935603 -4.40166 14.95
    endloop
  endfacet
  facet normal 0.406737 -0.913545 4.0411e-17
    outer loop
      vertex 0.935603 -4.40166 6.65
      vertex 2.64503 -3.64058 6.65
      vertex 0.935603 -4.40166 14.95
    endloop
  endfacet
  facet normal 0.743145 -0.669131 -1.4821e-16
    outer loop
      vertex 3.89711 -2.25 6.65
      vertex 3.89711 -2.25 14.95
      vertex 2.64503 -3.64058 14.95
    endloop
  endfacet
  facet normal 0.743145 -0.669131 -1.4821e-16
    outer loop
      vertex 2.64503 -3.64058 6.65
      vertex 3.89711 -2.25 6.65
      vertex 2.64503 -3.64058 14.95
    endloop
  endfacet
  facet normal 0.951056 -0.309017 -3.11204e-16
    outer loop
      vertex 4.47535 -0.470378 6.65
      vertex 4.47535 -0.470378 14.95
      vertex 3.89711 -2.25 14.95
    endloop
  endfacet
  facet normal 0.951056 -0.309017 -3.11204e-16
    outer loop
      vertex 3.89711 -2.25 6.65
      vertex 4.47535 -0.470378 6.65
      vertex 3.89711 -2.25 14.95
    endloop
  endfacet
  facet normal 0.994522 0.104529 -4.20388e-16
    outer loop
      vertex 4.27975 1.39058 6.65
      vertex 4.27975 1.39058 14.95
      vertex 4.47535 -0.470378 14.95
    endloop
  endfacet
  facet normal 0.994522 0.104529 -4.20388e-16
    outer loop
      vertex 4.47535 -0.470378 6.65
      vertex 4.27975 1.39058 6.65
      vertex 4.47535 -0.470378 14.95
    endloop
  endfacet
  facet normal -1 4.93038e-32 3.99366e-16
    outer loop
      vertex 1.38564 -0.8 2.5
      vertex 1.38564 -0.8 14.95
      vertex 1.38564 0.8 2.5
    endloop
  endfacet
  facet normal -1 4.93038e-32 3.99366e-16
    outer loop
      vertex 1.38564 0.8 2.5
      vertex 1.38564 -0.8 14.95
      vertex 1.38564 0.8 14.95
    endloop
  endfacet
  facet normal -0.5 -0.866025 3.91979e-16
    outer loop
      vertex 1.38564 0.8 2.5
      vertex 1.38564 0.8 14.95
      vertex 2.20048e-15 1.6 14.95
    endloop
  endfacet
  facet normal -0.5 -0.866025 3.91979e-16
    outer loop
      vertex -2.77163e-15 1.6 2.5
      vertex 1.38564 0.8 2.5
      vertex 2.20048e-15 1.6 14.95
    endloop
  endfacet
  facet normal -0.5 0.866025 7.38662e-18
    outer loop
      vertex -2.77163e-15 -1.6 2.5
      vertex 2.20048e-15 -1.6 14.95
      vertex 1.38564 -0.8 2.5
    endloop
  endfacet
  facet normal -0.5 0.866025 7.38662e-18
    outer loop
      vertex 1.38564 -0.8 2.5
      vertex 2.20048e-15 -1.6 14.95
      vertex 1.38564 -0.8 14.95
    endloop
  endfacet
  facet normal 0.5 0.866025 -3.91979e-16
    outer loop
      vertex -1.38564 -0.8 2.5
      vertex -1.38564 -0.8 14.95
      vertex -2.77163e-15 -1.6 2.5
    endloop
  endfacet
  facet normal 0.5 0.866025 -3.91979e-16
    outer loop
      vertex -2.77163e-15 -1.6 2.5
      vertex -1.38564 -0.8 14.95
      vertex 2.20048e-15 -1.6 14.95
    endloop
  endfacet
  facet normal 1 -4.93038e-32 -3.99366e-16
    outer loop
      vertex -1.38564 0.8 2.5
      vertex -1.38564 0.8 14.95
      vertex -1.38564 -0.8 14.95
    endloop
  endfacet
  facet normal 1 -4.93038e-32 -3.99366e-16
    outer loop
      vertex -1.38564 -0.8 2.5
      vertex -1.38564 0.8 2.5
      vertex -1.38564 -0.8 14.95
    endloop
  endfacet
  facet normal 0.5 -0.866025 -7.38662e-18
    outer loop
      vertex -2.77163e-15 1.6 2.5
      vertex 2.20048e-15 1.6 14.95
      vertex -1.38564 0.8 14.95
    endloop
  endfacet
  facet normal 0.5 -0.866025 -7.38662e-18
    outer loop
      vertex -1.38564 0.8 2.5
      vertex -2.77163e-15 1.6 2.5
      vertex -1.38564 0.8 14.95
    endloop
  endfacet
  facet normal 4.44089e-16 2.22045e-16 1
    outer loop
      vertex 3.34415 3.01109 14.95
      vertex 1.83032 4.11096 14.95
      vertex 9.57028e-16 4.5 14.95
    endloop
  endfacet
  facet normal 4.44089e-16 2.22045e-16 1
    outer loop
      vertex -3.34415 3.01109 14.95
      vertex 3.34415 3.01109 14.95
      vertex -1.83031 4.11096 14.95
    endloop
  endfacet
  facet normal 4.44089e-16 2.22045e-16 1
    outer loop
      vertex -1.83031 4.11096 14.95
      vertex 3.34415 3.01109 14.95
      vertex 9.57028e-16 4.5 14.95
    endloop
  endfacet
  facet normal 4.44089e-16 2.22045e-16 1
    outer loop
      vertex -4.27975 1.39058 14.95
      vertex 3.34415 3.01109 14.95
      vertex -3.34415 3.01109 14.95
    endloop
  endfacet
  facet normal 4.44089e-16 2.22045e-16 1
    outer loop
      vertex 2.20048e-15 1.6 14.95
      vertex 3.34415 3.01109 14.95
      vertex -4.27975 1.39058 14.95
    endloop
  endfacet
  facet normal 4.44089e-16 2.22045e-16 1
    outer loop
      vertex 2.20048e-15 -1.6 14.95
      vertex -1.38564 -0.8 14.95
      vertex -2.64503 -3.64058 14.95
    endloop
  endfacet
  facet normal 4.44089e-16 2.22045e-16 1
    outer loop
      vertex 2.64503 -3.64058 14.95
      vertex 3.34415 3.01109 14.95
      vertex 0.935603 -4.40166 14.95
    endloop
  endfacet
  facet normal 4.44089e-16 2.22045e-16 1
    outer loop
      vertex 3.89711 -2.25 14.95
      vertex 3.34415 3.01109 14.95
      vertex 2.64503 -3.64058 14.95
    endloop
  endfacet
  facet normal 4.44089e-16 2.22045e-16 1
    outer loop
      vertex 4.47535 -0.470378 14.95
      vertex 3.34415 3.01109 14.95
      vertex 3.89711 -2.25 14.95
    endloop
  endfacet
  facet normal 4.44089e-16 2.22045e-16 1
    outer loop
      vertex 4.27975 1.39058 14.95
      vertex 3.34415 3.01109 14.95
      vertex 4.47535 -0.470378 14.95
    endloop
  endfacet
  facet normal 4.44089e-16 2.22045e-16 1
    outer loop
      vertex 1.38564 -0.8 14.95
      vertex 2.20048e-15 -1.6 14.95
      vertex -0.935603 -4.40166 14.95
    endloop
  endfacet
  facet normal 4.44089e-16 2.22045e-16 1
    outer loop
      vertex 0.935603 -4.40166 14.95
      vertex 1.38564 -0.8 14.95
      vertex -0.935603 -4.40166 14.95
    endloop
  endfacet
  facet normal 4.44089e-16 2.22045e-16 1
    outer loop
      vertex 0.935603 -4.40166 14.95
      vertex 3.34415 3.01109 14.95
      vertex 1.38564 -0.8 14.95
    endloop
  endfacet
  facet normal 4.44089e-16 2.22045e-16 1
    outer loop
      vertex -0.935603 -4.40166 14.95
      vertex 2.20048e-15 -1.6 14.95
      vertex -2.64503 -3.64058 14.95
    endloop
  endfacet
  facet normal 4.44089e-16 2.22045e-16 1
    outer loop
      vertex -2.64503 -3.64058 14.95
      vertex -1.38564 -0.8 14.95
      vertex -3.89711 -2.25 14.95
    endloop
  endfacet
  facet normal 4.44089e-16 2.22045e-16 1
    outer loop
      vertex 1.38564 0.8 14.95
      vertex 1.38564 -0.8 14.95
      vertex 3.34415 3.01109 14.95
    endloop
  endfacet
  facet normal 4.44089e-16 2.22045e-16 1
    outer loop
      vertex -3.89711 -2.25 14.95
      vertex -1.38564 0.8 14.95
      vertex -4.47535 -0.470378 14.95
    endloop
  endfacet
  facet normal 4.44089e-16 2.22045e-16 1
    outer loop
      vertex -4.47535 -0.470378 14.95
      vertex 2.20048e-15 1.6 14.95
      vertex -4.27975 1.39058 14.95
    endloop
  endfacet
  facet normal 4.44089e-16 2.22045e-16 1
    outer loop
      vertex -1.38564 -0.8 14.95
      vertex -1.38564 0.8 14.95
      vertex -3.89711 -2.25 14.95
    endloop
  endfacet
  facet normal 4.44089e-16 2.22045e-16 1
    outer loop
      vertex -1.38564 0.8 14.95
      vertex 2.20048e-15 1.6 14.95
      vertex -4.47535 -0.470378 14.95
    endloop
  endfacet
  facet normal 4.44089e-16 2.22045e-16 1
    outer loop
      vertex 2.20048e-15 1.6 14.95
      vertex 1.38564 0.8 14.95
      vertex 3.34415 3.01109 14.95
    endloop
  endfacet
endsolid OpenSCAD_Model
